<?xml version="1.0" encoding="UTF-8" standalone="no"?>
<!-- Created with Inkscape (http://www.inkscape.org/) -->

<svg
   width="100"
   height="100"
   viewBox="0 0 26.458333 26.458333"
   version="1.1"
   id="svg1"
   inkscape:version="1.3.1 (91b66b0, 2023-11-16)"
   sodipodi:docname="Arcadia_light.svg"
   xmlns:inkscape="http://www.inkscape.org/namespaces/inkscape"
   xmlns:sodipodi="http://sodipodi.sourceforge.net/DTD/sodipodi-0.dtd"
   xmlns:xlink="http://www.w3.org/1999/xlink"
   xmlns="http://www.w3.org/2000/svg"
   xmlns:svg="http://www.w3.org/2000/svg">
  <sodipodi:namedview
     id="namedview1"
     pagecolor="#ffffff"
     bordercolor="#000000"
     borderopacity="0.25"
     inkscape:showpageshadow="2"
     inkscape:pageopacity="0.0"
     inkscape:pagecheckerboard="true"
     inkscape:deskcolor="#d1d1d1"
     inkscape:document-units="px"
     inkscape:zoom="4.3001246"
     inkscape:cx="40.580219"
     inkscape:cy="73.83507"
     inkscape:window-width="1680"
     inkscape:window-height="916"
     inkscape:window-x="0"
     inkscape:window-y="25"
     inkscape:window-maximized="0"
     inkscape:current-layer="svg1"
     showguides="true">
    <sodipodi:guide
       position="0,79.375"
       orientation="-1,0"
       id="guide1"
       inkscape:locked="false"
       inkscape:label=""
       inkscape:color="rgb(0,134,229)" />
    <sodipodi:guide
       position="26.458333,26.458333"
       orientation="0,1"
       id="guide2"
       inkscape:locked="false"
       inkscape:label=""
       inkscape:color="rgb(0,134,229)" />
    <sodipodi:guide
       position="26.458333,0"
       orientation="-1,0"
       id="guide3"
       inkscape:locked="false"
       inkscape:label=""
       inkscape:color="rgb(0,134,229)" />
    <sodipodi:guide
       position="26.458333,0"
       orientation="0,1"
       id="guide4"
       inkscape:locked="false"
       inkscape:label=""
       inkscape:color="rgb(0,134,229)" />
    <sodipodi:guide
       position="2.6458333,23.8125"
       orientation="0,1"
       id="guide5"
       inkscape:locked="false"
       inkscape:label=""
       inkscape:color="rgb(0,134,229)" />
    <sodipodi:guide
       position="2.6458333,2.6458333"
       orientation="-1,0"
       id="guide6"
       inkscape:locked="false"
       inkscape:label=""
       inkscape:color="rgb(0,134,229)" />
    <sodipodi:guide
       position="23.8125,2.6458333"
       orientation="-1,0"
       id="guide7"
       inkscape:locked="false"
       inkscape:label=""
       inkscape:color="rgb(0,134,229)" />
    <sodipodi:guide
       position="23.8125,2.6458333"
       orientation="0,1"
       id="guide8"
       inkscape:locked="false"
       inkscape:label=""
       inkscape:color="rgb(0,134,229)" />
    <sodipodi:guide
       position="5.2916666,21.166666"
       orientation="0,1"
       id="guide9"
       inkscape:locked="false"
       inkscape:label=""
       inkscape:color="rgb(0,134,229)" />
    <sodipodi:guide
       position="5.2916666,5.2916666"
       orientation="-1,0"
       id="guide10"
       inkscape:locked="false"
       inkscape:label=""
       inkscape:color="rgb(0,134,229)" />
    <sodipodi:guide
       position="21.166666,5.2916666"
       orientation="-1,0"
       id="guide11"
       inkscape:locked="false"
       inkscape:label=""
       inkscape:color="rgb(0,134,229)" />
    <sodipodi:guide
       position="21.166666,5.2916666"
       orientation="0,1"
       id="guide12"
       inkscape:locked="false"
       inkscape:label=""
       inkscape:color="rgb(0,134,229)" />
  </sodipodi:namedview>
  <defs
     id="defs1">
    <inkscape:path-effect
       effect="fillet_chamfer"
       id="path-effect7"
       is_visible="true"
       lpeversion="1"
       nodesatellites_param="F,0,0,1,0,10,0,1 @ F,0,0,1,0,10,0,1 @ F,0,0,1,0,10,0,1 @ F,0,0,1,0,10,0,1"
       radius="10"
       unit="px"
       method="auto"
       mode="F"
       chamfer_steps="1"
       flexible="false"
       use_knot_distance="true"
       apply_no_radius="true"
       apply_with_radius="true"
       only_selected="false"
       hide_knots="false" />
    <inkscape:path-effect
       effect="fillet_chamfer"
       id="path-effect5"
       is_visible="true"
       lpeversion="1"
       nodesatellites_param="F,0,0,1,0,10,0,1 @ F,0,0,1,0,10,0,1 @ F,0,0,1,0,10,0,1 @ F,0,0,1,0,10,0,1"
       radius="10"
       unit="px"
       method="auto"
       mode="F"
       chamfer_steps="1"
       flexible="false"
       use_knot_distance="true"
       apply_no_radius="true"
       apply_with_radius="true"
       only_selected="false"
       hide_knots="false" />
    <linearGradient
       id="linearGradient18"
       inkscape:collect="always">
      <stop
         style="stop-color:#ff3200;stop-opacity:1;"
         offset="0"
         id="stop18" />
      <stop
         style="stop-color:#ffc700;stop-opacity:1;"
         offset="1"
         id="stop19" />
    </linearGradient>
    <inkscape:path-effect
       effect="perspective-envelope"
       up_left_point="8.19,18.578643"
       up_right_point="18.4,18.578643"
       down_left_point="7.8873871,20.892865"
       down_right_point="18.703564,20.892865"
       id="path-effect1"
       is_visible="true"
       lpeversion="1"
       deform_type="perspective"
       horizontal_mirror="false"
       vertical_mirror="false"
       overflow_perspective="false" />
    <inkscape:path-effect
       effect="fillet_chamfer"
       id="path-effect12"
       is_visible="true"
       lpeversion="1"
       nodesatellites_param="F,0,0,1,0,0,0,1 @ F,0,0,1,0,1.3229167,0,1 @ F,0,0,1,0,0,0,1"
       radius="5"
       unit="px"
       method="auto"
       mode="F"
       chamfer_steps="1"
       flexible="false"
       use_knot_distance="true"
       apply_no_radius="true"
       apply_with_radius="true"
       only_selected="false"
       hide_knots="false" />
    <inkscape:path-effect
       effect="fillet_chamfer"
       id="path-effect10"
       is_visible="true"
       lpeversion="1"
       nodesatellites_param="F,0,0,1,0,0,0,1 @ F,0,0,1,0,1.3229167,0,1 @ F,0,0,1,0,0,0,1"
       radius="5"
       unit="px"
       method="auto"
       mode="F"
       chamfer_steps="1"
       flexible="false"
       use_knot_distance="true"
       apply_no_radius="true"
       apply_with_radius="true"
       only_selected="false"
       hide_knots="false" />
    <inkscape:path-effect
       effect="fillet_chamfer"
       id="path-effect9"
       is_visible="true"
       lpeversion="1"
       nodesatellites_param="F,0,0,1,0,0,0,1 @ F,0,0,1,0,2.38125,0,1 @ F,0,0,1,0,2.38125,0,1 @ F,0,0,1,0,2.38125,0,1 @ F,0,0,1,0,2.38125,0,1 @ F,0,0,1,0,0,0,1"
       radius="10"
       unit="px"
       method="auto"
       mode="F"
       chamfer_steps="1"
       flexible="false"
       use_knot_distance="true"
       apply_no_radius="true"
       apply_with_radius="true"
       only_selected="false"
       hide_knots="false" />
    <filter
       style="color-interpolation-filters:sRGB"
       inkscape:label="Blur"
       id="filter21"
       x="-0.20247296"
       y="-2.1063501"
       width="1.4049459"
       height="5.2127009">
      <feGaussianBlur
         stdDeviation="2 6"
         result="blur"
         id="feGaussianBlur21" />
    </filter>
    <linearGradient
       inkscape:collect="always"
       xlink:href="#linearGradient18"
       id="linearGradient19"
       x1="13.229166"
       y1="23.8125"
       x2="13.18595"
       y2="0.26988712"
       gradientUnits="userSpaceOnUse"
       gradientTransform="matrix(1.0031348,0,0,1.0031348,-0.08294148,-0.08294148)" />
    <inkscape:path-effect
       effect="fillet_chamfer"
       id="path-effect98"
       is_visible="true"
       lpeversion="1"
       nodesatellites_param="F,0,0,1,0,10,0,1 @ F,0,0,1,0,10,0,1 @ F,0,0,1,0,10,0,1 @ F,0,0,1,0,10,0,1 @ F,0,0,1,0,10,0,1 @ F,0,0,1,0,10,0,1 @ F,0,0,1,0,10,0,1 @ F,0,0,1,0,10,0,1"
       radius="10"
       unit="px"
       method="auto"
       mode="F"
       chamfer_steps="1"
       flexible="false"
       use_knot_distance="true"
       apply_no_radius="true"
       apply_with_radius="true"
       only_selected="false"
       hide_knots="false" />
    <inkscape:path-effect
       effect="fillet_chamfer"
       id="path-effect4"
       is_visible="true"
       lpeversion="1"
       nodesatellites_param="F,0,0,1,0,10,0,1 @ F,0,0,1,0,10,0,1 @ F,0,0,1,0,10,0,1 @ F,0,0,1,0,10,0,1"
       radius="10"
       unit="px"
       method="auto"
       mode="F"
       chamfer_steps="1"
       flexible="false"
       use_knot_distance="true"
       apply_no_radius="true"
       apply_with_radius="true"
       only_selected="false"
       hide_knots="false" />
    <inkscape:path-effect
       effect="fillet_chamfer"
       id="path-effect2"
       is_visible="true"
       lpeversion="1"
       nodesatellites_param="F,0,0,1,0,10,0,1 @ F,0,0,1,0,10,0,1 @ F,0,0,1,0,10,0,1 @ F,0,0,1,0,10,0,1"
       radius="10"
       unit="px"
       method="auto"
       mode="F"
       chamfer_steps="1"
       flexible="false"
       use_knot_distance="true"
       apply_no_radius="true"
       apply_with_radius="true"
       only_selected="false"
       hide_knots="false" />
    <inkscape:path-effect
       effect="fillet_chamfer"
       id="path-effect98-0"
       is_visible="true"
       lpeversion="1"
       nodesatellites_param="F,0,0,1,0,10,0,1 @ F,0,0,1,0,10,0,1 @ F,0,0,1,0,10,0,1 @ F,0,0,1,0,10,0,1 @ F,0,0,1,0,10,0,1 @ F,0,0,1,0,10,0,1 @ F,0,0,1,0,10,0,1 @ F,0,0,1,0,10,0,1"
       radius="10"
       unit="px"
       method="auto"
       mode="F"
       chamfer_steps="1"
       flexible="false"
       use_knot_distance="true"
       apply_no_radius="true"
       apply_with_radius="true"
       only_selected="false"
       hide_knots="false" />
  </defs>
  <path
     id="path1"
     style="font-variation-settings:'YROT' 45;display:inline;opacity:0.99;fill:#ffffff;stroke-width:0;stroke-linecap:round;stroke-linejoin:round;stroke-opacity:0.459575;paint-order:markers fill stroke"
     d="M 4.4098324,0 A 4.409743,4.4097428 0 0 0 0,4.4098322 v 8.8193348 8.819664 a 4.409743,4.4097428 0 0 0 4.4098324,4.409502 h 8.8193336 8.819666 a 4.409743,4.4097428 0 0 0 4.409501,-4.409502 V 13.229167 4.4098322 A 4.409743,4.4097428 0 0 0 22.048832,0 h -8.819666 z"
     inkscape:label="Icon mask" />
  <path
     id="rect17"
     style="display:inline;mix-blend-mode:multiply;fill:url(#linearGradient19);fill-opacity:1;stroke:#000000;stroke-width:0.166787;stroke-dasharray:none;stroke-opacity:0;paint-order:markers fill stroke"
     inkscape:label="Colored background"
     d="M 3.6048441,0 A 4.4235666,4.4235664 0 0 0 0,3.6048441 V 22.771065 a 4.4235666,4.4235664 0 0 0 4.3409499,3.687268 H 22.03496 A 4.4235666,4.4235664 0 0 0 26.458333,22.03496 V 13.187695 4.3409499 A 4.4235666,4.4235664 0 0 0 22.871633,0 Z" />
  <path
     id="path4"
     style="display:inline;fill:#f9f9f9;fill-opacity:1;stroke:none;stroke-opacity:0.459575;font-variation-settings:'YROT' 45;opacity:0.99;stroke-width:0;stroke-linecap:round;stroke-linejoin:round;paint-order:markers fill stroke"
     inkscape:label="Reverse icon mask"
     d="M 4.4100663 1.004617e-07 A 4.409743 4.4097428 0 0 0 -3.0024579e-07 4.4100668 L -3.0024579e-07 13.229167 L -3.0024579e-07 22.048784 A 4.409743 4.4097428 0 0 0 4.4100663 26.458333 L 13.229166 26.458333 L 22.048782 26.458333 A 4.409743 4.4097428 0 0 0 26.458332 22.048784 L 26.458332 13.229167 L 26.458332 4.4100668 A 4.409743 4.4097428 0 0 0 22.048782 1.004617e-07 L 13.229166 1.004617e-07 L 4.4100663 1.004617e-07 z M 11.913484 5.3867514 L 14.545365 5.3867514 L 18.036107 13.708207 L 14.988232 13.708207 L 13.360941 9.6495403 L 13.097908 9.6495403 L 11.470617 13.708207 L 8.4227411 13.708207 L 11.913484 5.3867514 z M 9.3968418 14.011031 L 17.062007 14.011031 L 17.098697 14.011031 C 17.116468 14.010794 17.153987 14.012903 17.171561 14.013098 C 17.217349 14.014967 17.272284 14.019545 17.317805 14.024467 C 17.499021 14.045147 17.679375 14.090269 17.849039 14.156759 C 18.098502 14.254443 18.329997 14.400706 18.52445 14.584123 C 19.04846 15.077227 19.281598 15.809404 19.138366 16.512171 C 18.996298 17.215216 18.496071 17.799699 17.820617 18.052645 C 17.145598 18.306665 16.381428 18.196788 15.806786 17.76274 C 15.746793 17.720613 15.673822 17.700044 15.601631 17.69091 C 15.567297 17.686601 15.531314 17.684723 15.496728 17.684709 C 15.489499 17.684889 10.95323 17.684346 10.949202 17.684709 C 10.942997 17.684791 10.931705 17.685002 10.925431 17.685226 C 10.90314 17.68609 10.878837 17.688135 10.856701 17.69091 C 10.784509 17.700044 10.71207 17.720627 10.652062 17.76274 C 10.087949 18.188937 9.3392864 18.302989 8.6723383 18.065047 C 8.0660576 17.850115 7.5884815 17.365241 7.3861119 16.75815 C 7.1824088 16.151465 7.2728335 15.478664 7.6289911 14.945858 C 8.0198337 14.358639 8.6881763 14.005119 9.3968418 14.011031 z M 17.125052 14.897799 C 16.967209 14.901202 16.815678 14.991299 16.744197 15.146879 C 16.693253 15.257249 16.693253 15.388426 16.744197 15.498796 C 16.853105 15.73587 17.148076 15.820785 17.367931 15.67863 C 17.48824 15.60102 17.56211 15.465611 17.561718 15.323096 C 17.56211 15.180581 17.48824 15.04467 17.367931 14.967045 C 17.292356 14.918179 17.207732 14.896016 17.125052 14.897799 z M 8.9792963 15.231629 C 8.9660243 15.231794 8.952697 15.236006 8.9410557 15.244031 C 8.9410557 15.244031 8.9399063 15.244546 8.9384719 15.245581 C 8.9384719 15.245581 8.9377939 15.246036 8.9364048 15.247131 C 8.9364048 15.247131 8.9356967 15.247527 8.9343378 15.248682 C 8.9343378 15.248682 8.9341011 15.249549 8.9327875 15.250749 C 8.9327875 15.250749 8.9319887 15.251039 8.9307204 15.252299 C 8.9307204 15.252299 8.9298613 15.253061 8.9286534 15.254366 C 8.9286534 15.254366 8.9282657 15.255083 8.9271031 15.256433 C 8.9271031 15.256433 8.926655 15.25712 8.9255528 15.2585 C 8.9255528 15.2585 8.9250443 15.259142 8.9240025 15.260567 C 8.9240025 15.260567 8.9234336 15.261179 8.9224522 15.262634 C 8.9171223 15.270704 8.9130194 15.280661 8.9116001 15.291056 C 8.9112378 15.293711 8.9110834 15.296923 8.9110834 15.300358 L 8.9110834 15.790251 C 8.9110834 15.790251 8.4178268 15.790236 8.4170567 15.790251 C 8.4143087 15.790281 8.4112277 15.790258 8.4077549 15.790768 C 8.3976537 15.792298 8.3879809 15.795881 8.3788161 15.802136 C 8.3788161 15.802136 8.3781835 15.802652 8.3767491 15.803687 C 8.3767491 15.803687 8.3760711 15.804142 8.374682 15.805237 C 8.374682 15.805237 8.3739739 15.806149 8.372615 15.807304 C 8.372615 15.807304 8.3718615 15.807654 8.3705479 15.808854 C 8.3705479 15.808854 8.3697492 15.809661 8.3684809 15.810921 C 8.3684809 15.810921 8.3681385 15.811167 8.3669306 15.812472 C 8.3669306 15.812472 8.3665429 15.813189 8.3653803 15.814539 C 8.3653803 15.814539 8.3644154 15.815226 8.3633132 15.816606 C 8.3633132 15.816606 8.3628048 15.817248 8.3617629 15.818673 C 8.3617629 15.818673 8.3611941 15.819802 8.3602126 15.821257 C 8.3548827 15.829387 8.3512966 15.838677 8.3498773 15.849162 C 8.3494969 15.852132 8.3493757 15.854579 8.3493606 15.858464 L 8.3493606 16.375228 C 8.3495267 16.388413 8.3531682 16.401387 8.3612462 16.412952 C 8.3612462 16.412952 8.3617546 16.414111 8.3627965 16.415536 C 8.3627965 16.415536 8.3632445 16.416223 8.3643467 16.417603 C 8.3643467 16.417603 8.3652512 16.417803 8.3664138 16.419153 C 8.3664138 16.419153 8.3667562 16.419915 8.3679641 16.42122 C 8.3679641 16.42122 8.3687628 16.422027 8.3700312 16.423287 C 8.3700312 16.423287 8.3707846 16.423637 8.3720982 16.424837 C 8.3720982 16.424837 8.3728064 16.425749 8.3741653 16.426904 C 8.3741653 16.426904 8.3748432 16.42736 8.3762323 16.428455 C 8.3762323 16.428455 8.376865 16.42897 8.3782994 16.430005 C 8.3782994 16.430005 8.3789018 16.43058 8.3803664 16.431555 C 8.3884897 16.43685 8.3983249 16.440481 8.4087885 16.441891 C 8.411461 16.442251 8.4146326 16.442924 8.4180902 16.442924 L 8.9110834 16.442924 L 8.9110834 16.933333 C 8.9111121 16.936063 8.9116035 16.939185 8.9121169 16.942635 C 8.913657 16.95267 8.9171895 16.962469 8.9234857 16.971574 C 8.9234857 16.971574 8.9239942 16.972216 8.925036 16.973641 C 8.925036 16.973641 8.9254841 16.974328 8.9265863 16.975708 C 8.9265863 16.975708 8.926974 16.976425 8.9281366 16.977775 C 8.9281366 16.977775 8.9289957 16.978537 8.9302037 16.979842 C 8.9302037 16.979842 8.9304856 16.980133 8.931754 16.981393 C 8.931754 16.981393 8.9325074 16.98226 8.933821 16.98346 C 8.933821 16.98346 8.9345292 16.983855 8.9358881 16.98501 C 8.9358881 16.98501 8.936566 16.985465 8.9379551 16.98656 C 8.9379551 16.98656 8.9385878 16.987075 8.9400222 16.98811 C 8.9400222 16.98811 8.9406246 16.988686 8.9420892 16.989661 C 8.9502729 16.994956 8.9599571 16.999103 8.9705113 17.000513 C 8.9735009 17.000895 8.9759024 17.001015 8.979813 17.00103 L 9.4996779 17.00103 C 9.5129499 17.000865 9.5267939 16.996652 9.5384352 16.988627 C 9.5384352 16.988627 9.5390679 16.988112 9.5405023 16.987077 C 9.5405023 16.987077 9.5411803 16.986622 9.5425694 16.985527 C 9.5425694 16.985527 9.5432775 16.985131 9.5446364 16.983976 C 9.5446364 16.983976 9.5453899 16.983109 9.5467035 16.981909 C 9.5467035 16.981909 9.5469855 16.981619 9.5482538 16.980359 C 9.5482538 16.980359 9.5491129 16.979597 9.5503208 16.978292 C 9.5503208 16.978292 9.5507085 16.977575 9.5518711 16.976225 C 9.5518711 16.976225 9.552836 16.975538 9.5539382 16.974158 C 9.5539382 16.974158 9.5544466 16.973516 9.5554885 16.972091 C 9.5554885 16.972091 9.5560573 16.971479 9.5570388 16.970024 C 9.5623687 16.961954 9.5659547 16.951997 9.567374 16.941602 C 9.5677364 16.938947 9.5678908 16.935735 9.5678908 16.9323 L 9.5678908 16.442407 L 10.061917 16.442407 C 10.064666 16.442377 10.067746 16.442401 10.071219 16.441891 C 10.08132 16.440361 10.090993 16.436777 10.100158 16.430522 C 10.100158 16.430522 10.100791 16.430006 10.102225 16.428971 C 10.102225 16.428971 10.102903 16.428516 10.104292 16.427421 C 10.104292 16.427421 10.105 16.427026 10.106359 16.425871 C 10.106359 16.425871 10.107113 16.425004 10.108426 16.423804 C 10.108426 16.423804 10.109225 16.422997 10.110493 16.421737 C 10.110493 16.421737 10.110836 16.421491 10.112044 16.420186 C 10.112044 16.420186 10.112948 16.419469 10.114111 16.418119 C 10.114111 16.418119 10.114559 16.417432 10.115661 16.416052 C 10.115661 16.416052 10.116169 16.41541 10.117211 16.413985 C 10.117211 16.413985 10.11778 16.412857 10.118762 16.411402 C 10.124091 16.403271 10.128194 16.393981 10.129614 16.383496 C 10.129994 16.380526 10.130115 16.378079 10.13013 16.374194 L 10.13013 15.857947 C 10.129964 15.844762 10.125806 15.831271 10.117728 15.819706 C 10.117728 15.819706 10.11722 15.819064 10.116178 15.817639 C 10.116178 15.817639 10.11573 15.816952 10.114627 15.815572 C 10.114627 15.815572 10.11424 15.814855 10.113077 15.813505 C 10.113077 15.813505 10.112218 15.812743 10.11101 15.811438 C 10.11101 15.811438 10.110728 15.810631 10.10946 15.809371 C 10.10946 15.809371 10.108706 15.809021 10.107393 15.807821 C 10.107393 15.807821 10.106685 15.806909 10.105326 15.805754 C 10.105326 15.805754 10.104648 15.805298 10.103259 15.804203 C 10.103259 15.804203 10.102626 15.803688 10.101192 15.802653 C 10.101192 15.802653 10.100072 15.802078 10.098608 15.801103 C 10.090485 15.795808 10.081166 15.792178 10.070702 15.790768 C 10.06803 15.790408 10.064342 15.790251 10.060884 15.790251 L 9.5678908 15.790251 L 9.5678908 15.299325 C 9.5678606 15.296595 9.5678874 15.293473 9.567374 15.290023 C 9.565834 15.279988 9.5623015 15.270189 9.5560052 15.261084 C 9.5560052 15.261084 9.5554968 15.260442 9.5544549 15.259017 C 9.5544549 15.259017 9.5540069 15.25833 9.5529046 15.25695 C 9.5529046 15.25695 9.5520002 15.256233 9.5508376 15.254883 C 9.5508376 15.254883 9.5504952 15.254121 9.5492873 15.252816 C 9.5492873 15.252816 9.5484886 15.252526 9.5472202 15.251266 C 9.5472202 15.251266 9.5464668 15.250399 9.5451532 15.249199 C 9.5451532 15.249199 9.544445 15.248803 9.5430861 15.247648 C 9.5430861 15.247648 9.5424082 15.247193 9.5410191 15.246098 C 9.5410191 15.246098 9.5403864 15.245583 9.538952 15.244548 C 9.538952 15.244548 9.5383496 15.243972 9.536885 15.242997 C 9.5287013 15.237702 9.5190171 15.233555 9.5084629 15.232145 C 9.5054736 15.231763 9.5030718 15.231644 9.4991612 15.231629 L 8.9792963 15.231629 z M 16.193843 15.674496 C 16.035996 15.677898 15.884459 15.767996 15.812987 15.923576 C 15.762044 16.033946 15.762044 16.164606 15.812987 16.274976 C 15.921911 16.51205 16.216349 16.596965 16.436205 16.45481 C 16.556514 16.37717 16.630886 16.241791 16.630509 16.099276 C 16.630901 15.956761 16.556514 15.820835 16.436205 15.743225 C 16.36063 15.69436 16.276524 15.672713 16.193843 15.674496 z M 18.056261 15.674496 C 17.898415 15.677898 17.746877 15.767996 17.675406 15.923576 C 17.624462 16.033946 17.624462 16.164606 17.675406 16.274976 C 17.78433 16.51205 18.079285 16.596965 18.299141 16.45481 C 18.419449 16.37717 18.49332 16.241791 18.492927 16.099276 C 18.49332 15.956761 18.419449 15.820835 18.299141 15.743225 C 18.223565 15.69436 18.138943 15.672713 18.056261 15.674496 z M 17.125052 16.450676 C 16.967206 16.454078 16.815668 16.544176 16.744197 16.699756 C 16.693253 16.810126 16.693253 16.940786 16.744197 17.051156 C 16.853121 17.288231 17.148076 17.373661 17.367931 17.231506 C 17.48824 17.153882 17.56211 17.017971 17.561718 16.875456 C 17.56211 16.732941 17.48824 16.597532 17.367931 16.519922 C 17.292356 16.471056 17.207733 16.448893 17.125052 16.450676 z M 6.4171788 18.489828 L 9.5399855 18.489828 L 8.4925043 21.070549 L 5.3345576 21.070549 L 6.4171788 18.489828 z M 16.918863 18.489828 L 20.04167 18.489828 L 21.124808 21.070549 L 17.966344 21.070549 L 16.918863 18.489828 z " />
  <g
     id="AG-DIGITAL"
     transform="matrix(0.01598751,0,0,0.01580713,5.5647156,5.2361971)"
     inkscape:label="Logo outline"
     style="display:none">
    <path
       style="font-size:1649px;font-family:'MS Gothic';-inkscape-font-specification:'MS Gothic, Normal';fill:none;stroke:#000000;stroke-width:12.0195;stroke-linecap:round;stroke-linejoin:round"
       inkscape:path-effect="#path-effect4"
       inkscape:original-d="m 708.49577,832.67383 65.38281,162.13281 h 197.08789 l -67.5664,-162.13281 z"
       d="m 712.23578,841.94811 57.90279,143.58425 a 14.815175,14.815175 34.018703 0 0 13.74001,9.27428 h 177.08789 a 6.6662468,6.6662468 123.6884 0 0 6.15331,-9.23055 L 907.24676,841.90438 a 15.000945,15.000945 33.688402 0 0 -13.84669,-9.23055 h -174.9043 a 6.7498357,6.7498357 124.0187 0 0 -6.25999,9.27428 z"
       id="path2"
       inkscape:label="Text lower right outline" />
    <path
       style="font-size:1649px;font-family:'MS Gothic';-inkscape-font-specification:'MS Gothic, Normal';fill:none;stroke:#000000;stroke-width:12.0195;stroke-linecap:round;stroke-linejoin:round"
       inkscape:path-effect="#path-effect2"
       inkscape:original-d="M 53.099287,832.67383 -14.467119,994.80664 H 182.62077 l 65.38281,-162.13281 z"
       d="m 49.252596,841.90438 -59.873024,143.67171 a 6.6662466,6.6662466 56.311599 0 0 6.153309,9.23055 l 177.087889,0 a 14.815175,14.815175 145.9813 0 0 13.74001,-9.27428 l 57.90279,-143.58425 a 6.7498357,6.7498357 55.981297 0 0 -6.25999,-9.27428 H 63.099287 a 15.000945,15.000945 146.3116 0 0 -13.846691,9.23055 z"
       id="path1-5"
       inkscape:label="Text lower left outline" />
    <path
       style="font-size:1649px;font-family:'MS Gothic';-inkscape-font-specification:'MS Gothic, Normal';fill:none;stroke:#000000;stroke-width:12.0195;stroke-linecap:round;stroke-linejoin:round"
       inkscape:path-effect="#path-effect98-0"
       inkscape:original-d="M 396.13054,9.546875 178.27702,532.30469 H 368.49577 L 470.03679,277.33594 h 16.42578 L 588.00358,532.30469 H 778.22233 L 560.36882,9.546875 Z"
       d="M 392.28382,18.777407 182.12374,523.07416 a 6.6662221,6.6662221 56.311696 0 0 6.15328,9.23053 h 170.21875 a 14.746327,14.746327 145.85743 0 0 13.69988,-9.29037 l 94.14126,-236.38801 a 14.746327,14.746327 145.85743 0 1 13.69988,-9.29037 12.24214,12.24214 42.536613 0 1 10.12566,9.29037 l 94.14125,236.38801 a 14.746327,14.746327 34.142569 0 0 13.69988,9.29037 h 170.21875 a 6.6662223,6.6662223 123.6883 0 0 6.15328,-9.23053 L 564.21554,18.777408 A 15.001,15.001 33.688305 0 0 550.36882,9.546875 H 406.13054 a 15.001,15.001 146.3117 0 0 -13.84672,9.230532 z"
       id="text97-5"
       inkscape:label="Text upper outline" />
    <path
       fill="none"
       stroke="#00b9d2"
       stroke-width="2.75"
       stroke-linecap="round"
       stroke-linejoin="round"
       stroke-miterlimit="10"
       d="m 601.707,278.088 c 0.026,-9.501 -4.869,-18.546 -12.837,-23.72 -14.561,-9.477 -34.081,-3.804 -41.294,12.001 -3.374,7.358 -3.374,16.081 0,23.439 7.214,15.805 26.733,21.478 41.294,12.001 7.968,-5.176 12.862,-14.22 12.837,-23.721 z"
       id="path75"
       transform="matrix(0.94229839,0,0,0.94229839,123.49883,420.44672)"
       style="stroke:#000000;stroke-width:11.3998;stroke-dasharray:none;stroke-opacity:1"
       inkscape:label="Button left" />
    <path
       fill="none"
       stroke="#00b9d2"
       stroke-width="2.75"
       stroke-linecap="round"
       stroke-linejoin="round"
       stroke-miterlimit="10"
       d="m 725.063,278.088 c 0.026,-9.501 -4.869,-18.546 -12.837,-23.72 -14.561,-9.477 -34.081,-3.804 -41.294,12.001 -3.374,7.358 -3.374,16.081 0,23.439 7.214,15.805 26.733,21.478 41.294,12.001 7.968,-5.176 12.863,-14.22 12.837,-23.721 z"
       id="path76"
       transform="matrix(0.94229839,0,0,0.94229839,123.49883,420.44672)"
       style="stroke:#000000;stroke-width:11.3998;stroke-dasharray:none;stroke-opacity:1"
       inkscape:label="Button right" />
    <path
       fill="none"
       stroke="#00b9d2"
       stroke-width="2.75"
       stroke-linecap="round"
       stroke-linejoin="round"
       stroke-miterlimit="10"
       d="m 663.385,329.842 c 0.026,-9.501 -4.869,-18.546 -12.837,-23.72 -14.561,-9.477 -34.081,-3.804 -41.294,12.001 -3.374,7.358 -3.374,16.081 0,23.439 7.214,15.805 26.733,21.478 41.294,12.001 7.968,-5.175 12.863,-14.22 12.837,-23.721 z"
       id="path81"
       transform="matrix(0.94229839,0,0,0.94229839,123.49883,420.44672)"
       style="stroke:#000000;stroke-width:11.3998;stroke-dasharray:none;stroke-opacity:1"
       inkscape:label="Button down" />
    <path
       fill="none"
       stroke="#00b9d2"
       stroke-width="2.75"
       stroke-linecap="round"
       stroke-linejoin="round"
       stroke-miterlimit="10"
       d="m 663.385,226.334 c 0.026,9.501 -4.869,18.546 -12.837,23.72 -14.561,9.477 -34.081,3.804 -41.294,-12.001 -3.374,-7.358 -3.374,-16.081 0,-23.439 7.214,-15.805 26.733,-21.478 41.294,-12.001 7.968,5.175 12.863,14.22 12.837,23.721 z"
       id="path77"
       transform="matrix(0.94229839,0,0,0.94229839,123.49883,420.44672)"
       style="stroke:#000000;stroke-width:11.3998;stroke-dasharray:none;stroke-opacity:1"
       inkscape:label="Button up" />
    <path
       fill="none"
       stroke="#00b9d2"
       stroke-width="2.75"
       stroke-linecap="round"
       stroke-linejoin="round"
       stroke-miterlimit="10"
       d="m 205.085,257.48 v -32.655 c 0,-0.229 0.018,-0.442 0.042,-0.619 0.094,-0.693 0.349,-1.34 0.702,-1.878 0.065,-0.097 0.099,-0.145 0.099,-0.145 0.069,-0.095 0.105,-0.142 0.105,-0.142 0.073,-0.092 0.11,-0.138 0.11,-0.138 0.077,-0.09 0.116,-0.134 0.116,-0.134 0.08,-0.087 0.121,-0.129 0.121,-0.129 0.084,-0.084 0.126,-0.125 0.126,-0.125 0.087,-0.08 0.131,-0.119 0.131,-0.119 0.09,-0.077 0.135,-0.114 0.135,-0.114 0.092,-0.073 0.139,-0.109 0.139,-0.109 0.095,-0.069 0.143,-0.103 0.143,-0.103 0.771,-0.535 1.665,-0.798 2.544,-0.809 0.051,0 34.431,0 34.431,0 0.259,0.001 0.421,0.017 0.619,0.042 0.699,0.094 1.336,0.349 1.878,0.702 0.097,0.065 0.145,0.099 0.145,0.099 0.095,0.069 0.142,0.105 0.142,0.105 0.092,0.073 0.138,0.11 0.138,0.11 0.09,0.077 0.134,0.116 0.134,0.116 0.087,0.08 0.129,0.121 0.129,0.121 0.084,0.084 0.125,0.126 0.125,0.126 0.08,0.087 0.119,0.131 0.119,0.131 0.077,0.09 0.114,0.135 0.114,0.135 0.073,0.092 0.109,0.139 0.109,0.139 0.069,0.095 0.103,0.143 0.103,0.143 0.417,0.607 0.658,1.254 0.76,1.923 0.034,0.23 0.047,0.439 0.049,0.621 0,0.051 0,32.705 0,32.705 h 32.655 c 0.229,0 0.442,0.018 0.619,0.042 0.693,0.094 1.34,0.349 1.878,0.702 0.097,0.065 0.145,0.099 0.145,0.099 0.095,0.069 0.142,0.105 0.142,0.105 0.092,0.073 0.138,0.111 0.138,0.111 0.09,0.077 0.134,0.116 0.134,0.116 0.087,0.08 0.129,0.121 0.129,0.121 0.084,0.084 0.124,0.126 0.124,0.126 0.08,0.087 0.119,0.131 0.119,0.131 0.077,0.09 0.114,0.135 0.114,0.135 0.073,0.092 0.109,0.139 0.109,0.139 0.069,0.095 0.103,0.143 0.103,0.143 0.535,0.771 0.798,1.665 0.809,2.544 0,0.051 0,34.431 0,34.431 -10e-4,0.259 -0.017,0.421 -0.042,0.619 -0.094,0.699 -0.349,1.336 -0.702,1.878 -0.065,0.097 -0.099,0.145 -0.099,0.145 -0.069,0.095 -0.105,0.142 -0.105,0.142 -0.073,0.092 -0.111,0.138 -0.111,0.138 -0.077,0.09 -0.116,0.134 -0.116,0.134 -0.08,0.087 -0.121,0.129 -0.121,0.129 -0.084,0.084 -0.126,0.125 -0.126,0.125 -0.087,0.08 -0.131,0.119 -0.131,0.119 -0.09,0.077 -0.135,0.114 -0.135,0.114 -0.092,0.073 -0.139,0.109 -0.139,0.109 -0.095,0.069 -0.143,0.103 -0.143,0.103 -0.607,0.417 -1.254,0.658 -1.923,0.76 -0.23,0.034 -0.439,0.047 -0.621,0.049 -0.051,0 -32.705,0 -32.705,0 v 32.655 c 0,0.229 -0.018,0.442 -0.042,0.619 -0.094,0.693 -0.349,1.34 -0.702,1.878 -0.065,0.097 -0.099,0.145 -0.099,0.145 -0.069,0.095 -0.105,0.142 -0.105,0.142 -0.073,0.092 -0.11,0.138 -0.11,0.138 -0.077,0.09 -0.116,0.134 -0.116,0.134 -0.08,0.087 -0.121,0.129 -0.121,0.129 -0.084,0.084 -0.126,0.125 -0.126,0.125 -0.087,0.08 -0.131,0.119 -0.131,0.119 -0.09,0.077 -0.135,0.114 -0.135,0.114 -0.092,0.073 -0.139,0.109 -0.139,0.109 -0.095,0.069 -0.143,0.103 -0.143,0.103 -0.771,0.535 -1.665,0.798 -2.544,0.809 -0.051,0 -34.431,0 -34.431,0 -0.259,-10e-4 -0.421,-0.017 -0.619,-0.042 -0.699,-0.094 -1.336,-0.349 -1.878,-0.702 -0.097,-0.065 -0.145,-0.099 -0.145,-0.099 -0.095,-0.069 -0.142,-0.105 -0.142,-0.105 -0.092,-0.073 -0.138,-0.11 -0.138,-0.11 -0.09,-0.077 -0.134,-0.116 -0.134,-0.116 -0.087,-0.08 -0.129,-0.121 -0.129,-0.121 -0.084,-0.084 -0.125,-0.126 -0.125,-0.126 -0.08,-0.087 -0.119,-0.131 -0.119,-0.131 -0.077,-0.09 -0.114,-0.135 -0.114,-0.135 -0.073,-0.092 -0.109,-0.139 -0.109,-0.139 -0.069,-0.095 -0.103,-0.143 -0.103,-0.143 -0.417,-0.607 -0.658,-1.254 -0.76,-1.923 -0.034,-0.23 -0.047,-0.439 -0.049,-0.621 0,-0.051 0,-32.705 0,-32.705 H 172.43 c -0.229,0 -0.442,-0.018 -0.619,-0.042 -0.693,-0.094 -1.34,-0.349 -1.878,-0.702 -0.097,-0.065 -0.145,-0.099 -0.145,-0.099 -0.095,-0.069 -0.142,-0.105 -0.142,-0.105 -0.092,-0.073 -0.138,-0.11 -0.138,-0.11 -0.09,-0.077 -0.134,-0.116 -0.134,-0.116 -0.087,-0.08 -0.129,-0.121 -0.129,-0.121 -0.084,-0.084 -0.125,-0.126 -0.125,-0.126 -0.08,-0.087 -0.119,-0.131 -0.119,-0.131 -0.077,-0.09 -0.114,-0.135 -0.114,-0.135 -0.073,-0.092 -0.109,-0.139 -0.109,-0.139 -0.069,-0.095 -0.103,-0.143 -0.103,-0.143 -0.535,-0.771 -0.798,-1.665 -0.809,-2.544 0,-0.051 0,-34.431 0,-34.431 10e-4,-0.259 0.017,-0.421 0.042,-0.619 0.094,-0.699 0.349,-1.336 0.702,-1.878 0.065,-0.097 0.099,-0.145 0.099,-0.145 0.069,-0.095 0.105,-0.142 0.105,-0.142 0.073,-0.092 0.11,-0.138 0.11,-0.138 0.077,-0.09 0.116,-0.134 0.116,-0.134 0.08,-0.087 0.121,-0.129 0.121,-0.129 0.084,-0.084 0.126,-0.125 0.126,-0.125 0.087,-0.08 0.131,-0.119 0.131,-0.119 0.09,-0.077 0.135,-0.114 0.135,-0.114 0.092,-0.073 0.139,-0.109 0.139,-0.109 0.095,-0.069 0.143,-0.103 0.143,-0.103 0.607,-0.417 1.254,-0.658 1.923,-0.76 0.23,-0.034 0.439,-0.047 0.621,-0.049 0.051,-10e-4 32.706,-10e-4 32.706,-10e-4 z"
       id="path74"
       style="stroke:#000000;stroke-width:11.3998;stroke-dasharray:none;stroke-opacity:1"
       transform="matrix(0.94229839,0,0,0.94229839,15.498822,420.44672)"
       inkscape:label="DPad" />
    <path
       fill="none"
       stroke="#00b9d2"
       stroke-width="2.75"
       stroke-linecap="round"
       stroke-linejoin="round"
       stroke-miterlimit="10"
       d="M 175.56574,138.87114 C 128.63095,138.47696 84.349412,162.04662 58.463982,201.19458 34.875729,236.715 28.918471,281.55434 42.409692,322.0001 c 13.4029,40.47272 45.0234,72.82859 85.177248,87.15743 44.17184,15.86278 93.74872,8.23585 131.10987,-20.17733 3.9743,-2.80757 8.78528,-4.1751 13.56652,-4.78402 1.46607,-0.18501 3.05207,-0.30772 4.52837,-0.36536 0.41556,-0.0149 1.18904,-0.0353 1.59995,-0.0409 0.26681,-0.0242 300.70179,0.007 301.18056,-0.005 2.29069,9.3e-4 4.67154,0.12364 6.94549,0.41091 4.78124,0.60892 9.59316,1.97552 13.56652,4.78402 38.0584,28.93658 88.68021,36.27438 133.38661,19.33971 44.73521,-16.86309 77.85339,-55.85022 87.26248,-102.71993 9.48624,-46.85112 -5.94332,-95.63221 -40.64843,-128.50589 -12.87857,-12.22781 -28.20401,-21.9976 -44.72592,-28.50987 -11.23679,-4.43262 -23.19593,-7.42705 -35.19783,-8.80573 -3.01489,-0.32817 -6.63777,-0.64705 -9.67032,-0.77162 -1.16393,-0.013 -3.67215,-0.14875 -4.8491,-0.13294 l -2.42548,-0.003 z"
       id="path80-5"
       sodipodi:nodetypes="cccccccccccccccccccc"
       style="stroke:#000000;stroke-width:11.3998;stroke-dasharray:none;stroke-opacity:1"
       transform="matrix(0.94229839,0,0,0.94229839,73.629274,420.45201)"
       inkscape:label="Controller outline" />
  </g>
</svg>
