<?xml version="1.0" encoding="UTF-8" standalone="no"?>
<!-- Created with Inkscape (http://www.inkscape.org/) -->

<svg
   width="100"
   height="100"
   viewBox="0 0 26.458333 26.458333"
   version="1.1"
   id="svg1"
   inkscape:version="1.3.1 (91b66b0, 2023-11-16)"
   sodipodi:docname="Arcadia.svg"
   xmlns:inkscape="http://www.inkscape.org/namespaces/inkscape"
   xmlns:sodipodi="http://sodipodi.sourceforge.net/DTD/sodipodi-0.dtd"
   xmlns:xlink="http://www.w3.org/1999/xlink"
   xmlns="http://www.w3.org/2000/svg"
   xmlns:svg="http://www.w3.org/2000/svg">
  <sodipodi:namedview
     id="namedview1"
     pagecolor="#ffffff"
     bordercolor="#000000"
     borderopacity="0.25"
     inkscape:showpageshadow="2"
     inkscape:pageopacity="0.0"
     inkscape:pagecheckerboard="0"
     inkscape:deskcolor="#d1d1d1"
     inkscape:document-units="px"
     inkscape:zoom="20.773609"
     inkscape:cx="98.610693"
     inkscape:cy="44.407305"
     inkscape:window-width="1680"
     inkscape:window-height="916"
     inkscape:window-x="0"
     inkscape:window-y="25"
     inkscape:window-maximized="0"
     inkscape:current-layer="svg1"
     showguides="true">
    <sodipodi:guide
       position="0,79.375"
       orientation="-1,0"
       id="guide1"
       inkscape:locked="false"
       inkscape:label=""
       inkscape:color="rgb(0,134,229)" />
    <sodipodi:guide
       position="26.458333,26.458333"
       orientation="0,1"
       id="guide2"
       inkscape:locked="false"
       inkscape:label=""
       inkscape:color="rgb(0,134,229)" />
    <sodipodi:guide
       position="26.458333,0"
       orientation="-1,0"
       id="guide3"
       inkscape:locked="false"
       inkscape:label=""
       inkscape:color="rgb(0,134,229)" />
    <sodipodi:guide
       position="26.458333,0"
       orientation="0,1"
       id="guide4"
       inkscape:locked="false"
       inkscape:label=""
       inkscape:color="rgb(0,134,229)" />
    <sodipodi:guide
       position="2.6458333,23.8125"
       orientation="0,1"
       id="guide5"
       inkscape:locked="false"
       inkscape:label=""
       inkscape:color="rgb(0,134,229)" />
    <sodipodi:guide
       position="2.6458333,2.6458333"
       orientation="-1,0"
       id="guide6"
       inkscape:locked="false"
       inkscape:label=""
       inkscape:color="rgb(0,134,229)" />
    <sodipodi:guide
       position="23.8125,2.6458333"
       orientation="-1,0"
       id="guide7"
       inkscape:locked="false"
       inkscape:label=""
       inkscape:color="rgb(0,134,229)" />
    <sodipodi:guide
       position="23.8125,2.6458333"
       orientation="0,1"
       id="guide8"
       inkscape:locked="false"
       inkscape:label=""
       inkscape:color="rgb(0,134,229)" />
    <sodipodi:guide
       position="5.2916666,21.166666"
       orientation="0,1"
       id="guide9"
       inkscape:locked="false"
       inkscape:label=""
       inkscape:color="rgb(0,134,229)" />
    <sodipodi:guide
       position="5.2916666,5.2916666"
       orientation="-1,0"
       id="guide10"
       inkscape:locked="false"
       inkscape:label=""
       inkscape:color="rgb(0,134,229)" />
    <sodipodi:guide
       position="21.166666,5.2916666"
       orientation="-1,0"
       id="guide11"
       inkscape:locked="false"
       inkscape:label=""
       inkscape:color="rgb(0,134,229)" />
    <sodipodi:guide
       position="21.166666,5.2916666"
       orientation="0,1"
       id="guide12"
       inkscape:locked="false"
       inkscape:label=""
       inkscape:color="rgb(0,134,229)" />
  </sodipodi:namedview>
  <defs
     id="defs1">
    <linearGradient
       id="linearGradient18"
       inkscape:collect="always">
      <stop
         style="stop-color:#ff3200;stop-opacity:1;"
         offset="0"
         id="stop18" />
      <stop
         style="stop-color:#ffc700;stop-opacity:0.66772658;"
         offset="1"
         id="stop19" />
    </linearGradient>
    <inkscape:path-effect
       effect="perspective-envelope"
       up_left_point="8.19,18.578643"
       up_right_point="18.4,18.578643"
       down_left_point="7.8873871,20.892865"
       down_right_point="18.703564,20.892865"
       id="path-effect1"
       is_visible="true"
       lpeversion="1"
       deform_type="perspective"
       horizontal_mirror="false"
       vertical_mirror="false"
       overflow_perspective="false" />
    <inkscape:path-effect
       effect="fillet_chamfer"
       id="path-effect12"
       is_visible="true"
       lpeversion="1"
       nodesatellites_param="F,0,0,1,0,0,0,1 @ F,0,0,1,0,1.3229167,0,1 @ F,0,0,1,0,0,0,1"
       radius="5"
       unit="px"
       method="auto"
       mode="F"
       chamfer_steps="1"
       flexible="false"
       use_knot_distance="true"
       apply_no_radius="true"
       apply_with_radius="true"
       only_selected="false"
       hide_knots="false" />
    <inkscape:path-effect
       effect="fillet_chamfer"
       id="path-effect10"
       is_visible="true"
       lpeversion="1"
       nodesatellites_param="F,0,0,1,0,0,0,1 @ F,0,0,1,0,1.3229167,0,1 @ F,0,0,1,0,0,0,1"
       radius="5"
       unit="px"
       method="auto"
       mode="F"
       chamfer_steps="1"
       flexible="false"
       use_knot_distance="true"
       apply_no_radius="true"
       apply_with_radius="true"
       only_selected="false"
       hide_knots="false" />
    <inkscape:path-effect
       effect="fillet_chamfer"
       id="path-effect9"
       is_visible="true"
       lpeversion="1"
       nodesatellites_param="F,0,0,1,0,0,0,1 @ F,0,0,1,0,2.38125,0,1 @ F,0,0,1,0,2.38125,0,1 @ F,0,0,1,0,2.38125,0,1 @ F,0,0,1,0,2.38125,0,1 @ F,0,0,1,0,0,0,1"
       radius="10"
       unit="px"
       method="auto"
       mode="F"
       chamfer_steps="1"
       flexible="false"
       use_knot_distance="true"
       apply_no_radius="true"
       apply_with_radius="true"
       only_selected="false"
       hide_knots="false" />
    <filter
       style="color-interpolation-filters:sRGB"
       inkscape:label="Blur"
       id="filter21"
       x="-0.20247296"
       y="-2.1063501"
       width="1.4049459"
       height="5.2127009">
      <feGaussianBlur
         stdDeviation="2 6"
         result="blur"
         id="feGaussianBlur21" />
    </filter>
    <filter
       inkscape:collect="always"
       style="color-interpolation-filters:sRGB"
       id="filter15"
       x="-0.018592948"
       y="-0.014108653"
       width="1.0371859"
       height="1.0282173">
      <feGaussianBlur
         inkscape:collect="always"
         stdDeviation="0.09335957"
         id="feGaussianBlur15" />
    </filter>
    <filter
       inkscape:collect="always"
       style="color-interpolation-filters:sRGB"
       id="filter16"
       x="-0.18442534"
       y="-0.13994517"
       width="1.3688507"
       height="1.2798904">
      <feGaussianBlur
         inkscape:collect="always"
         stdDeviation="0.83268348"
         id="feGaussianBlur16" />
    </filter>
    <filter
       inkscape:collect="always"
       style="color-interpolation-filters:sRGB"
       id="filter17"
       x="-0.64924902"
       y="-0.49266149"
       width="2.2984981"
       height="1.9853231">
      <feGaussianBlur
         inkscape:collect="always"
         stdDeviation="2.3339892"
         id="feGaussianBlur17" />
    </filter>
    <linearGradient
       inkscape:collect="always"
       xlink:href="#linearGradient18"
       id="linearGradient19"
       x1="13.229166"
       y1="23.8125"
       x2="13.18595"
       y2="0.26988712"
       gradientUnits="userSpaceOnUse"
       gradientTransform="matrix(1.0031348,0,0,1,-0.08294148,0)" />
    <inkscape:path-effect
       effect="fillet_chamfer"
       id="path-effect98"
       is_visible="true"
       lpeversion="1"
       nodesatellites_param="F,0,0,1,0,10,0,1 @ F,0,0,1,0,10,0,1 @ F,0,0,1,0,10,0,1 @ F,0,0,1,0,10,0,1 @ F,0,0,1,0,10,0,1 @ F,0,0,1,0,10,0,1 @ F,0,0,1,0,10,0,1 @ F,0,0,1,0,10,0,1 | F,0,0,1,0,10,0,1 @ F,0,0,1,0,10,0,1 @ F,0,0,1,0,10,0,1 @ F,0,0,1,0,10,0,1 | F,0,0,1,0,10,0,1 @ F,0,0,1,0,10,0,1 @ F,0,0,1,0,10,0,1 @ F,0,0,1,0,10,0,1"
       radius="10"
       unit="px"
       method="auto"
       mode="F"
       chamfer_steps="1"
       flexible="false"
       use_knot_distance="true"
       apply_no_radius="true"
       apply_with_radius="true"
       only_selected="false"
       hide_knots="false" />
  </defs>
  <g
     inkscape:label="Layer 1"
     inkscape:groupmode="layer"
     id="layer1">
    <path
       id="path1"
       style="font-variation-settings:'YROT' 45;display:inline;opacity:0.99;fill:#ffffff;stroke-width:0;stroke-linecap:round;stroke-linejoin:round;stroke-opacity:0.459575;paint-order:markers fill stroke"
       d="M 4.4098324,0 A 4.409743,4.4097428 0 0 0 0,4.4098322 v 8.8193348 8.819664 a 4.409743,4.4097428 0 0 0 4.4098324,4.409502 h 8.8193336 8.819666 a 4.409743,4.4097428 0 0 0 4.409501,-4.409502 V 13.229167 4.4098322 A 4.409743,4.4097428 0 0 0 22.048832,0 h -8.819666 z"
       inkscape:label="Icon mask" />
    <path
       id="rect65"
       style="display:none;fill:#1a1a1a;fill-opacity:1;stroke:#000000;stroke-width:0.206481;stroke-dasharray:none;stroke-opacity:0;paint-order:markers fill stroke"
       inkscape:label="Background"
       d="M 4.4100667,0 A 4.409743,4.4097428 0 0 0 0,4.4100667 v 8.8190993 8.819617 a 4.409743,4.4097428 0 0 0 4.4100667,4.40955 h 8.8190993 8.819617 a 4.409743,4.4097428 0 0 0 4.40955,-4.40955 V 13.229166 4.4100667 A 4.409743,4.4097428 0 0 0 22.048783,0 h -8.819617 z" />
    <use
       x="0"
       y="0"
       xlink:href="#use16"
       id="use17"
       style="display:none;filter:url(#filter17)" />
    <use
       x="0"
       y="0"
       xlink:href="#use15"
       id="use16"
       style="display:none;filter:url(#filter16)" />
    <use
       x="0"
       y="0"
       xlink:href="#g12"
       id="use15"
       style="display:none;filter:url(#filter15)"
       inkscape:label="use15" />
    <g
       id="g12"
       transform="matrix(0.86068182,0,0,0.87645249,1.8430634,1.63443)">
      <text
         xml:space="preserve"
         style="font-style:normal;font-variant:normal;font-weight:normal;font-stretch:normal;font-size:25.0231px;line-height:1.25;font-family:'Tilt Neon';-inkscape-font-specification:'Tilt Neon, Normal';font-variant-ligatures:normal;font-variant-caps:normal;font-variant-numeric:normal;font-variant-east-asian:normal;display:none;fill:#ffffff;fill-opacity:1;stroke:none;stroke-width:0;stroke-dasharray:none;stroke-opacity:1"
         x="5.4604006"
         y="21.453426"
         id="text2"
         transform="scale(0.97437462,1.0262993)"><tspan
           sodipodi:role="line"
           id="tspan1"
           style="font-style:normal;font-variant:normal;font-weight:normal;font-stretch:normal;font-size:25.0231px;font-family:'Tilt Neon';-inkscape-font-specification:'Tilt Neon, Normal';font-variant-ligatures:normal;font-variant-caps:normal;font-variant-numeric:normal;font-variant-east-asian:normal;fill:#ffffff;fill-opacity:1;stroke:none;stroke-width:0;stroke-dasharray:none;stroke-opacity:1"
           x="5.4604006"
           y="21.453426">A</tspan></text>
      <text
         xml:space="preserve"
         style="font-style:normal;font-variant:normal;font-weight:normal;font-stretch:normal;font-size:43.3236px;line-height:1.25;font-family:Giro;-inkscape-font-specification:'Giro, Normal';font-variant-ligatures:normal;font-variant-caps:normal;font-variant-numeric:normal;font-variant-east-asian:normal;display:none;fill:#ffffff;fill-opacity:1;stroke:none;stroke-width:0.225643"
         x="2.6644049"
         y="22.472569"
         id="text3"
         transform="scale(1.0011698,0.99883157)"><tspan
           sodipodi:role="line"
           style="font-style:normal;font-variant:normal;font-weight:normal;font-stretch:normal;font-size:43.3236px;font-family:Giro;-inkscape-font-specification:'Giro, Normal';font-variant-ligatures:normal;font-variant-caps:normal;font-variant-numeric:normal;font-variant-east-asian:normal;fill:#ffffff;fill-opacity:1;stroke-width:0.225643"
           x="2.6644049"
           y="22.472569"
           id="tspan3">a</tspan></text>
    </g>
  </g>
  <path
     id="rect17"
     style="display:inline;mix-blend-mode:normal;fill:url(#linearGradient19);fill-opacity:1;stroke:#000000;stroke-width:0.166526;stroke-dasharray:none;stroke-opacity:0;paint-order:markers fill stroke"
     inkscape:label="Colored overlay"
     d="M 3.6048441,0.08268229 A 4.4235666,4.4097428 0 0 0 0,3.6762613 V 22.782588 a 4.4235666,4.4097428 0 0 0 4.3409499,3.675745 H 22.03496 a 4.4235666,4.4097428 0 0 0 4.423373,-4.40955 V 13.229166 4.4100667 a 4.4235666,4.4097428 0 0 0 -3.5867,-4.32738441 z" />
  <g
     id="g1"
     inkscape:label="Logo"
     transform="matrix(0.06056154,0,0,0.06016463,12.166222,10.799045)"
     style="fill:none;stroke:none;stroke-opacity:1;fill-opacity:1">
    <path
       id="text97"
       style="font-size:1649px;font-family:'MS Gothic';-inkscape-font-specification:'MS Gothic, Normal';fill:#ffffff;stroke:none;stroke-width:12.0195;stroke-linecap:round;stroke-linejoin:round;stroke-opacity:1;fill-opacity:1"
       d="M 392.28382,18.777407 182.12374,523.07416 a 6.6662221,6.6662221 56.311696 0 0 6.15328,9.23053 h 170.21875 a 14.746327,14.746327 145.85743 0 0 13.69988,-9.29037 l 94.14126,-236.38801 a 14.746327,14.746327 145.85743 0 1 13.69988,-9.29037 12.24214,12.24214 42.536613 0 1 10.12566,9.29037 l 94.14125,236.38801 a 14.746327,14.746327 34.142569 0 0 13.69988,9.29037 h 170.21875 a 6.6662223,6.6662223 123.6883 0 0 6.15328,-9.23053 L 564.21554,18.777408 A 15.001,15.001 33.688305 0 0 550.36882,9.546875 H 406.13054 a 15.001,15.001 146.3117 0 0 -13.84672,9.230532 z M 49.252596,841.90438 -10.620428,985.57609 a 6.6662466,6.6662466 56.311599 0 0 6.153309,9.23055 l 177.087889,0 a 14.815175,14.815175 145.9813 0 0 13.74001,-9.27428 l 57.90279,-143.58425 a 6.7498357,6.7498357 55.981297 0 0 -6.25999,-9.27428 H 63.099287 a 15.000945,15.000945 146.3116 0 0 -13.846691,9.23055 z m 662.983184,0.0437 57.90279,143.58425 a 14.815175,14.815175 34.018703 0 0 13.74001,9.27428 h 177.08789 a 6.6662468,6.6662468 123.6884 0 0 6.15331,-9.23055 L 907.24676,841.90438 a 15.000945,15.000945 33.688402 0 0 -13.84669,-9.23055 h -174.9043 a 6.7498357,6.7498357 124.0187 0 0 -6.25999,9.27428 z"
       inkscape:path-effect="#path-effect98"
       inkscape:original-d="M 396.13054,9.546875 178.27702,532.30469 H 368.49577 L 470.03679,277.33594 h 16.42578 L 588.00358,532.30469 H 778.22233 L 560.36882,9.546875 Z M 53.099287,832.67383 -14.467119,994.80664 H 182.62077 l 65.38281,-162.13281 z m 655.396483,0 65.38281,162.13281 h 197.08789 l -67.5664,-162.13281 z"
       transform="matrix(0.26458333,0,0,0.26458333,-108.98011,-92.481697)" />
    <g
       id="g97"
       transform="matrix(0.24931645,0,0,0.24931645,-101.67873,-68.00191)"
       style="fill:none;stroke:none;stroke-width:11.3998;stroke-dasharray:none;stroke-opacity:1;fill-opacity:1"
       inkscape:label="g97">
      <g
         id="POLYLINE_1667_"
         transform="translate(48.85236,348.01076)"
         inkscape:label="Outline"
         style="fill:none;stroke:none;stroke-width:11.3998;stroke-dasharray:none;stroke-opacity:1;fill-opacity:1" />
      <g
         id="POLYLINE_1673_"
         transform="translate(-12.837708,348.00515)"
         inkscape:label="DPad"
         style="fill:none;stroke:none;stroke-width:11.3998;stroke-dasharray:none;stroke-opacity:1;fill-opacity:1" />
      <g
         id="g98"
         inkscape:label="Buttons"
         style="fill:none;stroke:none;stroke-width:11.3998;stroke-dasharray:none;stroke-opacity:1;fill-opacity:1">
        <path
           id="path80"
           style="fill:#ffffff;stroke:none;stroke-opacity:1;fill-opacity:1;stroke-width:11.3998;stroke-dasharray:none"
           inkscape:label="path80"
           d="M 175.56273 138.87457 C 128.62804 138.48039 84.364059 162.04833 58.478681 201.19621 C 34.890476 236.71657 28.901693 281.56977 42.392886 322.01545 C 55.79576 362.48809 87.425382 394.81293 127.57915 409.14173 C 171.75091 425.00449 221.33442 417.40109 258.69549 388.98797 C 262.66979 386.1804 267.46739 384.80821 272.24863 384.19929 C 273.7147 384.01428 275.32427 383.87797 276.80057 383.82033 C 277.21613 383.80543 277.96401 383.79148 278.37492 383.78588 C 278.64173 383.76168 579.077 383.79788 579.55577 383.78588 C 581.84644 383.78681 584.22951 383.91202 586.50346 384.19929 C 591.28468 384.80821 596.11748 386.17947 600.09082 388.98797 C 638.14914 417.92449 688.75972 425.24954 733.46602 408.31491 C 778.20115 391.45186 811.33093 352.48646 820.74002 305.61683 C 830.22624 258.76581 814.78565 209.9542 780.0806 177.0806 C 767.20205 164.85281 751.87027 155.10197 735.3484 148.58972 C 724.11163 144.1571 712.16688 141.14897 700.165 139.77029 C 697.15013 139.44212 693.51185 139.13694 690.4793 139.01237 C 689.31537 138.99937 686.83051 138.85876 685.65356 138.87457 L 683.22358 138.87457 L 175.56273 138.87457 z M 687.39904 197.99228 C 692.87489 197.87346 698.47951 199.35098 703.48484 202.6087 C 711.45283 207.78368 716.34525 216.84438 716.31925 226.34536 C 716.34525 235.84634 711.45283 244.87358 703.48484 250.04756 C 688.92387 259.52454 669.38814 253.86362 662.17515 238.05866 C 658.80116 230.70066 658.80116 221.95559 662.17515 214.59761 C 666.90933 204.2256 676.94516 198.21913 687.39904 197.99228 z M 147.90886 220.24755 L 182.3393 220.24755 C 182.5983 220.24855 182.75737 220.257 182.95535 220.282 C 183.65435 220.376 184.29574 220.65247 184.83774 221.00547 C 184.93472 221.07047 184.97464 221.10882 184.97464 221.10882 C 185.06964 221.17782 185.11154 221.21218 185.11154 221.21218 C 185.20354 221.28518 185.24844 221.31553 185.24844 221.31553 C 185.33844 221.39253 185.38534 221.41888 185.38534 221.41888 C 185.47234 221.49888 185.52224 221.55668 185.52224 221.55668 C 185.60624 221.64068 185.65914 221.66004 185.65914 221.66004 C 185.73914 221.74704 185.76181 221.79784 185.76181 221.79784 C 185.83881 221.88784 185.89871 221.93564 185.89871 221.93564 C 185.97171 222.02764 186.00139 222.07345 186.00139 222.07345 C 186.07039 222.16845 186.10406 222.21125 186.10406 222.21125 C 186.52106 222.81825 186.75502 223.4715 186.85702 224.1405 C 186.89102 224.3705 186.88924 224.57862 186.89124 224.76062 L 186.89124 257.48895 L 219.54198 257.48895 C 219.77098 257.48895 220.01526 257.4994 220.19226 257.5234 C 220.88526 257.6174 221.50241 257.85942 222.04041 258.21242 C 222.13741 258.27742 222.21154 258.31577 222.21154 258.31577 C 222.30654 258.38477 222.34844 258.41913 222.34844 258.41913 C 222.44044 258.49213 222.48534 258.52248 222.48534 258.52248 C 222.57534 258.59948 222.62224 258.66028 222.62224 258.66028 C 222.70924 258.74028 222.75914 258.76364 222.75914 258.76364 C 222.84314 258.84764 222.86182 258.90144 222.86182 258.90144 C 222.94182 258.98844 222.99872 259.03924 222.99872 259.03924 C 223.07572 259.12924 223.10139 259.17705 223.10139 259.17705 C 223.17439 259.26905 223.20407 259.31485 223.20407 259.31485 C 223.27307 259.40985 223.30674 259.45265 223.30674 259.45265 C 223.84174 260.22365 224.11715 261.12302 224.12815 262.00202 L 224.12815 296.41845 C 224.12715 296.67745 224.11892 296.84056 224.09392 297.03856 C 223.99992 297.73756 223.72819 298.35691 223.37519 298.89891 C 223.31019 298.99591 223.27252 299.07117 223.27252 299.07117 C 223.20352 299.16617 223.16984 299.20897 223.16984 299.20897 C 223.09684 299.30097 223.06717 299.34677 223.06717 299.34677 C 222.99017 299.43677 222.93027 299.48458 222.93027 299.48458 C 222.85027 299.57158 222.82759 299.58793 222.82759 299.58793 C 222.74359 299.67193 222.69069 299.72573 222.69069 299.72573 C 222.60369 299.80573 222.55379 299.86354 222.55379 299.86354 C 222.46379 299.94054 222.41689 299.96689 222.41689 299.96689 C 222.32489 300.03989 222.27999 300.07024 222.27999 300.07024 C 222.18499 300.13924 222.14309 300.17359 222.14309 300.17359 C 221.53609 300.59059 220.89548 300.82951 220.22648 300.93151 C 219.99648 300.96551 219.79243 300.96397 219.61043 300.96597 L 186.89124 300.96597 L 186.89124 333.6254 C 186.89124 333.8544 186.88102 334.06852 186.85702 334.24552 C 186.76302 334.93852 186.52551 335.60233 186.17251 336.14031 C 186.10751 336.23731 186.06984 336.27812 186.06984 336.27812 C 186.00084 336.37312 185.96716 336.41592 185.96716 336.41592 C 185.89416 336.50792 185.83026 336.55373 185.83026 336.55373 C 185.75326 336.64373 185.72759 336.69153 185.72759 336.69153 C 185.64759 336.77853 185.59069 336.82933 185.59069 336.82933 C 185.50669 336.91333 185.48801 336.93268 185.48801 336.93268 C 185.40101 337.01268 185.35111 337.07049 185.35111 337.07049 C 185.26111 337.14749 185.21421 337.17384 185.21421 337.17384 C 185.12221 337.24684 185.07731 337.27719 185.07731 337.27719 C 184.98231 337.34619 184.94041 337.38055 184.94041 337.38055 C 184.16941 337.91555 183.25253 338.19637 182.37353 338.20737 L 147.94308 338.20737 C 147.68408 338.20637 147.52503 338.19792 147.32703 338.17292 C 146.62803 338.07892 145.98665 337.80245 145.44465 337.44945 C 145.34765 337.38445 145.30775 337.3461 145.30775 337.3461 C 145.21275 337.2771 145.17085 337.24274 145.17085 337.24274 C 145.07885 337.16974 145.03395 337.13939 145.03395 337.13939 C 144.94395 337.06239 144.89705 337.03604 144.89705 337.03604 C 144.81005 336.95604 144.76015 336.89823 144.76015 336.89823 C 144.67615 336.81423 144.65747 336.79488 144.65747 336.79488 C 144.57747 336.70788 144.52057 336.65708 144.52057 336.65708 C 144.44357 336.56708 144.4179 336.51927 144.4179 336.51927 C 144.3449 336.42727 144.31522 336.38147 144.31522 336.38147 C 144.24622 336.28647 144.21255 336.24367 144.21255 336.24367 C 143.79555 335.63667 143.56159 334.98342 143.45959 334.31442 C 143.42559 334.08442 143.39314 333.8763 143.39114 333.6943 L 143.39114 301.00042 L 110.7404 301.00042 C 110.5114 301.00042 110.30135 300.95551 110.12435 300.93151 C 109.43135 300.83751 108.77997 300.5955 108.24197 300.2425 C 108.14497 300.1775 108.10507 300.13914 108.10507 300.13914 C 108.01007 300.07014 107.96817 300.03579 107.96817 300.03579 C 107.87617 299.96279 107.83127 299.93244 107.83127 299.93244 C 107.74127 299.85544 107.69437 299.79464 107.69437 299.79464 C 107.60737 299.71464 107.55747 299.69128 107.55747 299.69128 C 107.47347 299.60728 107.42057 299.55348 107.42057 299.55348 C 107.34057 299.46648 107.31789 299.41568 107.31789 299.41568 C 107.24089 299.32568 107.18099 299.31232 107.18099 299.31232 C 107.10799 299.22032 107.07832 299.17452 107.07832 299.17452 C 107.00932 299.07952 106.97564 299.00226 106.97564 299.00226 C 106.44064 298.23128 106.19946 297.36635 106.18846 296.48735 L 106.18846 262.03647 C 106.18946 261.77747 106.19769 261.61435 106.22269 261.41635 C 106.31669 260.71735 106.55419 260.09801 106.90719 259.55601 C 106.97219 259.45901 107.00987 259.38375 107.00987 259.38375 C 107.07887 259.28875 107.11254 259.24595 107.11254 259.24595 C 107.18554 259.15395 107.24944 259.10814 107.24944 259.10814 C 107.32644 259.01814 107.35212 258.97034 107.35212 258.97034 C 107.43212 258.88334 107.45479 258.86699 107.45479 258.86699 C 107.53879 258.78299 107.59169 258.72919 107.59169 258.72919 C 107.67869 258.64919 107.72859 258.62583 107.72859 258.62583 C 107.81859 258.54883 107.86549 258.48803 107.86549 258.48803 C 107.95749 258.41503 108.00239 258.38468 108.00239 258.38468 C 108.09739 258.31568 108.1393 258.28132 108.1393 258.28132 C 108.74628 257.86432 109.3869 257.6254 110.0559 257.5234 C 110.2859 257.4894 110.48995 257.49095 110.67195 257.48895 C 110.72295 257.48795 143.39114 257.48895 143.39114 257.48895 L 143.39114 224.82952 C 143.39114 224.60052 143.40137 224.3864 143.42537 224.2094 C 143.51937 223.5164 143.7911 222.8526 144.1441 222.3146 C 144.2091 222.2176 144.24677 222.1768 144.24677 222.1768 C 144.31577 222.0818 144.34945 222.039 144.34945 222.039 C 144.42245 221.947 144.45212 221.90119 144.45212 221.90119 C 144.52912 221.81119 144.5548 221.76339 144.5548 221.76339 C 144.6348 221.67639 144.6917 221.62559 144.6917 221.62559 C 144.7757 221.54159 144.8286 221.52223 144.8286 221.52223 C 144.9156 221.44223 144.93127 221.38443 144.93127 221.38443 C 145.02127 221.30743 145.06817 221.28108 145.06817 221.28108 C 145.16017 221.20808 145.20507 221.17772 145.20507 221.17772 C 145.30007 221.10872 145.3762 221.07437 145.3762 221.07437 C 146.1472 220.53937 147.02986 220.25855 147.90886 220.24755 z M 625.72542 249.77196 C 631.20137 249.65313 636.77165 251.09622 641.77699 254.35392 C 649.74497 259.52792 654.67163 268.5896 654.64563 278.09058 C 654.67063 287.59156 649.74497 296.61679 641.77699 301.79279 C 627.21601 311.26977 607.71551 305.60884 600.50152 289.80388 C 597.12753 282.4459 597.12753 273.73526 600.50152 266.37728 C 605.23505 256.00527 615.27131 249.99881 625.72542 249.77196 z M 749.07266 249.77196 C 754.54863 249.65313 760.15312 251.09622 765.15846 254.35392 C 773.12644 259.52792 778.01887 268.5896 777.99287 278.09058 C 778.01887 287.59156 773.12644 296.61679 765.15846 301.79279 C 750.59748 311.26977 731.06275 305.60884 723.84877 289.80388 C 720.47477 282.4459 720.47477 273.73526 723.84877 266.37728 C 728.58228 256.00527 738.61857 249.99881 749.07266 249.77196 z M 687.39904 301.51718 C 692.875 301.39835 698.47951 302.87588 703.48484 306.1336 C 711.45283 311.30758 716.34525 320.33482 716.31925 329.8358 C 716.34525 339.33678 711.45283 348.39748 703.48484 353.57246 C 688.92387 363.04944 669.38914 357.35408 662.17515 341.5491 C 658.80116 334.19112 658.80116 325.4805 662.17515 318.1225 C 666.90867 307.75049 676.94494 301.74403 687.39904 301.51718 z "
           transform="translate(48.852357,348.01077)" />
      </g>
    </g>
  </g>
</svg>
