<?xml version="1.0" encoding="UTF-8" standalone="no"?>
<!-- Created with Inkscape (http://www.inkscape.org/) -->

<svg
   width="300"
   height="300"
   viewBox="0 0 79.374998 79.375"
   version="1.1"
   id="svg1"
   inkscape:version="1.3.1 (91b66b0, 2023-11-16)"
   sodipodi:docname="Arcadia copia.svg"
   xmlns:inkscape="http://www.inkscape.org/namespaces/inkscape"
   xmlns:sodipodi="http://sodipodi.sourceforge.net/DTD/sodipodi-0.dtd"
   xmlns:xlink="http://www.w3.org/1999/xlink"
   xmlns="http://www.w3.org/2000/svg"
   xmlns:svg="http://www.w3.org/2000/svg">
  <sodipodi:namedview
     id="namedview1"
     pagecolor="#ffffff"
     bordercolor="#000000"
     borderopacity="0.25"
     inkscape:showpageshadow="2"
     inkscape:pageopacity="0.0"
     inkscape:pagecheckerboard="0"
     inkscape:deskcolor="#d1d1d1"
     inkscape:document-units="mm"
     inkscape:zoom="0.92031351"
     inkscape:cx="-42.920157"
     inkscape:cy="227.63982"
     inkscape:window-width="1680"
     inkscape:window-height="916"
     inkscape:window-x="0"
     inkscape:window-y="25"
     inkscape:window-maximized="1"
     inkscape:current-layer="layer1" />
  <defs
     id="defs1">
    <linearGradient
       id="linearGradient1"
       inkscape:collect="always">
      <stop
         style="stop-color:#ff6701;stop-opacity:1;"
         offset="0"
         id="stop1" />
      <stop
         style="stop-color:#ffe4b6;stop-opacity:1;"
         offset="1"
         id="stop2" />
    </linearGradient>
    <inkscape:path-effect
       effect="fillet_chamfer"
       id="path-effect12"
       is_visible="true"
       lpeversion="1"
       nodesatellites_param="F,0,0,1,0,0,0,1 @ F,0,0,1,0,1.3229167,0,1 @ F,0,0,1,0,0,0,1"
       radius="5"
       unit="px"
       method="auto"
       mode="F"
       chamfer_steps="1"
       flexible="false"
       use_knot_distance="true"
       apply_no_radius="true"
       apply_with_radius="true"
       only_selected="false"
       hide_knots="false" />
    <inkscape:path-effect
       effect="fillet_chamfer"
       id="path-effect10"
       is_visible="true"
       lpeversion="1"
       nodesatellites_param="F,0,0,1,0,0,0,1 @ F,0,0,1,0,1.3229167,0,1 @ F,0,0,1,0,0,0,1"
       radius="5"
       unit="px"
       method="auto"
       mode="F"
       chamfer_steps="1"
       flexible="false"
       use_knot_distance="true"
       apply_no_radius="true"
       apply_with_radius="true"
       only_selected="false"
       hide_knots="false" />
    <inkscape:path-effect
       effect="fillet_chamfer"
       id="path-effect9"
       is_visible="true"
       lpeversion="1"
       nodesatellites_param="F,0,0,1,0,0,0,1 @ F,0,0,1,0,2.38125,0,1 @ F,0,0,1,0,2.38125,0,1 @ F,0,0,1,0,2.38125,0,1 @ F,0,0,1,0,2.38125,0,1 @ F,0,0,1,0,0,0,1"
       radius="10"
       unit="px"
       method="auto"
       mode="F"
       chamfer_steps="1"
       flexible="false"
       use_knot_distance="true"
       apply_no_radius="true"
       apply_with_radius="true"
       only_selected="false"
       hide_knots="false" />
    <filter
       style="color-interpolation-filters:sRGB;"
       inkscape:label="Blur"
       id="filter21"
       x="-0.20247296"
       y="-2.1063501"
       width="1.4049459"
       height="5.2127009">
      <feGaussianBlur
         stdDeviation="2 6"
         result="blur"
         id="feGaussianBlur21" />
    </filter>
    <linearGradient
       inkscape:collect="always"
       xlink:href="#linearGradient1"
       id="linearGradient2"
       x1="40.701508"
       y1="79.141815"
       x2="39.409397"
       y2="-23.096491"
       gradientUnits="userSpaceOnUse" />
  </defs>
  <g
     inkscape:label="Layer 1"
     inkscape:groupmode="layer"
     id="layer1">
    <rect
       style="fill:url(#linearGradient2);fill-opacity:1;stroke:#000000;stroke-width:0.506;stroke-dasharray:none;stroke-opacity:0;paint-order:markers fill stroke"
       id="rect65"
       width="80.585396"
       height="79.953354"
       x="-0.31602114"
       y="-0.31602114"
       inkscape:label="rect65" />
    <g
       id="g65"
       inkscape:label="Joystick"
       transform="matrix(1.276485,0,0,1.276485,-10.953715,-8.812801)"
       style="stroke:#ffffff;stroke-opacity:1;stroke-width:0.62182478;stroke-dasharray:none">
      <g
         id="g22"
         inkscape:label="Base"
         style="stroke:#ffffff;stroke-opacity:1;stroke-width:0.62182478;stroke-dasharray:none">
        <path
           style="fill:#1a1a1a;fill-opacity:0;stroke:#ffffff;stroke-width:0.62182478;stroke-linecap:round;stroke-linejoin:round;stroke-dasharray:none;stroke-opacity:1"
           d="m 24.257994,55.813658 0.845459,5.185684 a 1.5560683,1.5560683 40.370066 0 0 1.535791,1.305677 l 12.922531,0"
           id="path10"
           sodipodi:nodetypes="ccc"
           inkscape:label="Bottom shape left"
           inkscape:original-d="m 24.257994,55.813658 1.058333,6.491361 h 14.245448"
           inkscape:path-effect="#path-effect10" />
        <path
           style="fill:#1a1a1a;fill-opacity:0;stroke:#ffffff;stroke-width:0.62182478;stroke-linecap:round;stroke-linejoin:round;stroke-dasharray:none;stroke-opacity:1"
           d="m 24.257994,55.813658 0.845459,5.185684 a 1.5560683,1.5560683 40.370066 0 0 1.535791,1.305677 l 12.922531,0"
           id="path11"
           sodipodi:nodetypes="ccc"
           transform="matrix(-1,0,0,1,79.344787,0)"
           inkscape:label="Bottom shape right"
           inkscape:original-d="m 24.257994,55.813658 1.058333,6.491361 h 14.245448"
           inkscape:path-effect="#path-effect12" />
        <path
           id="rect9"
           style="fill:#1a1a1a;fill-opacity:0;stroke:#ffffff;stroke-width:0.62182478;stroke-linecap:round;stroke-linejoin:round;stroke-opacity:1;stroke-dasharray:none"
           d="m 43.12138,32.967606 h 7.163614 a 2.6472098,2.6472098 41.972396 0 1 2.63244,2.367964 l 2.143453,20.206277 a 2.1420107,2.1420107 131.9724 0 1 -2.13006,2.367964 H 26.444173 a 2.1420107,2.1420107 48.027604 0 1 -2.13006,-2.367964 L 26.457566,35.33557 a 2.6472098,2.6472098 138.0276 0 1 2.63244,-2.367964 h 7.057306"
           sodipodi:nodetypes="cccccc"
           inkscape:label="Top shape"
           inkscape:original-d="m 43.12138,32.967606 h 9.544864 l 2.645833,24.942205 H 24.062923 l 2.645833,-24.942205 h 9.438556"
           inkscape:path-effect="#path-effect9" />
      </g>
      <g
         id="g23"
         inkscape:label="Joystick"
         transform="matrix(1.0001051,0,0,0.9898235,-0.00416937,0.51174985)"
         style="stroke:#ffffff;stroke-opacity:1;stroke-width:0.62498029;stroke-dasharray:none">
        <path
           style="fill:#1a1a1a;fill-opacity:0;stroke:#ffffff;stroke-width:0.62498029;stroke-linecap:round;stroke-linejoin:round;stroke-dasharray:none;stroke-opacity:1"
           d="m 43.074736,24.277578 -0.01861,16.246657 c -0.01861,1.245879 -1.527909,2.340775 -3.389732,2.340775 -1.861822,0 -3.371128,-1.094896 -3.366117,-2.364752 l 0.005,-15.934973"
           id="path5"
           sodipodi:nodetypes="ccscc"
           inkscape:label="Joytstick stick shape" />
        <path
           id="path6"
           style="fill:#ff0000;fill-opacity:0;stroke:#ffffff;stroke-width:0.62498029;stroke-opacity:1;stroke-dasharray:none"
           d="m 36.403751,40.23141 c -0.294535,0.174716 -0.560324,0.3929 -0.783228,0.66605 -0.60377,0.837345 -0.0024,2.022369 0.949375,2.349486 1.674735,0.792674 3.668959,0.755216 5.44555,0.315922 0.881839,-0.241784 1.864424,-0.809029 1.976798,-1.74402 0.04846,-0.679021 -0.406155,-1.246054 -0.996443,-1.591823"
           sodipodi:nodetypes="cccccc"
           inkscape:label="1st base circle" />
        <path
           id="path7"
           style="fill:#1a1a1a;fill-opacity:0;stroke:#ffffff;stroke-width:0.62498029;stroke-opacity:1;stroke-dasharray:none"
           d="m 36.377566,40.029532 c -0.568354,0.255828 -1.07717,0.611596 -1.471717,1.101904 -0.921437,1.155238 -0.252289,2.935792 1.065309,3.548703 2.220722,1.039794 4.91527,1.023509 7.181725,0.118721 1.136826,-0.516915 2.051695,-1.753401 1.644377,-2.964936 -0.2581,-0.844266 -0.956582,-1.433306 -1.776728,-1.803857"
           sodipodi:nodetypes="cccccc"
           inkscape:label="2nd base circle" />
        <path
           id="path8"
           style="fill:#1a1a1a;fill-opacity:0;stroke:#ffffff;stroke-width:0.62498029;stroke-opacity:1;stroke-dasharray:none"
           d="m 36.388498,39.983147 c -0.957554,0.352436 -1.810038,0.906958 -2.376636,1.727845 -1.091816,1.67269 0.0094,4.06302 1.978221,4.664013 2.581435,1.013618 5.69501,0.923434 8.1406,-0.369803 1.374768,-0.842762 2.142214,-2.636684 1.335173,-4.044195 -0.482289,-0.957749 -1.405791,-1.59816 -2.450079,-1.980617"
           sodipodi:nodetypes="cccccc"
           inkscape:label="3rd base circle" />
        <path
           id="path9"
           style="fill:#1a1a1a;fill-opacity:0;stroke:#ffffff;stroke-width:0.62498029;stroke-opacity:1;stroke-dasharray:none"
           d="m 36.398992,38.983325 c -1.571646,0.493455 -2.999555,1.408605 -3.901266,2.795333 -1.618927,2.56059 -0.286145,6.323202 2.511391,7.459597 3.207728,1.396477 7.14885,1.362167 10.1621,-0.496535 2.233204,-1.36179 3.08866,-4.507087 1.811617,-6.776194 -0.83958,-1.464123 -2.300118,-2.461916 -3.906529,-2.96853"
           sodipodi:nodetypes="cccccc"
           inkscape:label="4th base circle" />
      </g>
      <g
         id="g21"
         inkscape:label="Button"
         style="stroke:#ffffff;stroke-opacity:1;stroke-width:0.62182478;stroke-dasharray:none">
        <path
           id="path2-1-0"
           style="fill:#1a1a1a;fill-opacity:0;stroke:#ffffff;stroke-width:0.62182478;stroke-dasharray:none;stroke-opacity:1"
           d="m 51.420429,36.170833 c 0,0.810884 -1.470462,1.468234 -3.284365,1.468234 -1.813907,0 -3.284369,-0.65735 -3.284369,-1.468234 0,-0.810882 1.470462,-1.468235 3.284369,-1.468235 1.813903,0 3.284365,0.657353 3.284365,1.468235 z"
           sodipodi:nodetypes="sssss" />
        <path
           style="fill:none;fill-opacity:1;stroke:#ffffff;stroke-width:0.62182478;stroke-linecap:round;stroke-linejoin:round;stroke-dasharray:none;stroke-opacity:1"
           d="m 51.455791,36.130882 -0.0035,1.170032 c -0.0035,0.796178 -1.473949,1.453527 -3.287852,1.453527 -1.813907,0 -3.284369,-0.657349 -3.300977,-1.486215 l -0.03405,-1.032514"
           id="path209"
           sodipodi:nodetypes="ccscc" />
      </g>
      <g
         id="g64"
         inkscape:label="Ball"
         transform="translate(0,-0.41454985)"
         style="stroke:#ffffff;stroke-opacity:1;stroke-width:0.62182478;stroke-dasharray:none">
        <ellipse
           style="fill:#ff0000;fill-opacity:0;stroke:#ffffff;stroke-width:0.62182478;stroke-linecap:round;stroke-linejoin:round;stroke-dasharray:none;stroke-opacity:1"
           id="path210"
           cx="39.6875"
           cy="19.809944"
           rx="6.4058003"
           ry="6.1366496"
           inkscape:label="Ball" />
      </g>
    </g>
  </g>
</svg>
