<?xml version="1.0" encoding="UTF-8" standalone="no"?>
<!-- Created with Inkscape (http://www.inkscape.org/) -->

<svg
   width="100"
   height="100"
   viewBox="0 0 26.458333 26.458333"
   version="1.1"
   id="svg1"
   inkscape:version="1.3.1 (91b66b0, 2023-11-16)"
   sodipodi:docname="Arcadia_light.svg"
   xmlns:inkscape="http://www.inkscape.org/namespaces/inkscape"
   xmlns:sodipodi="http://sodipodi.sourceforge.net/DTD/sodipodi-0.dtd"
   xmlns:xlink="http://www.w3.org/1999/xlink"
   xmlns="http://www.w3.org/2000/svg"
   xmlns:svg="http://www.w3.org/2000/svg">
  <sodipodi:namedview
     id="namedview1"
     pagecolor="#ffffff"
     bordercolor="#000000"
     borderopacity="0.25"
     inkscape:showpageshadow="2"
     inkscape:pageopacity="0.0"
     inkscape:pagecheckerboard="0"
     inkscape:deskcolor="#d1d1d1"
     inkscape:document-units="px"
     inkscape:zoom="3.5053843"
     inkscape:cx="33.805138"
     inkscape:cy="69.749842"
     inkscape:window-width="1680"
     inkscape:window-height="916"
     inkscape:window-x="0"
     inkscape:window-y="25"
     inkscape:window-maximized="0"
     inkscape:current-layer="svg1"
     showguides="true">
    <sodipodi:guide
       position="0,79.375"
       orientation="-1,0"
       id="guide1"
       inkscape:locked="false"
       inkscape:label=""
       inkscape:color="rgb(0,134,229)" />
    <sodipodi:guide
       position="26.458333,26.458333"
       orientation="0,1"
       id="guide2"
       inkscape:locked="false"
       inkscape:label=""
       inkscape:color="rgb(0,134,229)" />
    <sodipodi:guide
       position="26.458333,0"
       orientation="-1,0"
       id="guide3"
       inkscape:locked="false"
       inkscape:label=""
       inkscape:color="rgb(0,134,229)" />
    <sodipodi:guide
       position="26.458333,0"
       orientation="0,1"
       id="guide4"
       inkscape:locked="false"
       inkscape:label=""
       inkscape:color="rgb(0,134,229)" />
    <sodipodi:guide
       position="2.6458333,23.8125"
       orientation="0,1"
       id="guide5"
       inkscape:locked="false"
       inkscape:label=""
       inkscape:color="rgb(0,134,229)" />
    <sodipodi:guide
       position="2.6458333,2.6458333"
       orientation="-1,0"
       id="guide6"
       inkscape:locked="false"
       inkscape:label=""
       inkscape:color="rgb(0,134,229)" />
    <sodipodi:guide
       position="23.8125,2.6458333"
       orientation="-1,0"
       id="guide7"
       inkscape:locked="false"
       inkscape:label=""
       inkscape:color="rgb(0,134,229)" />
    <sodipodi:guide
       position="23.8125,2.6458333"
       orientation="0,1"
       id="guide8"
       inkscape:locked="false"
       inkscape:label=""
       inkscape:color="rgb(0,134,229)" />
    <sodipodi:guide
       position="5.2916666,21.166666"
       orientation="0,1"
       id="guide9"
       inkscape:locked="false"
       inkscape:label=""
       inkscape:color="rgb(0,134,229)" />
    <sodipodi:guide
       position="5.2916666,5.2916666"
       orientation="-1,0"
       id="guide10"
       inkscape:locked="false"
       inkscape:label=""
       inkscape:color="rgb(0,134,229)" />
    <sodipodi:guide
       position="21.166666,5.2916666"
       orientation="-1,0"
       id="guide11"
       inkscape:locked="false"
       inkscape:label=""
       inkscape:color="rgb(0,134,229)" />
    <sodipodi:guide
       position="21.166666,5.2916666"
       orientation="0,1"
       id="guide12"
       inkscape:locked="false"
       inkscape:label=""
       inkscape:color="rgb(0,134,229)" />
  </sodipodi:namedview>
  <defs
     id="defs1">
    <inkscape:path-effect
       effect="fillet_chamfer"
       id="path-effect11"
       is_visible="true"
       lpeversion="1"
       nodesatellites_param="F,0,0,1,0,10,0,1 @ F,0,0,1,0,10,0,1 @ F,0,0,1,0,10,0,1 @ F,0,0,1,0,10,0,1 @ F,0,0,1,0,10,0,1 @ F,0,0,1,0,10,0,1 @ F,0,0,1,0,10,0,1 @ F,0,0,1,0,10,0,1 | F,0,0,1,0,10,0,1 @ F,0,0,1,0,10,0,1 @ F,0,0,1,0,10,0,1 @ F,0,0,1,0,10,0,1 | F,0,0,1,0,10,0,1 @ F,0,0,1,0,10,0,1 @ F,0,0,1,0,10,0,1 @ F,0,0,1,0,10,0,1"
       radius="10"
       unit="px"
       method="auto"
       mode="F"
       chamfer_steps="1"
       flexible="false"
       use_knot_distance="true"
       apply_no_radius="true"
       apply_with_radius="true"
       only_selected="false"
       hide_knots="false" />
    <linearGradient
       id="linearGradient18"
       inkscape:collect="always">
      <stop
         style="stop-color:#ff3200;stop-opacity:1;"
         offset="0"
         id="stop18" />
      <stop
         style="stop-color:#ffc700;stop-opacity:0.66772658;"
         offset="1"
         id="stop19" />
    </linearGradient>
    <inkscape:path-effect
       effect="perspective-envelope"
       up_left_point="8.19,18.578643"
       up_right_point="18.4,18.578643"
       down_left_point="7.8873871,20.892865"
       down_right_point="18.703564,20.892865"
       id="path-effect1"
       is_visible="true"
       lpeversion="1"
       deform_type="perspective"
       horizontal_mirror="false"
       vertical_mirror="false"
       overflow_perspective="false" />
    <inkscape:path-effect
       effect="fillet_chamfer"
       id="path-effect12"
       is_visible="true"
       lpeversion="1"
       nodesatellites_param="F,0,0,1,0,0,0,1 @ F,0,0,1,0,1.3229167,0,1 @ F,0,0,1,0,0,0,1"
       radius="5"
       unit="px"
       method="auto"
       mode="F"
       chamfer_steps="1"
       flexible="false"
       use_knot_distance="true"
       apply_no_radius="true"
       apply_with_radius="true"
       only_selected="false"
       hide_knots="false" />
    <inkscape:path-effect
       effect="fillet_chamfer"
       id="path-effect10"
       is_visible="true"
       lpeversion="1"
       nodesatellites_param="F,0,0,1,0,0,0,1 @ F,0,0,1,0,1.3229167,0,1 @ F,0,0,1,0,0,0,1"
       radius="5"
       unit="px"
       method="auto"
       mode="F"
       chamfer_steps="1"
       flexible="false"
       use_knot_distance="true"
       apply_no_radius="true"
       apply_with_radius="true"
       only_selected="false"
       hide_knots="false" />
    <inkscape:path-effect
       effect="fillet_chamfer"
       id="path-effect9"
       is_visible="true"
       lpeversion="1"
       nodesatellites_param="F,0,0,1,0,0,0,1 @ F,0,0,1,0,2.38125,0,1 @ F,0,0,1,0,2.38125,0,1 @ F,0,0,1,0,2.38125,0,1 @ F,0,0,1,0,2.38125,0,1 @ F,0,0,1,0,0,0,1"
       radius="10"
       unit="px"
       method="auto"
       mode="F"
       chamfer_steps="1"
       flexible="false"
       use_knot_distance="true"
       apply_no_radius="true"
       apply_with_radius="true"
       only_selected="false"
       hide_knots="false" />
    <filter
       style="color-interpolation-filters:sRGB"
       inkscape:label="Blur"
       id="filter21"
       x="-0.20247296"
       y="-2.1063501"
       width="1.4049459"
       height="5.2127009">
      <feGaussianBlur
         stdDeviation="2 6"
         result="blur"
         id="feGaussianBlur21" />
    </filter>
    <filter
       inkscape:collect="always"
       style="color-interpolation-filters:sRGB"
       id="filter15"
       x="-0.018592948"
       y="-0.014108653"
       width="1.0371859"
       height="1.0282173">
      <feGaussianBlur
         inkscape:collect="always"
         stdDeviation="0.09335957"
         id="feGaussianBlur15" />
    </filter>
    <filter
       inkscape:collect="always"
       style="color-interpolation-filters:sRGB"
       id="filter16"
       x="-0.18442534"
       y="-0.13994517"
       width="1.3688507"
       height="1.2798904">
      <feGaussianBlur
         inkscape:collect="always"
         stdDeviation="0.83268348"
         id="feGaussianBlur16" />
    </filter>
    <filter
       inkscape:collect="always"
       style="color-interpolation-filters:sRGB"
       id="filter17"
       x="-0.64924902"
       y="-0.49266149"
       width="2.2984981"
       height="1.9853231">
      <feGaussianBlur
         inkscape:collect="always"
         stdDeviation="2.3339892"
         id="feGaussianBlur17" />
    </filter>
    <linearGradient
       inkscape:collect="always"
       xlink:href="#linearGradient18"
       id="linearGradient19"
       x1="13.229166"
       y1="23.8125"
       x2="13.18595"
       y2="0.26988712"
       gradientUnits="userSpaceOnUse" />
    <inkscape:path-effect
       effect="fillet_chamfer"
       id="path-effect98"
       is_visible="true"
       lpeversion="1"
       nodesatellites_param="F,0,0,1,0,10,0,1 @ F,0,0,1,0,10,0,1 @ F,0,0,1,0,10,0,1 @ F,0,0,1,0,10,0,1 @ F,0,0,1,0,10,0,1 @ F,0,0,1,0,10,0,1 @ F,0,0,1,0,10,0,1 @ F,0,0,1,0,10,0,1 | F,0,0,1,0,10,0,1 @ F,0,0,1,0,10,0,1 @ F,0,0,1,0,10,0,1 @ F,0,0,1,0,10,0,1 | F,0,0,1,0,10,0,1 @ F,0,0,1,0,10,0,1 @ F,0,0,1,0,10,0,1 @ F,0,0,1,0,10,0,1"
       radius="10"
       unit="px"
       method="auto"
       mode="F"
       chamfer_steps="1"
       flexible="false"
       use_knot_distance="true"
       apply_no_radius="true"
       apply_with_radius="true"
       only_selected="false"
       hide_knots="false" />
  </defs>
  <g
     inkscape:label="Layer 1"
     inkscape:groupmode="layer"
     id="layer1">
    <path
       id="path1"
       style="font-variation-settings:'YROT' 45;display:inline;opacity:0.99;fill:#ffffff;stroke-width:0;stroke-linecap:round;stroke-linejoin:round;stroke-opacity:0.459575;paint-order:markers fill stroke"
       d="M 4.4098324,0 A 4.409743,4.4097428 0 0 0 0,4.4098322 v 8.8193348 8.819664 a 4.409743,4.4097428 0 0 0 4.4098324,4.409502 h 8.8193336 8.819666 a 4.409743,4.4097428 0 0 0 4.409501,-4.409502 V 13.229167 4.4098322 A 4.409743,4.4097428 0 0 0 22.048832,0 h -8.819666 z"
       inkscape:label="Icon mask" />
    <path
       id="rect65"
       style="display:none;fill:#1a1a1a;fill-opacity:1;stroke:#000000;stroke-width:0.206481;stroke-dasharray:none;stroke-opacity:0;paint-order:markers fill stroke"
       inkscape:label="Background"
       d="M 4.4100667,0 A 4.409743,4.4097428 0 0 0 0,4.4100667 v 8.8190993 8.819617 a 4.409743,4.4097428 0 0 0 4.4100667,4.40955 h 8.8190993 8.819617 a 4.409743,4.4097428 0 0 0 4.40955,-4.40955 V 13.229166 4.4100667 A 4.409743,4.4097428 0 0 0 22.048783,0 h -8.819617 z" />
    <use
       x="0"
       y="0"
       xlink:href="#use16"
       id="use17"
       style="display:none;filter:url(#filter17)" />
    <use
       x="0"
       y="0"
       xlink:href="#use15"
       id="use16"
       style="display:none;filter:url(#filter16)" />
    <use
       x="0"
       y="0"
       xlink:href="#g12"
       id="use15"
       style="display:none;filter:url(#filter15)"
       inkscape:label="use15" />
    <g
       id="g12"
       transform="matrix(0.86068182,0,0,0.87645249,1.8430634,1.63443)">
      <text
         xml:space="preserve"
         style="font-style:normal;font-variant:normal;font-weight:normal;font-stretch:normal;font-size:25.0231px;line-height:1.25;font-family:'Tilt Neon';-inkscape-font-specification:'Tilt Neon, Normal';font-variant-ligatures:normal;font-variant-caps:normal;font-variant-numeric:normal;font-variant-east-asian:normal;display:none;fill:#ffffff;fill-opacity:1;stroke:none;stroke-width:0;stroke-dasharray:none;stroke-opacity:1"
         x="5.4604006"
         y="21.453426"
         id="text2"
         transform="scale(0.97437462,1.0262993)"><tspan
           sodipodi:role="line"
           id="tspan1"
           style="font-style:normal;font-variant:normal;font-weight:normal;font-stretch:normal;font-size:25.0231px;font-family:'Tilt Neon';-inkscape-font-specification:'Tilt Neon, Normal';font-variant-ligatures:normal;font-variant-caps:normal;font-variant-numeric:normal;font-variant-east-asian:normal;fill:#ffffff;fill-opacity:1;stroke:none;stroke-width:0;stroke-dasharray:none;stroke-opacity:1"
           x="5.4604006"
           y="21.453426">A</tspan></text>
      <text
         xml:space="preserve"
         style="font-style:normal;font-variant:normal;font-weight:normal;font-stretch:normal;font-size:43.3236px;line-height:1.25;font-family:Giro;-inkscape-font-specification:'Giro, Normal';font-variant-ligatures:normal;font-variant-caps:normal;font-variant-numeric:normal;font-variant-east-asian:normal;display:none;fill:#ffffff;fill-opacity:1;stroke:none;stroke-width:0.225643"
         x="2.6644049"
         y="22.472569"
         id="text3"
         transform="scale(1.0011698,0.99883157)"><tspan
           sodipodi:role="line"
           style="font-style:normal;font-variant:normal;font-weight:normal;font-stretch:normal;font-size:43.3236px;font-family:Giro;-inkscape-font-specification:'Giro, Normal';font-variant-ligatures:normal;font-variant-caps:normal;font-variant-numeric:normal;font-variant-east-asian:normal;fill:#ffffff;fill-opacity:1;stroke-width:0.225643"
           x="2.6644049"
           y="22.472569"
           id="tspan3">a</tspan></text>
    </g>
    <g
       id="g1"
       inkscape:label="Logo"
       transform="matrix(0.06056154,0,0,0.06016463,12.166222,10.799045)"
       style="fill:none;stroke:none;stroke-opacity:1;fill-opacity:1">
      <path
         id="text97"
         style="font-size:1649px;font-family:'MS Gothic';-inkscape-font-specification:'MS Gothic, Normal';display:inline;fill:#ffffff;fill-opacity:1;stroke:none;stroke-width:12.0195;stroke-linecap:round;stroke-linejoin:round;stroke-opacity:1"
         d="M 392.28382,18.777407 182.12374,523.07416 a 6.6662221,6.6662221 56.311696 0 0 6.15328,9.23053 h 170.21875 a 14.746327,14.746327 145.85743 0 0 13.69988,-9.29037 l 94.14126,-236.38801 a 14.746327,14.746327 145.85743 0 1 13.69988,-9.29037 12.24214,12.24214 42.536613 0 1 10.12566,9.29037 l 94.14125,236.38801 a 14.746327,14.746327 34.142569 0 0 13.69988,9.29037 h 170.21875 a 6.6662223,6.6662223 123.6883 0 0 6.15328,-9.23053 L 564.21554,18.777408 A 15.001,15.001 33.688305 0 0 550.36882,9.546875 H 406.13054 a 15.001,15.001 146.3117 0 0 -13.84672,9.230532 z M 49.252596,841.90438 -10.620428,985.57609 a 6.6662466,6.6662466 56.311599 0 0 6.153309,9.23055 l 177.087889,0 a 14.815175,14.815175 145.9813 0 0 13.74001,-9.27428 l 57.90279,-143.58425 a 6.7498357,6.7498357 55.981297 0 0 -6.25999,-9.27428 H 63.099287 a 15.000945,15.000945 146.3116 0 0 -13.846691,9.23055 z m 662.983184,0.0437 57.90279,143.58425 a 14.815175,14.815175 34.018703 0 0 13.74001,9.27428 h 177.08789 a 6.6662468,6.6662468 123.6884 0 0 6.15331,-9.23055 L 907.24676,841.90438 a 15.000945,15.000945 33.688402 0 0 -13.84669,-9.23055 h -174.9043 a 6.7498357,6.7498357 124.0187 0 0 -6.25999,9.27428 z"
         transform="matrix(0.26458333,0,0,0.26458333,-108.98011,-92.481697)"
         inkscape:original-d="M 396.13054,9.546875 178.27702,532.30469 H 368.49577 L 470.03679,277.33594 h 16.42578 L 588.00358,532.30469 H 778.22233 L 560.36882,9.546875 Z M 53.099287,832.67383 -14.467119,994.80664 H 182.62077 l 65.38281,-162.13281 z m 655.396483,0 65.38281,162.13281 h 197.08789 l -67.5664,-162.13281 z"
         inkscape:path-effect="#path-effect98" />
      <g
         id="g97"
         transform="matrix(0.24931645,0,0,0.24931645,-101.67873,-68.00191)"
         style="fill:none;stroke:none;stroke-width:11.3998;stroke-dasharray:none;stroke-opacity:1;fill-opacity:1"
         inkscape:label="g97">
        <g
           id="POLYLINE_1667_"
           transform="translate(48.85236,348.01076)"
           inkscape:label="Outline"
           style="fill:none;stroke:none;stroke-width:11.3998;stroke-dasharray:none;stroke-opacity:1;fill-opacity:1" />
        <g
           id="POLYLINE_1673_"
           transform="translate(-12.837708,348.00515)"
           inkscape:label="DPad"
           style="fill:none;stroke:none;stroke-width:11.3998;stroke-dasharray:none;stroke-opacity:1;fill-opacity:1" />
        <g
           id="g98"
           inkscape:label="Buttons"
           style="fill:none;stroke:none;stroke-width:11.3998;stroke-dasharray:none;stroke-opacity:1;fill-opacity:1">
          <path
             id="path11"
             style="fill:#ffffff;stroke:none;stroke-opacity:1;fill-opacity:1;stroke-width:11.3998;stroke-dasharray:none"
             inkscape:label="path80"
             d="M 175.56273 138.87457 C 128.62804 138.48039 84.364059 162.04833 58.478681 201.19621 C 34.890476 236.71657 28.901693 281.56977 42.392886 322.01545 C 55.79576 362.48809 87.425382 394.81293 127.57915 409.14173 C 171.75091 425.00449 221.33442 417.40109 258.69549 388.98797 C 262.66979 386.1804 267.46739 384.80821 272.24863 384.19929 C 273.7147 384.01428 275.32427 383.87797 276.80057 383.82033 C 277.21613 383.80543 277.96401 383.79148 278.37492 383.78588 C 278.64173 383.76168 579.077 383.79788 579.55577 383.78588 C 581.84644 383.78681 584.22951 383.91202 586.50346 384.19929 C 591.28468 384.80821 596.11748 386.17947 600.09082 388.98797 C 638.14914 417.92449 688.75972 425.24954 733.46602 408.31491 C 778.20115 391.45186 811.33093 352.48646 820.74002 305.61683 C 830.22624 258.76581 814.78565 209.9542 780.0806 177.0806 C 767.20205 164.85281 751.87027 155.10197 735.3484 148.58972 C 724.11163 144.1571 712.16688 141.14897 700.165 139.77029 C 697.15013 139.44212 693.51185 139.13694 690.4793 139.01237 C 689.31537 138.99937 686.83051 138.85876 685.65356 138.87457 L 683.22358 138.87457 L 175.56273 138.87457 z M 687.39904 197.99228 C 692.87489 197.87346 698.47951 199.35098 703.48484 202.6087 C 711.45283 207.78368 716.34525 216.84438 716.31925 226.34536 C 716.34525 235.84634 711.45283 244.87358 703.48484 250.04756 C 688.92387 259.52454 669.38814 253.86362 662.17515 238.05866 C 658.80116 230.70066 658.80116 221.95559 662.17515 214.59761 C 666.90933 204.2256 676.94516 198.21913 687.39904 197.99228 z M 147.90886 220.24755 L 182.3393 220.24755 C 182.5983 220.24855 182.75737 220.257 182.95535 220.282 C 183.65435 220.376 184.29574 220.65247 184.83774 221.00547 C 184.93472 221.07047 184.97464 221.10882 184.97464 221.10882 C 185.06964 221.17782 185.11154 221.21218 185.11154 221.21218 C 185.20354 221.28518 185.24844 221.31553 185.24844 221.31553 C 185.33844 221.39253 185.38534 221.41888 185.38534 221.41888 C 185.47234 221.49888 185.52224 221.55668 185.52224 221.55668 C 185.60624 221.64068 185.65914 221.66004 185.65914 221.66004 C 185.73914 221.74704 185.76181 221.79784 185.76181 221.79784 C 185.83881 221.88784 185.89871 221.93564 185.89871 221.93564 C 185.97171 222.02764 186.00139 222.07345 186.00139 222.07345 C 186.07039 222.16845 186.10406 222.21125 186.10406 222.21125 C 186.52106 222.81825 186.75502 223.4715 186.85702 224.1405 C 186.89102 224.3705 186.88924 224.57862 186.89124 224.76062 L 186.89124 257.48895 L 219.54198 257.48895 C 219.77098 257.48895 220.01526 257.4994 220.19226 257.5234 C 220.88526 257.6174 221.50241 257.85942 222.04041 258.21242 C 222.13741 258.27742 222.21154 258.31577 222.21154 258.31577 C 222.30654 258.38477 222.34844 258.41913 222.34844 258.41913 C 222.44044 258.49213 222.48534 258.52248 222.48534 258.52248 C 222.57534 258.59948 222.62224 258.66028 222.62224 258.66028 C 222.70924 258.74028 222.75914 258.76364 222.75914 258.76364 C 222.84314 258.84764 222.86182 258.90144 222.86182 258.90144 C 222.94182 258.98844 222.99872 259.03924 222.99872 259.03924 C 223.07572 259.12924 223.10139 259.17705 223.10139 259.17705 C 223.17439 259.26905 223.20407 259.31485 223.20407 259.31485 C 223.27307 259.40985 223.30674 259.45265 223.30674 259.45265 C 223.84174 260.22365 224.11715 261.12302 224.12815 262.00202 L 224.12815 296.41845 C 224.12715 296.67745 224.11892 296.84056 224.09392 297.03856 C 223.99992 297.73756 223.72819 298.35691 223.37519 298.89891 C 223.31019 298.99591 223.27252 299.07117 223.27252 299.07117 C 223.20352 299.16617 223.16984 299.20897 223.16984 299.20897 C 223.09684 299.30097 223.06717 299.34677 223.06717 299.34677 C 222.99017 299.43677 222.93027 299.48458 222.93027 299.48458 C 222.85027 299.57158 222.82759 299.58793 222.82759 299.58793 C 222.74359 299.67193 222.69069 299.72573 222.69069 299.72573 C 222.60369 299.80573 222.55379 299.86354 222.55379 299.86354 C 222.46379 299.94054 222.41689 299.96689 222.41689 299.96689 C 222.32489 300.03989 222.27999 300.07024 222.27999 300.07024 C 222.18499 300.13924 222.14309 300.17359 222.14309 300.17359 C 221.53609 300.59059 220.89548 300.82951 220.22648 300.93151 C 219.99648 300.96551 219.79243 300.96397 219.61043 300.96597 L 186.89124 300.96597 L 186.89124 333.6254 C 186.89124 333.8544 186.88102 334.06852 186.85702 334.24552 C 186.76302 334.93852 186.52551 335.60233 186.17251 336.14031 C 186.10751 336.23731 186.06984 336.27812 186.06984 336.27812 C 186.00084 336.37312 185.96716 336.41592 185.96716 336.41592 C 185.89416 336.50792 185.83026 336.55373 185.83026 336.55373 C 185.75326 336.64373 185.72759 336.69153 185.72759 336.69153 C 185.64759 336.77853 185.59069 336.82933 185.59069 336.82933 C 185.50669 336.91333 185.48801 336.93268 185.48801 336.93268 C 185.40101 337.01268 185.35111 337.07049 185.35111 337.07049 C 185.26111 337.14749 185.21421 337.17384 185.21421 337.17384 C 185.12221 337.24684 185.07731 337.27719 185.07731 337.27719 C 184.98231 337.34619 184.94041 337.38055 184.94041 337.38055 C 184.16941 337.91555 183.25253 338.19637 182.37353 338.20737 L 147.94308 338.20737 C 147.68408 338.20637 147.52503 338.19792 147.32703 338.17292 C 146.62803 338.07892 145.98665 337.80245 145.44465 337.44945 C 145.34765 337.38445 145.30775 337.3461 145.30775 337.3461 C 145.21275 337.2771 145.17085 337.24274 145.17085 337.24274 C 145.07885 337.16974 145.03395 337.13939 145.03395 337.13939 C 144.94395 337.06239 144.89705 337.03604 144.89705 337.03604 C 144.81005 336.95604 144.76015 336.89823 144.76015 336.89823 C 144.67615 336.81423 144.65747 336.79488 144.65747 336.79488 C 144.57747 336.70788 144.52057 336.65708 144.52057 336.65708 C 144.44357 336.56708 144.4179 336.51927 144.4179 336.51927 C 144.3449 336.42727 144.31522 336.38147 144.31522 336.38147 C 144.24622 336.28647 144.21255 336.24367 144.21255 336.24367 C 143.79555 335.63667 143.56159 334.98342 143.45959 334.31442 C 143.42559 334.08442 143.39314 333.8763 143.39114 333.6943 L 143.39114 301.00042 L 110.7404 301.00042 C 110.5114 301.00042 110.30135 300.95551 110.12435 300.93151 C 109.43135 300.83751 108.77997 300.5955 108.24197 300.2425 C 108.14497 300.1775 108.10507 300.13914 108.10507 300.13914 C 108.01007 300.07014 107.96817 300.03579 107.96817 300.03579 C 107.87617 299.96279 107.83127 299.93244 107.83127 299.93244 C 107.74127 299.85544 107.69437 299.79464 107.69437 299.79464 C 107.60737 299.71464 107.55747 299.69128 107.55747 299.69128 C 107.47347 299.60728 107.42057 299.55348 107.42057 299.55348 C 107.34057 299.46648 107.31789 299.41568 107.31789 299.41568 C 107.24089 299.32568 107.18099 299.31232 107.18099 299.31232 C 107.10799 299.22032 107.07832 299.17452 107.07832 299.17452 C 107.00932 299.07952 106.97564 299.00226 106.97564 299.00226 C 106.44064 298.23128 106.19946 297.36635 106.18846 296.48735 L 106.18846 262.03647 C 106.18946 261.77747 106.19769 261.61435 106.22269 261.41635 C 106.31669 260.71735 106.55419 260.09801 106.90719 259.55601 C 106.97219 259.45901 107.00987 259.38375 107.00987 259.38375 C 107.07887 259.28875 107.11254 259.24595 107.11254 259.24595 C 107.18554 259.15395 107.24944 259.10814 107.24944 259.10814 C 107.32644 259.01814 107.35212 258.97034 107.35212 258.97034 C 107.43212 258.88334 107.45479 258.86699 107.45479 258.86699 C 107.53879 258.78299 107.59169 258.72919 107.59169 258.72919 C 107.67869 258.64919 107.72859 258.62583 107.72859 258.62583 C 107.81859 258.54883 107.86549 258.48803 107.86549 258.48803 C 107.95749 258.41503 108.00239 258.38468 108.00239 258.38468 C 108.09739 258.31568 108.1393 258.28132 108.1393 258.28132 C 108.74628 257.86432 109.3869 257.6254 110.0559 257.5234 C 110.2859 257.4894 110.48995 257.49095 110.67195 257.48895 C 110.72295 257.48795 143.39114 257.48895 143.39114 257.48895 L 143.39114 224.82952 C 143.39114 224.60052 143.40137 224.3864 143.42537 224.2094 C 143.51937 223.5164 143.7911 222.8526 144.1441 222.3146 C 144.2091 222.2176 144.24677 222.1768 144.24677 222.1768 C 144.31577 222.0818 144.34945 222.039 144.34945 222.039 C 144.42245 221.947 144.45212 221.90119 144.45212 221.90119 C 144.52912 221.81119 144.5548 221.76339 144.5548 221.76339 C 144.6348 221.67639 144.6917 221.62559 144.6917 221.62559 C 144.7757 221.54159 144.8286 221.52223 144.8286 221.52223 C 144.9156 221.44223 144.93127 221.38443 144.93127 221.38443 C 145.02127 221.30743 145.06817 221.28108 145.06817 221.28108 C 145.16017 221.20808 145.20507 221.17772 145.20507 221.17772 C 145.30007 221.10872 145.3762 221.07437 145.3762 221.07437 C 146.1472 220.53937 147.02986 220.25855 147.90886 220.24755 z M 625.72542 249.77196 C 631.20137 249.65313 636.77165 251.09622 641.77699 254.35392 C 649.74497 259.52792 654.67163 268.5896 654.64563 278.09058 C 654.67063 287.59156 649.74497 296.61679 641.77699 301.79279 C 627.21601 311.26977 607.71551 305.60884 600.50152 289.80388 C 597.12753 282.4459 597.12753 273.73526 600.50152 266.37728 C 605.23505 256.00527 615.27131 249.99881 625.72542 249.77196 z M 749.07266 249.77196 C 754.54863 249.65313 760.15312 251.09622 765.15846 254.35392 C 773.12644 259.52792 778.01887 268.5896 777.99287 278.09058 C 778.01887 287.59156 773.12644 296.61679 765.15846 301.79279 C 750.59748 311.26977 731.06275 305.60884 723.84877 289.80388 C 720.47477 282.4459 720.47477 273.73526 723.84877 266.37728 C 728.58228 256.00527 738.61857 249.99881 749.07266 249.77196 z M 687.39904 301.51718 C 692.875 301.39835 698.47951 302.87588 703.48484 306.1336 C 711.45283 311.30758 716.34525 320.33482 716.31925 329.8358 C 716.34525 339.33678 711.45283 348.39748 703.48484 353.57246 C 688.92387 363.04944 669.38914 357.35408 662.17515 341.5491 C 658.80116 334.19112 658.80116 325.4805 662.17515 318.1225 C 666.90867 307.75049 676.94494 301.74403 687.39904 301.51718 z "
             transform="translate(48.852357,348.01077)" />
        </g>
      </g>
    </g>
  </g>
  <path
     id="rect17"
     style="display:inline;mix-blend-mode:multiply;fill:url(#linearGradient19);fill-opacity:1;stroke:#000000;stroke-width:0.166266;stroke-dasharray:none;stroke-opacity:0;paint-order:markers fill stroke"
     inkscape:label="Colored overlay"
     d="M 3.6762613,0.08268229 A 4.409743,4.4097428 0 0 0 0.08268229,3.6762613 V 22.782588 A 4.409743,4.4097428 0 0 0 4.4100667,26.458333 H 22.048783 a 4.409743,4.4097428 0 0 0 4.40955,-4.40955 V 13.229166 4.4100667 A 4.409743,4.4097428 0 0 0 22.882841,0.08268229 Z" />
  <path
     id="path7"
     style="fill:#f5f5f5;stroke:#000000;stroke-opacity:0;fill-opacity:1;stroke-width:0.206481;stroke-dasharray:none;display:inline;paint-order:markers fill stroke"
     inkscape:label="Background"
     d="M 4.4100663 4.9564229e-08 A 4.409743 4.4097428 0 0 0 -3.1879013e-07 4.4100668 L -3.1879013e-07 13.229167 L -3.1879013e-07 22.048783 A 4.409743 4.4097428 0 0 0 4.4100663 26.458333 L 13.229166 26.458333 L 22.048782 26.458333 A 4.409743 4.4097428 0 0 0 26.458332 22.048783 L 26.458332 13.229167 L 26.458332 4.4100668 A 4.409743 4.4097428 0 0 0 22.048782 4.9564229e-08 L 13.229166 4.9564229e-08 L 4.4100663 4.9564229e-08 z M 12.073681 5.3867513 L 14.385168 5.3867513 A 0.24036963 0.23879429 0 0 1 14.60686 5.5340292 L 17.974613 13.561446 A 0.1068167 0.10611665 0 0 1 17.875911 13.708207 L 15.148429 13.708207 A 0.23628885 0.23474026 0 0 1 14.928804 13.560413 L 13.420369 9.7978516 A 0.19616283 0.19487722 0 0 0 13.258105 9.6495402 A 0.23628886 0.23474027 0 0 0 13.03848 9.7978516 L 11.530045 13.560413 A 0.23628886 0.23474027 0 0 1 11.31042 13.708207 L 8.582938 13.708207 A 0.1068167 0.10611665 0 0 1 8.484236 13.561446 L 11.851989 5.5340292 A 0.24036963 0.2387943 0 0 1 12.073681 5.3867513 z M 9.3968418 14.011031 L 17.062007 14.011031 L 17.098697 14.011031 C 17.116468 14.010794 17.153987 14.012903 17.171561 14.013098 C 17.217349 14.014967 17.272284 14.019544 17.317805 14.024467 C 17.499021 14.045147 17.679375 14.090269 17.849039 14.156759 C 18.098502 14.254442 18.329997 14.400706 18.52445 14.584123 C 19.04846 15.077227 19.281598 15.809404 19.138366 16.51217 C 18.996298 17.215216 18.496071 17.799699 17.820617 18.052645 C 17.145598 18.306665 16.381428 18.196788 15.806786 17.76274 C 15.746793 17.720613 15.673822 17.700044 15.601631 17.69091 C 15.567297 17.686601 15.531314 17.684723 15.496728 17.684709 C 15.489499 17.684889 10.95323 17.684346 10.949202 17.684709 C 10.942997 17.684793 10.931705 17.685002 10.925431 17.685225 C 10.90314 17.68609 10.878837 17.688135 10.856701 17.69091 C 10.784509 17.700044 10.71207 17.720626 10.652062 17.76274 C 10.087949 18.188937 9.3392865 18.302989 8.6723383 18.065047 C 8.0660576 17.850115 7.5884815 17.365241 7.3861119 16.75815 C 7.1824087 16.151464 7.2728335 15.478664 7.6289911 14.945858 C 8.0198337 14.358639 8.6881762 14.005118 9.3968418 14.011031 z M 17.125052 14.897799 C 16.967209 14.901201 16.815678 14.991299 16.744197 15.146879 C 16.693253 15.257249 16.693253 15.388425 16.744197 15.498796 C 16.853105 15.73587 17.148076 15.820784 17.367931 15.67863 C 17.48824 15.60102 17.56211 15.465611 17.561718 15.323096 C 17.56211 15.180581 17.48824 15.04467 17.367931 14.967045 C 17.292356 14.918179 17.207732 14.896016 17.125052 14.897799 z M 8.9792962 15.231628 C 8.9660243 15.231793 8.952697 15.236006 8.9410557 15.244031 C 8.9410557 15.244031 8.9399063 15.244546 8.9384719 15.245581 C 8.9384719 15.245581 8.9377939 15.246036 8.9364048 15.247131 C 8.9364048 15.247131 8.9356967 15.247527 8.9343378 15.248682 C 8.9343378 15.248682 8.9341011 15.249549 8.9327875 15.250749 C 8.9327875 15.250749 8.9319887 15.251039 8.9307204 15.252299 C 8.9307204 15.252299 8.9298613 15.253061 8.9286533 15.254366 C 8.9286533 15.254366 8.9282657 15.255083 8.9271031 15.256433 C 8.9271031 15.256433 8.926655 15.25712 8.9255528 15.2585 C 8.9255528 15.2585 8.9250443 15.259142 8.9240025 15.260567 C 8.9240025 15.260567 8.9234336 15.261179 8.9224522 15.262634 C 8.9171222 15.270704 8.9130194 15.280661 8.9116001 15.291056 C 8.9112377 15.293711 8.9110834 15.296923 8.9110834 15.300358 L 8.9110834 15.790251 C 8.9110834 15.790251 8.4178267 15.790236 8.4170567 15.790251 C 8.4143087 15.790281 8.4112277 15.790257 8.4077549 15.790767 C 8.3976537 15.792297 8.3879809 15.795881 8.3788161 15.802136 C 8.3788161 15.802136 8.3781835 15.802652 8.3767491 15.803687 C 8.3767491 15.803687 8.3760711 15.804142 8.374682 15.805237 C 8.374682 15.805237 8.3739739 15.806149 8.372615 15.807304 C 8.372615 15.807304 8.3718615 15.807654 8.3705479 15.808854 C 8.3705479 15.808854 8.3697492 15.809661 8.3684808 15.810921 C 8.3684808 15.810921 8.3681385 15.811167 8.3669305 15.812472 C 8.3669305 15.812472 8.3665429 15.813189 8.3653803 15.814539 C 8.3653803 15.814539 8.3644154 15.815226 8.3633132 15.816606 C 8.3633132 15.816606 8.3628047 15.817248 8.3617629 15.818673 C 8.3617629 15.818673 8.361194 15.819801 8.3602126 15.821257 C 8.3548827 15.829387 8.3512966 15.838677 8.3498773 15.849162 C 8.3494999 15.852132 8.3493757 15.854579 8.3493606 15.858464 L 8.3493606 16.375228 C 8.3495266 16.388413 8.3531682 16.401387 8.3612461 16.412952 C 8.3612461 16.412952 8.3617546 16.41411 8.3627964 16.415535 C 8.3627964 16.415535 8.3632445 16.416223 8.3643467 16.417603 C 8.3643467 16.417603 8.3652512 16.417803 8.3664138 16.419153 C 8.3664138 16.419153 8.3667562 16.419915 8.3679641 16.42122 C 8.3679641 16.42122 8.3687628 16.422027 8.3700311 16.423287 C 8.3700311 16.423287 8.3707846 16.423637 8.3720982 16.424837 C 8.3720982 16.424837 8.3728063 16.425749 8.3741652 16.426904 C 8.3741652 16.426904 8.3748432 16.42736 8.3762323 16.428455 C 8.3762323 16.428455 8.376865 16.42897 8.3782994 16.430005 C 8.3782994 16.430005 8.3789018 16.43058 8.3803664 16.431555 C 8.3884897 16.43685 8.3983249 16.44048 8.4087885 16.44189 C 8.411461 16.44225 8.4146325 16.442924 8.4180902 16.442924 L 8.9110834 16.442924 L 8.9110834 16.933333 C 8.9111136 16.936063 8.9116035 16.939185 8.9121169 16.942635 C 8.913657 16.95267 8.9171894 16.962469 8.9234857 16.971574 C 8.9234857 16.971574 8.9239942 16.972216 8.925036 16.973641 C 8.925036 16.973641 8.9254841 16.974328 8.9265863 16.975708 C 8.9265863 16.975708 8.926974 16.976425 8.9281366 16.977775 C 8.9281366 16.977775 8.9289957 16.978537 8.9302036 16.979842 C 8.9302036 16.979842 8.9304856 16.980132 8.9317539 16.981392 C 8.9317539 16.981392 8.9325074 16.982259 8.933821 16.983459 C 8.933821 16.983459 8.9345291 16.983855 8.935888 16.98501 C 8.935888 16.98501 8.936566 16.985465 8.9379551 16.98656 C 8.9379551 16.98656 8.9385878 16.987075 8.9400222 16.98811 C 8.9400222 16.98811 8.9406246 16.988686 8.9420892 16.989661 C 8.9502729 16.994956 8.9599571 16.999103 8.9705113 17.000513 C 8.9735009 17.000888 8.9759024 17.001014 8.979813 17.001029 L 9.4996779 17.001029 C 9.5129499 17.000864 9.5267939 16.996652 9.5384352 16.988627 C 9.5384352 16.988627 9.5390679 16.988112 9.5405023 16.987077 C 9.5405023 16.987077 9.5411802 16.986622 9.5425693 16.985527 C 9.5425693 16.985527 9.5432775 16.985131 9.5446364 16.983976 C 9.5446364 16.983976 9.5453898 16.983109 9.5467035 16.981909 C 9.5467035 16.981909 9.5469854 16.981619 9.5482537 16.980359 C 9.5482537 16.980359 9.5491129 16.979597 9.5503208 16.978292 C 9.5503208 16.978292 9.5507085 16.977575 9.5518711 16.976225 C 9.5518711 16.976225 9.5528359 16.975538 9.5539382 16.974158 C 9.5539382 16.974158 9.5544466 16.973516 9.5554884 16.972091 C 9.5554884 16.972091 9.5560573 16.971479 9.5570387 16.970024 C 9.5623687 16.961954 9.5659547 16.951997 9.567374 16.941602 C 9.5677364 16.938947 9.5678908 16.935735 9.5678908 16.9323 L 9.5678908 16.442407 L 10.061917 16.442407 C 10.064665 16.442377 10.067746 16.4424 10.071219 16.44189 C 10.08132 16.44036 10.090993 16.436777 10.100158 16.430522 C 10.100158 16.430522 10.100791 16.430006 10.102225 16.428971 C 10.102225 16.428971 10.102903 16.428516 10.104292 16.427421 C 10.104292 16.427421 10.105 16.427026 10.106359 16.425871 C 10.106359 16.425871 10.107113 16.425004 10.108426 16.423804 C 10.108426 16.423804 10.109225 16.422997 10.110493 16.421737 C 10.110493 16.421737 10.110836 16.421491 10.112044 16.420186 C 10.112044 16.420186 10.112948 16.419469 10.114111 16.418119 C 10.114111 16.418119 10.114559 16.417432 10.115661 16.416052 C 10.115661 16.416052 10.116169 16.41541 10.117211 16.413985 C 10.117211 16.413985 10.11778 16.412856 10.118762 16.411401 C 10.124091 16.403271 10.128194 16.393981 10.129614 16.383496 C 10.129991 16.380526 10.130115 16.378079 10.13013 16.374194 L 10.13013 15.857947 C 10.129964 15.844762 10.125806 15.831271 10.117728 15.819706 C 10.117728 15.819706 10.11722 15.819064 10.116178 15.817639 C 10.116178 15.817639 10.11573 15.816952 10.114627 15.815572 C 10.114627 15.815572 10.11424 15.814855 10.113077 15.813505 C 10.113077 15.813505 10.112218 15.812743 10.11101 15.811438 C 10.11101 15.811438 10.110728 15.810631 10.10946 15.809371 C 10.10946 15.809371 10.108706 15.809021 10.107393 15.807821 C 10.107393 15.807821 10.106685 15.806909 10.105326 15.805754 C 10.105326 15.805754 10.104648 15.805298 10.103259 15.804203 C 10.103259 15.804203 10.102626 15.803688 10.101192 15.802653 C 10.101192 15.802653 10.100072 15.802078 10.098608 15.801103 C 10.090484 15.795808 10.081166 15.792177 10.070702 15.790767 C 10.06803 15.790407 10.064342 15.790251 10.060884 15.790251 L 9.5678908 15.790251 L 9.5678908 15.299325 C 9.5678606 15.296595 9.5678874 15.293473 9.567374 15.290023 C 9.5658339 15.279988 9.5623015 15.270189 9.5560052 15.261084 C 9.5560052 15.261084 9.5554967 15.260442 9.5544549 15.259017 C 9.5544549 15.259017 9.5540069 15.25833 9.5529046 15.25695 C 9.5529046 15.25695 9.5520002 15.256233 9.5508376 15.254883 C 9.5508376 15.254883 9.5504952 15.254121 9.5492873 15.252816 C 9.5492873 15.252816 9.5484885 15.252525 9.5472202 15.251265 C 9.5472202 15.251265 9.5464668 15.250398 9.5451532 15.249198 C 9.5451532 15.249198 9.544445 15.248803 9.5430861 15.247648 C 9.5430861 15.247648 9.5424082 15.247193 9.541019 15.246098 C 9.541019 15.246098 9.5403864 15.245583 9.538952 15.244548 C 9.538952 15.244548 9.5383492 15.243972 9.5368849 15.242997 C 9.5287013 15.237702 9.5190171 15.233555 9.5084629 15.232145 C 9.5054736 15.23177 9.5030718 15.231643 9.4991611 15.231628 L 8.9792962 15.231628 z M 16.193843 15.674495 C 16.035996 15.677898 15.884459 15.767996 15.812987 15.923576 C 15.762044 16.033946 15.762044 16.164606 15.812987 16.274976 C 15.921911 16.51205 16.216349 16.596964 16.436205 16.45481 C 16.556513 16.377169 16.630886 16.241791 16.630509 16.099276 C 16.630901 15.956761 16.556513 15.820835 16.436205 15.743225 C 16.36063 15.69436 16.276524 15.672713 16.193843 15.674495 z M 18.056261 15.674495 C 17.898415 15.677898 17.746877 15.767996 17.675406 15.923576 C 17.624462 16.033946 17.624462 16.164606 17.675406 16.274976 C 17.78433 16.51205 18.079285 16.596964 18.29914 16.45481 C 18.419449 16.377169 18.49332 16.241791 18.492927 16.099276 C 18.49332 15.956761 18.419449 15.820835 18.29914 15.743225 C 18.223565 15.69436 18.138943 15.672713 18.056261 15.674495 z M 17.125052 16.450675 C 16.967206 16.454078 16.815668 16.544176 16.744197 16.699756 C 16.693253 16.810126 16.693253 16.940786 16.744197 17.051156 C 16.853121 17.288231 17.148076 17.373661 17.367931 17.231506 C 17.48824 17.153882 17.56211 17.017971 17.561718 16.875456 C 17.56211 16.732941 17.48824 16.597532 17.367931 16.519922 C 17.292356 16.471056 17.207733 16.448893 17.125052 16.450675 z M 6.5773758 18.489827 L 9.3797886 18.489827 A 0.10815649 0.10744765 0 0 1 9.4800409 18.637622 L 8.5524489 20.923271 A 0.23739205 0.23583624 0 0 1 8.3323073 21.070548 L 5.4947545 21.070548 A 0.10681709 0.10611704 0 0 1 5.3960526 20.923787 L 6.3551671 18.636589 A 0.24036875 0.23879342 0 0 1 6.5773758 18.489827 z M 17.07906 18.489827 L 19.881473 18.489827 A 0.24036874 0.23879341 0 0 1 20.103681 18.636589 L 21.062796 20.923787 A 0.1068171 0.10611704 0 0 1 20.964094 21.070548 L 18.126541 21.070548 A 0.23739205 0.23583624 0 0 1 17.9064 20.923271 L 16.978808 18.637622 A 0.10815649 0.10744765 0 0 1 17.07906 18.489827 z " />
</svg>
