<?xml version="1.0" encoding="UTF-8" standalone="no"?>
<!-- Created with Inkscape (http://www.inkscape.org/) -->

<svg
   width="300"
   height="300"
   viewBox="0 0 79.374998 79.375"
   version="1.1"
   id="svg1"
   inkscape:version="1.3.1 (91b66b0, 2023-11-16)"
   sodipodi:docname="drawing-1.svg"
   xmlns:inkscape="http://www.inkscape.org/namespaces/inkscape"
   xmlns:sodipodi="http://sodipodi.sourceforge.net/DTD/sodipodi-0.dtd"
   xmlns:xlink="http://www.w3.org/1999/xlink"
   xmlns="http://www.w3.org/2000/svg"
   xmlns:svg="http://www.w3.org/2000/svg">
  <sodipodi:namedview
     id="namedview1"
     pagecolor="#ffffff"
     bordercolor="#000000"
     borderopacity="0.25"
     inkscape:showpageshadow="2"
     inkscape:pageopacity="0.0"
     inkscape:pagecheckerboard="0"
     inkscape:deskcolor="#d1d1d1"
     inkscape:document-units="mm"
     inkscape:zoom="1.6744659"
     inkscape:cx="109.28858"
     inkscape:cy="185.43226"
     inkscape:window-width="1680"
     inkscape:window-height="916"
     inkscape:window-x="0"
     inkscape:window-y="25"
     inkscape:window-maximized="1"
     inkscape:current-layer="layer1" />
  <defs
     id="defs1">
    <linearGradient
       id="linearGradient63"
       inkscape:collect="always">
      <stop
         style="stop-color:#dcdcdc;stop-opacity:0.70175439;"
         offset="0"
         id="stop63" />
      <stop
         style="stop-color:#666666;stop-opacity:0.69824558;"
         offset="1"
         id="stop64" />
    </linearGradient>
    <linearGradient
       id="linearGradient60"
       inkscape:collect="always">
      <stop
         style="stop-color:#ff0000;stop-opacity:0.49824563;"
         offset="0"
         id="stop60" />
      <stop
         style="stop-color:#aa0000;stop-opacity:0.80350876;"
         offset="1"
         id="stop61" />
    </linearGradient>
    <inkscape:path-effect
       effect="fillet_chamfer"
       id="path-effect12"
       is_visible="true"
       lpeversion="1"
       nodesatellites_param="F,0,0,1,0,0,0,1 @ F,0,0,1,0,1.3229167,0,1 @ F,0,0,1,0,0,0,1"
       radius="5"
       unit="px"
       method="auto"
       mode="F"
       chamfer_steps="1"
       flexible="false"
       use_knot_distance="true"
       apply_no_radius="true"
       apply_with_radius="true"
       only_selected="false"
       hide_knots="false" />
    <inkscape:path-effect
       effect="fillet_chamfer"
       id="path-effect10"
       is_visible="true"
       lpeversion="1"
       nodesatellites_param="F,0,0,1,0,0,0,1 @ F,0,0,1,0,1.3229167,0,1 @ F,0,0,1,0,1.3229167,0,1"
       radius="5"
       unit="px"
       method="auto"
       mode="F"
       chamfer_steps="1"
       flexible="false"
       use_knot_distance="true"
       apply_no_radius="true"
       apply_with_radius="true"
       only_selected="false"
       hide_knots="false" />
    <inkscape:path-effect
       effect="fillet_chamfer"
       id="path-effect9"
       is_visible="true"
       lpeversion="1"
       nodesatellites_param="F,0,0,1,0,0,0,1 @ F,0,0,1,0,2.38125,0,1 @ F,0,0,1,0,2.38125,0,1 @ F,0,0,1,0,2.38125,0,1 @ F,0,0,1,0,2.38125,0,1 @ F,0,0,1,0,2.38125,0,1"
       radius="10"
       unit="px"
       method="auto"
       mode="F"
       chamfer_steps="1"
       flexible="false"
       use_knot_distance="true"
       apply_no_radius="true"
       apply_with_radius="true"
       only_selected="false"
       hide_knots="false" />
    <filter
       style="color-interpolation-filters:sRGB;"
       inkscape:label="Blur"
       id="filter21"
       x="-0.20247296"
       y="-2.1063501"
       width="1.4049459"
       height="5.2127009">
      <feGaussianBlur
         stdDeviation="2 6"
         result="blur"
         id="feGaussianBlur21" />
    </filter>
    <linearGradient
       inkscape:collect="always"
       xlink:href="#linearGradient60"
       id="linearGradient61"
       x1="35.134853"
       y1="15.46568"
       x2="44.414261"
       y2="23.55542"
       gradientUnits="userSpaceOnUse"
       gradientTransform="matrix(0.97415163,0,0,0.97415163,1.025857,0.51205468)" />
    <linearGradient
       inkscape:collect="always"
       xlink:href="#linearGradient63"
       id="linearGradient64"
       x1="92.299294"
       y1="209.80809"
       x2="195.17032"
       y2="127.67392"
       gradientUnits="userSpaceOnUse" />
  </defs>
  <g
     inkscape:label="Layer 1"
     inkscape:groupmode="layer"
     id="layer1">
    <rect
       style="fill:#917c6f;fill-opacity:1;stroke:#000000;stroke-width:0.506;stroke-dasharray:none;stroke-opacity:0;paint-order:markers fill stroke"
       id="rect65"
       width="80.585396"
       height="79.953354"
       x="-0.31602114"
       y="-0.31602114"
       inkscape:label="rect65" />
    <g
       id="g65"
       inkscape:label="Joystick"
       transform="translate(0.0151065,1.6923015)">
      <g
         id="g22"
         inkscape:label="Base">
        <path
           style="fill:#1a1a1a;fill-opacity:0;stroke:#000000;stroke-width:0.529167;stroke-linecap:round;stroke-linejoin:round;stroke-dasharray:none"
           d="m 24.257994,55.813658 0.845459,5.185684 a 1.5560683,1.5560683 40.370066 0 0 1.535791,1.305677 l 12.922531,0"
           id="path10"
           sodipodi:nodetypes="ccc"
           inkscape:label="Bottom shape left"
           inkscape:original-d="m 24.257994,55.813658 1.058333,6.491361 h 14.245448"
           inkscape:path-effect="#path-effect10" />
        <path
           style="fill:#1a1a1a;fill-opacity:0;stroke:#000000;stroke-width:0.529167;stroke-linecap:round;stroke-linejoin:round;stroke-dasharray:none"
           d="m 24.257994,55.813658 0.845459,5.185684 a 1.5560683,1.5560683 40.370066 0 0 1.535791,1.305677 l 12.922531,0"
           id="path11"
           sodipodi:nodetypes="ccc"
           transform="matrix(-1,0,0,1,79.344787,0)"
           inkscape:label="Bottom shape right"
           inkscape:original-d="m 24.257994,55.813658 1.058333,6.491361 h 14.245448"
           inkscape:path-effect="#path-effect12" />
        <path
           style="fill:#666666;fill-opacity:1;stroke:#000000;stroke-width:0.483091;stroke-linecap:round;stroke-linejoin:round;paint-order:markers fill stroke"
           d="m 98.777644,217.61228 c -1.565412,-0.30765 -2.880335,-1.05965 -3.967828,-2.26921 -1.21555,-1.35198 -1.804274,-2.96768 -1.763357,-4.83937 0.01632,-0.74655 1.861847,-18.5756 4.101172,-39.62011 2.954779,-27.76818 4.178089,-38.53361 4.460139,-39.25029 0.89631,-2.27756 2.60854,-4.11279 4.79215,-5.13643 l 1.28387,-0.60186 14.30882,-0.063 14.30882,-0.063 v 10.61369 10.61369 l -1.78288,0.71868 c -6.18044,2.49134 -11.48046,7.32495 -13.61353,12.41551 -1.54762,3.69341 -1.7757,8.96464 -0.56412,13.03771 1.24658,4.19074 3.74065,8.06953 6.84522,10.64576 4.53898,3.76651 14.46416,6.66012 22.86748,6.66682 6.24586,0.005 12.29147,-1.31595 17.65537,-3.85757 3.27027,-1.54958 5.14091,-2.85965 7.19856,-5.04139 2.75313,-2.91917 4.36162,-6.05191 5.17931,-10.08735 0.46828,-2.31105 0.34703,-7.05944 -0.23433,-9.17703 -1.66302,-6.05747 -7.39496,-11.93394 -14.27768,-14.63766 l -1.89837,-0.74574 -8.1e-4,-10.58256 -8.2e-4,-10.58256 14.31388,0.063 14.31389,0.063 1.50131,0.73924 c 2.66396,1.31174 4.57501,3.87012 5.02434,6.72624 0.0783,0.49769 1.96822,18.16032 4.19982,39.25028 4.31938,40.82062 4.2077,39.37974 3.20452,41.34614 -0.48673,0.95407 -2.0993,2.54108 -3.1165,3.06709 -0.3589,0.1856 -1.25456,0.44874 -1.99034,0.58476 -1.63209,0.30171 -100.81346,0.30512 -102.348106,0.004 z m 89.307196,-71.23486 c 3.69003,-0.91415 6.28055,-2.61575 6.79329,-4.4622 0.13181,-0.47467 0.24022,-1.93742 0.24091,-3.25055 10e-4,-2.10345 -0.0664,-2.52065 -0.56705,-3.50651 -1.04233,-2.05231 -3.91021,-3.58424 -8.06476,-4.30795 -2.87557,-0.50091 -8.14361,-0.33437 -10.70929,0.33856 -3.77421,0.9899 -6.46195,2.84908 -6.81135,4.71159 -0.26067,1.38944 0.0244,5.7676 0.42531,6.53216 1.02141,1.94787 4.12115,3.55644 8.27007,4.29163 2.51384,0.44545 7.95597,0.26441 10.42287,-0.34673 z"
           id="path1"
           transform="scale(0.26458333)"
           inkscape:label="Top fill" />
        <path
           style="display:none;fill:url(#linearGradient64);fill-opacity:1;stroke:#000000;stroke-width:0.483091;stroke-linecap:round;stroke-linejoin:round;paint-order:markers fill stroke"
           d="m 98.777644,217.61228 c -1.565412,-0.30765 -2.880335,-1.05965 -3.967828,-2.26921 -1.21555,-1.35198 -1.804274,-2.96768 -1.763357,-4.83937 0.01632,-0.74655 1.861847,-18.5756 4.101172,-39.62011 2.954779,-27.76818 4.178089,-38.53361 4.460139,-39.25029 0.89631,-2.27756 2.60854,-4.11279 4.79215,-5.13643 l 1.28387,-0.60186 14.30882,-0.063 14.30882,-0.063 v 10.61369 10.61369 l -1.78288,0.71868 c -6.18044,2.49134 -11.48046,7.32495 -13.61353,12.41551 -1.54762,3.69341 -1.7757,8.96464 -0.56412,13.03771 1.24658,4.19074 3.74065,8.06953 6.84522,10.64576 4.53898,3.76651 14.46416,6.66012 22.86748,6.66682 6.24586,0.005 12.29147,-1.31595 17.65537,-3.85757 3.27027,-1.54958 5.14091,-2.85965 7.19856,-5.04139 2.75313,-2.91917 4.36162,-6.05191 5.17931,-10.08735 0.46828,-2.31105 0.34703,-7.05944 -0.23433,-9.17703 -1.66302,-6.05747 -7.39496,-11.93394 -14.27768,-14.63766 l -1.89837,-0.74574 -8.1e-4,-10.58256 -8.2e-4,-10.58256 14.31388,0.063 14.31389,0.063 1.50131,0.73924 c 2.66396,1.31174 4.57501,3.87012 5.02434,6.72624 0.0783,0.49769 1.96822,18.16032 4.19982,39.25028 4.31938,40.82062 4.2077,39.37974 3.20452,41.34614 -0.48673,0.95407 -2.0993,2.54108 -3.1165,3.06709 -0.3589,0.1856 -1.25456,0.44874 -1.99034,0.58476 -1.63209,0.30171 -100.81346,0.30512 -102.348106,0.004 z m 89.307196,-71.23486 c 3.69003,-0.91415 6.28055,-2.61575 6.79329,-4.4622 0.13181,-0.47467 0.24022,-1.93742 0.24091,-3.25055 10e-4,-2.10345 -0.0664,-2.52065 -0.56705,-3.50651 -1.04233,-2.05231 -3.91021,-3.58424 -8.06476,-4.30795 -2.87557,-0.50091 -8.14361,-0.33437 -10.70929,0.33856 -3.77421,0.9899 -6.46195,2.84908 -6.81135,4.71159 -0.26067,1.38944 0.0244,5.7676 0.42531,6.53216 1.02141,1.94787 4.12115,3.55644 8.27007,4.29163 2.51384,0.44545 7.95597,0.26441 10.42287,-0.34673 z"
           id="path62"
           inkscape:label="Top fill shadow"
           transform="scale(0.26458333)" />
        <path
           style="fill:#666666;fill-opacity:1;stroke:#000000;stroke-width:0.394091;stroke-linecap:round;stroke-linejoin:round;paint-order:markers fill stroke"
           d="m 99.148309,234.11399 c -1.685344,-0.60313 -2.772846,-1.94081 -3.173599,-3.90367 -0.484118,-2.37117 -2.002168,-12.08058 -1.904111,-12.17864 0.05348,-0.0535 0.476617,0.15882 0.940314,0.47176 0.463697,0.31295 1.324868,0.75284 1.913714,0.97755 l 1.070629,0.40855 h 51.858134 c 48.40043,0 51.9258,-0.021 52.87314,-0.31546 0.55826,-0.17351 1.49254,-0.60344 2.07617,-0.95542 0.71834,-0.4332 1.06116,-0.55745 1.06116,-0.38458 0,0.73499 -2.06172,12.72353 -2.2761,13.23514 -0.37173,0.8871 -1.15846,1.74222 -2.12638,2.31122 l -0.85716,0.50389 -50.38174,0.0387 c -41.76807,0.0321 -50.500123,-0.004 -51.074171,-0.20907 z"
           id="path3"
           transform="scale(0.26458333)"
           inkscape:label="Bottom fill" />
        <path
           id="rect61"
           style="fill:#dcdcdc;fill-opacity:1;stroke:#000000;stroke-width:0;stroke-opacity:0;paint-order:markers fill stroke"
           d="m 26.068837,42.41756 6.398428,-0.551676 c 0.937719,2.596762 1.415259,-3.392929 2.775158,7.225236 l -10.616232,6.281164 z"
           sodipodi:nodetypes="ccccc"
           inkscape:label="Top glow" />
        <path
           id="rect9"
           style="fill:#1a1a1a;fill-opacity:0;stroke:#000000;stroke-width:0.528081;stroke-linecap:round;stroke-linejoin:round"
           d="m 43.12138,32.967606 h 7.163614 a 2.6472098,2.6472098 41.972396 0 1 2.63244,2.367964 l 2.143453,20.206277 a 2.1420107,2.1420107 131.9724 0 1 -2.13006,2.367964 H 26.444173 a 2.1420107,2.1420107 48.027604 0 1 -2.13006,-2.367964 L 26.457566,35.33557 a 2.6472098,2.6472098 138.0276 0 1 2.63244,-2.367964 h 7.057306"
           sodipodi:nodetypes="cccccc"
           inkscape:label="Top shape"
           inkscape:original-d="m 43.12138,32.967606 h 9.544864 l 2.645833,24.942205 H 24.062923 l 2.645833,-24.942205 h 9.438556"
           inkscape:path-effect="#path-effect9" />
      </g>
      <g
         id="g23"
         inkscape:label="Joystick">
        <path
           id="path2"
           style="fill:#1a1a1a;fill-opacity:0;stroke:#000000;stroke-width:0.347249"
           d="m 43.084941,24.339747 c 0,1.010628 -1.521086,1.829904 -3.39744,1.829904 -1.876355,0 -3.397442,-0.819276 -3.397442,-1.829904 0,-1.010629 1.521087,-1.829906 3.397442,-1.829906 1.876354,0 3.39744,0.819277 3.39744,1.829906 z"
           sodipodi:nodetypes="sssss"
           inkscape:label="Joystick Top" />
        <path
           id="path57"
           style="fill:#666666;fill-opacity:1;stroke:#000000;stroke-width:0;stroke-dasharray:none;stroke-opacity:0.0055402;paint-order:markers fill stroke"
           inkscape:label="Joystick fill"
           d="m 36.277372,25.344189 c -0.02489,4.20231 -0.01442,8.404804 -0.01548,12.607189 0.01368,0.980784 -0.01986,1.964192 0.04877,2.943082 0.08226,0.466092 0.40667,0.857562 0.759894,1.156705 0.833744,0.676606 1.949603,0.940893 3.007648,0.835454 1.063684,-0.07632 2.165181,-0.556628 2.757834,-1.476748 0.172363,-0.25355 0.243822,-0.554255 0.238808,-0.85851 0.05096,-2.250252 0.02707,-4.50157 0.04107,-6.752277 4.71e-4,-2.798284 0.02396,-5.596922 -0.0051,-8.394995 -0.03742,-0.122282 0.03379,-0.418551 -0.0782,-0.421184 -0.236675,0.07698 -0.45045,0.196605 -0.633222,0.365525 -0.625187,0.441684 -1.394087,0.642153 -2.147303,0.715234 -0.794141,0.03879 -1.607978,0.01726 -2.363433,-0.257026 -0.436816,-0.139201 -0.832821,-0.379487 -1.184246,-0.670145 -0.140623,-0.08685 -0.281275,-0.173657 -0.421909,-0.260492 -0.0017,0.156062 -0.0034,0.312125 -0.0052,0.468188 z" />
        <path
           id="path56"
           style="fill:#dcdcdc;fill-opacity:0.99723;stroke:#000000;stroke-width:0;stroke-linecap:round;stroke-linejoin:round;stroke-dasharray:none;paint-order:markers fill stroke"
           inkscape:label="Joystick stick glow"
           d="m 36.679766,25.413284 v 15.89412 c 0.193361,0.280609 0.445278,0.515087 0.734333,0.674895 V 25.81326 C 37.145205,25.7213 36.89542,25.587758 36.679766,25.413284 Z" />
        <path
           style="fill:#1a1a1a;fill-opacity:0;stroke:#000000;stroke-width:0.399875;stroke-linecap:round;stroke-linejoin:round;stroke-dasharray:none"
           d="m 43.074736,24.277578 -0.01861,16.246657 c -0.01861,1.245879 -1.527909,2.340775 -3.389732,2.340775 -1.861822,0 -3.371128,-1.094896 -3.366117,-2.364752 l 0.005,-15.934973"
           id="path5"
           sodipodi:nodetypes="ccscc"
           inkscape:label="Joytstick stick shape" />
        <path
           id="path6"
           style="fill:#ff0000;fill-opacity:0;stroke:#000000;stroke-width:0.29478"
           d="m 36.403751,40.23141 c -0.294535,0.174716 -0.560324,0.3929 -0.783228,0.66605 -0.60377,0.837345 -0.0024,2.022369 0.949375,2.349486 1.674735,0.792674 3.668959,0.755216 5.44555,0.315922 0.881839,-0.241784 1.864424,-0.809029 1.976798,-1.74402 0.04846,-0.679021 -0.406155,-1.246054 -0.996443,-1.591823"
           sodipodi:nodetypes="cccccc"
           inkscape:label="1st base circle" />
        <path
           id="path7"
           style="fill:#1a1a1a;fill-opacity:0;stroke:#000000;stroke-width:0.294059"
           d="m 36.377566,40.029532 c -0.568354,0.255828 -1.07717,0.611596 -1.471717,1.101904 -0.921437,1.155238 -0.252289,2.935792 1.065309,3.548703 2.220722,1.039794 4.91527,1.023509 7.181725,0.118721 1.136826,-0.516915 2.051695,-1.753401 1.644377,-2.964936 -0.2581,-0.844266 -0.956582,-1.433306 -1.776728,-1.803857"
           sodipodi:nodetypes="cccccc"
           inkscape:label="2nd base circle" />
        <path
           id="path8"
           style="fill:#1a1a1a;fill-opacity:0;stroke:#000000;stroke-width:0.291022"
           d="m 36.388498,39.983147 c -0.957554,0.352436 -1.810038,0.906958 -2.376636,1.727845 -1.091816,1.67269 0.0094,4.06302 1.978221,4.664013 2.581435,1.013618 5.69501,0.923434 8.1406,-0.369803 1.374768,-0.842762 2.142214,-2.636684 1.335173,-4.044195 -0.482289,-0.957749 -1.405791,-1.59816 -2.450079,-1.980617"
           sodipodi:nodetypes="cccccc"
           inkscape:label="3rd base circle" />
        <path
           id="path9"
           style="fill:#1a1a1a;fill-opacity:0;stroke:#000000;stroke-width:0.300553"
           d="m 36.398992,38.983325 c -1.571646,0.493455 -2.999555,1.408605 -3.901266,2.795333 -1.618927,2.56059 -0.286145,6.323202 2.511391,7.459597 3.207728,1.396477 7.14885,1.362167 10.1621,-0.496535 2.233204,-1.36179 3.08866,-4.507087 1.811617,-6.776194 -0.83958,-1.464123 -2.300118,-2.461916 -3.906529,-2.96853"
           sodipodi:nodetypes="cccccc"
           inkscape:label="4th base circle" />
        <path
           style="fill:#333333;fill-opacity:1;stroke:#000000;stroke-width:0.177348;stroke-linecap:round;stroke-linejoin:round;paint-order:markers fill stroke"
           d="m 147.7881,189.13404 c -5.55111,-0.38097 -10.34709,-1.51553 -15.18568,-3.59241 -1.88891,-0.81078 -3.22797,-1.62832 -4.7517,-2.90106 -3.14146,-2.62401 -5.56836,-6.66308 -6.54479,-10.89244 -0.38228,-1.65583 -0.46578,-2.45933 -0.46173,-4.4432 0.004,-2.03972 0.0859,-2.75616 0.50185,-4.3981 1.09872,-4.33732 4.17288,-8.31415 8.8046,-11.3899 1.66407,-1.10505 4.73759,-2.65392 6.07269,-3.06027 l 0.18686,-0.0569 v 1.25559 1.25559 l -0.31143,0.12865 c -0.69885,0.28868 -2.31057,1.13241 -3.04532,1.59421 -2.83073,1.77915 -5.0668,4.22995 -5.95393,6.52572 -0.58149,1.50481 -0.68189,2.07997 -0.68974,3.95134 -0.008,1.86556 0.0659,2.38935 0.54886,3.90138 1.08624,3.40047 3.65222,6.40064 6.83875,7.99596 0.83397,0.41752 3.48844,1.39702 4.98966,1.84119 2.78759,0.82476 5.70819,1.33585 8.79201,1.53854 6.47619,0.42567 13.26372,-0.87421 18.64622,-3.57092 1.41115,-0.70701 2.14117,-1.22135 3.22931,-2.27522 2.19411,-2.12501 3.51384,-4.50972 4.04721,-7.31314 0.19006,-0.99898 0.19051,-2.82365 9.4e-4,-3.80162 -0.41753,-2.15403 -1.69369,-4.49017 -3.44474,-6.30597 -1.00345,-1.04056 -1.65003,-1.58396 -2.79346,-2.34767 -0.79296,-0.52963 -3.36678,-1.87093 -3.59013,-1.87093 -0.0824,0 -0.10674,-0.29401 -0.10674,-1.28728 0,-0.708 0.0303,-1.28728 0.0674,-1.28728 0.14793,0 2.02697,0.78374 2.98592,1.24542 5.40916,2.60417 9.6424,6.88153 11.45494,11.57431 0.4097,1.06074 0.82051,2.74656 0.98438,4.03949 0.20561,1.6223 0.13598,4.10265 -0.15854,5.64742 -0.58714,3.07969 -1.66266,5.63983 -3.37565,8.03532 -1.9588,2.73925 -4.09194,4.44612 -7.97203,6.37896 -4.41007,2.19685 -9.30544,3.48054 -14.69992,3.85469 -1.09244,0.0758 -4.13915,0.0941 -5.06607,0.0305 z"
           id="path14"
           transform="scale(0.26458333)"
           inkscape:label="4th base circle fill" />
        <path
           style="fill:#333333;fill-opacity:0.99169;stroke:#000000;stroke-width:0.177348;stroke-linecap:round;stroke-linejoin:round;paint-order:markers fill stroke"
           d="m 147.79402,177.22542 c -3.8783,-0.24094 -7.28312,-0.95988 -11.17619,-2.35989 -2.50049,-0.89921 -3.75446,-1.62655 -5.20561,-3.01939 -4.20243,-4.0336 -5.11506,-9.99554 -2.16195,-14.12349 0.47133,-0.65883 1.51145,-1.86588 1.56323,-1.8141 0.0164,0.0164 -0.0979,0.28884 -0.25392,0.60548 -0.59907,1.21573 -0.8144,2.19485 -0.81153,3.6901 0.005,2.55901 0.99985,4.9737 2.85832,6.93704 1.19954,1.26724 2.38616,2.02539 4.53976,2.90053 3.01582,1.2255 6.33368,1.99635 9.86986,2.29307 1.76287,0.14793 5.59751,0.0611 7.33309,-0.16608 2.58175,-0.3379 5.15841,-0.93795 7.51606,-1.75032 2.26483,-0.78039 3.69855,-1.65476 5.23507,-3.19268 0.54973,-0.55022 1.1913,-1.28232 1.42571,-1.62687 1.33046,-1.95557 1.93159,-4.10156 1.70054,-6.07085 -0.11322,-0.96498 -0.5123,-2.24408 -0.98512,-3.15746 -0.412,-0.79588 -0.41454,-0.80383 -0.19495,-0.60957 0.28938,0.25598 1.18261,1.355 1.55249,1.91015 0.49378,0.7411 1.14532,1.9972 1.38498,2.67011 0.67559,1.89685 0.63176,4.25182 -0.11909,6.39803 -0.33221,0.94961 -1.01965,2.26781 -1.62718,3.12023 -0.62998,0.8839 -1.96191,2.23251 -2.84817,2.88384 -1.93165,1.41958 -6.183,3.03954 -10.009,3.8139 -2.88387,0.58367 -6.68385,0.84855 -9.5864,0.66822 z"
           id="path15"
           transform="scale(0.26458333)"
           inkscape:label="3rd base circle fill" />
        <path
           style="fill:#333333;fill-opacity:1;stroke:#000000;stroke-width:0.177348;stroke-linecap:round;stroke-linejoin:round;paint-order:markers fill stroke"
           d="m 147.24827,171.15953 c -3.7705,-0.30444 -7.36616,-1.20139 -10.59908,-2.64398 -2.97561,-1.32778 -5.01939,-3.8659 -5.60177,-6.9567 -0.16597,-0.88086 -0.12195,-2.4534 0.0902,-3.22335 0.1996,-0.72429 0.70479,-1.75086 1.15195,-2.34082 0.39486,-0.52098 1.85516,-2.01933 1.96803,-2.01933 0.0339,0 -0.0992,0.23971 -0.29565,0.53269 -0.65846,0.98193 -0.96397,2.34536 -0.80372,3.58678 0.27438,2.12557 1.58746,4.12711 3.44337,5.24877 0.5717,0.34552 2.48502,1.17962 3.58196,1.56154 4.63151,1.61252 9.88868,1.92802 15.72904,0.94394 2.78565,-0.46937 4.58065,-1.01046 6.24317,-1.88197 2.83858,-1.48801 4.50582,-3.6005 4.70545,-5.96208 0.0971,-1.1493 -0.30987,-2.6168 -1.01916,-3.67453 -0.2016,-0.30065 -0.35215,-0.56104 -0.33454,-0.57865 0.0651,-0.0651 1.54,1.44598 1.92032,1.96757 0.49879,0.68406 1.03581,1.75028 1.33855,2.65761 0.21746,0.65174 0.23575,0.80476 0.23829,1.99321 0.002,1.12291 -0.0221,1.36682 -0.19205,1.91016 -0.79351,2.53735 -2.66253,4.70051 -5.32805,6.16655 -1.09381,0.60159 -4.14746,1.57682 -6.40863,2.04668 -3.16199,0.65704 -6.84595,0.90666 -9.82772,0.66591 z"
           id="path16"
           transform="scale(0.26458333)"
           inkscape:label="2nd base circle fill" />
        <path
           style="fill:#333333;fill-opacity:1;stroke:#000000;stroke-width:0.177348;stroke-linecap:round;stroke-linejoin:round;paint-order:markers fill stroke"
           d="m 146.70845,165.09754 c -1.93173,-0.18973 -4.27359,-0.69088 -5.94163,-1.27149 -1.35679,-0.47227 -3.02939,-1.20977 -3.65069,-1.60971 -1.58403,-1.01965 -2.66179,-2.77715 -2.76182,-4.50372 -0.0806,-1.39038 0.27109,-2.27904 1.33886,-3.38343 l 0.702,-0.72607 0.0519,0.33145 c 0.30203,1.92961 1.17548,3.52353 2.74495,5.00917 3.49118,3.30469 9.47814,4.65253 14.94945,3.36557 3.96671,-0.93306 7.24775,-3.2581 8.63618,-6.11985 0.36885,-0.76026 0.70182,-1.9149 0.71034,-2.46326 l 0.005,-0.29067 0.55665,0.59545 c 0.61526,0.65814 1.00223,1.25056 1.33189,2.039 0.19377,0.46345 0.21821,0.63233 0.2197,1.51806 0.001,0.89303 -0.0212,1.0508 -0.21803,1.51806 -0.69182,1.64204 -1.9287,2.84778 -3.98276,3.88248 -1.86806,0.94102 -4.21207,1.54057 -7.80006,1.99511 -1.23597,0.15657 -5.7048,0.23041 -6.89143,0.11385 z"
           id="path17"
           inkscape:label="1st base circle fill"
           transform="scale(0.26458333)" />
        <path
           id="path23"
           style="fill:#f9f9f9;fill-opacity:0;stroke:#dcdcdc;stroke-width:0.0661458;stroke-dasharray:none;stroke-opacity:1"
           d="m 32.497726,41.778658 c -1.618927,2.56059 -0.286145,6.323202 2.511391,7.459597"
           sodipodi:nodetypes="cc"
           inkscape:label="4th base circle glow" />
        <path
           id="path35"
           style="fill:#1a1a1a;fill-opacity:0;stroke:#dcdcdc;stroke-width:0.0529167;stroke-dasharray:none;stroke-opacity:1"
           d="m 35.620523,40.89746 c -0.60377,0.837345 -0.0024,2.022369 0.949375,2.349486"
           sodipodi:nodetypes="cc"
           inkscape:label="1st base circle glow" />
        <path
           id="path36"
           style="fill:#1a1a1a;fill-opacity:0;stroke:#dcdcdc;stroke-width:0.0529167;stroke-dasharray:none;stroke-opacity:1"
           d="m 34.905849,41.131436 c -0.921437,1.155238 -0.252289,2.935792 1.065309,3.548703"
           sodipodi:nodetypes="cc"
           inkscape:label="2nd base circle glow" />
        <path
           id="path37"
           style="fill:#1a1a1a;fill-opacity:0;stroke:#dcdcdc;stroke-width:0.0529167;stroke-dasharray:none;stroke-opacity:1"
           d="m 34.011862,41.710992 c -1.091816,1.67269 0.0094,4.06302 1.978221,4.664013"
           sodipodi:nodetypes="cc"
           inkscape:label="3rd base circle glow" />
      </g>
      <g
         id="g21"
         inkscape:label="Button">
        <path
           style="fill:#ff0000;fill-opacity:1;stroke:#000000;stroke-width:0.643944;stroke-linecap:round;stroke-linejoin:round;stroke-opacity:1;paint-order:markers fill stroke"
           d="m 176.67996,140.97994 c -3.34092,-0.72685 -6.45376,-2.82947 -6.45376,-4.35928 0,-0.84577 1.01733,-1.92975 2.63996,-2.81289 5.29563,-2.88225 15.6536,-2.3819 19.39331,0.93681 2.67399,2.37295 0.89332,4.65128 -4.76666,6.09886 -2.70827,0.69265 -7.95225,0.75885 -10.81285,0.1365 z"
           id="path19"
           inkscape:label="path19"
           transform="scale(0.26458333)" />
        <path
           style="fill:#ff0000;fill-opacity:1;stroke:#000000;stroke-width:0.103501;stroke-linecap:round;stroke-linejoin:round;paint-order:markers fill stroke"
           d="m 180.9077,145.95219 c -1.11387,-0.039 -2.81964,-0.24671 -3.95016,-0.48107 -3.75767,-0.779 -6.43631,-2.42335 -6.82825,-4.1917 -0.0377,-0.17025 -0.0806,-0.69777 -0.0952,-1.17227 l -0.0266,-0.86273 0.36955,0.34512 c 0.8878,0.8291 2.45278,1.66407 4.12521,2.20092 1.24932,0.40103 2.98502,0.75391 4.56372,0.92783 0.95656,0.10538 3.70732,0.14718 4.77682,0.0726 2.74683,-0.19159 5.23762,-0.76207 7.19483,-1.64786 1.09193,-0.49418 1.87162,-1.00155 2.54458,-1.65586 l 0.38775,-0.37699 -0.0143,1.09949 c -0.0123,0.94515 -0.0281,1.14162 -0.11205,1.39954 -0.51497,1.58162 -3.06514,3.07637 -6.51375,3.81796 -2.0081,0.43183 -4.12934,0.60525 -6.42204,0.52504 z"
           id="path20"
           transform="scale(0.26458333)" />
        <path
           style="fill:#ff0000;fill-opacity:1;stroke:#000000;stroke-width:0.103501;stroke-linecap:round;stroke-linejoin:round;paint-order:markers fill stroke;filter:url(#filter21)"
           d="m 180.9077,145.95219 c -1.11387,-0.039 -2.81964,-0.24671 -3.95016,-0.48107 -3.75767,-0.779 -6.43631,-2.42335 -6.82825,-4.1917 -0.0377,-0.17025 -0.0806,-0.69777 -0.0952,-1.17227 l -0.0266,-0.86273 0.36955,0.34512 c 0.8878,0.8291 2.45278,1.66407 4.12521,2.20092 1.24932,0.40103 2.98502,0.75391 4.56372,0.92783 0.95656,0.10538 3.70732,0.14718 4.77682,0.0726 2.74683,-0.19159 5.23762,-0.76207 7.19483,-1.64786 1.09193,-0.49418 1.87162,-1.00155 2.54458,-1.65586 l 0.38775,-0.37699 -0.0143,1.09949 c -0.0123,0.94515 -0.0281,1.14162 -0.11205,1.39954 -0.51497,1.58162 -3.06514,3.07637 -6.51375,3.81796 -2.0081,0.43183 -4.12934,0.60525 -6.42204,0.52504 z"
           id="path21"
           transform="scale(0.26458333)" />
        <path
           id="path2-1-0"
           style="fill:#1a1a1a;fill-opacity:0;stroke:#000000;stroke-width:0.306;stroke-dasharray:none"
           d="m 51.420429,36.170833 c 0,0.810884 -1.470462,1.468234 -3.284365,1.468234 -1.813907,0 -3.284369,-0.65735 -3.284369,-1.468234 0,-0.810882 1.470462,-1.468235 3.284369,-1.468235 1.813903,0 3.284365,0.657353 3.284365,1.468235 z"
           sodipodi:nodetypes="sssss" />
        <path
           style="fill:none;fill-opacity:1;stroke:#000000;stroke-width:0.25213;stroke-linecap:round;stroke-linejoin:round;stroke-dasharray:none;stroke-opacity:1"
           d="m 51.455791,36.130882 -0.0035,1.170032 c -0.0035,0.796178 -1.473949,1.453527 -3.287852,1.453527 -1.813907,0 -3.284369,-0.657349 -3.300977,-1.486215 l -0.03405,-1.032514"
           id="path209"
           sodipodi:nodetypes="ccscc" />
      </g>
      <g
         id="g64"
         inkscape:label="Ball">
        <ellipse
           style="fill:#ff0000;fill-opacity:1;stroke:#000000;stroke-width:0.505;stroke-linecap:round;stroke-linejoin:round;stroke-dasharray:none;stroke-opacity:1"
           id="path210"
           cx="39.6875"
           cy="19.809944"
           rx="6.4058003"
           ry="6.1366496"
           inkscape:label="Ball" />
        <ellipse
           style="fill:url(#linearGradient61);fill-opacity:1;stroke:#000000;stroke-width:0;stroke-linecap:round;stroke-linejoin:round;stroke-dasharray:none;stroke-opacity:1"
           id="ellipse60"
           cx="39.6875"
           cy="19.809944"
           rx="6.240221"
           ry="5.9780273"
           inkscape:label="Ball shadow" />
        <ellipse
           style="fill:#ffaaaa;fill-opacity:1;stroke:#000000;stroke-width:0;stroke-linecap:round;stroke-linejoin:round;stroke-dasharray:none;stroke-opacity:0"
           id="ellipse58"
           cx="36.832298"
           cy="17.225666"
           rx="1.4091959"
           ry="1.4242988"
           inkscape:label="Ball glow" />
      </g>
    </g>
  </g>
</svg>
