<?xml version="1.0" encoding="UTF-8" standalone="no"?>
<!-- Created with Inkscape (http://www.inkscape.org/) -->

<svg
   width="100"
   height="100"
   viewBox="0 0 26.458333 26.458333"
   version="1.1"
   id="svg1"
   inkscape:version="1.3.1 (91b66b0, 2023-11-16)"
   sodipodi:docname="Arcadia_colored.svg"
   xmlns:inkscape="http://www.inkscape.org/namespaces/inkscape"
   xmlns:sodipodi="http://sodipodi.sourceforge.net/DTD/sodipodi-0.dtd"
   xmlns:xlink="http://www.w3.org/1999/xlink"
   xmlns="http://www.w3.org/2000/svg"
   xmlns:svg="http://www.w3.org/2000/svg">
  <sodipodi:namedview
     id="namedview1"
     pagecolor="#ffffff"
     bordercolor="#000000"
     borderopacity="0.25"
     inkscape:showpageshadow="2"
     inkscape:pageopacity="0.0"
     inkscape:pagecheckerboard="0"
     inkscape:deskcolor="#d1d1d1"
     inkscape:document-units="px"
     inkscape:zoom="3.9070823"
     inkscape:cx="14.077001"
     inkscape:cy="75.631886"
     inkscape:window-width="1680"
     inkscape:window-height="916"
     inkscape:window-x="0"
     inkscape:window-y="25"
     inkscape:window-maximized="1"
     inkscape:current-layer="layer1"
     showguides="true">
    <sodipodi:guide
       position="0,79.375"
       orientation="-1,0"
       id="guide1"
       inkscape:locked="false"
       inkscape:label=""
       inkscape:color="rgb(0,134,229)" />
    <sodipodi:guide
       position="26.458333,26.458333"
       orientation="0,1"
       id="guide2"
       inkscape:locked="false"
       inkscape:label=""
       inkscape:color="rgb(0,134,229)" />
    <sodipodi:guide
       position="26.458333,0"
       orientation="-1,0"
       id="guide3"
       inkscape:locked="false"
       inkscape:label=""
       inkscape:color="rgb(0,134,229)" />
    <sodipodi:guide
       position="26.458333,0"
       orientation="0,1"
       id="guide4"
       inkscape:locked="false"
       inkscape:label=""
       inkscape:color="rgb(0,134,229)" />
    <sodipodi:guide
       position="2.6458333,23.8125"
       orientation="0,1"
       id="guide5"
       inkscape:locked="false"
       inkscape:label=""
       inkscape:color="rgb(0,134,229)" />
    <sodipodi:guide
       position="2.6458333,2.6458333"
       orientation="-1,0"
       id="guide6"
       inkscape:locked="false"
       inkscape:label=""
       inkscape:color="rgb(0,134,229)" />
    <sodipodi:guide
       position="23.8125,2.6458333"
       orientation="-1,0"
       id="guide7"
       inkscape:locked="false"
       inkscape:label=""
       inkscape:color="rgb(0,134,229)" />
    <sodipodi:guide
       position="23.8125,2.6458333"
       orientation="0,1"
       id="guide8"
       inkscape:locked="false"
       inkscape:label=""
       inkscape:color="rgb(0,134,229)" />
  </sodipodi:namedview>
  <defs
     id="defs1">
    <linearGradient
       id="linearGradient1"
       inkscape:collect="always">
      <stop
         style="stop-color:#d35f5f;stop-opacity:1"
         offset="0"
         id="stop1" />
      <stop
         style="stop-color:#782121;stop-opacity:1"
         offset="1"
         id="stop2" />
    </linearGradient>
    <inkscape:path-effect
       effect="perspective-envelope"
       up_left_point="8.19,18.578643"
       up_right_point="18.4,18.578643"
       down_left_point="7.8873871,20.892865"
       down_right_point="18.703564,20.892865"
       id="path-effect1"
       is_visible="true"
       lpeversion="1"
       deform_type="perspective"
       horizontal_mirror="false"
       vertical_mirror="false"
       overflow_perspective="false" />
    <linearGradient
       id="linearGradient63"
       inkscape:collect="always">
      <stop
         style="stop-color:#dcdcdc;stop-opacity:0.70175439;"
         offset="0"
         id="stop63" />
      <stop
         style="stop-color:#666666;stop-opacity:0.69824558;"
         offset="1"
         id="stop64" />
    </linearGradient>
    <linearGradient
       id="linearGradient60"
       inkscape:collect="always">
      <stop
         style="stop-color:#ff0000;stop-opacity:0.49824563;"
         offset="0"
         id="stop60" />
      <stop
         style="stop-color:#aa0000;stop-opacity:0.80350876;"
         offset="1"
         id="stop61" />
    </linearGradient>
    <inkscape:path-effect
       effect="fillet_chamfer"
       id="path-effect12"
       is_visible="true"
       lpeversion="1"
       nodesatellites_param="F,0,0,1,0,0,0,1 @ F,0,0,1,0,1.3229167,0,1 @ F,0,0,1,0,0,0,1"
       radius="5"
       unit="px"
       method="auto"
       mode="F"
       chamfer_steps="1"
       flexible="false"
       use_knot_distance="true"
       apply_no_radius="true"
       apply_with_radius="true"
       only_selected="false"
       hide_knots="false" />
    <inkscape:path-effect
       effect="fillet_chamfer"
       id="path-effect10"
       is_visible="true"
       lpeversion="1"
       nodesatellites_param="F,0,0,1,0,0,0,1 @ F,0,0,1,0,1.3229167,0,1 @ F,0,0,1,0,0,0,1"
       radius="5"
       unit="px"
       method="auto"
       mode="F"
       chamfer_steps="1"
       flexible="false"
       use_knot_distance="true"
       apply_no_radius="true"
       apply_with_radius="true"
       only_selected="false"
       hide_knots="false" />
    <inkscape:path-effect
       effect="fillet_chamfer"
       id="path-effect9"
       is_visible="true"
       lpeversion="1"
       nodesatellites_param="F,0,0,1,0,0,0,1 @ F,0,0,1,0,2.38125,0,1 @ F,0,0,1,0,2.38125,0,1 @ F,0,0,1,0,2.38125,0,1 @ F,0,0,1,0,2.38125,0,1 @ F,0,0,1,0,0,0,1"
       radius="10"
       unit="px"
       method="auto"
       mode="F"
       chamfer_steps="1"
       flexible="false"
       use_knot_distance="true"
       apply_no_radius="true"
       apply_with_radius="true"
       only_selected="false"
       hide_knots="false" />
    <filter
       style="color-interpolation-filters:sRGB"
       inkscape:label="Blur"
       id="filter21"
       x="-0.20247296"
       y="-2.1063501"
       width="1.4049459"
       height="5.2127009">
      <feGaussianBlur
         stdDeviation="2 6"
         result="blur"
         id="feGaussianBlur21" />
    </filter>
    <linearGradient
       inkscape:collect="always"
       xlink:href="#linearGradient60"
       id="linearGradient61"
       x1="35.134853"
       y1="15.46568"
       x2="44.414261"
       y2="23.55542"
       gradientUnits="userSpaceOnUse"
       gradientTransform="matrix(0.97415163,0,0,0.97415163,1.025857,0.51205468)" />
    <linearGradient
       inkscape:collect="always"
       xlink:href="#linearGradient63"
       id="linearGradient64"
       x1="92.299294"
       y1="209.80809"
       x2="195.17032"
       y2="127.67392"
       gradientUnits="userSpaceOnUse" />
    <linearGradient
       inkscape:collect="always"
       xlink:href="#linearGradient1"
       id="linearGradient2"
       x1="13.270602"
       y1="0.082871906"
       x2="13.270602"
       y2="26.458332"
       gradientUnits="userSpaceOnUse" />
  </defs>
  <g
     inkscape:label="Layer 1"
     inkscape:groupmode="layer"
     id="layer1">
    <rect
       style="fill:url(#linearGradient2);fill-opacity:1;stroke:#000000;stroke-width:0.166266;stroke-dasharray:none;stroke-opacity:0;paint-order:markers fill stroke"
       id="rect65"
       width="26.37546"
       height="26.37546"
       x="0.082872003"
       y="0.082871906"
       inkscape:label="rect65" />
    <g
       id="g65"
       inkscape:label="Joystick"
       transform="matrix(0.43066491,0,0,0.43066491,-3.8563413,-3.1340322)">
      <g
         id="g22"
         inkscape:label="Base">
        <path
           style="fill:#1a1a1a;fill-opacity:0;stroke:#000000;stroke-width:0.529167;stroke-linecap:round;stroke-linejoin:round;stroke-dasharray:none"
           d="m 24.257994,55.813658 0.845459,5.185684 a 1.5560683,1.5560683 40.370066 0 0 1.535791,1.305677 l 12.922531,0"
           id="path10"
           sodipodi:nodetypes="ccc"
           inkscape:label="Bottom shape left"
           inkscape:original-d="m 24.257994,55.813658 1.058333,6.491361 h 14.245448"
           inkscape:path-effect="#path-effect10" />
        <path
           style="fill:#1a1a1a;fill-opacity:0;stroke:#000000;stroke-width:0.529167;stroke-linecap:round;stroke-linejoin:round;stroke-dasharray:none"
           d="m 24.257994,55.813658 0.845459,5.185684 a 1.5560683,1.5560683 40.370066 0 0 1.535791,1.305677 l 12.922531,0"
           id="path11"
           sodipodi:nodetypes="ccc"
           transform="matrix(-1,0,0,1,79.344787,0)"
           inkscape:label="Bottom shape right"
           inkscape:original-d="m 24.257994,55.813658 1.058333,6.491361 h 14.245448"
           inkscape:path-effect="#path-effect12" />
        <path
           style="fill:#666666;fill-opacity:1;stroke:#000000;stroke-width:0.483091;stroke-linecap:round;stroke-linejoin:round;paint-order:markers fill stroke"
           d="m 98.777644,217.61228 c -1.565412,-0.30765 -2.880335,-1.05965 -3.967828,-2.26921 -1.21555,-1.35198 -1.804274,-2.96768 -1.763357,-4.83937 0.01632,-0.74655 1.861847,-18.5756 4.101172,-39.62011 2.954779,-27.76818 4.178089,-38.53361 4.460139,-39.25029 0.89631,-2.27756 2.60854,-4.11279 4.79215,-5.13643 l 1.28387,-0.60186 14.30882,-0.063 14.30882,-0.063 v 10.61369 10.61369 l -1.78288,0.71868 c -6.18044,2.49134 -11.48046,7.32495 -13.61353,12.41551 -1.54762,3.69341 -1.7757,8.96464 -0.56412,13.03771 1.24658,4.19074 3.74065,8.06953 6.84522,10.64576 4.53898,3.76651 14.46416,6.66012 22.86748,6.66682 6.24586,0.005 12.29147,-1.31595 17.65537,-3.85757 3.27027,-1.54958 5.14091,-2.85965 7.19856,-5.04139 2.75313,-2.91917 4.36162,-6.05191 5.17931,-10.08735 0.46828,-2.31105 0.34703,-7.05944 -0.23433,-9.17703 -1.66302,-6.05747 -7.39496,-11.93394 -14.27768,-14.63766 l -1.89837,-0.74574 -8.1e-4,-10.58256 -8.2e-4,-10.58256 14.31388,0.063 14.31389,0.063 1.50131,0.73924 c 2.66396,1.31174 4.57501,3.87012 5.02434,6.72624 0.0783,0.49769 1.96822,18.16032 4.19982,39.25028 4.31938,40.82062 4.2077,39.37974 3.20452,41.34614 -0.48673,0.95407 -2.0993,2.54108 -3.1165,3.06709 -0.3589,0.1856 -1.25456,0.44874 -1.99034,0.58476 -1.63209,0.30171 -100.81346,0.30512 -102.348106,0.004 z m 89.307196,-71.23486 c 3.69003,-0.91415 6.28055,-2.61575 6.79329,-4.4622 0.13181,-0.47467 0.24022,-1.93742 0.24091,-3.25055 10e-4,-2.10345 -0.0664,-2.52065 -0.56705,-3.50651 -1.04233,-2.05231 -3.91021,-3.58424 -8.06476,-4.30795 -2.87557,-0.50091 -8.14361,-0.33437 -10.70929,0.33856 -3.77421,0.9899 -6.46195,2.84908 -6.81135,4.71159 -0.26067,1.38944 0.0244,5.7676 0.42531,6.53216 1.02141,1.94787 4.12115,3.55644 8.27007,4.29163 2.51384,0.44545 7.95597,0.26441 10.42287,-0.34673 z"
           id="path1"
           transform="scale(0.26458333)"
           inkscape:label="Top fill" />
        <path
           style="display:none;fill:url(#linearGradient64);fill-opacity:1;stroke:#000000;stroke-width:0.483091;stroke-linecap:round;stroke-linejoin:round;paint-order:markers fill stroke"
           d="m 98.777644,217.61228 c -1.565412,-0.30765 -2.880335,-1.05965 -3.967828,-2.26921 -1.21555,-1.35198 -1.804274,-2.96768 -1.763357,-4.83937 0.01632,-0.74655 1.861847,-18.5756 4.101172,-39.62011 2.954779,-27.76818 4.178089,-38.53361 4.460139,-39.25029 0.89631,-2.27756 2.60854,-4.11279 4.79215,-5.13643 l 1.28387,-0.60186 14.30882,-0.063 14.30882,-0.063 v 10.61369 10.61369 l -1.78288,0.71868 c -6.18044,2.49134 -11.48046,7.32495 -13.61353,12.41551 -1.54762,3.69341 -1.7757,8.96464 -0.56412,13.03771 1.24658,4.19074 3.74065,8.06953 6.84522,10.64576 4.53898,3.76651 14.46416,6.66012 22.86748,6.66682 6.24586,0.005 12.29147,-1.31595 17.65537,-3.85757 3.27027,-1.54958 5.14091,-2.85965 7.19856,-5.04139 2.75313,-2.91917 4.36162,-6.05191 5.17931,-10.08735 0.46828,-2.31105 0.34703,-7.05944 -0.23433,-9.17703 -1.66302,-6.05747 -7.39496,-11.93394 -14.27768,-14.63766 l -1.89837,-0.74574 -8.1e-4,-10.58256 -8.2e-4,-10.58256 14.31388,0.063 14.31389,0.063 1.50131,0.73924 c 2.66396,1.31174 4.57501,3.87012 5.02434,6.72624 0.0783,0.49769 1.96822,18.16032 4.19982,39.25028 4.31938,40.82062 4.2077,39.37974 3.20452,41.34614 -0.48673,0.95407 -2.0993,2.54108 -3.1165,3.06709 -0.3589,0.1856 -1.25456,0.44874 -1.99034,0.58476 -1.63209,0.30171 -100.81346,0.30512 -102.348106,0.004 z m 89.307196,-71.23486 c 3.69003,-0.91415 6.28055,-2.61575 6.79329,-4.4622 0.13181,-0.47467 0.24022,-1.93742 0.24091,-3.25055 10e-4,-2.10345 -0.0664,-2.52065 -0.56705,-3.50651 -1.04233,-2.05231 -3.91021,-3.58424 -8.06476,-4.30795 -2.87557,-0.50091 -8.14361,-0.33437 -10.70929,0.33856 -3.77421,0.9899 -6.46195,2.84908 -6.81135,4.71159 -0.26067,1.38944 0.0244,5.7676 0.42531,6.53216 1.02141,1.94787 4.12115,3.55644 8.27007,4.29163 2.51384,0.44545 7.95597,0.26441 10.42287,-0.34673 z"
           id="path62"
           inkscape:label="Top fill shadow"
           transform="scale(0.26458333)" />
        <path
           style="fill:#666666;fill-opacity:1;stroke:#000000;stroke-width:0.394091;stroke-linecap:round;stroke-linejoin:round;paint-order:markers fill stroke"
           d="m 99.148309,234.11399 c -1.685344,-0.60313 -2.772846,-1.94081 -3.173599,-3.90367 -0.484118,-2.37117 -2.002168,-12.08058 -1.904111,-12.17864 0.05348,-0.0535 0.476617,0.15882 0.940314,0.47176 0.463697,0.31295 1.324868,0.75284 1.913714,0.97755 l 1.070629,0.40855 h 51.858134 c 48.40043,0 51.9258,-0.021 52.87314,-0.31546 0.55826,-0.17351 1.49254,-0.60344 2.07617,-0.95542 0.71834,-0.4332 1.06116,-0.55745 1.06116,-0.38458 0,0.73499 -2.06172,12.72353 -2.2761,13.23514 -0.37173,0.8871 -1.15846,1.74222 -2.12638,2.31122 l -0.85716,0.50389 -50.38174,0.0387 c -41.76807,0.0321 -50.500123,-0.004 -51.074171,-0.20907 z"
           id="path3"
           transform="scale(0.26458333)"
           inkscape:label="Bottom fill" />
        <path
           id="rect9"
           style="fill:#1a1a1a;fill-opacity:0;stroke:#000000;stroke-width:0.528081;stroke-linecap:round;stroke-linejoin:round"
           d="m 43.12138,32.967606 h 7.163614 a 2.6472098,2.6472098 41.972396 0 1 2.63244,2.367964 l 2.143453,20.206277 a 2.1420107,2.1420107 131.9724 0 1 -2.13006,2.367964 H 26.444173 a 2.1420107,2.1420107 48.027604 0 1 -2.13006,-2.367964 L 26.457566,35.33557 a 2.6472098,2.6472098 138.0276 0 1 2.63244,-2.367964 h 7.057306"
           sodipodi:nodetypes="cccccc"
           inkscape:label="Top shape"
           inkscape:original-d="m 43.12138,32.967606 h 9.544864 l 2.645833,24.942205 H 24.062923 l 2.645833,-24.942205 h 9.438556"
           inkscape:path-effect="#path-effect9" />
        <path
           style="font-size:3.52778px;line-height:1.25;font-family:Giro;-inkscape-font-specification:'Giro, Normal';stroke-width:0.0675206;fill:#ff5555;fill-opacity:1;stroke:#900000;stroke-opacity:1"
           d="M 9.4673821,20.111885 C 9.487959,19.893638 9.4330271,19.712966 9.3068676,19.56889 9.178209,19.425846 9.0125194,19.352975 8.8121422,19.352975 c -0.2003771,0 -0.3790692,0.07287 -0.540359,0.219417 -0.1590531,0.147629 -0.2546657,0.328364 -0.2822734,0.539493 -0.027898,0.213352 0.02162,0.395926 0.1455096,0.550559 0.1288046,0.152082 0.2956465,0.230416 0.5037855,0.230416 0.1375834,0 0.2689437,-0.04107 0.3933228,-0.119246 0.030689,0.07817 0.086833,0.115509 0.1644365,0.115509 0.056439,0 0.1041003,-0.01868 0.1468091,-0.05971 0.042623,-0.04094 0.06477,-0.08923 0.070358,-0.148493 z m -0.1659607,0.569046 c -0.00575,0.05927 -0.03677,0.08897 -0.093046,0.08897 -0.052759,0 -0.077897,-0.0297 -0.071909,-0.08897 l 0.018602,-0.18412 c -0.043548,0.08449 -0.1169393,0.150856 -0.2135903,0.202623 -0.096895,0.0519 -0.1942759,0.07418 -0.2892509,0.07418 -0.1758797,0 -0.3195358,-0.06307 -0.4260465,-0.195994 -0.109777,-0.128409 -0.152524,-0.285073 -0.1293787,-0.465735 0.023397,-0.18263 0.1047447,-0.335338 0.2405699,-0.462299 0.134548,-0.122668 0.2885666,-0.185463 0.4622583,-0.185463 0.170286,0 0.3101624,0.06279 0.4205052,0.185463 0.1072421,0.126961 0.1542103,0.279669 0.1364923,0.462299 z M 8.7807321,19.632015 c -0.1265424,0 -0.2413995,0.04571 -0.3414946,0.137458 -0.1009905,0.09572 -0.1594092,0.206178 -0.1763039,0.342412 -0.016111,0.129915 0.014748,0.246095 0.093831,0.340983 0.079452,0.09533 0.1858634,0.143162 0.315453,0.143162 0.1295896,0 0.2432708,-0.04783 0.3476831,-0.143162 0.1039268,-0.09488 0.1609322,-0.211068 0.1740578,-0.340983 0.013764,-0.136234 -0.019796,-0.246695 -0.099246,-0.342412 -0.082873,-0.09174 -0.1840181,-0.137458 -0.3139804,-0.137458 z m -0.095696,0.850138 c -0.097796,0 -0.1808268,-0.0366 -0.2384623,-0.109603 -0.060906,-0.07275 -0.085132,-0.159692 -0.072887,-0.260665 0.012619,-0.10405 0.057462,-0.189758 0.1348053,-0.260904 0.073639,-0.0709 0.1635201,-0.10625 0.2595515,-0.10625 0.099461,0 0.1779538,0.03536 0.2390701,0.10625 0.057887,0.07115 0.083435,0.156854 0.072629,0.260904 -0.010486,0.100975 -0.054287,0.187922 -0.1315702,0.260665 -0.07756,0.073 -0.1653418,0.109603 -0.2631371,0.109603 z m 1.9237068,-1.129178 c -0.200377,0 -0.375776,0.07287 -0.530162,0.215915 -0.1520714,0.144076 -0.2394978,0.324748 -0.2575574,0.535802 l -0.049625,0.579938 c -0.00507,0.05928 0.00839,0.107571 0.043968,0.144794 0.03533,0.04103 0.079632,0.0597 0.1360712,0.0597 0.05644,0 0.1037592,-0.01868 0.1421952,-0.0597 0.04159,-0.03723 0.06286,-0.08552 0.06737,-0.144794 l 0.04413,-0.579938 c 0.0079,-0.104014 0.04888,-0.189691 0.122729,-0.257262 0.07386,-0.07089 0.158457,-0.102699 0.254488,-0.102699 0.05487,0 0.100836,-0.02119 0.141022,-0.05996 0.03669,-0.03871 0.05666,-0.08435 0.05995,-0.13688 0.0033,-0.0524 -0.0109,-0.0977 -0.04591,-0.135947 -0.03493,-0.03818 -0.07774,-0.05897 -0.128676,-0.05897 z m -0.0188,0.27904 c -0.123122,0 -0.235909,0.04571 -0.33185,0.137458 -0.09638,0.09216 -0.149793,0.202606 -0.160234,0.335219 l -0.04566,0.579938 c -0.0047,0.05928 -0.03485,0.08527 -0.091128,0.08527 -0.056276,0 -0.082262,-0.02599 -0.077352,-0.08527 l 0.048039,-0.579938 c 0.015123,-0.182565 0.085821,-0.331683 0.2190419,-0.455106 0.128993,-0.122668 0.280169,-0.185463 0.450455,-0.185463 0.05449,0 0.07992,0.02788 0.07627,0.08377 -0.0037,0.05605 -0.03285,0.08413 -0.08758,0.08413 z m 1.549673,0.839152 c -0.0019,-0.05485 -0.02161,-0.09862 -0.05885,-0.135021 -0.0337,-0.03634 -0.07833,-0.05449 -0.130459,-0.05449 -0.05908,0 -0.108515,0.02178 -0.148489,0.06904 -0.07645,0.08755 -0.165455,0.131453 -0.277221,0.131453 -0.0978,0 -0.17988,-0.0366 -0.246074,-0.109603 -0.06596,-0.07275 -0.09623,-0.159692 -0.09099,-0.260665 0.0054,-0.10405 0.04428,-0.189758 0.116684,-0.260904 0.07215,-0.0709 0.15614,-0.10625 0.252172,-0.10625 0.10289,0 0.187139,0.0389 0.256375,0.116906 0.03632,0.04268 0.08034,0.06405 0.138906,0.06405 0.05168,0 0.09357,-0.01781 0.132617,-0.05695 0.03544,-0.03551 0.05726,-0.07804 0.06221,-0.131074 0.0017,-0.05994 -0.01068,-0.105654 -0.04716,-0.144253 -0.138159,-0.160616 -0.312105,-0.24044 -0.526067,-0.24044 -0.200377,0 -0.374008,0.07287 -0.525119,0.219416 -0.1488,0.147629 -0.231858,0.328364 -0.244802,0.539493 -0.01308,0.213352 0.04912,0.395926 0.187257,0.550559 0.139381,0.152082 0.311671,0.230415 0.516282,0.230415 0.232832,0 0.422876,-0.09321 0.579432,-0.271027 0.03641,-0.04789 0.05525,-0.09567 0.0533,-0.150666 z m -0.134869,0.06968 c -0.134755,0.154883 -0.29925,0.232765 -0.492717,0.232765 -0.172362,0 -0.320405,-0.06307 -0.43966,-0.195994 -0.115206,-0.12841 -0.168847,-0.285073 -0.158266,-0.465735 0.0107,-0.18263 0.07799,-0.335338 0.208231,-0.458783 0.126207,-0.126184 0.275859,-0.188979 0.446145,-0.188979 0.180503,0 0.331336,0.06979 0.449826,0.206567 0.01646,0.02113 0.02618,0.03874 0.02553,0.05992 -5.47e-4,0.01766 -0.01139,0.03533 -0.03265,0.05655 -0.01774,0.01771 -0.0387,0.02834 -0.05588,0.02834 -0.02405,0 -0.0443,-0.01063 -0.06417,-0.03188 -0.0856,-0.09886 -0.193097,-0.15161 -0.329899,-0.15161 -0.126542,0 -0.238224,0.04571 -0.331947,0.137458 -0.0909,0.09572 -0.14164,0.206178 -0.149061,0.342412 -0.0071,0.129915 0.03186,0.246095 0.117544,0.340983 0.08608,0.09533 0.195819,0.143162 0.321907,0.143162 0.143599,0 0.264706,-0.05519 0.359437,-0.165099 0.0218,-0.02556 0.04669,-0.04015 0.0676,-0.04015 0.01743,0 0.03799,0.01094 0.05832,0.02919 0.01676,0.02193 0.02655,0.04387 0.02587,0.06584 -5.63e-4,0.01833 -0.0082,0.03667 -0.02617,0.05504 z m 1.889327,-0.428964 c -0.0033,-0.218247 -0.07794,-0.398919 -0.219846,-0.542995 -0.144289,-0.143044 -0.31794,-0.215915 -0.518318,-0.215915 -0.200378,0 -0.371108,0.07287 -0.516384,0.219417 -0.142922,0.147629 -0.218786,0.328364 -0.223324,0.539493 -0.0046,0.213352 0.06488,0.395927 0.205668,0.550559 0.145422,0.152082 0.320823,0.230416 0.528963,0.230416 0.137583,0 0.264455,-0.04107 0.380293,-0.119246 0.03923,0.07817 0.09946,0.115509 0.177058,0.115509 0.05644,0 0.102059,-0.01868 0.140285,-0.0597 0.03815,-0.04094 0.05502,-0.08923 0.05413,-0.148494 z m -0.103782,0.569046 c 7.26e-4,0.05927 -0.02705,0.08897 -0.08333,0.08897 -0.05276,0 -0.08114,-0.0297 -0.08163,-0.08897 l -0.0015,-0.18412 c -0.03432,0.08449 -0.100456,0.150856 -0.19145,0.202623 -0.09122,0.0519 -0.18617,0.07418 -0.281145,0.07418 -0.175879,0 -0.326427,-0.06307 -0.447462,-0.195994 -0.123808,-0.128409 -0.183673,-0.285073 -0.180269,-0.465735 0.0034,-0.18263 0.0681,-0.335338 0.190055,-0.462299 0.121145,-0.122668 0.268302,-0.185463 0.441994,-0.185463 0.170286,0 0.317023,0.06279 0.44077,0.185463 0.121114,0.126961 0.184769,0.279669 0.187006,0.462299 z M 13.15499,19.632018 c -0.126542,0 -0.236404,0.04571 -0.326475,0.137458 -0.09053,0.09572 -0.13688,0.206179 -0.138889,0.342412 -0.0019,0.129915 0.04164,0.246095 0.131089,0.340983 0.08987,0.09533 0.201507,0.143162 0.331097,0.143162 0.129588,0 0.238044,-0.04783 0.33204,-0.143162 0.09356,-0.09488 0.137869,-0.211068 0.136799,-0.340983 -0.0011,-0.136233 -0.04675,-0.246695 -0.136661,-0.342412 -0.0929,-0.09174 -0.199038,-0.137458 -0.329,-0.137458 z m -0.0028,0.850138 c -0.0978,0 -0.184827,-0.0366 -0.250439,-0.109602 -0.06886,-0.07275 -0.102581,-0.159693 -0.101368,-0.260666 0.0012,-0.10405 0.03673,-0.189758 0.106296,-0.260904 0.06589,-0.0709 0.151911,-0.10625 0.247943,-0.10625 0.09946,0 0.181817,0.03536 0.250679,0.10625 0.06566,0.07115 0.100574,0.156854 0.101138,0.260904 5.47e-4,0.100975 -0.03376,0.187922 -0.103088,0.260666 -0.06959,0.073 -0.153366,0.109602 -0.251161,0.109602 z m 1.834463,-0.885232 c -0.129848,0 -0.237528,0.04563 -0.32664,0.140748 -0.08954,0.09557 -0.130607,0.212986 -0.126417,0.349052 0.0042,0.136986 0.05304,0.253063 0.150507,0.355176 0.09782,0.09895 0.211626,0.146768 0.344693,0.146768 0.136571,0 0.249803,-0.04781 0.335711,-0.146768 0.08878,-0.102116 0.127726,-0.21819 0.120289,-0.355176 -0.0074,-0.136066 -0.05844,-0.253487 -0.156111,-0.349052 -0.09378,-0.09511 -0.208766,-0.140748 -0.342032,-0.140748 z m 0.03715,0.874246 c -0.10126,0 -0.190079,-0.04024 -0.262483,-0.113187 -0.07228,-0.07632 -0.113537,-0.166801 -0.117039,-0.271259 -0.0036,-0.107496 0.0314,-0.193083 0.09755,-0.267674 0.06947,-0.07078 0.153803,-0.106081 0.249758,-0.106081 0.10281,0 0.19015,0.0353 0.262212,0.106081 0.07249,0.07459 0.114774,0.160178 0.120315,0.267674 0.0054,0.104458 -0.02819,0.194941 -0.09396,0.271259 -0.0662,0.07296 -0.151593,0.113187 -0.256347,0.113187 z m 0.667231,-1.701788 c -0.0033,-0.05373 -0.02621,-0.100623 -0.06512,-0.137389 -0.03884,-0.03669 -0.08645,-0.05335 -0.13973,-0.05335 -0.05328,0 -0.09549,0.01999 -0.133533,0.05669 -0.03477,0.03678 -0.04921,0.08032 -0.04644,0.13405 l 0.03277,0.635619 c -0.118659,-0.06241 -0.238917,-0.09354 -0.364446,-0.09354 -0.20356,0 -0.377585,0.07272 -0.519358,0.222452 -0.142843,0.150866 -0.213907,0.331284 -0.208657,0.552815 0.0052,0.220349 0.08309,0.41009 0.237947,0.568334 0.156057,0.159471 0.342075,0.237805 0.557269,0.237805 0.218723,0 0.397881,-0.08205 0.547374,-0.241499 0.154448,-0.172871 0.195422,-0.358814 0.182789,-0.56464 z m -0.03675,1.317342 c 0.01097,0.187688 -0.04246,0.347865 -0.160739,0.48354 -0.11926,0.132876 -0.27063,0.199637 -0.457046,0.199637 -0.17938,0 -0.336436,-0.06676 -0.470513,-0.199637 -0.129826,-0.135675 -0.196882,-0.295852 -0.201876,-0.48354 -0.0049,-0.185965 0.05264,-0.34199 0.172039,-0.472261 0.122157,-0.125941 0.269711,-0.188614 0.443235,-0.188614 0.190538,0 0.347209,0.06965 0.481112,0.213196 l -0.04721,-0.869663 c -0.0029,-0.05373 0.02234,-0.08054 0.07911,-0.08054 0.05344,0 0.08172,0.02681 0.08486,0.08054 z m 1.116648,0.399096 c -0.09431,0 -0.181103,-0.03661 -0.252907,-0.105978 -0.07532,-0.07277 -0.116488,-0.156132 -0.124234,-0.257159 l -0.04219,-0.550291 c -0.004,-0.05247 -0.02453,-0.09782 -0.06489,-0.136115 -0.04028,-0.03822 -0.08575,-0.05557 -0.13673,-0.05557 -0.05098,0 -0.09395,0.01735 -0.125327,0.05557 -0.03485,0.0383 -0.05223,0.08366 -0.0487,0.136115 l 0.03678,0.546689 c 0.01411,0.209792 0.09979,0.392399 0.250546,0.543363 0.155388,0.152082 0.337429,0.226679 0.542021,0.226679 0.05291,0 0.09714,-0.01868 0.132285,-0.05971 0.03541,-0.03723 0.05218,-0.08552 0.04718,-0.141093 -0.0053,-0.05912 -0.03064,-0.107029 -0.07241,-0.143807 -0.04202,-0.04037 -0.08903,-0.0587 -0.141425,-0.0587 z m 0.02452,0.287797 c -0.172362,0 -0.328497,-0.06307 -0.461309,-0.195994 -0.127681,-0.121093 -0.197737,-0.274181 -0.210391,-0.45494 l -0.03852,-0.550291 c -0.0039,-0.05596 0.02139,-0.08387 0.07251,-0.08387 0.05453,0 0.08386,0.02792 0.088,0.08387 l 0.04073,0.550288 c 0.0099,0.133606 0.06002,0.246227 0.157633,0.337505 0.09484,0.09536 0.206933,0.139529 0.336534,0.139529 0.05605,0 0.08664,0.02949 0.0918,0.08862 0.0052,0.05929 -0.0207,0.08528 -0.07698,0.08528 z m -0.700318,-2.154976 c -0.05333,0 -0.09861,0.02004 -0.135893,0.06016 -0.03735,0.0402 -0.05427,0.08722 -0.05066,0.14109 l 2.23e-4,0.0033 c 0.0038,0.05741 0.02717,0.104811 0.07027,0.145533 0.04319,0.0408 0.09177,0.06124 0.145671,0.06124 0.05727,0 0.102902,-0.02044 0.140219,-0.06124 0.03724,-0.04072 0.05374,-0.08812 0.04931,-0.145533 l -2.58e-4,-0.0033 c -0.0042,-0.05386 -0.02784,-0.100882 -0.07099,-0.14109 -0.04305,-0.04012 -0.09122,-0.06016 -0.147891,-0.06016 z m 0.10185,0.204619 c 0.0045,0.06079 -0.02035,0.08787 -0.0808,0.08787 -0.05709,0 -0.08585,-0.02708 -0.09009,-0.08787 l -2.34e-4,-0.0033 c -0.004,-0.05723 0.02064,-0.08746 0.07747,-0.08746 0.06018,0 0.08916,0.03023 0.09341,0.08746 z m 2.404132,1.288628 c -0.02863,-0.218247 -0.124291,-0.398919 -0.282937,-0.542995 -0.160908,-0.143044 -0.343027,-0.215915 -0.543404,-0.215915 -0.200377,0 -0.362641,0.07287 -0.49089,0.219417 -0.12577,0.147629 -0.180634,0.328364 -0.160641,0.539493 0.0202,0.213352 0.11088,0.395927 0.269635,0.550559 0.163093,0.152082 0.347596,0.230416 0.555735,0.230416 0.137583,0 0.259683,-0.04107 0.366438,-0.119246 0.04832,0.07817 0.112876,0.115509 0.190478,0.115509 0.05645,0 0.09989,-0.01868 0.133349,-0.0597 0.0334,-0.04094 0.04466,-0.08923 0.03689,-0.148494 z m -0.03767,0.569046 c 0.0076,0.05927 -0.01671,0.08897 -0.07299,0.08897 -0.05276,0 -0.08459,-0.0297 -0.09197,-0.08897 l -0.02291,-0.18412 c -0.0245,0.08449 -0.08293,0.150856 -0.167908,0.202623 -0.08519,0.0519 -0.177551,0.07418 -0.272526,0.07418 -0.175879,0 -0.333755,-0.06307 -0.470234,-0.195994 -0.138728,-0.128409 -0.216795,-0.285073 -0.234381,-0.465735 -0.01778,-0.18263 0.02914,-0.335338 0.136341,-0.462299 0.106893,-0.122668 0.246753,-0.185463 0.420445,-0.185463 0.170286,0 0.32432,0.06279 0.46232,0.185463 0.135866,0.126961 0.217263,0.279669 0.240719,0.462299 z m -0.757174,-1.048916 c -0.126542,0 -0.231093,0.04571 -0.310504,0.137458 -0.07941,0.09572 -0.112925,0.206179 -0.0991,0.342412 0.01318,0.129915 0.07023,0.246095 0.170708,0.340983 0.100942,0.09533 0.21814,0.143162 0.347729,0.143162 0.12959,0 0.232488,-0.04783 0.315407,-0.143162 0.08253,-0.09488 0.113345,-0.211068 0.09718,-0.340983 -0.01695,-0.136233 -0.07541,-0.246695 -0.176445,-0.342412 -0.103556,-0.09174 -0.215008,-0.137458 -0.344971,-0.137458 z m 0.09597,0.850138 c -0.0978,0 -0.189079,-0.0366 -0.263173,-0.109602 -0.07731,-0.07275 -0.121136,-0.159693 -0.131655,-0.260666 -0.01084,-0.10405 0.01468,-0.189758 0.07598,-0.260904 0.05766,-0.0709 0.139565,-0.10625 0.235597,-0.10625 0.09946,0 0.185925,0.03536 0.263025,0.10625 0.07393,0.07115 0.118798,0.156854 0.131451,0.260904 0.01228,0.100975 -0.01192,0.187922 -0.0728,0.260666 -0.06111,0.073 -0.140631,0.109602 -0.238426,0.109602 z"
           id="text1"
           aria-label="arcadia"
           inkscape:path-effect="#path-effect1"
           inkscape:original-d="m 9.3937492,20.141442 c 0,-0.215194 -0.074083,-0.395111 -0.2187223,-0.53975 C 9.0268601,19.457053 8.8469433,19.38297 8.6388043,19.38297 c -0.208139,0 -0.384528,0.07408 -0.5326948,0.22225 -0.144639,0.148167 -0.2187224,0.328083 -0.2187224,0.536222 0,0.208139 0.074083,0.384528 0.2187224,0.532695 0.1481668,0.144639 0.3245558,0.218723 0.5326948,0.218723 0.1375834,0 0.2645835,-0.03881 0.3810002,-0.112889 0.038806,0.07408 0.098778,0.109361 0.176389,0.109361 0.056444,0 0.1023057,-0.01764 0.1411112,-0.05645 0.038806,-0.0388 0.056444,-0.08467 0.056444,-0.141111 z m -0.1128889,0.550334 c 0,0.05645 -0.028222,0.08467 -0.084667,0.08467 -0.052917,0 -0.081139,-0.02822 -0.081139,-0.08467 v -0.176389 c -0.035278,0.08114 -0.1023056,0.144639 -0.1940279,0.194028 -0.091722,0.04939 -0.1869723,0.07056 -0.2822224,0.07056 -0.176389,0 -0.3280835,-0.05997 -0.4515558,-0.186973 -0.1270001,-0.123472 -0.1905002,-0.275167 -0.1905002,-0.451556 0,-0.179916 0.0635,-0.331611 0.1869724,-0.458611 0.1234723,-0.123472 0.2751668,-0.186972 0.4550836,-0.186972 0.176389,0 0.3280835,0.0635 0.4550836,0.186972 0.1234723,0.127 0.1869724,0.278695 0.1869724,0.458611 z m -0.642056,-1.026584 c -0.1305279,0 -0.2434168,0.04586 -0.3351391,0.137584 -0.091722,0.09525 -0.1375834,0.204611 -0.1375834,0.338666 0,0.127001 0.045861,0.239889 0.1375834,0.331612 0.091722,0.09172 0.2046112,0.137583 0.3351391,0.137583 0.1305279,0 0.239889,-0.04586 0.3351391,-0.137583 0.09525,-0.09172 0.1411112,-0.204611 0.1411112,-0.331612 0,-0.134055 -0.045861,-0.243416 -0.1375834,-0.338666 -0.09525,-0.09172 -0.2046113,-0.137584 -0.3386669,-0.137584 z m 0,0.836084 c -0.098778,0 -0.1869723,-0.03528 -0.2540002,-0.105833 -0.070556,-0.07056 -0.1058334,-0.155223 -0.1058334,-0.254001 0,-0.102305 0.035278,-0.186972 0.1058334,-0.257527 0.067028,-0.07056 0.1552224,-0.105834 0.2540002,-0.105834 0.1023056,0 0.1869723,0.03528 0.2575279,0.105834 0.067028,0.07056 0.1023057,0.155222 0.1023057,0.257527 0,0.09878 -0.035278,0.183445 -0.1058334,0.254001 -0.070556,0.07055 -0.1552224,0.105833 -0.2540002,0.105833 z M 10.504998,19.38297 c -0.208139,0 -0.384528,0.07408 -0.5326949,0.218722 -0.144639,0.144639 -0.2187224,0.324556 -0.2187224,0.532695 v 0.560917 c 0,0.05644 0.017639,0.102306 0.056444,0.137583 0.038806,0.03881 0.084667,0.05645 0.1411112,0.05645 0.056445,0 0.1023056,-0.01764 0.1375836,-0.05645 0.0388,-0.03528 0.05644,-0.08114 0.05644,-0.137583 v -0.560917 c 0,-0.102306 0.03528,-0.186972 0.105834,-0.254 0.07056,-0.07056 0.155222,-0.102306 0.254,-0.102306 0.05644,0 0.102306,-0.02117 0.141111,-0.05997 0.03528,-0.03881 0.05292,-0.08467 0.05292,-0.137584 0,-0.05292 -0.01764,-0.09878 -0.05645,-0.137583 -0.0388,-0.03881 -0.08467,-0.05997 -0.137583,-0.05997 z m 0,0.282222 c -0.127,0 -0.239889,0.04586 -0.331611,0.137584 -0.09172,0.09172 -0.137584,0.201083 -0.137584,0.331611 v 0.560917 c 0,0.05644 -0.02822,0.08114 -0.084667,0.08114 -0.056444,0 -0.084667,-0.0247 -0.084667,-0.08114 v -0.560917 c 0,-0.179917 0.059972,-0.328084 0.1869723,-0.451556 0.123472,-0.123472 0.275167,-0.186972 0.451556,-0.186972 0.05644,0 0.08467,0.02822 0.08467,0.08467 0,0.05645 -0.02822,0.08467 -0.08467,0.08467 z m 1.62278,0.825501 c -0.0035,-0.05292 -0.02469,-0.09525 -0.0635,-0.130528 -0.03528,-0.03528 -0.08114,-0.05292 -0.134056,-0.05292 -0.05997,0 -0.109361,0.02117 -0.148166,0.06703 -0.07408,0.08467 -0.162278,0.127 -0.275167,0.127 -0.09878,0 -0.183445,-0.03528 -0.254,-0.105833 -0.07056,-0.07056 -0.105834,-0.155223 -0.105834,-0.254001 0,-0.102305 0.03528,-0.186972 0.105834,-0.257527 0.07056,-0.07056 0.155222,-0.105834 0.254,-0.105834 0.105833,0 0.194028,0.03881 0.268111,0.116417 0.03881,0.04233 0.08467,0.0635 0.144639,0.0635 0.05292,0 0.09525,-0.01764 0.134056,-0.05645 0.03528,-0.03528 0.05644,-0.07761 0.05997,-0.130527 0,-0.05997 -0.01411,-0.105834 -0.05292,-0.144639 -0.148167,-0.162278 -0.331611,-0.243417 -0.553861,-0.243417 -0.208139,0 -0.384528,0.07408 -0.532695,0.22225 -0.144639,0.148167 -0.218722,0.328083 -0.218722,0.536222 0,0.208139 0.07408,0.384528 0.22225,0.532695 0.148167,0.144639 0.324556,0.218723 0.529167,0.218723 0.232833,0 0.419806,-0.08819 0.5715,-0.257528 0.03528,-0.04586 0.05292,-0.09172 0.04939,-0.144639 z m -0.134056,0.06703 c -0.130527,0.148167 -0.292805,0.222251 -0.486833,0.222251 -0.172861,0 -0.324556,-0.05997 -0.451556,-0.186973 -0.123472,-0.123472 -0.186972,-0.275167 -0.186972,-0.451556 0,-0.179916 0.05997,-0.331611 0.186972,-0.455083 0.123472,-0.127 0.275167,-0.1905 0.451556,-0.1905 0.186972,0 0.345722,0.07056 0.472722,0.208139 0.01764,0.02117 0.02822,0.0388 0.02822,0.05997 0,0.01764 -0.01058,0.03528 -0.03175,0.05644 -0.01764,0.01764 -0.03881,0.02822 -0.05645,0.02822 -0.02469,0 -0.04586,-0.01058 -0.06703,-0.03175 -0.09172,-0.09878 -0.204611,-0.151695 -0.345722,-0.151695 -0.130528,0 -0.243417,0.04586 -0.335139,0.137584 -0.08819,0.09525 -0.134056,0.204611 -0.134056,0.338666 0,0.127001 0.04586,0.239889 0.137583,0.331612 0.09172,0.09172 0.204612,0.137583 0.331612,0.137583 0.144639,0 0.264583,-0.05292 0.356306,-0.15875 0.02117,-0.02469 0.04586,-0.0388 0.06703,-0.0388 0.01764,0 0.03881,0.01058 0.05997,0.02822 0.01764,0.02117 0.02822,0.04233 0.02822,0.0635 0,0.01764 -0.0071,0.03528 -0.02469,0.05292 z m 1.912055,-0.416278 c 0,-0.215194 -0.07408,-0.395111 -0.218722,-0.53975 -0.148167,-0.144639 -0.328083,-0.218722 -0.536222,-0.218722 -0.20814,0 -0.384529,0.07408 -0.532695,0.22225 -0.144639,0.148167 -0.218723,0.328083 -0.218723,0.536222 0,0.208139 0.07408,0.384528 0.218723,0.532695 0.148166,0.144639 0.324555,0.218723 0.532695,0.218723 0.137583,0 0.264583,-0.03881 0.381,-0.112889 0.0388,0.07408 0.09878,0.109361 0.176389,0.109361 0.05644,0 0.102305,-0.01764 0.141111,-0.05645 0.03881,-0.0388 0.05644,-0.08467 0.05644,-0.141111 z m -0.112889,0.550334 c 0,0.05645 -0.02822,0.08467 -0.08467,0.08467 -0.05292,0 -0.08114,-0.02822 -0.08114,-0.08467 v -0.176389 c -0.03528,0.08114 -0.102306,0.144639 -0.194028,0.194028 -0.09172,0.04939 -0.186972,0.07056 -0.282222,0.07056 -0.176389,0 -0.328084,-0.05997 -0.451556,-0.186973 -0.127,-0.123472 -0.1905,-0.275167 -0.1905,-0.451556 0,-0.179916 0.0635,-0.331611 0.186972,-0.458611 0.123472,-0.123472 0.275167,-0.186972 0.455084,-0.186972 0.176389,0 0.328083,0.0635 0.455083,0.186972 0.123472,0.127 0.186972,0.278695 0.186972,0.458611 z m -0.642055,-1.026584 c -0.130528,0 -0.243417,0.04586 -0.33514,0.137584 -0.09172,0.09525 -0.137583,0.204611 -0.137583,0.338666 0,0.127001 0.04586,0.239889 0.137583,0.331612 0.09172,0.09172 0.204612,0.137583 0.33514,0.137583 0.130527,0 0.239889,-0.04586 0.335139,-0.137583 0.09525,-0.09172 0.141111,-0.204611 0.141111,-0.331612 0,-0.134055 -0.04586,-0.243416 -0.137584,-0.338666 -0.09525,-0.09172 -0.204611,-0.137584 -0.338666,-0.137584 z m 0,0.836084 c -0.09878,0 -0.186973,-0.03528 -0.254001,-0.105833 -0.07056,-0.07056 -0.105833,-0.155223 -0.105833,-0.254001 0,-0.102305 0.03528,-0.186972 0.105833,-0.257527 0.06703,-0.07056 0.155223,-0.105834 0.254001,-0.105834 0.102305,0 0.186972,0.03528 0.257527,0.105834 0.06703,0.07056 0.102306,0.155222 0.102306,0.257527 0,0.09878 -0.03528,0.183445 -0.105833,0.254001 -0.07056,0.07055 -0.155223,0.105833 -0.254,0.105833 z m 1.890887,-0.871362 c -0.134055,0 -0.246944,0.04586 -0.342194,0.141112 -0.09525,0.09525 -0.141112,0.211666 -0.141112,0.345722 0,0.134056 0.04586,0.246945 0.141112,0.345722 0.09525,0.09525 0.208139,0.141112 0.342194,0.141112 0.137584,0 0.254,-0.04586 0.345723,-0.141112 0.09525,-0.09878 0.141111,-0.211666 0.141111,-0.345722 0,-0.134056 -0.04586,-0.250472 -0.141111,-0.345722 -0.09172,-0.09525 -0.208139,-0.141112 -0.345723,-0.141112 z m 0,0.860779 c -0.102305,0 -0.1905,-0.03881 -0.261055,-0.109362 -0.07056,-0.07408 -0.109362,-0.162277 -0.109362,-0.264583 0,-0.105833 0.03881,-0.1905 0.109362,-0.264584 0.07408,-0.07055 0.162277,-0.105833 0.261055,-0.105833 0.105834,0 0.194028,0.03528 0.264584,0.105833 0.07055,0.07408 0.109361,0.158751 0.109361,0.264584 0,0.102306 -0.03881,0.1905 -0.109361,0.264583 -0.07056,0.07056 -0.15875,0.109362 -0.264584,0.109362 z m 0.77964,-1.710974 c 0,-0.05644 -0.02117,-0.105833 -0.05997,-0.144639 -0.0388,-0.0388 -0.08819,-0.05644 -0.144639,-0.05644 -0.05644,0 -0.102305,0.02117 -0.144639,0.05997 -0.0388,0.03881 -0.05644,0.08467 -0.05644,0.141111 v 0.656167 c -0.119945,-0.0635 -0.243417,-0.09525 -0.373945,-0.09525 -0.211666,0 -0.395111,0.07408 -0.546806,0.225778 -0.151694,0.151695 -0.229305,0.331612 -0.229305,0.550334 0,0.215195 0.07408,0.398639 0.225778,0.550334 0.151694,0.151694 0.335139,0.225778 0.550333,0.225778 0.218723,0 0.402167,-0.07761 0.560917,-0.229306 0.165806,-0.165806 0.218723,-0.345723 0.218723,-0.546806 z m -0.119945,1.337029 c 0,0.183445 -0.0635,0.338667 -0.1905,0.469195 -0.127,0.127 -0.282222,0.1905 -0.469195,0.1905 -0.179916,0 -0.335139,-0.0635 -0.465667,-0.1905 -0.127,-0.130528 -0.1905,-0.28575 -0.1905,-0.469195 0,-0.183445 0.0635,-0.338667 0.1905,-0.469195 0.130528,-0.127 0.285751,-0.1905 0.465667,-0.1905 0.197556,0 0.356306,0.07056 0.486834,0.215195 v -0.892529 c 0,-0.05644 0.02822,-0.08467 0.08819,-0.08467 0.05645,0 0.08467,0.02822 0.08467,0.08467 z m 1.104198,0.388056 c -0.09525,0 -0.179917,-0.03528 -0.246945,-0.102306 -0.07056,-0.07056 -0.105833,-0.151694 -0.105833,-0.250472 V 19.60522 c 0,-0.05292 -0.01764,-0.09878 -0.05644,-0.137584 -0.03881,-0.0388 -0.08467,-0.05644 -0.137584,-0.05644 -0.05292,0 -0.09878,0.01764 -0.134055,0.05644 -0.03881,0.03881 -0.05997,0.08467 -0.05997,0.137584 v 0.543278 c 0,0.204611 0.07408,0.381 0.215195,0.525639 0.144639,0.144639 0.321028,0.215195 0.525639,0.215195 0.05292,0 0.09878,-0.01764 0.137584,-0.05645 0.0388,-0.03528 0.05997,-0.08114 0.05997,-0.134055 0,-0.05645 -0.02117,-0.102306 -0.05997,-0.137584 -0.03881,-0.0388 -0.08467,-0.05644 -0.137584,-0.05644 z m 0,0.275167 c -0.172861,0 -0.324556,-0.05997 -0.448028,-0.186973 -0.119944,-0.116416 -0.179917,-0.264583 -0.179917,-0.440972 V 19.60522 c 0,-0.05645 0.02822,-0.08467 0.08114,-0.08467 0.05645,0 0.08467,0.02822 0.08467,0.08467 v 0.546806 c 0,0.130528 0.04233,0.239889 0.134056,0.328083 0.08819,0.09172 0.197555,0.134056 0.328083,0.134056 0.05645,0 0.08467,0.02822 0.08467,0.08467 0,0.05644 -0.02822,0.08114 -0.08467,0.08114 z m -0.546806,-2.159002 c -0.05644,0 -0.105833,0.02117 -0.148167,0.0635 -0.04233,0.04233 -0.0635,0.09172 -0.0635,0.148167 v 0.0035 c 0,0.05997 0.02117,0.109361 0.0635,0.151694 0.04233,0.04233 0.09172,0.0635 0.148167,0.0635 0.05997,0 0.109361,-0.02117 0.151695,-0.0635 0.04233,-0.04233 0.0635,-0.09172 0.0635,-0.151694 v -0.0035 c 0,-0.05644 -0.02117,-0.105833 -0.0635,-0.148167 -0.04233,-0.04233 -0.09172,-0.0635 -0.151695,-0.0635 z m 0.09172,0.215195 c 0,0.0635 -0.02822,0.09172 -0.09172,0.09172 -0.05997,0 -0.08819,-0.02822 -0.08819,-0.09172 v -0.0035 c 0,-0.05997 0.02822,-0.09172 0.08819,-0.09172 0.0635,0 0.09172,0.03175 0.09172,0.09172 z m 2.353032,1.305278 c 0,-0.215194 -0.07408,-0.395111 -0.218723,-0.53975 -0.148166,-0.144639 -0.328083,-0.218722 -0.536222,-0.218722 -0.208139,0 -0.384528,0.07408 -0.532695,0.22225 -0.144639,0.148167 -0.218722,0.328083 -0.218722,0.536222 0,0.208139 0.07408,0.384528 0.218722,0.532695 0.148167,0.144639 0.324556,0.218723 0.532695,0.218723 0.137583,0 0.264583,-0.03881 0.381,-0.112889 0.03881,0.07408 0.09878,0.109361 0.176389,0.109361 0.05645,0 0.102306,-0.01764 0.141111,-0.05645 0.03881,-0.0388 0.05645,-0.08467 0.05645,-0.141111 z m -0.112889,0.550334 c 0,0.05645 -0.02822,0.08467 -0.08467,0.08467 -0.05292,0 -0.08114,-0.02822 -0.08114,-0.08467 v -0.176389 c -0.03528,0.08114 -0.102305,0.144639 -0.194028,0.194028 -0.09172,0.04939 -0.186972,0.07056 -0.282222,0.07056 -0.176389,0 -0.328084,-0.05997 -0.451556,-0.186973 -0.127,-0.123472 -0.1905,-0.275167 -0.1905,-0.451556 0,-0.179916 0.0635,-0.331611 0.186972,-0.458611 0.123473,-0.123472 0.275167,-0.186972 0.455084,-0.186972 0.176389,0 0.328083,0.0635 0.455084,0.186972 0.123472,0.127 0.186972,0.278695 0.186972,0.458611 z m -0.642056,-1.026584 c -0.130528,0 -0.243417,0.04586 -0.335139,0.137584 -0.09172,0.09525 -0.137584,0.204611 -0.137584,0.338666 0,0.127001 0.04586,0.239889 0.137584,0.331612 0.09172,0.09172 0.204611,0.137583 0.335139,0.137583 0.130528,0 0.239889,-0.04586 0.335139,-0.137583 0.09525,-0.09172 0.141111,-0.204611 0.141111,-0.331612 0,-0.134055 -0.04586,-0.243416 -0.137583,-0.338666 -0.09525,-0.09172 -0.204611,-0.137584 -0.338667,-0.137584 z m 0,0.836084 c -0.09878,0 -0.186972,-0.03528 -0.254,-0.105833 -0.07056,-0.07056 -0.105834,-0.155223 -0.105834,-0.254001 0,-0.102305 0.03528,-0.186972 0.105834,-0.257527 0.06703,-0.07056 0.155222,-0.105834 0.254,-0.105834 0.102306,0 0.186972,0.03528 0.257528,0.105834 0.06703,0.07056 0.102305,0.155222 0.102305,0.257527 0,0.09878 -0.03528,0.183445 -0.105833,0.254001 -0.07056,0.07055 -0.155222,0.105833 -0.254,0.105833 z"
           inkscape:label="text1"
           transform="matrix(2.3219909,0,0,2.3219909,8.9543894,7.2771942)" />
        <path
           id="rect61"
           style="fill:#dcdcdc;fill-opacity:0.50303954;stroke:#000000;stroke-width:0;stroke-opacity:0;paint-order:markers fill stroke"
           d="m 26.068837,42.41756 6.398428,-0.551676 c 0.937719,2.596762 1.415259,-3.392929 2.775158,7.225236 l -10.616232,6.281164 z"
           sodipodi:nodetypes="ccccc"
           inkscape:label="Top glow" />
      </g>
      <g
         id="g23"
         inkscape:label="Joystick">
        <path
           id="path2"
           style="fill:#1a1a1a;fill-opacity:0;stroke:#000000;stroke-width:0.347249"
           d="m 43.084941,24.339747 c 0,1.010628 -1.521086,1.829904 -3.39744,1.829904 -1.876355,0 -3.397442,-0.819276 -3.397442,-1.829904 0,-1.010629 1.521087,-1.829906 3.397442,-1.829906 1.876354,0 3.39744,0.819277 3.39744,1.829906 z"
           sodipodi:nodetypes="sssss"
           inkscape:label="Joystick Top" />
        <path
           id="path57"
           style="fill:#666666;fill-opacity:1;stroke:#000000;stroke-width:0;stroke-dasharray:none;stroke-opacity:0.0055402;paint-order:markers fill stroke"
           inkscape:label="Joystick fill"
           d="m 36.277372,25.344189 c -0.02489,4.20231 -0.01442,8.404804 -0.01548,12.607189 0.01368,0.980784 -0.01986,1.964192 0.04877,2.943082 0.08226,0.466092 0.40667,0.857562 0.759894,1.156705 0.833744,0.676606 1.949603,0.940893 3.007648,0.835454 1.063684,-0.07632 2.165181,-0.556628 2.757834,-1.476748 0.172363,-0.25355 0.243822,-0.554255 0.238808,-0.85851 0.05096,-2.250252 0.02707,-4.50157 0.04107,-6.752277 4.71e-4,-2.798284 0.02396,-5.596922 -0.0051,-8.394995 -0.03742,-0.122282 0.03379,-0.418551 -0.0782,-0.421184 -0.236675,0.07698 -0.45045,0.196605 -0.633222,0.365525 -0.625187,0.441684 -1.394087,0.642153 -2.147303,0.715234 -0.794141,0.03879 -1.607978,0.01726 -2.363433,-0.257026 -0.436816,-0.139201 -0.832821,-0.379487 -1.184246,-0.670145 -0.140623,-0.08685 -0.281275,-0.173657 -0.421909,-0.260492 -0.0017,0.156062 -0.0034,0.312125 -0.0052,0.468188 z" />
        <path
           id="path56"
           style="fill:#dcdcdc;fill-opacity:0.59574467;stroke:#000000;stroke-width:0;stroke-linecap:round;stroke-linejoin:round;stroke-dasharray:none;paint-order:markers fill stroke"
           inkscape:label="Joystick stick glow"
           d="m 36.679766,25.413284 v 15.89412 c 0.193361,0.280609 0.445278,0.515087 0.734333,0.674895 V 25.81326 C 37.145205,25.7213 36.89542,25.587758 36.679766,25.413284 Z" />
        <path
           style="fill:#1a1a1a;fill-opacity:0;stroke:#000000;stroke-width:0.399875;stroke-linecap:round;stroke-linejoin:round;stroke-dasharray:none"
           d="m 43.074736,24.277578 -0.01861,16.246657 c -0.01861,1.245879 -1.527909,2.340775 -3.389732,2.340775 -1.861822,0 -3.371128,-1.094896 -3.366117,-2.364752 l 0.005,-15.934973"
           id="path5"
           sodipodi:nodetypes="ccscc"
           inkscape:label="Joytstick stick shape" />
        <path
           id="path6"
           style="fill:#ff0000;fill-opacity:0;stroke:#000000;stroke-width:0.29478"
           d="m 36.403751,40.23141 c -0.294535,0.174716 -0.560324,0.3929 -0.783228,0.66605 -0.60377,0.837345 -0.0024,2.022369 0.949375,2.349486 1.674735,0.792674 3.668959,0.755216 5.44555,0.315922 0.881839,-0.241784 1.864424,-0.809029 1.976798,-1.74402 0.04846,-0.679021 -0.406155,-1.246054 -0.996443,-1.591823"
           sodipodi:nodetypes="cccccc"
           inkscape:label="1st base circle" />
        <path
           id="path7"
           style="fill:#1a1a1a;fill-opacity:0;stroke:#000000;stroke-width:0.294059"
           d="m 36.377566,40.029532 c -0.568354,0.255828 -1.07717,0.611596 -1.471717,1.101904 -0.921437,1.155238 -0.252289,2.935792 1.065309,3.548703 2.220722,1.039794 4.91527,1.023509 7.181725,0.118721 1.136826,-0.516915 2.051695,-1.753401 1.644377,-2.964936 -0.2581,-0.844266 -0.956582,-1.433306 -1.776728,-1.803857"
           sodipodi:nodetypes="cccccc"
           inkscape:label="2nd base circle" />
        <path
           id="path8"
           style="fill:#1a1a1a;fill-opacity:0;stroke:#000000;stroke-width:0.291022"
           d="m 36.388498,39.983147 c -0.957554,0.352436 -1.810038,0.906958 -2.376636,1.727845 -1.091816,1.67269 0.0094,4.06302 1.978221,4.664013 2.581435,1.013618 5.69501,0.923434 8.1406,-0.369803 1.374768,-0.842762 2.142214,-2.636684 1.335173,-4.044195 -0.482289,-0.957749 -1.405791,-1.59816 -2.450079,-1.980617"
           sodipodi:nodetypes="cccccc"
           inkscape:label="3rd base circle" />
        <path
           id="path9"
           style="fill:#1a1a1a;fill-opacity:0;stroke:#000000;stroke-width:0.300553"
           d="m 36.398992,38.983325 c -1.571646,0.493455 -2.999555,1.408605 -3.901266,2.795333 -1.618927,2.56059 -0.286145,6.323202 2.511391,7.459597 3.207728,1.396477 7.14885,1.362167 10.1621,-0.496535 2.233204,-1.36179 3.08866,-4.507087 1.811617,-6.776194 -0.83958,-1.464123 -2.300118,-2.461916 -3.906529,-2.96853"
           sodipodi:nodetypes="cccccc"
           inkscape:label="4th base circle" />
        <path
           style="fill:#333333;fill-opacity:1;stroke:#000000;stroke-width:0.177348;stroke-linecap:round;stroke-linejoin:round;paint-order:markers fill stroke"
           d="m 147.7881,189.13404 c -5.55111,-0.38097 -10.34709,-1.51553 -15.18568,-3.59241 -1.88891,-0.81078 -3.22797,-1.62832 -4.7517,-2.90106 -3.14146,-2.62401 -5.56836,-6.66308 -6.54479,-10.89244 -0.38228,-1.65583 -0.46578,-2.45933 -0.46173,-4.4432 0.004,-2.03972 0.0859,-2.75616 0.50185,-4.3981 1.09872,-4.33732 4.17288,-8.31415 8.8046,-11.3899 1.66407,-1.10505 4.73759,-2.65392 6.07269,-3.06027 l 0.18686,-0.0569 v 1.25559 1.25559 l -0.31143,0.12865 c -0.69885,0.28868 -2.31057,1.13241 -3.04532,1.59421 -2.83073,1.77915 -5.0668,4.22995 -5.95393,6.52572 -0.58149,1.50481 -0.68189,2.07997 -0.68974,3.95134 -0.008,1.86556 0.0659,2.38935 0.54886,3.90138 1.08624,3.40047 3.65222,6.40064 6.83875,7.99596 0.83397,0.41752 3.48844,1.39702 4.98966,1.84119 2.78759,0.82476 5.70819,1.33585 8.79201,1.53854 6.47619,0.42567 13.26372,-0.87421 18.64622,-3.57092 1.41115,-0.70701 2.14117,-1.22135 3.22931,-2.27522 2.19411,-2.12501 3.51384,-4.50972 4.04721,-7.31314 0.19006,-0.99898 0.19051,-2.82365 9.4e-4,-3.80162 -0.41753,-2.15403 -1.69369,-4.49017 -3.44474,-6.30597 -1.00345,-1.04056 -1.65003,-1.58396 -2.79346,-2.34767 -0.79296,-0.52963 -3.36678,-1.87093 -3.59013,-1.87093 -0.0824,0 -0.10674,-0.29401 -0.10674,-1.28728 0,-0.708 0.0303,-1.28728 0.0674,-1.28728 0.14793,0 2.02697,0.78374 2.98592,1.24542 5.40916,2.60417 9.6424,6.88153 11.45494,11.57431 0.4097,1.06074 0.82051,2.74656 0.98438,4.03949 0.20561,1.6223 0.13598,4.10265 -0.15854,5.64742 -0.58714,3.07969 -1.66266,5.63983 -3.37565,8.03532 -1.9588,2.73925 -4.09194,4.44612 -7.97203,6.37896 -4.41007,2.19685 -9.30544,3.48054 -14.69992,3.85469 -1.09244,0.0758 -4.13915,0.0941 -5.06607,0.0305 z"
           id="path14"
           transform="scale(0.26458333)"
           inkscape:label="4th base circle fill" />
        <path
           style="fill:#333333;fill-opacity:0.99169;stroke:#000000;stroke-width:0.177348;stroke-linecap:round;stroke-linejoin:round;paint-order:markers fill stroke"
           d="m 147.79402,177.22542 c -3.8783,-0.24094 -7.28312,-0.95988 -11.17619,-2.35989 -2.50049,-0.89921 -3.75446,-1.62655 -5.20561,-3.01939 -4.20243,-4.0336 -5.11506,-9.99554 -2.16195,-14.12349 0.47133,-0.65883 1.51145,-1.86588 1.56323,-1.8141 0.0164,0.0164 -0.0979,0.28884 -0.25392,0.60548 -0.59907,1.21573 -0.8144,2.19485 -0.81153,3.6901 0.005,2.55901 0.99985,4.9737 2.85832,6.93704 1.19954,1.26724 2.38616,2.02539 4.53976,2.90053 3.01582,1.2255 6.33368,1.99635 9.86986,2.29307 1.76287,0.14793 5.59751,0.0611 7.33309,-0.16608 2.58175,-0.3379 5.15841,-0.93795 7.51606,-1.75032 2.26483,-0.78039 3.69855,-1.65476 5.23507,-3.19268 0.54973,-0.55022 1.1913,-1.28232 1.42571,-1.62687 1.33046,-1.95557 1.93159,-4.10156 1.70054,-6.07085 -0.11322,-0.96498 -0.5123,-2.24408 -0.98512,-3.15746 -0.412,-0.79588 -0.41454,-0.80383 -0.19495,-0.60957 0.28938,0.25598 1.18261,1.355 1.55249,1.91015 0.49378,0.7411 1.14532,1.9972 1.38498,2.67011 0.67559,1.89685 0.63176,4.25182 -0.11909,6.39803 -0.33221,0.94961 -1.01965,2.26781 -1.62718,3.12023 -0.62998,0.8839 -1.96191,2.23251 -2.84817,2.88384 -1.93165,1.41958 -6.183,3.03954 -10.009,3.8139 -2.88387,0.58367 -6.68385,0.84855 -9.5864,0.66822 z"
           id="path15"
           transform="scale(0.26458333)"
           inkscape:label="3rd base circle fill" />
        <path
           style="fill:#333333;fill-opacity:1;stroke:#000000;stroke-width:0.177348;stroke-linecap:round;stroke-linejoin:round;paint-order:markers fill stroke"
           d="m 147.24827,171.15953 c -3.7705,-0.30444 -7.36616,-1.20139 -10.59908,-2.64398 -2.97561,-1.32778 -5.01939,-3.8659 -5.60177,-6.9567 -0.16597,-0.88086 -0.12195,-2.4534 0.0902,-3.22335 0.1996,-0.72429 0.70479,-1.75086 1.15195,-2.34082 0.39486,-0.52098 1.85516,-2.01933 1.96803,-2.01933 0.0339,0 -0.0992,0.23971 -0.29565,0.53269 -0.65846,0.98193 -0.96397,2.34536 -0.80372,3.58678 0.27438,2.12557 1.58746,4.12711 3.44337,5.24877 0.5717,0.34552 2.48502,1.17962 3.58196,1.56154 4.63151,1.61252 9.88868,1.92802 15.72904,0.94394 2.78565,-0.46937 4.58065,-1.01046 6.24317,-1.88197 2.83858,-1.48801 4.50582,-3.6005 4.70545,-5.96208 0.0971,-1.1493 -0.30987,-2.6168 -1.01916,-3.67453 -0.2016,-0.30065 -0.35215,-0.56104 -0.33454,-0.57865 0.0651,-0.0651 1.54,1.44598 1.92032,1.96757 0.49879,0.68406 1.03581,1.75028 1.33855,2.65761 0.21746,0.65174 0.23575,0.80476 0.23829,1.99321 0.002,1.12291 -0.0221,1.36682 -0.19205,1.91016 -0.79351,2.53735 -2.66253,4.70051 -5.32805,6.16655 -1.09381,0.60159 -4.14746,1.57682 -6.40863,2.04668 -3.16199,0.65704 -6.84595,0.90666 -9.82772,0.66591 z"
           id="path16"
           transform="scale(0.26458333)"
           inkscape:label="2nd base circle fill" />
        <path
           style="fill:#333333;fill-opacity:1;stroke:#000000;stroke-width:0.177348;stroke-linecap:round;stroke-linejoin:round;paint-order:markers fill stroke"
           d="m 146.70845,165.09754 c -1.93173,-0.18973 -4.27359,-0.69088 -5.94163,-1.27149 -1.35679,-0.47227 -3.02939,-1.20977 -3.65069,-1.60971 -1.58403,-1.01965 -2.66179,-2.77715 -2.76182,-4.50372 -0.0806,-1.39038 0.27109,-2.27904 1.33886,-3.38343 l 0.702,-0.72607 0.0519,0.33145 c 0.30203,1.92961 1.17548,3.52353 2.74495,5.00917 3.49118,3.30469 9.47814,4.65253 14.94945,3.36557 3.96671,-0.93306 7.24775,-3.2581 8.63618,-6.11985 0.36885,-0.76026 0.70182,-1.9149 0.71034,-2.46326 l 0.005,-0.29067 0.55665,0.59545 c 0.61526,0.65814 1.00223,1.25056 1.33189,2.039 0.19377,0.46345 0.21821,0.63233 0.2197,1.51806 0.001,0.89303 -0.0212,1.0508 -0.21803,1.51806 -0.69182,1.64204 -1.9287,2.84778 -3.98276,3.88248 -1.86806,0.94102 -4.21207,1.54057 -7.80006,1.99511 -1.23597,0.15657 -5.7048,0.23041 -6.89143,0.11385 z"
           id="path17"
           inkscape:label="1st base circle fill"
           transform="scale(0.26458333)" />
        <path
           id="path23"
           style="fill:#f9f9f9;fill-opacity:0;stroke:#dcdcdc;stroke-width:0.0661458;stroke-dasharray:none;stroke-opacity:1"
           d="m 32.497726,41.778658 c -1.618927,2.56059 -0.286145,6.323202 2.511391,7.459597"
           sodipodi:nodetypes="cc"
           inkscape:label="4th base circle glow" />
        <path
           id="path35"
           style="fill:#1a1a1a;fill-opacity:0;stroke:#dcdcdc;stroke-width:0.0529167;stroke-dasharray:none;stroke-opacity:1"
           d="m 35.620523,40.89746 c -0.60377,0.837345 -0.0024,2.022369 0.949375,2.349486"
           sodipodi:nodetypes="cc"
           inkscape:label="1st base circle glow" />
        <path
           id="path36"
           style="fill:#1a1a1a;fill-opacity:0;stroke:#dcdcdc;stroke-width:0.0529167;stroke-dasharray:none;stroke-opacity:1"
           d="m 34.905849,41.131436 c -0.921437,1.155238 -0.252289,2.935792 1.065309,3.548703"
           sodipodi:nodetypes="cc"
           inkscape:label="2nd base circle glow" />
        <path
           id="path37"
           style="fill:#1a1a1a;fill-opacity:0;stroke:#dcdcdc;stroke-width:0.0529167;stroke-dasharray:none;stroke-opacity:1"
           d="m 34.011862,41.710992 c -1.091816,1.67269 0.0094,4.06302 1.978221,4.664013"
           sodipodi:nodetypes="cc"
           inkscape:label="3rd base circle glow" />
      </g>
      <g
         id="g21"
         inkscape:label="Button">
        <path
           style="fill:#ff0000;fill-opacity:1;stroke:#000000;stroke-width:0.643944;stroke-linecap:round;stroke-linejoin:round;stroke-opacity:1;paint-order:markers fill stroke"
           d="m 176.67996,140.97994 c -3.34092,-0.72685 -6.45376,-2.82947 -6.45376,-4.35928 0,-0.84577 1.01733,-1.92975 2.63996,-2.81289 5.29563,-2.88225 15.6536,-2.3819 19.39331,0.93681 2.67399,2.37295 0.89332,4.65128 -4.76666,6.09886 -2.70827,0.69265 -7.95225,0.75885 -10.81285,0.1365 z"
           id="path19"
           inkscape:label="path19"
           transform="scale(0.26458333)" />
        <path
           style="fill:#ff0000;fill-opacity:1;stroke:#000000;stroke-width:0.103501;stroke-linecap:round;stroke-linejoin:round;paint-order:markers fill stroke"
           d="m 180.9077,145.95219 c -1.11387,-0.039 -2.81964,-0.24671 -3.95016,-0.48107 -3.75767,-0.779 -6.43631,-2.42335 -6.82825,-4.1917 -0.0377,-0.17025 -0.0806,-0.69777 -0.0952,-1.17227 l -0.0266,-0.86273 0.36955,0.34512 c 0.8878,0.8291 2.45278,1.66407 4.12521,2.20092 1.24932,0.40103 2.98502,0.75391 4.56372,0.92783 0.95656,0.10538 3.70732,0.14718 4.77682,0.0726 2.74683,-0.19159 5.23762,-0.76207 7.19483,-1.64786 1.09193,-0.49418 1.87162,-1.00155 2.54458,-1.65586 l 0.38775,-0.37699 -0.0143,1.09949 c -0.0123,0.94515 -0.0281,1.14162 -0.11205,1.39954 -0.51497,1.58162 -3.06514,3.07637 -6.51375,3.81796 -2.0081,0.43183 -4.12934,0.60525 -6.42204,0.52504 z"
           id="path20"
           transform="scale(0.26458333)" />
        <path
           style="fill:#ff0000;fill-opacity:1;stroke:#000000;stroke-width:0.103501;stroke-linecap:round;stroke-linejoin:round;paint-order:markers fill stroke;filter:url(#filter21)"
           d="m 180.9077,145.95219 c -1.11387,-0.039 -2.81964,-0.24671 -3.95016,-0.48107 -3.75767,-0.779 -6.43631,-2.42335 -6.82825,-4.1917 -0.0377,-0.17025 -0.0806,-0.69777 -0.0952,-1.17227 l -0.0266,-0.86273 0.36955,0.34512 c 0.8878,0.8291 2.45278,1.66407 4.12521,2.20092 1.24932,0.40103 2.98502,0.75391 4.56372,0.92783 0.95656,0.10538 3.70732,0.14718 4.77682,0.0726 2.74683,-0.19159 5.23762,-0.76207 7.19483,-1.64786 1.09193,-0.49418 1.87162,-1.00155 2.54458,-1.65586 l 0.38775,-0.37699 -0.0143,1.09949 c -0.0123,0.94515 -0.0281,1.14162 -0.11205,1.39954 -0.51497,1.58162 -3.06514,3.07637 -6.51375,3.81796 -2.0081,0.43183 -4.12934,0.60525 -6.42204,0.52504 z"
           id="path21"
           transform="scale(0.26458333)" />
        <path
           id="path2-1-0"
           style="fill:#1a1a1a;fill-opacity:0;stroke:#000000;stroke-width:0.306;stroke-dasharray:none"
           d="m 51.420429,36.170833 c 0,0.810884 -1.470462,1.468234 -3.284365,1.468234 -1.813907,0 -3.284369,-0.65735 -3.284369,-1.468234 0,-0.810882 1.470462,-1.468235 3.284369,-1.468235 1.813903,0 3.284365,0.657353 3.284365,1.468235 z"
           sodipodi:nodetypes="sssss" />
        <path
           style="fill:none;fill-opacity:1;stroke:#000000;stroke-width:0.25213;stroke-linecap:round;stroke-linejoin:round;stroke-dasharray:none;stroke-opacity:1"
           d="m 51.455791,36.130882 -0.0035,1.170032 c -0.0035,0.796178 -1.473949,1.453527 -3.287852,1.453527 -1.813907,0 -3.284369,-0.657349 -3.300977,-1.486215 l -0.03405,-1.032514"
           id="path209"
           sodipodi:nodetypes="ccscc" />
      </g>
      <g
         id="g64"
         inkscape:label="Ball">
        <ellipse
           style="fill:#ff0000;fill-opacity:1;stroke:#000000;stroke-width:0.505;stroke-linecap:round;stroke-linejoin:round;stroke-dasharray:none;stroke-opacity:1"
           id="path210"
           cx="39.6875"
           cy="19.809944"
           rx="6.4058003"
           ry="6.1366496"
           inkscape:label="Ball" />
        <ellipse
           style="fill:url(#linearGradient61);fill-opacity:1;stroke:#000000;stroke-width:0;stroke-linecap:round;stroke-linejoin:round;stroke-dasharray:none;stroke-opacity:1"
           id="ellipse60"
           cx="39.6875"
           cy="19.809944"
           rx="6.240221"
           ry="5.9780273"
           inkscape:label="Ball shadow" />
        <ellipse
           style="fill:#ffaaaa;fill-opacity:1;stroke:#000000;stroke-width:0;stroke-linecap:round;stroke-linejoin:round;stroke-dasharray:none;stroke-opacity:0"
           id="ellipse58"
           cx="36.832298"
           cy="17.225666"
           rx="1.4091959"
           ry="1.4242988"
           inkscape:label="Ball glow" />
      </g>
      <g
         id="g24"
         inkscape:label="Button"
         transform="translate(-17.202082)">
        <path
           style="fill:#ff0000;fill-opacity:1;stroke:#000000;stroke-width:0.643944;stroke-linecap:round;stroke-linejoin:round;stroke-opacity:1;paint-order:markers fill stroke"
           d="m 176.67996,140.97994 c -3.34092,-0.72685 -6.45376,-2.82947 -6.45376,-4.35928 0,-0.84577 1.01733,-1.92975 2.63996,-2.81289 5.29563,-2.88225 15.6536,-2.3819 19.39331,0.93681 2.67399,2.37295 0.89332,4.65128 -4.76666,6.09886 -2.70827,0.69265 -7.95225,0.75885 -10.81285,0.1365 z"
           id="path4"
           inkscape:label="path19"
           transform="scale(0.26458333)" />
        <path
           style="fill:#ff0000;fill-opacity:1;stroke:#000000;stroke-width:0.103501;stroke-linecap:round;stroke-linejoin:round;paint-order:markers fill stroke"
           d="m 180.9077,145.95219 c -1.11387,-0.039 -2.81964,-0.24671 -3.95016,-0.48107 -3.75767,-0.779 -6.43631,-2.42335 -6.82825,-4.1917 -0.0377,-0.17025 -0.0806,-0.69777 -0.0952,-1.17227 l -0.0266,-0.86273 0.36955,0.34512 c 0.8878,0.8291 2.45278,1.66407 4.12521,2.20092 1.24932,0.40103 2.98502,0.75391 4.56372,0.92783 0.95656,0.10538 3.70732,0.14718 4.77682,0.0726 2.74683,-0.19159 5.23762,-0.76207 7.19483,-1.64786 1.09193,-0.49418 1.87162,-1.00155 2.54458,-1.65586 l 0.38775,-0.37699 -0.0143,1.09949 c -0.0123,0.94515 -0.0281,1.14162 -0.11205,1.39954 -0.51497,1.58162 -3.06514,3.07637 -6.51375,3.81796 -2.0081,0.43183 -4.12934,0.60525 -6.42204,0.52504 z"
           id="path12"
           transform="scale(0.26458333)" />
        <path
           style="fill:#ff0000;fill-opacity:1;stroke:#000000;stroke-width:0.103501;stroke-linecap:round;stroke-linejoin:round;paint-order:markers fill stroke;filter:url(#filter21)"
           d="m 180.9077,145.95219 c -1.11387,-0.039 -2.81964,-0.24671 -3.95016,-0.48107 -3.75767,-0.779 -6.43631,-2.42335 -6.82825,-4.1917 -0.0377,-0.17025 -0.0806,-0.69777 -0.0952,-1.17227 l -0.0266,-0.86273 0.36955,0.34512 c 0.8878,0.8291 2.45278,1.66407 4.12521,2.20092 1.24932,0.40103 2.98502,0.75391 4.56372,0.92783 0.95656,0.10538 3.70732,0.14718 4.77682,0.0726 2.74683,-0.19159 5.23762,-0.76207 7.19483,-1.64786 1.09193,-0.49418 1.87162,-1.00155 2.54458,-1.65586 l 0.38775,-0.37699 -0.0143,1.09949 c -0.0123,0.94515 -0.0281,1.14162 -0.11205,1.39954 -0.51497,1.58162 -3.06514,3.07637 -6.51375,3.81796 -2.0081,0.43183 -4.12934,0.60525 -6.42204,0.52504 z"
           id="path13"
           transform="scale(0.26458333)" />
        <path
           id="path18"
           style="fill:#1a1a1a;fill-opacity:0;stroke:#000000;stroke-width:0.306;stroke-dasharray:none"
           d="m 51.420429,36.170833 c 0,0.810884 -1.470462,1.468234 -3.284365,1.468234 -1.813907,0 -3.284369,-0.65735 -3.284369,-1.468234 0,-0.810882 1.470462,-1.468235 3.284369,-1.468235 1.813903,0 3.284365,0.657353 3.284365,1.468235 z"
           sodipodi:nodetypes="sssss" />
        <path
           style="fill:none;fill-opacity:1;stroke:#000000;stroke-width:0.25213;stroke-linecap:round;stroke-linejoin:round;stroke-dasharray:none;stroke-opacity:1"
           d="m 51.455791,36.130882 -0.0035,1.170032 c -0.0035,0.796178 -1.473949,1.453527 -3.287852,1.453527 -1.813907,0 -3.284369,-0.657349 -3.300977,-1.486215 l -0.03405,-1.032514"
           id="path22"
           sodipodi:nodetypes="ccscc" />
      </g>
    </g>
  </g>
</svg>
