<?xml version="1.0" encoding="UTF-8" standalone="no"?>
<!-- Created with Inkscape (http://www.inkscape.org/) -->

<svg
   width="100"
   height="100"
   viewBox="0 0 26.458333 26.458333"
   version="1.1"
   id="svg1"
   inkscape:version="1.3.1 (91b66b0, 2023-11-16)"
   sodipodi:docname="Arcadia_green.svg"
   xmlns:inkscape="http://www.inkscape.org/namespaces/inkscape"
   xmlns:sodipodi="http://sodipodi.sourceforge.net/DTD/sodipodi-0.dtd"
   xmlns:xlink="http://www.w3.org/1999/xlink"
   xmlns="http://www.w3.org/2000/svg"
   xmlns:svg="http://www.w3.org/2000/svg">
  <sodipodi:namedview
     id="namedview1"
     pagecolor="#ffffff"
     bordercolor="#000000"
     borderopacity="0.25"
     inkscape:showpageshadow="2"
     inkscape:pageopacity="0.0"
     inkscape:pagecheckerboard="true"
     inkscape:deskcolor="#d1d1d1"
     inkscape:document-units="px"
     inkscape:zoom="4.3001246"
     inkscape:cx="40.696495"
     inkscape:cy="73.83507"
     inkscape:window-width="1680"
     inkscape:window-height="916"
     inkscape:window-x="0"
     inkscape:window-y="25"
     inkscape:window-maximized="0"
     inkscape:current-layer="svg1"
     showguides="true">
    <sodipodi:guide
       position="0,79.375"
       orientation="-1,0"
       id="guide1"
       inkscape:locked="false"
       inkscape:label=""
       inkscape:color="rgb(0,134,229)" />
    <sodipodi:guide
       position="26.458333,26.458333"
       orientation="0,1"
       id="guide2"
       inkscape:locked="false"
       inkscape:label=""
       inkscape:color="rgb(0,134,229)" />
    <sodipodi:guide
       position="26.458333,0"
       orientation="-1,0"
       id="guide3"
       inkscape:locked="false"
       inkscape:label=""
       inkscape:color="rgb(0,134,229)" />
    <sodipodi:guide
       position="26.458333,0"
       orientation="0,1"
       id="guide4"
       inkscape:locked="false"
       inkscape:label=""
       inkscape:color="rgb(0,134,229)" />
    <sodipodi:guide
       position="2.6458333,23.8125"
       orientation="0,1"
       id="guide5"
       inkscape:locked="false"
       inkscape:label=""
       inkscape:color="rgb(0,134,229)" />
    <sodipodi:guide
       position="2.6458333,2.6458333"
       orientation="-1,0"
       id="guide6"
       inkscape:locked="false"
       inkscape:label=""
       inkscape:color="rgb(0,134,229)" />
    <sodipodi:guide
       position="23.8125,2.6458333"
       orientation="-1,0"
       id="guide7"
       inkscape:locked="false"
       inkscape:label=""
       inkscape:color="rgb(0,134,229)" />
    <sodipodi:guide
       position="23.8125,2.6458333"
       orientation="0,1"
       id="guide8"
       inkscape:locked="false"
       inkscape:label=""
       inkscape:color="rgb(0,134,229)" />
    <sodipodi:guide
       position="5.2916666,21.166666"
       orientation="0,1"
       id="guide9"
       inkscape:locked="false"
       inkscape:label=""
       inkscape:color="rgb(0,134,229)" />
    <sodipodi:guide
       position="5.2916666,5.2916666"
       orientation="-1,0"
       id="guide10"
       inkscape:locked="false"
       inkscape:label=""
       inkscape:color="rgb(0,134,229)" />
    <sodipodi:guide
       position="21.166666,5.2916666"
       orientation="-1,0"
       id="guide11"
       inkscape:locked="false"
       inkscape:label=""
       inkscape:color="rgb(0,134,229)" />
    <sodipodi:guide
       position="21.166666,5.2916666"
       orientation="0,1"
       id="guide12"
       inkscape:locked="false"
       inkscape:label=""
       inkscape:color="rgb(0,134,229)" />
  </sodipodi:namedview>
  <defs
     id="defs1">
    <inkscape:path-effect
       effect="fillet_chamfer"
       id="path-effect7"
       is_visible="true"
       lpeversion="1"
       nodesatellites_param="F,0,0,1,0,10,0,1 @ F,0,0,1,0,10,0,1 @ F,0,0,1,0,10,0,1 @ F,0,0,1,0,10,0,1"
       radius="10"
       unit="px"
       method="auto"
       mode="F"
       chamfer_steps="1"
       flexible="false"
       use_knot_distance="true"
       apply_no_radius="true"
       apply_with_radius="true"
       only_selected="false"
       hide_knots="false" />
    <inkscape:path-effect
       effect="fillet_chamfer"
       id="path-effect5"
       is_visible="true"
       lpeversion="1"
       nodesatellites_param="F,0,0,1,0,10,0,1 @ F,0,0,1,0,10,0,1 @ F,0,0,1,0,10,0,1 @ F,0,0,1,0,10,0,1"
       radius="10"
       unit="px"
       method="auto"
       mode="F"
       chamfer_steps="1"
       flexible="false"
       use_knot_distance="true"
       apply_no_radius="true"
       apply_with_radius="true"
       only_selected="false"
       hide_knots="false" />
    <linearGradient
       id="linearGradient18"
       inkscape:collect="always">
      <stop
         style="stop-color:#325a1e;stop-opacity:1;"
         offset="0"
         id="stop18" />
      <stop
         style="stop-color:#c8dca0;stop-opacity:1;"
         offset="1"
         id="stop19" />
    </linearGradient>
    <inkscape:path-effect
       effect="perspective-envelope"
       up_left_point="8.19,18.578643"
       up_right_point="18.4,18.578643"
       down_left_point="7.8873871,20.892865"
       down_right_point="18.703564,20.892865"
       id="path-effect1"
       is_visible="true"
       lpeversion="1"
       deform_type="perspective"
       horizontal_mirror="false"
       vertical_mirror="false"
       overflow_perspective="false" />
    <inkscape:path-effect
       effect="fillet_chamfer"
       id="path-effect12"
       is_visible="true"
       lpeversion="1"
       nodesatellites_param="F,0,0,1,0,0,0,1 @ F,0,0,1,0,1.3229167,0,1 @ F,0,0,1,0,0,0,1"
       radius="5"
       unit="px"
       method="auto"
       mode="F"
       chamfer_steps="1"
       flexible="false"
       use_knot_distance="true"
       apply_no_radius="true"
       apply_with_radius="true"
       only_selected="false"
       hide_knots="false" />
    <inkscape:path-effect
       effect="fillet_chamfer"
       id="path-effect10"
       is_visible="true"
       lpeversion="1"
       nodesatellites_param="F,0,0,1,0,0,0,1 @ F,0,0,1,0,1.3229167,0,1 @ F,0,0,1,0,0,0,1"
       radius="5"
       unit="px"
       method="auto"
       mode="F"
       chamfer_steps="1"
       flexible="false"
       use_knot_distance="true"
       apply_no_radius="true"
       apply_with_radius="true"
       only_selected="false"
       hide_knots="false" />
    <inkscape:path-effect
       effect="fillet_chamfer"
       id="path-effect9"
       is_visible="true"
       lpeversion="1"
       nodesatellites_param="F,0,0,1,0,0,0,1 @ F,0,0,1,0,2.38125,0,1 @ F,0,0,1,0,2.38125,0,1 @ F,0,0,1,0,2.38125,0,1 @ F,0,0,1,0,2.38125,0,1 @ F,0,0,1,0,0,0,1"
       radius="10"
       unit="px"
       method="auto"
       mode="F"
       chamfer_steps="1"
       flexible="false"
       use_knot_distance="true"
       apply_no_radius="true"
       apply_with_radius="true"
       only_selected="false"
       hide_knots="false" />
    <filter
       style="color-interpolation-filters:sRGB"
       inkscape:label="Blur"
       id="filter21"
       x="-0.20247296"
       y="-2.1063501"
       width="1.4049459"
       height="5.2127009">
      <feGaussianBlur
         stdDeviation="2 6"
         result="blur"
         id="feGaussianBlur21" />
    </filter>
    <linearGradient
       inkscape:collect="always"
       xlink:href="#linearGradient18"
       id="linearGradient19"
       x1="13.229166"
       y1="23.8125"
       x2="13.18595"
       y2="0.26988712"
       gradientUnits="userSpaceOnUse"
       gradientTransform="matrix(1.0031348,0,0,1.0031348,-0.08294148,-0.08294148)" />
    <inkscape:path-effect
       effect="fillet_chamfer"
       id="path-effect98"
       is_visible="true"
       lpeversion="1"
       nodesatellites_param="F,0,0,1,0,10,0,1 @ F,0,0,1,0,10,0,1 @ F,0,0,1,0,10,0,1 @ F,0,0,1,0,10,0,1 @ F,0,0,1,0,10,0,1 @ F,0,0,1,0,10,0,1 @ F,0,0,1,0,10,0,1 @ F,0,0,1,0,10,0,1"
       radius="10"
       unit="px"
       method="auto"
       mode="F"
       chamfer_steps="1"
       flexible="false"
       use_knot_distance="true"
       apply_no_radius="true"
       apply_with_radius="true"
       only_selected="false"
       hide_knots="false" />
    <inkscape:path-effect
       effect="fillet_chamfer"
       id="path-effect4"
       is_visible="true"
       lpeversion="1"
       nodesatellites_param="F,0,0,1,0,10,0,1 @ F,0,0,1,0,10,0,1 @ F,0,0,1,0,10,0,1 @ F,0,0,1,0,10,0,1"
       radius="10"
       unit="px"
       method="auto"
       mode="F"
       chamfer_steps="1"
       flexible="false"
       use_knot_distance="true"
       apply_no_radius="true"
       apply_with_radius="true"
       only_selected="false"
       hide_knots="false" />
    <inkscape:path-effect
       effect="fillet_chamfer"
       id="path-effect2"
       is_visible="true"
       lpeversion="1"
       nodesatellites_param="F,0,0,1,0,10,0,1 @ F,0,0,1,0,10,0,1 @ F,0,0,1,0,10,0,1 @ F,0,0,1,0,10,0,1"
       radius="10"
       unit="px"
       method="auto"
       mode="F"
       chamfer_steps="1"
       flexible="false"
       use_knot_distance="true"
       apply_no_radius="true"
       apply_with_radius="true"
       only_selected="false"
       hide_knots="false" />
    <inkscape:path-effect
       effect="fillet_chamfer"
       id="path-effect98-0"
       is_visible="true"
       lpeversion="1"
       nodesatellites_param="F,0,0,1,0,10,0,1 @ F,0,0,1,0,10,0,1 @ F,0,0,1,0,10,0,1 @ F,0,0,1,0,10,0,1 @ F,0,0,1,0,10,0,1 @ F,0,0,1,0,10,0,1 @ F,0,0,1,0,10,0,1 @ F,0,0,1,0,10,0,1"
       radius="10"
       unit="px"
       method="auto"
       mode="F"
       chamfer_steps="1"
       flexible="false"
       use_knot_distance="true"
       apply_no_radius="true"
       apply_with_radius="true"
       only_selected="false"
       hide_knots="false" />
  </defs>
  <path
     id="path1"
     style="font-variation-settings:'YROT' 45;display:inline;opacity:0.99;fill:#000000;stroke-width:0;stroke-linecap:round;stroke-linejoin:round;stroke-opacity:0.459575;paint-order:markers fill stroke"
     d="M 4.4098324,0 A 4.409743,4.4097428 0 0 0 0,4.4098322 v 8.8193348 8.819664 a 4.409743,4.4097428 0 0 0 4.4098324,4.409502 h 8.8193336 8.819666 a 4.409743,4.4097428 0 0 0 4.409501,-4.409502 V 13.229167 4.4098322 A 4.409743,4.4097428 0 0 0 22.048832,0 h -8.819666 z"
     inkscape:label="Icon mask" />
  <path
     id="rect17"
     style="display:inline;mix-blend-mode:normal;fill:url(#linearGradient19);fill-opacity:1;stroke:#000000;stroke-width:0.166787;stroke-dasharray:none;stroke-opacity:0;paint-order:markers fill stroke"
     inkscape:label="Colored background"
     d="M 3.6048441,0 A 4.4235666,4.4235664 0 0 0 0,3.6048441 V 22.771065 a 4.4235666,4.4235664 0 0 0 4.3409499,3.687268 H 22.03496 A 4.4235666,4.4235664 0 0 0 26.458333,22.03496 V 13.187695 4.3409499 A 4.4235666,4.4235664 0 0 0 22.871633,0 Z" />
  <g
     id="g1"
     inkscape:label="Logo"
     transform="matrix(0.06056154,0,0,0.06016463,12.166222,10.799045)"
     style="display:inline;fill:none;fill-opacity:1;stroke:none;stroke-opacity:1">
    <path
       style="font-size:1649px;font-family:'MS Gothic';-inkscape-font-specification:'MS Gothic, Normal';fill:#ffffff;fill-opacity:1;stroke:none;stroke-width:12.0195;stroke-linecap:round;stroke-linejoin:round;stroke-opacity:1"
       inkscape:path-effect="#path-effect7"
       inkscape:original-d="m 708.49577,832.67383 65.38281,162.13281 h 197.08789 l -67.5664,-162.13281 z"
       transform="matrix(0.26458333,0,0,0.26458333,-108.98011,-92.481697)"
       d="m 712.23578,841.94811 57.90279,143.58425 a 14.815175,14.815175 34.018703 0 0 13.74001,9.27428 h 177.08789 a 6.6662468,6.6662468 123.6884 0 0 6.15331,-9.23055 L 907.24676,841.90438 a 15.000945,15.000945 33.688402 0 0 -13.84669,-9.23055 h -174.9043 a 6.7498357,6.7498357 124.0187 0 0 -6.25999,9.27428 z"
       id="path5"
       inkscape:label="Letter lower right fill" />
    <path
       style="font-size:1649px;font-family:'MS Gothic';-inkscape-font-specification:'MS Gothic, Normal';fill:#ffffff;fill-opacity:1;stroke:none;stroke-width:12.0195;stroke-linecap:round;stroke-linejoin:round;stroke-opacity:1"
       inkscape:path-effect="#path-effect5"
       inkscape:original-d="M 53.099287,832.67383 -14.467119,994.80664 H 182.62077 l 65.38281,-162.13281 z"
       transform="matrix(0.26458333,0,0,0.26458333,-108.98011,-92.481697)"
       d="m 49.252596,841.90438 -59.873024,143.67171 a 6.6662466,6.6662466 56.311599 0 0 6.153309,9.23055 l 177.087889,0 a 14.815175,14.815175 145.9813 0 0 13.74001,-9.27428 l 57.90279,-143.58425 a 6.7498357,6.7498357 55.981297 0 0 -6.25999,-9.27428 H 63.099287 a 15.000945,15.000945 146.3116 0 0 -13.846691,9.23055 z"
       id="path3"
       inkscape:label="Letter lower left fill" />
    <path
       style="font-size:1649px;font-family:'MS Gothic';-inkscape-font-specification:'MS Gothic, Normal';fill:#ffffff;fill-opacity:1;stroke:none;stroke-width:12.0195;stroke-linecap:round;stroke-linejoin:round;stroke-opacity:1"
       inkscape:path-effect="#path-effect98"
       inkscape:original-d="M 396.13054,9.546875 178.27702,532.30469 H 368.49577 L 470.03679,277.33594 h 16.42578 L 588.00358,532.30469 H 778.22233 L 560.36882,9.546875 Z"
       transform="matrix(0.26458333,0,0,0.26458333,-108.98011,-92.481697)"
       d="M 392.28382,18.777407 182.12374,523.07416 a 6.6662221,6.6662221 56.311696 0 0 6.15328,9.23053 h 170.21875 a 14.746327,14.746327 145.85743 0 0 13.69988,-9.29037 l 94.14126,-236.38801 a 14.746327,14.746327 145.85743 0 1 13.69988,-9.29037 12.24214,12.24214 42.536613 0 1 10.12566,9.29037 l 94.14125,236.38801 a 14.746327,14.746327 34.142569 0 0 13.69988,9.29037 h 170.21875 a 6.6662223,6.6662223 123.6883 0 0 6.15328,-9.23053 L 564.21554,18.777408 A 15.001,15.001 33.688305 0 0 550.36882,9.546875 H 406.13054 a 15.001,15.001 146.3117 0 0 -13.84672,9.230532 z"
       id="text97"
       inkscape:label="Letter upper fill" />
    <path
       id="path80"
       style="display:inline;fill:#ffffff;fill-opacity:1;stroke:none;stroke-opacity:1;stroke-width:11.3998;stroke-dasharray:none"
       inkscape:label="Controller fill"
       d="m 175.56273,138.87457 c -46.93469,-0.39418 -91.198671,23.17376 -117.084049,62.32164 -23.588205,35.52036 -29.576988,80.37356 -16.085795,120.81924 13.402874,40.47264 45.032496,72.79748 85.186264,87.12628 44.17176,15.86276 93.75527,8.25936 131.11634,-20.15376 3.9743,-2.80757 8.7719,-4.17976 13.55314,-4.78868 1.46607,-0.18501 3.07564,-0.32132 4.55194,-0.37896 0.41556,-0.0149 1.16344,-0.0289 1.57435,-0.0344 0.26681,-0.0242 300.70208,0.012 301.18085,0 2.29067,9.3e-4 4.67374,0.12614 6.94769,0.41341 4.78122,0.60892 9.61402,1.98018 13.58736,4.78868 38.05832,28.93652 88.6689,36.26157 133.3752,19.32694 44.73513,-16.86305 77.86491,-55.82845 87.274,-102.69808 9.48622,-46.85102 -5.95437,-95.66263 -40.65942,-128.53623 -12.87855,-12.22779 -28.21033,-21.97863 -44.7322,-28.49088 -11.23677,-4.43262 -23.18152,-7.44075 -35.1834,-8.81943 -3.01487,-0.32817 -6.65315,-0.63335 -9.6857,-0.75792 -1.16393,-0.013 -3.64879,-0.15361 -4.82574,-0.1378 h -2.42998 z m 511.83631,59.11771 c 5.47585,-0.11882 11.08047,1.3587 16.0858,4.61642 7.96799,5.17498 12.86041,14.23568 12.83441,23.73666 0.026,9.50098 -4.86642,18.52822 -12.83441,23.7022 -14.56097,9.47698 -34.0967,3.81606 -41.30969,-11.9889 -3.37399,-7.358 -3.37399,-16.10307 0,-23.46105 4.73418,-10.37201 14.77001,-16.37848 25.22389,-16.60533 z m -539.49018,22.25527 h 34.43044 c 0.259,0.001 0.41807,0.009 0.61605,0.0345 0.699,0.094 1.34039,0.37047 1.88239,0.72347 0.097,0.065 0.1369,0.10335 0.1369,0.10335 0.095,0.069 0.1369,0.10336 0.1369,0.10336 0.092,0.073 0.1369,0.10335 0.1369,0.10335 0.09,0.077 0.1369,0.10335 0.1369,0.10335 0.087,0.08 0.1369,0.1378 0.1369,0.1378 0.084,0.084 0.1369,0.10336 0.1369,0.10336 0.08,0.087 0.10267,0.1378 0.10267,0.1378 0.077,0.09 0.1369,0.1378 0.1369,0.1378 0.073,0.092 0.10268,0.13781 0.10268,0.13781 0.069,0.095 0.10267,0.1378 0.10267,0.1378 0.417,0.607 0.65096,1.26025 0.75296,1.92925 0.034,0.23 0.0322,0.43812 0.0342,0.62012 V 257.489 h 32.65074 c 0.229,0 0.47328,0.0104 0.65028,0.0344 0.693,0.094 1.31015,0.33602 1.84815,0.68902 0.097,0.065 0.17113,0.10335 0.17113,0.10335 0.095,0.069 0.1369,0.10336 0.1369,0.10336 0.092,0.073 0.1369,0.10335 0.1369,0.10335 0.09,0.077 0.1369,0.1378 0.1369,0.1378 0.087,0.08 0.1369,0.10336 0.1369,0.10336 0.084,0.084 0.10268,0.1378 0.10268,0.1378 0.08,0.087 0.1369,0.1378 0.1369,0.1378 0.077,0.09 0.10267,0.13781 0.10267,0.13781 0.073,0.092 0.10268,0.1378 0.10268,0.1378 0.069,0.095 0.10267,0.1378 0.10267,0.1378 0.535,0.771 0.81041,1.67037 0.82141,2.54937 v 34.41643 c -0.001,0.259 -0.009,0.42211 -0.0342,0.62011 -0.094,0.699 -0.36573,1.31835 -0.71873,1.86035 -0.065,0.097 -0.10267,0.17226 -0.10267,0.17226 -0.069,0.095 -0.10268,0.1378 -0.10268,0.1378 -0.073,0.092 -0.10267,0.1378 -0.10267,0.1378 -0.077,0.09 -0.1369,0.13781 -0.1369,0.13781 -0.08,0.087 -0.10268,0.10335 -0.10268,0.10335 -0.084,0.084 -0.1369,0.1378 -0.1369,0.1378 -0.087,0.08 -0.1369,0.13781 -0.1369,0.13781 -0.09,0.077 -0.1369,0.10335 -0.1369,0.10335 -0.092,0.073 -0.1369,0.10335 -0.1369,0.10335 -0.095,0.069 -0.1369,0.10335 -0.1369,0.10335 -0.607,0.417 -1.24761,0.65592 -1.91661,0.75792 -0.23,0.034 -0.43405,0.0325 -0.61605,0.0345 h -32.71919 v 32.65943 c 0,0.229 -0.0102,0.44312 -0.0342,0.62012 -0.094,0.693 -0.33151,1.35681 -0.68451,1.89479 -0.065,0.097 -0.10267,0.13781 -0.10267,0.13781 -0.069,0.095 -0.10268,0.1378 -0.10268,0.1378 -0.073,0.092 -0.1369,0.13781 -0.1369,0.13781 -0.077,0.09 -0.10267,0.1378 -0.10267,0.1378 -0.08,0.087 -0.1369,0.1378 -0.1369,0.1378 -0.084,0.084 -0.10268,0.10335 -0.10268,0.10335 -0.087,0.08 -0.1369,0.13781 -0.1369,0.13781 -0.09,0.077 -0.1369,0.10335 -0.1369,0.10335 -0.092,0.073 -0.1369,0.10335 -0.1369,0.10335 -0.095,0.069 -0.1369,0.10336 -0.1369,0.10336 -0.771,0.535 -1.68788,0.81582 -2.56688,0.82682 h -34.43045 c -0.259,-10e-4 -0.41805,-0.009 -0.61605,-0.0345 -0.699,-0.094 -1.34038,-0.37047 -1.88238,-0.72347 -0.097,-0.065 -0.1369,-0.10335 -0.1369,-0.10335 -0.095,-0.069 -0.1369,-0.10336 -0.1369,-0.10336 -0.092,-0.073 -0.1369,-0.10335 -0.1369,-0.10335 -0.09,-0.077 -0.1369,-0.10335 -0.1369,-0.10335 -0.087,-0.08 -0.1369,-0.13781 -0.1369,-0.13781 -0.084,-0.084 -0.10268,-0.10335 -0.10268,-0.10335 -0.08,-0.087 -0.1369,-0.1378 -0.1369,-0.1378 -0.077,-0.09 -0.10267,-0.13781 -0.10267,-0.13781 -0.073,-0.092 -0.10268,-0.1378 -0.10268,-0.1378 -0.069,-0.095 -0.10267,-0.1378 -0.10267,-0.1378 -0.417,-0.607 -0.65096,-1.26025 -0.75296,-1.92925 -0.034,-0.23 -0.0665,-0.43812 -0.0684,-0.62012 V 301.00042 H 110.7404 c -0.229,0 -0.43905,-0.0449 -0.61605,-0.0689 -0.693,-0.094 -1.34438,-0.33601 -1.88238,-0.68901 -0.097,-0.065 -0.1369,-0.10336 -0.1369,-0.10336 -0.095,-0.069 -0.1369,-0.10335 -0.1369,-0.10335 -0.092,-0.073 -0.1369,-0.10335 -0.1369,-0.10335 -0.09,-0.077 -0.1369,-0.1378 -0.1369,-0.1378 -0.087,-0.08 -0.1369,-0.10336 -0.1369,-0.10336 -0.084,-0.084 -0.1369,-0.1378 -0.1369,-0.1378 -0.08,-0.087 -0.10268,-0.1378 -0.10268,-0.1378 -0.077,-0.09 -0.1369,-0.10336 -0.1369,-0.10336 -0.073,-0.092 -0.10267,-0.1378 -0.10267,-0.1378 -0.069,-0.095 -0.10268,-0.17226 -0.10268,-0.17226 -0.535,-0.77098 -0.77618,-1.63591 -0.78718,-2.51491 v -34.45088 c 10e-4,-0.259 0.009,-0.42212 0.0342,-0.62012 0.094,-0.699 0.3315,-1.31834 0.6845,-1.86034 0.065,-0.097 0.10268,-0.17226 0.10268,-0.17226 0.069,-0.095 0.10267,-0.1378 0.10267,-0.1378 0.073,-0.092 0.1369,-0.13781 0.1369,-0.13781 0.077,-0.09 0.10268,-0.1378 0.10268,-0.1378 0.08,-0.087 0.10267,-0.10335 0.10267,-0.10335 0.084,-0.084 0.1369,-0.1378 0.1369,-0.1378 0.087,-0.08 0.1369,-0.10336 0.1369,-0.10336 0.09,-0.077 0.1369,-0.1378 0.1369,-0.1378 0.092,-0.073 0.1369,-0.10335 0.1369,-0.10335 0.095,-0.069 0.13691,-0.10336 0.13691,-0.10336 0.60698,-0.417 1.2476,-0.65592 1.9166,-0.75792 0.23,-0.034 0.43405,-0.0324 0.61605,-0.0344 0.051,-0.001 32.71919,0 32.71919,0 v -32.65943 c 0,-0.229 0.0102,-0.44312 0.0342,-0.62012 0.094,-0.693 0.36573,-1.3568 0.71873,-1.8948 0.065,-0.097 0.10267,-0.1378 0.10267,-0.1378 0.069,-0.095 0.10268,-0.1378 0.10268,-0.1378 0.073,-0.092 0.10267,-0.13781 0.10267,-0.13781 0.077,-0.09 0.10268,-0.1378 0.10268,-0.1378 0.08,-0.087 0.1369,-0.1378 0.1369,-0.1378 0.084,-0.084 0.1369,-0.10336 0.1369,-0.10336 0.087,-0.08 0.10267,-0.1378 0.10267,-0.1378 0.09,-0.077 0.1369,-0.10335 0.1369,-0.10335 0.092,-0.073 0.1369,-0.10336 0.1369,-0.10336 0.095,-0.069 0.17113,-0.10335 0.17113,-0.10335 0.771,-0.535 1.65366,-0.81582 2.53266,-0.82682 z m 477.81656,29.52441 c 5.47595,-0.11883 11.04623,1.32426 16.05157,4.58196 7.96798,5.174 12.89464,14.23568 12.86864,23.73666 0.025,9.50098 -4.90066,18.52621 -12.86864,23.70221 -14.56098,9.47698 -34.06148,3.81605 -41.27547,-11.98891 -3.37399,-7.35798 -3.37399,-16.06862 0,-23.4266 4.73353,-10.37201 14.76979,-16.37847 25.2239,-16.60532 z m 123.34724,0 c 5.47597,-0.11883 11.08046,1.32426 16.0858,4.58196 7.96798,5.174 12.86041,14.23568 12.83441,23.73666 0.026,9.50098 -4.86643,18.52621 -12.83441,23.70221 -14.56098,9.47698 -34.09571,3.81605 -41.30969,-11.98891 -3.374,-7.35798 -3.374,-16.06862 0,-23.4266 4.73351,-10.37201 14.7698,-16.37847 25.22389,-16.60532 z m -61.67362,51.74522 c 5.47596,-0.11883 11.08047,1.3587 16.0858,4.61642 7.96799,5.17398 12.86041,14.20122 12.83441,23.7022 0.026,9.50098 -4.86642,18.56168 -12.83441,23.73666 -14.56097,9.47698 -34.0957,3.78162 -41.30969,-12.02336 -3.37399,-7.35798 -3.37399,-16.0686 0,-23.4266 4.73352,-10.37201 14.76979,-16.37847 25.22389,-16.60532 z"
       transform="matrix(0.24931644,0,0,0.24931643,-89.499034,18.762899)" />
  </g>
  <g
     id="AG-DIGITAL"
     transform="matrix(0.01598751,0,0,0.01580713,5.5647156,5.2361971)"
     inkscape:label="Logo outline"
     style="display:none">
    <path
       style="font-size:1649px;font-family:'MS Gothic';-inkscape-font-specification:'MS Gothic, Normal';fill:none;stroke:#000000;stroke-width:12.0195;stroke-linecap:round;stroke-linejoin:round"
       inkscape:path-effect="#path-effect4"
       inkscape:original-d="m 708.49577,832.67383 65.38281,162.13281 h 197.08789 l -67.5664,-162.13281 z"
       d="m 712.23578,841.94811 57.90279,143.58425 a 14.815175,14.815175 34.018703 0 0 13.74001,9.27428 h 177.08789 a 6.6662468,6.6662468 123.6884 0 0 6.15331,-9.23055 L 907.24676,841.90438 a 15.000945,15.000945 33.688402 0 0 -13.84669,-9.23055 h -174.9043 a 6.7498357,6.7498357 124.0187 0 0 -6.25999,9.27428 z"
       id="path2"
       inkscape:label="Text lower right outline" />
    <path
       style="font-size:1649px;font-family:'MS Gothic';-inkscape-font-specification:'MS Gothic, Normal';fill:none;stroke:#000000;stroke-width:12.0195;stroke-linecap:round;stroke-linejoin:round"
       inkscape:path-effect="#path-effect2"
       inkscape:original-d="M 53.099287,832.67383 -14.467119,994.80664 H 182.62077 l 65.38281,-162.13281 z"
       d="m 49.252596,841.90438 -59.873024,143.67171 a 6.6662466,6.6662466 56.311599 0 0 6.153309,9.23055 l 177.087889,0 a 14.815175,14.815175 145.9813 0 0 13.74001,-9.27428 l 57.90279,-143.58425 a 6.7498357,6.7498357 55.981297 0 0 -6.25999,-9.27428 H 63.099287 a 15.000945,15.000945 146.3116 0 0 -13.846691,9.23055 z"
       id="path1-5"
       inkscape:label="Text lower left outline" />
    <path
       style="font-size:1649px;font-family:'MS Gothic';-inkscape-font-specification:'MS Gothic, Normal';fill:none;stroke:#000000;stroke-width:12.0195;stroke-linecap:round;stroke-linejoin:round"
       inkscape:path-effect="#path-effect98-0"
       inkscape:original-d="M 396.13054,9.546875 178.27702,532.30469 H 368.49577 L 470.03679,277.33594 h 16.42578 L 588.00358,532.30469 H 778.22233 L 560.36882,9.546875 Z"
       d="M 392.28382,18.777407 182.12374,523.07416 a 6.6662221,6.6662221 56.311696 0 0 6.15328,9.23053 h 170.21875 a 14.746327,14.746327 145.85743 0 0 13.69988,-9.29037 l 94.14126,-236.38801 a 14.746327,14.746327 145.85743 0 1 13.69988,-9.29037 12.24214,12.24214 42.536613 0 1 10.12566,9.29037 l 94.14125,236.38801 a 14.746327,14.746327 34.142569 0 0 13.69988,9.29037 h 170.21875 a 6.6662223,6.6662223 123.6883 0 0 6.15328,-9.23053 L 564.21554,18.777408 A 15.001,15.001 33.688305 0 0 550.36882,9.546875 H 406.13054 a 15.001,15.001 146.3117 0 0 -13.84672,9.230532 z"
       id="text97-5"
       inkscape:label="Text upper outline" />
    <path
       fill="none"
       stroke="#00b9d2"
       stroke-width="2.75"
       stroke-linecap="round"
       stroke-linejoin="round"
       stroke-miterlimit="10"
       d="m 601.707,278.088 c 0.026,-9.501 -4.869,-18.546 -12.837,-23.72 -14.561,-9.477 -34.081,-3.804 -41.294,12.001 -3.374,7.358 -3.374,16.081 0,23.439 7.214,15.805 26.733,21.478 41.294,12.001 7.968,-5.176 12.862,-14.22 12.837,-23.721 z"
       id="path75"
       transform="matrix(0.94229839,0,0,0.94229839,123.49883,420.44672)"
       style="stroke:#000000;stroke-width:11.3998;stroke-dasharray:none;stroke-opacity:1"
       inkscape:label="Button left" />
    <path
       fill="none"
       stroke="#00b9d2"
       stroke-width="2.75"
       stroke-linecap="round"
       stroke-linejoin="round"
       stroke-miterlimit="10"
       d="m 725.063,278.088 c 0.026,-9.501 -4.869,-18.546 -12.837,-23.72 -14.561,-9.477 -34.081,-3.804 -41.294,12.001 -3.374,7.358 -3.374,16.081 0,23.439 7.214,15.805 26.733,21.478 41.294,12.001 7.968,-5.176 12.863,-14.22 12.837,-23.721 z"
       id="path76"
       transform="matrix(0.94229839,0,0,0.94229839,123.49883,420.44672)"
       style="stroke:#000000;stroke-width:11.3998;stroke-dasharray:none;stroke-opacity:1"
       inkscape:label="Button right" />
    <path
       fill="none"
       stroke="#00b9d2"
       stroke-width="2.75"
       stroke-linecap="round"
       stroke-linejoin="round"
       stroke-miterlimit="10"
       d="m 663.385,329.842 c 0.026,-9.501 -4.869,-18.546 -12.837,-23.72 -14.561,-9.477 -34.081,-3.804 -41.294,12.001 -3.374,7.358 -3.374,16.081 0,23.439 7.214,15.805 26.733,21.478 41.294,12.001 7.968,-5.175 12.863,-14.22 12.837,-23.721 z"
       id="path81"
       transform="matrix(0.94229839,0,0,0.94229839,123.49883,420.44672)"
       style="stroke:#000000;stroke-width:11.3998;stroke-dasharray:none;stroke-opacity:1"
       inkscape:label="Button down" />
    <path
       fill="none"
       stroke="#00b9d2"
       stroke-width="2.75"
       stroke-linecap="round"
       stroke-linejoin="round"
       stroke-miterlimit="10"
       d="m 663.385,226.334 c 0.026,9.501 -4.869,18.546 -12.837,23.72 -14.561,9.477 -34.081,3.804 -41.294,-12.001 -3.374,-7.358 -3.374,-16.081 0,-23.439 7.214,-15.805 26.733,-21.478 41.294,-12.001 7.968,5.175 12.863,14.22 12.837,23.721 z"
       id="path77"
       transform="matrix(0.94229839,0,0,0.94229839,123.49883,420.44672)"
       style="stroke:#000000;stroke-width:11.3998;stroke-dasharray:none;stroke-opacity:1"
       inkscape:label="Button up" />
    <path
       fill="none"
       stroke="#00b9d2"
       stroke-width="2.75"
       stroke-linecap="round"
       stroke-linejoin="round"
       stroke-miterlimit="10"
       d="m 205.085,257.48 v -32.655 c 0,-0.229 0.018,-0.442 0.042,-0.619 0.094,-0.693 0.349,-1.34 0.702,-1.878 0.065,-0.097 0.099,-0.145 0.099,-0.145 0.069,-0.095 0.105,-0.142 0.105,-0.142 0.073,-0.092 0.11,-0.138 0.11,-0.138 0.077,-0.09 0.116,-0.134 0.116,-0.134 0.08,-0.087 0.121,-0.129 0.121,-0.129 0.084,-0.084 0.126,-0.125 0.126,-0.125 0.087,-0.08 0.131,-0.119 0.131,-0.119 0.09,-0.077 0.135,-0.114 0.135,-0.114 0.092,-0.073 0.139,-0.109 0.139,-0.109 0.095,-0.069 0.143,-0.103 0.143,-0.103 0.771,-0.535 1.665,-0.798 2.544,-0.809 0.051,0 34.431,0 34.431,0 0.259,0.001 0.421,0.017 0.619,0.042 0.699,0.094 1.336,0.349 1.878,0.702 0.097,0.065 0.145,0.099 0.145,0.099 0.095,0.069 0.142,0.105 0.142,0.105 0.092,0.073 0.138,0.11 0.138,0.11 0.09,0.077 0.134,0.116 0.134,0.116 0.087,0.08 0.129,0.121 0.129,0.121 0.084,0.084 0.125,0.126 0.125,0.126 0.08,0.087 0.119,0.131 0.119,0.131 0.077,0.09 0.114,0.135 0.114,0.135 0.073,0.092 0.109,0.139 0.109,0.139 0.069,0.095 0.103,0.143 0.103,0.143 0.417,0.607 0.658,1.254 0.76,1.923 0.034,0.23 0.047,0.439 0.049,0.621 0,0.051 0,32.705 0,32.705 h 32.655 c 0.229,0 0.442,0.018 0.619,0.042 0.693,0.094 1.34,0.349 1.878,0.702 0.097,0.065 0.145,0.099 0.145,0.099 0.095,0.069 0.142,0.105 0.142,0.105 0.092,0.073 0.138,0.111 0.138,0.111 0.09,0.077 0.134,0.116 0.134,0.116 0.087,0.08 0.129,0.121 0.129,0.121 0.084,0.084 0.124,0.126 0.124,0.126 0.08,0.087 0.119,0.131 0.119,0.131 0.077,0.09 0.114,0.135 0.114,0.135 0.073,0.092 0.109,0.139 0.109,0.139 0.069,0.095 0.103,0.143 0.103,0.143 0.535,0.771 0.798,1.665 0.809,2.544 0,0.051 0,34.431 0,34.431 -10e-4,0.259 -0.017,0.421 -0.042,0.619 -0.094,0.699 -0.349,1.336 -0.702,1.878 -0.065,0.097 -0.099,0.145 -0.099,0.145 -0.069,0.095 -0.105,0.142 -0.105,0.142 -0.073,0.092 -0.111,0.138 -0.111,0.138 -0.077,0.09 -0.116,0.134 -0.116,0.134 -0.08,0.087 -0.121,0.129 -0.121,0.129 -0.084,0.084 -0.126,0.125 -0.126,0.125 -0.087,0.08 -0.131,0.119 -0.131,0.119 -0.09,0.077 -0.135,0.114 -0.135,0.114 -0.092,0.073 -0.139,0.109 -0.139,0.109 -0.095,0.069 -0.143,0.103 -0.143,0.103 -0.607,0.417 -1.254,0.658 -1.923,0.76 -0.23,0.034 -0.439,0.047 -0.621,0.049 -0.051,0 -32.705,0 -32.705,0 v 32.655 c 0,0.229 -0.018,0.442 -0.042,0.619 -0.094,0.693 -0.349,1.34 -0.702,1.878 -0.065,0.097 -0.099,0.145 -0.099,0.145 -0.069,0.095 -0.105,0.142 -0.105,0.142 -0.073,0.092 -0.11,0.138 -0.11,0.138 -0.077,0.09 -0.116,0.134 -0.116,0.134 -0.08,0.087 -0.121,0.129 -0.121,0.129 -0.084,0.084 -0.126,0.125 -0.126,0.125 -0.087,0.08 -0.131,0.119 -0.131,0.119 -0.09,0.077 -0.135,0.114 -0.135,0.114 -0.092,0.073 -0.139,0.109 -0.139,0.109 -0.095,0.069 -0.143,0.103 -0.143,0.103 -0.771,0.535 -1.665,0.798 -2.544,0.809 -0.051,0 -34.431,0 -34.431,0 -0.259,-10e-4 -0.421,-0.017 -0.619,-0.042 -0.699,-0.094 -1.336,-0.349 -1.878,-0.702 -0.097,-0.065 -0.145,-0.099 -0.145,-0.099 -0.095,-0.069 -0.142,-0.105 -0.142,-0.105 -0.092,-0.073 -0.138,-0.11 -0.138,-0.11 -0.09,-0.077 -0.134,-0.116 -0.134,-0.116 -0.087,-0.08 -0.129,-0.121 -0.129,-0.121 -0.084,-0.084 -0.125,-0.126 -0.125,-0.126 -0.08,-0.087 -0.119,-0.131 -0.119,-0.131 -0.077,-0.09 -0.114,-0.135 -0.114,-0.135 -0.073,-0.092 -0.109,-0.139 -0.109,-0.139 -0.069,-0.095 -0.103,-0.143 -0.103,-0.143 -0.417,-0.607 -0.658,-1.254 -0.76,-1.923 -0.034,-0.23 -0.047,-0.439 -0.049,-0.621 0,-0.051 0,-32.705 0,-32.705 H 172.43 c -0.229,0 -0.442,-0.018 -0.619,-0.042 -0.693,-0.094 -1.34,-0.349 -1.878,-0.702 -0.097,-0.065 -0.145,-0.099 -0.145,-0.099 -0.095,-0.069 -0.142,-0.105 -0.142,-0.105 -0.092,-0.073 -0.138,-0.11 -0.138,-0.11 -0.09,-0.077 -0.134,-0.116 -0.134,-0.116 -0.087,-0.08 -0.129,-0.121 -0.129,-0.121 -0.084,-0.084 -0.125,-0.126 -0.125,-0.126 -0.08,-0.087 -0.119,-0.131 -0.119,-0.131 -0.077,-0.09 -0.114,-0.135 -0.114,-0.135 -0.073,-0.092 -0.109,-0.139 -0.109,-0.139 -0.069,-0.095 -0.103,-0.143 -0.103,-0.143 -0.535,-0.771 -0.798,-1.665 -0.809,-2.544 0,-0.051 0,-34.431 0,-34.431 10e-4,-0.259 0.017,-0.421 0.042,-0.619 0.094,-0.699 0.349,-1.336 0.702,-1.878 0.065,-0.097 0.099,-0.145 0.099,-0.145 0.069,-0.095 0.105,-0.142 0.105,-0.142 0.073,-0.092 0.11,-0.138 0.11,-0.138 0.077,-0.09 0.116,-0.134 0.116,-0.134 0.08,-0.087 0.121,-0.129 0.121,-0.129 0.084,-0.084 0.126,-0.125 0.126,-0.125 0.087,-0.08 0.131,-0.119 0.131,-0.119 0.09,-0.077 0.135,-0.114 0.135,-0.114 0.092,-0.073 0.139,-0.109 0.139,-0.109 0.095,-0.069 0.143,-0.103 0.143,-0.103 0.607,-0.417 1.254,-0.658 1.923,-0.76 0.23,-0.034 0.439,-0.047 0.621,-0.049 0.051,-10e-4 32.706,-10e-4 32.706,-10e-4 z"
       id="path74"
       style="stroke:#000000;stroke-width:11.3998;stroke-dasharray:none;stroke-opacity:1"
       transform="matrix(0.94229839,0,0,0.94229839,15.498822,420.44672)"
       inkscape:label="DPad" />
    <path
       fill="none"
       stroke="#00b9d2"
       stroke-width="2.75"
       stroke-linecap="round"
       stroke-linejoin="round"
       stroke-miterlimit="10"
       d="M 175.56574,138.87114 C 128.63095,138.47696 84.349412,162.04662 58.463982,201.19458 34.875729,236.715 28.918471,281.55434 42.409692,322.0001 c 13.4029,40.47272 45.0234,72.82859 85.177248,87.15743 44.17184,15.86278 93.74872,8.23585 131.10987,-20.17733 3.9743,-2.80757 8.78528,-4.1751 13.56652,-4.78402 1.46607,-0.18501 3.05207,-0.30772 4.52837,-0.36536 0.41556,-0.0149 1.18904,-0.0353 1.59995,-0.0409 0.26681,-0.0242 300.70179,0.007 301.18056,-0.005 2.29069,9.3e-4 4.67154,0.12364 6.94549,0.41091 4.78124,0.60892 9.59316,1.97552 13.56652,4.78402 38.0584,28.93658 88.68021,36.27438 133.38661,19.33971 44.73521,-16.86309 77.85339,-55.85022 87.26248,-102.71993 9.48624,-46.85112 -5.94332,-95.63221 -40.64843,-128.50589 -12.87857,-12.22781 -28.20401,-21.9976 -44.72592,-28.50987 -11.23679,-4.43262 -23.19593,-7.42705 -35.19783,-8.80573 -3.01489,-0.32817 -6.63777,-0.64705 -9.67032,-0.77162 -1.16393,-0.013 -3.67215,-0.14875 -4.8491,-0.13294 l -2.42548,-0.003 z"
       id="path80-5"
       sodipodi:nodetypes="cccccccccccccccccccc"
       style="stroke:#000000;stroke-width:11.3998;stroke-dasharray:none;stroke-opacity:1"
       transform="matrix(0.94229839,0,0,0.94229839,73.629274,420.45201)"
       inkscape:label="Controller outline" />
  </g>
</svg>
