<?xml version="1.0" encoding="UTF-8" standalone="no"?>
<svg
   version="1.1"
   x="0px"
   y="0px"
   viewBox="0 0 300 300"
   xml:space="preserve"
   id="svg7"
   sodipodi:docname="noun-atari-7800-controller-196247.svg"
   width="300"
   height="300"
   inkscape:version="1.3.2 (091e20e, 2023-11-25, custom)"
   xmlns:inkscape="http://www.inkscape.org/namespaces/inkscape"
   xmlns:sodipodi="http://sodipodi.sourceforge.net/DTD/sodipodi-0.dtd"
   xmlns="http://www.w3.org/2000/svg"
   xmlns:svg="http://www.w3.org/2000/svg"><defs
     id="defs7" /><sodipodi:namedview
     id="namedview7"
     pagecolor="#ffffff"
     bordercolor="#000000"
     borderopacity="0.25"
     inkscape:showpageshadow="2"
     inkscape:pageopacity="0.0"
     inkscape:pagecheckerboard="0"
     inkscape:deskcolor="#d1d1d1"
     inkscape:zoom="4"
     inkscape:cx="215"
     inkscape:cy="154.625"
     inkscape:window-width="1920"
     inkscape:window-height="991"
     inkscape:window-x="2091"
     inkscape:window-y="-9"
     inkscape:window-maximized="1"
     inkscape:current-layer="svg7" /><g
     id="g12"
     transform="matrix(2.8514647,0,0,2.8514647,7.7027017,7.6994463)"><circle
       cx="53.400002"
       cy="59.400002"
       r="5"
       id="circle1"
       style="fill:#f56856;fill-opacity:1;stroke:#000000;stroke-width:0.5;stroke-dasharray:none;stroke-opacity:1" /><circle
       cx="72.900002"
       cy="59.400002"
       r="5"
       id="circle2"
       style="fill:#f56856;fill-opacity:1;stroke:#000000;stroke-width:0.5;stroke-dasharray:none;stroke-opacity:1" /><path
       id="path7-7"
       style="fill:#4b4b4b;fill-opacity:1;stroke:#000000;stroke-width:0.483278;stroke-linecap:round;stroke-linejoin:round;stroke-dasharray:none;stroke-opacity:1"
       d="m 76.626547,71.408743 h 15.56092 M 90.7,28.4 H 9.2 c -1.2,0 -2.3,1 -2.3,2.2 v 38.6 c 0,1.2 1,2.2 2.3,2.2 h 48 l -8,-7.9 c -2.3,-2.3 -2.3,-6 0,-8.2 2.3,-2.3 6,-2.3 8.2,0 l 15.7,16.1 h 3.6 l -8,-7.9 c -2.3,-2.3 -2.3,-6 0,-8.2 2.3,-2.3 6,-2.3 8.2,0 l 14.9,15.3 c 0.1,0.1 0,0 0.55247,0.665931 C 92.85247,70.865931 92.9,69.9 92.9,69.2 V 30.6 c 0.1,-1.2 -1,-2.2 -2.2,-2.2 z m -33.5,43 h 15.9" /><path
       style="fill:#4b4b4b;fill-opacity:1;stroke:#000000;stroke-width:0.5;stroke-dasharray:none;stroke-opacity:1"
       d="M 49.6,30.2 H 12.3 c -0.3,0 -0.6,0.3 -0.6,0.6 v 36.6 c 0,0.6 0.7,0.8 1.1,0.5 L 50.1,31.2 c 0.4,-0.3 0.1,-1 -0.5,-1 z"
       id="path3" /><path
       style="fill:#959595;fill-opacity:1;stroke:#000000;stroke-width:0.5;stroke-dasharray:none;stroke-opacity:1"
       d="m 23.9,49.6 c -5.1,0 -9.3,-4.2 -9.3,-9.3 0,-5.1 4.2,-9.3 9.3,-9.3 5.1,0 9.3,4.2 9.3,9.3 0,5.1 -4.2,9.3 -9.3,9.3 z"
       id="path9" /><path
       style="fill:#959595;fill-opacity:1;stroke:#000000;stroke-width:0.5;stroke-dasharray:none;stroke-opacity:1"
       d="m 26.4,36 v -2.9 c 0,-0.2 -0.2,-0.4 -0.4,-0.4 h -4.1 c -0.2,0 -0.4,0.2 -0.4,0.4 V 36 c 0,1 -0.8,1.7 -1.7,1.7 h -2.9 c -0.2,0 -0.4,0.2 -0.4,0.4 v 4.1 c 0,0.2 0.2,0.4 0.4,0.4 h 2.9 c 1,0 1.7,0.8 1.7,1.7 v 2.9 c 0,0.2 0.2,0.4 0.4,0.4 H 26 c 0.2,0 0.4,-0.2 0.4,-0.4 v -2.9 c 0,-1 0.8,-1.7 1.7,-1.7 H 31 c 0.2,0 0.4,-0.2 0.4,-0.4 v -4.1 c 0,-0.2 -0.2,-0.4 -0.4,-0.4 H 28.1 C 27.2,37.8 26.4,37 26.4,36 Z"
       id="path4" /><path
       style="fill:#959595;fill-opacity:1;stroke:#000000;stroke-width:0.5;stroke-dasharray:none;stroke-opacity:1"
       d="m 23.9,43.4 c -1.7,0 -3.1,-1.4 -3.1,-3.1 0,-1.7 1.4,-3.1 3.1,-3.1 1.7,0 3.1,1.4 3.1,3.1 0,1.7 -1.4,3.1 -3.1,3.1 z"
       id="path8" /><path
       style="fill:#4b4b4b;fill-opacity:1;stroke:#000000;stroke-width:0.0110485;stroke-linecap:round;stroke-linejoin:round;stroke-dasharray:none;stroke-opacity:1"
       d="m 53.438913,67.329011 c -2.125254,-2.096907 -3.962537,-3.914117 -4.082851,-4.038242 -0.411816,-0.424863 -0.728991,-0.85814 -0.982246,-1.341794 -0.93632,-1.788141 -0.847372,-3.882985 0.235055,-5.535867 0.399446,-0.609961 1.020757,-1.230715 1.653287,-1.651807 1.980784,-1.318662 4.592844,-1.225438 6.416808,0.229016 0.115491,0.09209 0.306238,0.261137 0.423882,0.37565 0.117645,0.114514 3.542091,3.623864 7.60988,7.798556 4.06779,4.174692 7.481451,7.677356 7.585913,7.783699 l 0.189931,0.193349 h -7.59278 -7.59278 z m 0.665804,-2.717304 c 2.003388,-0.275384 3.660217,-1.649973 4.287898,-3.557456 0.184851,-0.561751 0.260165,-1.043235 0.259231,-1.657281 -9.44e-4,-0.620911 -0.07821,-1.111865 -0.262223,-1.666156 -0.107694,-0.3244 -0.360606,-0.862531 -0.530669,-1.129126 -0.307652,-0.48228 -0.850357,-1.075776 -1.268314,-1.387014 -0.785023,-0.584577 -1.678235,-0.941047 -2.61211,-1.042461 -0.275649,-0.02993 -0.886047,-0.02994 -1.161839,-1.9e-5 -2.317512,0.251462 -4.190792,2.014241 -4.601262,4.329844 -0.06213,0.350476 -0.08463,1.096517 -0.0442,1.46512 0.06947,0.63332 0.223931,1.16535 0.50807,1.750006 0.247933,0.510156 0.536401,0.918502 0.949445,1.344001 0.451121,0.464725 0.862036,0.763862 1.448675,1.054604 0.635238,0.314827 1.310626,0.492699 2.043981,0.538309 0.207582,0.01291 0.751735,-0.01054 0.98332,-0.04237 z"
       id="path11" /><path
       style="fill:#4b4b4b;fill-opacity:1;stroke:#000000;stroke-width:0.0110485;stroke-linecap:round;stroke-linejoin:round;stroke-dasharray:none;stroke-opacity:1"
       d="m 72.777072,67.167333 c -2.223898,-2.197094 -4.126809,-4.093489 -4.228691,-4.21421 -0.704539,-0.83482 -1.150127,-1.867661 -1.286335,-2.981629 -0.03458,-0.282851 -0.03477,-0.9301 -3.54e-4,-1.21534 0.126839,-1.051152 0.55651,-2.058001 1.211742,-2.839476 0.356836,-0.425586 0.872284,-0.883313 1.331263,-1.182184 1.249404,-0.813567 2.796137,-1.095916 4.230181,-0.7722 0.801561,0.180942 1.62052,0.586381 2.249683,1.113743 0.124933,0.104718 3.401061,3.452397 7.803433,7.97386 6.705361,6.886752 7.749501,7.966174 7.82184,8.08615 0.01331,0.02208 -1.499618,0.02746 -7.536328,0.02681 l -7.552983,-8.09e-4 z m 0.48582,-2.52284 c 0.718074,-0.05163 1.306779,-0.208625 1.944543,-0.518569 1.638115,-0.796099 2.747944,-2.390881 2.927349,-4.20649 0.07139,-0.72249 -0.01298,-1.472767 -0.245116,-2.179746 -0.556505,-1.694848 -1.954344,-2.997212 -3.689413,-3.43742 -0.404892,-0.102726 -0.658024,-0.134814 -1.161083,-0.147186 -0.779809,-0.01918 -1.409724,0.08685 -2.063329,0.347304 -2.620454,1.044223 -3.952169,3.911467 -3.05846,6.585011 0.66419,1.986934 2.488112,3.402193 4.583159,3.556268 0.342443,0.02518 0.4224,0.02527 0.76235,8.28e-4 z"
       id="path12" /></g></svg>
