<?xml version="1.0" encoding="UTF-8" standalone="no"?>
<svg
   viewBox="0 0 300 300"
   version="1.1"
   xml:space="preserve"
   x="0px"
   y="0px"
   fill-rule="evenodd"
   clip-rule="evenodd"
   stroke-linejoin="round"
   stroke-miterlimit="2"
   id="svg2"
   sodipodi:docname="game_gear.svg"
   width="300"
   height="300"
   inkscape:version="1.3.1 (91b66b0, 2023-11-16)"
   xmlns:inkscape="http://www.inkscape.org/namespaces/inkscape"
   xmlns:sodipodi="http://sodipodi.sourceforge.net/DTD/sodipodi-0.dtd"
   xmlns="http://www.w3.org/2000/svg"
   xmlns:svg="http://www.w3.org/2000/svg"><defs
     id="defs2" /><sodipodi:namedview
     id="namedview2"
     pagecolor="#ffffff"
     bordercolor="#666666"
     borderopacity="1.0"
     inkscape:showpageshadow="2"
     inkscape:pageopacity="0.0"
     inkscape:pagecheckerboard="0"
     inkscape:deskcolor="#d1d1d1"
     inkscape:zoom="1.2003162"
     inkscape:cx="119.96839"
     inkscape:cy="236.18776"
     inkscape:window-width="1680"
     inkscape:window-height="888"
     inkscape:window-x="0"
     inkscape:window-y="25"
     inkscape:window-maximized="0"
     inkscape:current-layer="svg2" /><g
     id="g175"
     transform="matrix(5.6955371,0,0,5.6955371,-134.77622,-134.77082)"><path
       d="M 67.154438,38.847339 H 32.845336 c -2.077093,0 -3.763551,1.686457 -3.763551,3.763551 v 14.777279 c 0,2.077394 1.686458,3.763551 3.763551,3.763551 h 34.309102 c 2.077094,0 3.763552,-1.686157 3.763552,-3.763551 V 42.61089 c 0,-2.077094 -1.686458,-3.763551 -3.763552,-3.763551 z"
       id="path1"
       style="fill:#5a5a5a;fill-opacity:1;stroke:#000000;stroke-width:0.335299;stroke-dasharray:none;stroke-opacity:1"
       inkscape:label="path1" /><path
       d="M 65.191184,38.84991 H 33.114807 l 5.01873,14.517017 c 0.0015,0.0043 0.0028,0.0083 0.004,0.01263 0,0 0.636543,2.157822 3.995497,2.100835 2.964628,-0.05052 7.122011,-0.0012 7.208146,0 h 7.201728 c 0.004,0 0.0076,0 0.0113,3e-4 0,0 3.124375,0.128451 4.75055,-4.631385 1.490867,-4.362467 3.445396,-10.588885 3.886455,-11.999404 z"
       id="path152"
       style="fill:#141414;fill-opacity:1;stroke:#000000;stroke-width:0.342797;stroke-dasharray:none;stroke-opacity:1"
       inkscape:label="path152" /><path
       d="m 56.917483,41.277266 c 0,-0.120912 -0.09781,-0.218721 -0.21872,-0.218721 H 42.548242 c -0.120911,0 -0.21902,0.09781 -0.21902,0.218721 v 10.855013 c 0,0.120911 0.09811,0.21872 0.21902,0.21872 h 14.150521 c 0.120911,0 0.21872,-0.09781 0.21872,-0.21872 z"
       id="path165"
       style="fill:#505050;fill-opacity:1;stroke:#000000;stroke-width:0.335299;stroke-dasharray:none;stroke-opacity:1"
       inkscape:label="path165" /><ellipse
       style="opacity:0.99;fill:none;fill-opacity:1;stroke:#000000;stroke-width:0.29457;stroke-linecap:round;stroke-linejoin:round;stroke-dasharray:none;stroke-opacity:1;paint-order:markers fill stroke"
       id="path6"
       cx="18.829062"
       cy="81.321304"
       rx="3.7527988"
       ry="1.3232909"
       transform="matrix(0.73018054,-0.68325425,0.65713863,0.75376974,0,0)"
       inkscape:label="Ellipsis" /><path
       d="m 64.384055,41.412689 c -0.189918,0.594956 -0.406538,1.271519 -0.64086,1.998187 0.0165,3e-4 0.0333,0.0027 0.0498,0.0072 0,0 0.357333,0.09481 0.748269,0.06241 0.346533,-0.0285 0.731769,-0.158115 0.85088,-0.611157 9e-4,-0.0036 0.0021,-0.0072 0.003,-0.0105 0,0 0.126912,-0.404438 -0.07471,-0.798674 -0.132912,-0.260125 -0.409538,-0.505547 -0.936387,-0.647461 z"
       id="path175"
       style="fill:#2d61b1;fill-opacity:1;stroke:#000000;stroke-width:0.335299;stroke-dasharray:none;stroke-opacity:1"
       inkscape:label="path175" /><path
       d="m 67.748073,45.063619 c -0.63606,0 -1.152408,0.516348 -1.152408,1.152108 0,0.636059 0.516348,1.152407 1.152408,1.152407 0.636059,0 1.152407,-0.516348 1.152407,-1.152407 0,-0.63576 -0.516348,-1.152108 -1.152407,-1.152108 z"
       id="path172"
       style="fill:#1e1e1e;fill-opacity:1;stroke:#000000;stroke-width:0.335298;stroke-dasharray:none;stroke-opacity:1"
       inkscape:label="Button B" /><ellipse
       style="opacity:0.99;fill:#1e1e1e;fill-opacity:1;stroke:#000000;stroke-width:0.306141;stroke-linecap:round;stroke-linejoin:round;stroke-dasharray:none;stroke-opacity:1;paint-order:markers fill stroke"
       id="path4"
       ry="2.3890371"
       rx="2.3603954"
       cy="47.026638"
       cx="32.716"
       inkscape:label="path4" /><path
       d="m 32.650618,44.638479 c -0.711366,0.0288 -0.790273,0.417039 -0.790273,0.417039 -0.0063,0.0201 -0.0096,0.0411 -0.0099,0.06211 l -0.0126,1.023696 -1.014694,0.0099 c -0.0213,3.01e-4 -0.0426,0.0036 -0.06271,0.0099 0,0 -0.388236,0.07891 -0.417039,0.790274 h -0.0012 c -3e-4,0.0225 -6e-4,0.0447 -3e-4,0.06601 -3e-4,0.0216 0,0.0438 3e-4,0.06631 h 0.0012 c 0.0288,0.711366 0.417039,0.790273 0.417039,0.790273 0.0201,0.0063 0.0414,0.0096 0.06271,0.0099 l 1.014394,0.0099 0.0129,1.041997 c 3e-4,0.021 0.0036,0.042 0.0099,0.06211 0,0 0.07891,0.387936 0.790273,0.417039 v 0.0012 c 0.0225,3e-4 0.0447,3e-4 0.06601,3e-4 0.0216,0 0.0435,0 0.06631,-3e-4 v -0.0012 c 0.711366,-0.0291 0.790273,-0.417039 0.790273,-0.417039 0.006,-0.0201 0.0096,-0.0411 0.0096,-0.06211 l 0.0132,-1.053698 1.014394,-0.0102 c 0.0213,0 0.0423,-0.0033 0.06271,-0.0096 0,0 0.387936,-0.07891 0.417039,-0.790274 h 0.0012 c 3e-4,-0.0228 6e-4,-0.0447 3e-4,-0.06631 3e-4,-0.0213 0,-0.0435 -3e-4,-0.06601 h -0.0012 c -0.0291,-0.711366 -0.417039,-0.790274 -0.417039,-0.790274 -0.0204,-0.0063 -0.0414,-0.0096 -0.06271,-0.0099 l -1.014695,-0.0099 -0.0129,-1.011994 c 0,-0.021 -0.0033,-0.042 -0.0096,-0.06211 0,0 -0.07891,-0.388236 -0.790273,-0.417039 v -0.0012 c -0.0225,-3e-4 -0.04471,-6e-4 -0.06601,-3e-4 -0.0216,-3e-4 -0.0438,0 -0.06631,3e-4 z"
       id="path168"
       style="fill:none;stroke:#000000;stroke-width:0.335299;stroke-dasharray:none;stroke-opacity:1" /><path
       d="m 65.213257,47.523849 c -0.636059,0 -1.152407,0.516348 -1.152407,1.152107 0,0.636059 0.516348,1.152408 1.152407,1.152408 0.63606,0 1.152408,-0.516349 1.152408,-1.152408 0,-0.635759 -0.516348,-1.152107 -1.152408,-1.152107 z"
       id="path167"
       style="fill:#1e1e1e;fill-opacity:1;stroke:#000000;stroke-width:0.335299;stroke-dasharray:none;stroke-opacity:1"
       inkscape:label="Button A" /></g></svg>
