<?xml version="1.0" encoding="UTF-8" standalone="no"?>
<!-- Generator: Adobe Illustrator 24.1.0, SVG Export Plug-In . SVG Version: 6.00 Build 0)  -->

<svg
   version="1.1"
   x="0px"
   y="0px"
   viewBox="0 0 300 300"
   enable-background="new 0 0 1000 675"
   xml:space="preserve"
   id="svg95"
   sodipodi:docname="gba.svg"
   width="300"
   height="300"
   inkscape:version="1.3.1 (91b66b0, 2023-11-16)"
   inkscape:export-filename="gba_icon@3x.png"
   inkscape:export-xdpi="76.800003"
   inkscape:export-ydpi="76.800003"
   xmlns:inkscape="http://www.inkscape.org/namespaces/inkscape"
   xmlns:sodipodi="http://sodipodi.sourceforge.net/DTD/sodipodi-0.dtd"
   xmlns="http://www.w3.org/2000/svg"
   xmlns:svg="http://www.w3.org/2000/svg"
   xmlns:ns="&amp;#38;ns_sfw;"><defs
   id="defs95" /><sodipodi:namedview
   id="namedview95"
   pagecolor="#ffffff"
   bordercolor="#666666"
   borderopacity="1.0"
   inkscape:showpageshadow="2"
   inkscape:pageopacity="0.0"
   inkscape:pagecheckerboard="0"
   inkscape:deskcolor="#d1d1d1"
   inkscape:zoom="0.71242875"
   inkscape:cx="424.60386"
   inkscape:cy="367.05425"
   inkscape:window-width="1680"
   inkscape:window-height="916"
   inkscape:window-x="0"
   inkscape:window-y="25"
   inkscape:window-maximized="1"
   inkscape:current-layer="svg95" />
<metadata
   id="metadata1">
	<ns:sfw>
		<ns:slices />
		<ns:sliceSourceBounds
   bottomLeftOrigin="true"
   height="9794.014"
   width="4677.262"
   x="-4661.262"
   y="-1022" />
	</ns:sfw>
</metadata>




<g
   id="g98"
   transform="matrix(0.78482653,0,0,0.78482653,-81.500649,-16.933349)"><polyline
     fill="none"
     stroke="#00B9D2"
     stroke-width="2.75"
     stroke-linecap="round"
     stroke-linejoin="round"
     stroke-miterlimit="10"
     points="    705.914,131.843 706.052,131.92 706.191,131.998 706.328,132.077 706.465,132.158 706.601,132.24 706.736,132.322 706.87,132.406     707.003,132.491 707.136,132.578 707.268,132.665 707.399,132.754 707.53,132.844 707.659,132.935 707.788,133.027     707.916,133.121 708.043,133.215 708.169,133.311 708.295,133.408 708.42,133.506 708.544,133.606 708.667,133.706     708.79,133.808 708.911,133.911 709.032,134.015 709.152,134.12 709.271,134.227 709.39,134.335 709.508,134.443 709.741,134.665     709.971,134.891 710.198,135.121 710.421,135.357 710.642,135.597 710.859,135.842 711.073,136.091 711.284,136.346     711.492,136.605 711.697,136.869 711.898,137.137 712.097,137.411 712.292,137.689 712.484,137.971 712.673,138.259     712.859,138.551 713.042,138.848 713.221,139.15 713.397,139.456 713.57,139.768 713.741,140.083 713.907,140.404     714.071,140.729 714.232,141.06 714.389,141.394 714.543,141.734 714.695,142.078 714.843,142.427 714.987,142.781     715.129,143.14 715.268,143.503 715.403,143.871 715.535,144.244 715.664,144.621 715.79,145.003 715.913,145.39 716.032,145.782     716.149,146.178 716.262,146.579 716.372,146.985 716.479,147.396 716.583,147.811 716.684,148.231 716.781,148.656     716.876,149.085 716.967,149.52 717.055,149.959 717.14,150.402 717.3,151.304 718.721,159.769 720.109,168.865 721.455,178.518     722.751,188.654 723.988,199.198 725.158,210.076 726.253,221.213 727.264,232.535 728.182,243.968 728.999,255.436     729.707,266.866 730.297,278.182 730.761,289.312 731.091,300.179 731.277,310.71 731.311,320.83 731.219,322.24 731.105,323.634     730.971,325.011 730.816,326.373 730.641,327.72 730.444,329.05 730.227,330.364 730.11,331.015 729.989,331.662 729.862,332.305     729.73,332.944 729.592,333.58 729.45,334.211 729.302,334.838 729.149,335.461 728.991,336.081 728.828,336.696 728.659,337.307     728.486,337.915 728.307,338.518 728.122,339.117 727.933,339.713 727.739,340.304 727.539,340.891 727.334,341.475     727.124,342.054 726.908,342.63 726.688,343.201 726.462,343.769 726.231,344.332 725.995,344.892 725.754,345.447     725.507,345.999 725.255,346.546 724.998,347.09 724.736,347.63 724.469,348.165 724.196,348.697 723.918,349.225     723.635,349.748 723.347,350.268 723.054,350.784 722.755,351.295 722.451,351.803 722.142,352.307 721.828,352.807     721.509,353.303 721.184,353.794 720.854,354.282 720.519,354.766 720.179,355.246 719.834,355.722 719.483,356.194     719.127,356.662 718.766,357.126 718.4,357.586 718.028,358.042 717.652,358.494 717.27,358.942 716.883,359.386 716.49,359.826     716.093,360.262 715.69,360.694 715.282,361.122 714.869,361.546 714.451,361.966 714.027,362.382 713.599,362.795     713.165,363.203 712.726,363.607 712.281,364.007 711.832,364.403 711.377,364.796 710.917,365.184 710.452,365.568     709.982,365.949 709.506,366.325 709.025,366.697 708.54,367.066 708.048,367.43 707.552,367.79 707.05,368.147 706.544,368.499     706.032,368.848 705.515,369.192 704.992,369.533 704.465,369.869 703.932,370.202 703.394,370.53 702.851,370.855     702.302,371.176 701.749,371.492 701.19,371.805 700.626,372.113 700.057,372.418 699.482,372.719 698.903,373.015     698.318,373.308 697.728,373.597 697.133,373.882 696.532,374.162 695.316,374.712 694.078,375.245 692.82,375.763     691.541,376.265 690.242,376.751 688.921,377.221 687.58,377.675 686.218,378.113 684.835,378.535 627.54,394.433     621.346,396.239 618.564,397.082 615.93,397.907 613.395,398.728 610.912,399.561 607.083,400.903 603.253,402.301     587.696,408.224 579.605,411.224 575.44,412.693 571.178,414.127 569.007,414.827 566.808,415.514 564.579,416.187     562.318,416.843 560.025,417.482 557.696,418.102 555.332,418.701 552.93,419.279 550.489,419.834 548.007,420.364     545.483,420.868 542.916,421.345 540.303,421.793 537.639,422.213 534.918,422.606 532.135,422.973 529.284,423.314     526.358,423.631 523.353,423.925 520.263,424.196 513.802,424.674 506.929,425.073 499.599,425.399 491.765,425.66 474.4,426.017     405.402,426.277   "
     id="polyline75"
     inkscape:label="right back"
     style="fill:#bebebe;stroke:#000000;stroke-opacity:1"
     transform="matrix(0.46999688,0,0,0.46999688,108.57464,99.770898)" /><polyline
     fill="none"
     stroke="#00B9D2"
     stroke-width="2.75"
     stroke-linecap="round"
     stroke-linejoin="round"
     stroke-miterlimit="10"
     points="    87.266,131.843 87.127,131.92 86.989,131.998 86.851,132.077 86.715,132.158 86.579,132.24 86.444,132.322 86.309,132.406     86.176,132.491 86.043,132.578 85.911,132.665 85.78,132.754 85.65,132.844 85.52,132.935 85.391,133.027 85.263,133.121     85.136,133.215 85.01,133.311 84.884,133.408 84.759,133.506 84.635,133.606 84.512,133.706 84.39,133.808 84.268,133.911     84.147,134.015 84.027,134.12 83.908,134.227 83.789,134.335 83.672,134.443 83.438,134.665 83.209,134.891 82.982,135.121     82.758,135.357 82.538,135.597 82.32,135.842 82.106,136.091 81.895,136.346 81.687,136.605 81.483,136.869 81.281,137.137     81.083,137.411 80.887,137.689 80.695,137.971 80.506,138.259 80.32,138.551 80.138,138.848 79.958,139.15 79.782,139.456     79.609,139.768 79.439,140.083 79.272,140.404 79.108,140.729 78.948,141.06 78.79,141.394 78.636,141.734 78.485,142.078     78.337,142.427 78.192,142.781 78.05,143.14 77.912,143.503 77.776,143.871 77.644,144.244 77.515,144.621 77.389,145.003     77.267,145.39 77.147,145.782 77.03,146.178 76.917,146.579 76.807,146.985 76.7,147.396 76.596,147.811 76.496,148.231     76.398,148.656 76.304,149.085 76.212,149.52 76.124,149.959 76.039,150.402 75.879,151.304 74.458,159.769 73.07,168.865     71.724,178.518 70.429,188.654 69.191,199.198 68.021,210.076 66.927,221.213 65.916,232.535 64.998,243.968 64.18,255.436     63.472,266.866 62.882,278.182 62.418,289.312 62.089,300.179 61.903,310.71 61.868,320.83 61.961,322.24 62.074,323.634     62.208,325.011 62.363,326.373 62.539,327.72 62.735,329.05 62.953,330.364 63.069,331.015 63.191,331.662 63.318,332.305     63.45,332.944 63.587,333.58 63.73,334.211 63.877,334.838 64.03,335.461 64.188,336.081 64.352,336.696 64.52,337.307     64.694,337.915 64.873,338.518 65.057,339.117 65.246,339.713 65.441,340.304 65.64,340.891 65.845,341.475 66.056,342.054     66.271,342.63 66.491,343.201 66.717,343.769 66.948,344.332 67.184,344.892 67.426,345.447 67.672,345.999 67.924,346.546     68.181,347.09 68.443,347.63 68.711,348.165 68.983,348.697 69.261,349.225 69.544,349.748 69.832,350.268 70.126,350.784     70.424,351.295 70.728,351.803 71.037,352.307 71.351,352.807 71.671,353.303 71.995,353.794 72.325,354.282 72.66,354.766     73,355.246 73.346,355.722 73.696,356.194 74.052,356.662 74.413,357.126 74.78,357.586 75.151,358.042 75.528,358.494     75.91,358.942 76.297,359.386 76.689,359.826 77.086,360.262 77.489,360.694 77.897,361.122 78.31,361.546 78.728,361.966     79.152,362.382 79.581,362.795 80.015,363.203 80.454,363.607 80.898,364.007 81.347,364.403 81.802,364.796 82.262,365.184     82.727,365.568 83.198,365.949 83.673,366.325 84.154,366.697 84.64,367.066 85.131,367.43 85.627,367.79 86.129,368.147     86.636,368.499 87.148,368.848 87.665,369.192 88.187,369.533 88.715,369.869 89.247,370.202 89.785,370.53 90.329,370.855     90.877,371.176 91.431,371.492 91.989,371.805 92.553,372.113 93.123,372.418 93.697,372.719 94.277,373.015 94.861,373.308     95.452,373.597 96.047,373.882 96.647,374.162 97.864,374.712 99.101,375.245 100.359,375.763 101.638,376.265 102.938,376.751     104.258,377.221 105.6,377.675 106.962,378.113 108.345,378.535 165.639,394.433 171.833,396.239 174.615,397.082 177.25,397.907     179.785,398.728 182.267,399.561 186.097,400.903 189.926,402.301 205.484,408.224 213.574,411.224 217.74,412.693     222.001,414.127 224.172,414.827 226.371,415.514 228.6,416.187 230.861,416.843 233.155,417.482 235.483,418.102     237.847,418.701 240.249,419.279 242.691,419.834 245.172,420.364 247.696,420.868 250.263,421.345 252.876,421.793     255.54,422.213 258.261,422.606 261.044,422.973 263.896,423.314 266.821,423.631 269.826,423.925 272.917,424.196     279.378,424.674 286.25,425.073 293.58,425.399 301.415,425.66 318.78,426.017 387.778,426.277   "
     id="polyline71"
     style="fill:#bebebe;stroke:#000000;stroke-opacity:1"
     inkscape:label="Left back"
     transform="matrix(0.46999688,0,0,0.46999688,108.57464,99.770898)" /><polyline
     fill="none"
     stroke="#00B9D2"
     stroke-width="2.75"
     stroke-linecap="round"
     stroke-linejoin="round"
     stroke-miterlimit="10"
     points="    703.77,119.31 706.365,119.114 706.426,119.109 706.487,119.103 706.549,119.096 706.61,119.088 706.672,119.08 706.734,119.07     706.796,119.059 706.857,119.048 706.919,119.035 706.981,119.022 707.043,119.007 707.104,118.992 707.166,118.976     707.227,118.959 707.288,118.94 707.349,118.921 707.41,118.901 707.471,118.88 707.532,118.858 707.592,118.835 707.652,118.811     707.711,118.786 707.771,118.761 707.83,118.734 707.888,118.706 707.947,118.678 708.005,118.648 708.062,118.618     708.119,118.587 708.176,118.555 708.232,118.522 708.287,118.488 708.342,118.453 708.397,118.418 708.451,118.381     708.504,118.344 708.557,118.306 708.609,118.268 708.661,118.228 708.711,118.188 708.762,118.147 708.811,118.106     708.86,118.063 708.908,118.02 708.956,117.977 709.002,117.932 709.048,117.887 709.093,117.842 709.138,117.796     709.181,117.749 709.224,117.702 709.266,117.654 709.307,117.605 709.348,117.557 709.387,117.507 709.426,117.458     709.464,117.407 709.501,117.357 709.537,117.306 709.572,117.255 709.607,117.203 709.64,117.151 709.673,117.099     709.705,117.046 709.736,116.993 709.766,116.939 709.796,116.885 709.825,116.83 709.853,116.775 709.881,116.719     709.908,116.662 709.934,116.605 709.959,116.547 709.984,116.489 710.007,116.43 710.03,116.371 710.052,116.311     710.073,116.251 710.094,116.19 710.113,116.129 710.132,116.068 710.15,116.006 710.166,115.944 710.182,115.882     710.197,115.819 710.211,115.756 710.224,115.692 710.236,115.629 710.247,115.565 710.257,115.501 710.267,115.436     710.275,115.372 710.282,115.307 710.288,115.243 710.294,115.178 710.298,115.113 710.301,115.048 710.303,114.983     710.305,114.918 710.305,114.853 710.304,114.788 710.303,114.723 710.3,114.658 710.296,114.594 710.292,114.529     710.286,114.464 710.28,114.4 710.272,114.336 710.264,114.272 710.254,114.208 710.244,114.145 710.232,114.082 710.22,114.019     710.207,113.957 710.193,113.894 710.178,113.832 710.162,113.771 710.145,113.71 710.128,113.649 710.109,113.589     710.09,113.529 710.07,113.47 710.049,113.411 710.027,113.353 710.005,113.295 709.982,113.237 709.958,113.18 709.933,113.124     709.073,111.251 708.642,110.345 708.212,109.459 707.781,108.593 707.35,107.746 706.919,106.918 706.488,106.109     706.056,105.319 705.625,104.547 705.194,103.793 704.763,103.057 704.332,102.339 703.902,101.637 703.471,100.953     703.041,100.285 702.611,99.634 702.182,98.999 701.753,98.38 701.324,97.777 700.896,97.189 700.468,96.616 700.041,96.058     699.615,95.515 699.189,94.986 698.764,94.471 698.339,93.969 697.915,93.481 697.492,93.007 697.07,92.545 696.649,92.096     696.229,91.66 695.81,91.235 695.391,90.823 694.974,90.422 694.558,90.033 694.143,89.654 693.729,89.287 693.316,88.93     692.904,88.583 692.494,88.246 692.085,87.919 691.678,87.602 691.272,87.293 690.867,86.994 690.464,86.703 690.062,86.421     689.662,86.147 689.264,85.881 688.867,85.622 688.472,85.37 688.078,85.126 687.687,84.888 687.297,84.657 686.909,84.433     686.523,84.214 686.139,84.001 685.756,83.793 684.998,83.393 684.248,83.011 683.507,82.646 682.711,82.265 681.925,81.901     681.148,81.552 680.379,81.219 679.618,80.9 678.862,80.595 678.113,80.304 677.369,80.026 676.628,79.76 675.891,79.507     675.156,79.264 674.422,79.033 673.69,78.811 672.957,78.599 672.223,78.397 671.487,78.203 670.748,78.017 670.007,77.839     669.26,77.667 668.509,77.502 666.987,77.189 665.435,76.895 663.845,76.615 662.212,76.346 658.786,75.821 577.399,65.055   "
     id="polyline74"
     inkscape:label="right shoulder"
     style="fill:#bebebe;fill-opacity:1;stroke:#000000;stroke-opacity:1"
     transform="matrix(0.46999688,0,0,0.46999688,108.57464,99.770898)" /><polyline
     fill="none"
     stroke="#00B9D2"
     stroke-width="2.75"
     stroke-linecap="round"
     stroke-linejoin="round"
     stroke-miterlimit="10"
     points="    89.41,119.31 86.815,119.114 86.753,119.109 86.692,119.103 86.63,119.096 86.569,119.088 86.507,119.08 86.445,119.07     86.384,119.059 86.322,119.048 86.26,119.035 86.198,119.022 86.137,119.007 86.075,118.992 86.014,118.976 85.952,118.959     85.891,118.94 85.83,118.921 85.769,118.901 85.708,118.88 85.648,118.858 85.587,118.835 85.528,118.811 85.468,118.786     85.409,118.761 85.349,118.734 85.291,118.706 85.233,118.678 85.175,118.648 85.117,118.618 85.06,118.587 85.004,118.555     84.948,118.522 84.892,118.488 84.837,118.453 84.782,118.418 84.729,118.381 84.675,118.344 84.622,118.306 84.57,118.268     84.519,118.228 84.468,118.188 84.418,118.147 84.368,118.106 84.319,118.063 84.271,118.02 84.224,117.977 84.177,117.932     84.131,117.887 84.086,117.842 84.042,117.796 83.998,117.749 83.955,117.702 83.913,117.654 83.872,117.605 83.832,117.557     83.792,117.507 83.753,117.458 83.716,117.407 83.679,117.357 83.642,117.306 83.607,117.255 83.573,117.203 83.539,117.151     83.506,117.099 83.475,117.046 83.443,116.993 83.413,116.939 83.383,116.885 83.354,116.83 83.326,116.775 83.298,116.719     83.271,116.662 83.245,116.605 83.22,116.547 83.196,116.489 83.172,116.43 83.149,116.371 83.127,116.311 83.106,116.251     83.085,116.19 83.066,116.129 83.047,116.068 83.03,116.006 83.013,115.944 82.997,115.882 82.982,115.819 82.968,115.756     82.955,115.692 82.943,115.629 82.932,115.565 82.922,115.501 82.913,115.436 82.904,115.372 82.897,115.307 82.891,115.243     82.886,115.178 82.881,115.113 82.878,115.048 82.876,114.983 82.875,114.918 82.874,114.853 82.875,114.788 82.877,114.723     82.879,114.658 82.883,114.594 82.888,114.529 82.893,114.464 82.9,114.4 82.907,114.336 82.916,114.272 82.925,114.208     82.936,114.145 82.947,114.082 82.959,114.019 82.972,113.957 82.986,113.894 83.001,113.832 83.017,113.771 83.034,113.71     83.051,113.649 83.07,113.589 83.089,113.529 83.109,113.47 83.13,113.411 83.152,113.353 83.174,113.295 83.198,113.237     83.222,113.18 83.246,113.124 84.106,111.251 84.537,110.345 84.968,109.459 85.398,108.593 85.829,107.746 86.261,106.918     86.692,106.109 87.123,105.319 87.554,104.547 87.985,103.793 88.416,103.057 88.847,102.339 89.278,101.637 89.708,100.953     90.138,100.285 90.568,99.634 90.997,98.999 91.426,98.38 91.855,97.777 92.283,97.189 92.711,96.616 93.138,96.058     93.565,95.515 93.99,94.986 94.416,94.471 94.84,93.969 95.264,93.481 95.687,93.007 96.109,92.545 96.53,92.096 96.95,91.66     97.37,91.235 97.788,90.823 98.205,90.422 98.622,90.033 99.037,89.654 99.451,89.287 99.863,88.93 100.275,88.583     100.685,88.246 101.094,87.919 101.502,87.602 101.908,87.293 102.312,86.994 102.716,86.703 103.117,86.421 103.517,86.147     103.916,85.881 104.313,85.622 104.708,85.37 105.101,85.126 105.493,84.888 105.883,84.657 106.271,84.433 106.657,84.214     107.041,84.001 107.423,83.793 108.181,83.393 108.931,83.011 109.672,82.646 110.468,82.265 111.254,81.901 112.031,81.552     112.8,81.219 113.562,80.9 114.317,80.595 115.066,80.304 115.811,80.026 116.551,79.76 117.289,79.507 118.024,79.264     118.757,79.033 119.49,78.811 120.223,78.599 120.957,78.397 121.692,78.203 122.431,78.017 123.173,77.839 123.919,77.667     124.67,77.502 126.192,77.189 127.744,76.895 129.334,76.615 130.968,76.346 134.394,75.821 215.78,65.055   "
     id="polyline70"
     style="fill:#bebebe;stroke:#000000;stroke-opacity:1"
     inkscape:label="Left shoulder"
     transform="matrix(0.46999688,0,0,0.46999688,108.57464,99.770898)" /><path
     style="fill:#6464a0;fill-opacity:1;stroke:#000000;stroke-width:1.29249;stroke-linecap:round;stroke-linejoin:round;stroke-miterlimit:10"
     d="m 294.9707,300.11976 32.42884,-0.1222 8.1615,-0.16779 3.68195,-0.12267 3.44508,-0.15322 3.23029,-0.18753 3.03665,-0.22465 1.45229,-0.12737 1.41234,-0.13818 1.37521,-0.14899 1.33996,-0.16027 1.308,-0.17249 1.27887,-0.18471 1.25207,-0.1974 1.2281,-0.21056 1.20648,-0.22418 1.18627,-0.23688 1.16654,-0.2491 1.14726,-0.26085 1.12893,-0.27166 1.11107,-0.28153 1.09463,-0.29139 1.0777,-0.30033 1.06266,-0.30832 1.04762,-0.31631 1.03353,-0.32289 1.02036,-0.32899 2.00266,-0.67398 1.958,-0.69042 3.80228,-1.40999 7.31221,-2.7838 1.79962,-0.65705 1.80009,-0.63074 1.167,-0.39151 1.19144,-0.38586 1.23797,-0.38775 1.30753,-0.39621 2.91117,-0.84881 26.26859,-7.28119 0.65988,-0.19082 0.65,-0.19834 0.64014,-0.20586 0.63026,-0.21338 0.62087,-0.2209 0.61053,-0.22842 0.60112,-0.23593 0.59126,-0.24346 0.58185,-0.25051 0.57152,-0.2585 0.28247,-0.1316 0.27965,-0.13395 0.27729,-0.13583 0.27495,-0.13771 0.27213,-0.13911 0.27025,-0.14147 0.26743,-0.14335 0.26508,-0.14476 0.26272,-0.14711 0.25991,-0.14852 0.25803,-0.15087 0.25521,-0.15275 0.25286,-0.15416 0.2505,-0.15651 0.24769,-0.15791 0.24581,-0.16027 0.24299,-0.16168 0.24064,-0.16403 0.23782,-0.16544 0.23594,-0.16779 0.23311,-0.1692 0.23077,-0.17108 0.22842,-0.17343 0.22607,-0.17483 0.22372,-0.17672 0.2209,-0.17907 0.21854,-0.18048 0.2162,-0.18236 0.21385,-0.18471 0.21103,-0.18612 0.20915,-0.188 0.20633,-0.18987 0.20398,-0.19176 0.20115,-0.19411 0.19928,-0.19552 0.19646,-0.1974 0.19411,-0.19928 0.19176,-0.20116 0.18941,-0.20304 0.18659,-0.20491 0.18471,-0.2068 0.18188,-0.20868 0.17954,-0.21056 0.17672,-0.21244 0.17484,-0.21432 0.17202,-0.2162 0.16967,-0.21807 0.16732,-0.21996 0.1645,-0.22184 0.16262,-0.22372 0.15979,-0.2256 0.15745,-0.22748 0.1551,-0.22935 0.15275,-0.23077 0.14993,-0.23312 0.14758,-0.235 0.14523,-0.23688 0.14288,-0.23876 0.14053,-0.24017 0.13771,-0.24251 0.13535,-0.2444 0.13301,-0.24581 0.13066,-0.24816 0.12831,-0.25004 0.12549,-0.25145 0.12314,-0.25379 0.12079,-0.25568 0.11844,-0.25709 0.11609,-0.25944 0.11327,-0.26085 0.11092,-0.2632 0.10857,-0.2646 0.10622,-0.26696 0.10339,-0.26837 0.10152,-0.27072 0.0987,-0.27213 0.0963,-0.27447 0.094,-0.27589 0.0912,-0.27777 0.0888,-0.28012 0.087,-0.28153 0.0837,-0.28341 0.0818,-0.28575 0.0794,-0.28717 0.0766,-0.28905 0.0743,-0.2914 0.0719,-0.29281 0.0696,-0.29468 0.0667,-0.29657 0.0649,-0.29892 0.062,-0.30033 0.0597,-0.30221 0.0569,-0.30408 0.055,-0.30597 0.10199,-0.61758 0.0921,-0.62509 0.0827,-0.63309 0.0728,-0.64014 0.063,-0.64718 0.0531,-0.65518 0.0437,-0.66269 -0.0164,-4.75966 -0.0907,-4.97257 -0.16356,-5.16996 -0.23547,-5.35233 -0.30549,-5.51964 -0.37506,-5.67098 -0.44321,-5.80775 -0.50947,-5.92902 -0.57575,-6.03476 -0.64014,-6.12593 -1.46921,-12.46244 -1.71267,-12.64151 -0.94422,-6.3506 -1.0025,-6.34918 -0.0484,-0.27871 -0.0512,-0.27448 -0.054,-0.27119 -0.0559,-0.26696 -0.0592,-0.26319 -0.0611,-0.25944 -0.0639,-0.25568 -0.0667,-0.25192 -0.0691,-0.24816 -0.0714,-0.24393 -0.0743,-0.24063 -0.0766,-0.23641 -0.079,-0.23265 -0.0818,-0.22889 -0.0846,-0.22513 -0.087,-0.22137 -0.0893,-0.21761 -0.0917,-0.21337 -0.0945,-0.21009 -0.0973,-0.20586 -0.0494,-0.10152 -0.0498,-0.10058 -0.0508,-0.10011 -0.0517,-0.0987 -0.0517,-0.0978 -0.0526,-0.0968 -0.0536,-0.0959 -0.0536,-0.0945 -0.0545,-0.094 -0.0555,-0.0931 -0.0559,-0.0921 -0.0564,-0.0912 -0.0569,-0.0902 -0.0578,-0.0888 -0.0583,-0.0884 -0.0592,-0.0874 -0.0592,-0.086 -0.0606,-0.0855 -0.0606,-0.0841 -0.0616,-0.0837 -0.062,-0.0827 -0.063,-0.0813 -0.0635,-0.0804 -0.0639,-0.0799 -0.0649,-0.0785 -0.0653,-0.078 -0.0658,-0.0766 -0.0667,-0.0757 -0.0672,-0.0752 -0.0682,-0.0738 -0.0686,-0.0729 -0.0691,-0.0719 -0.0696,-0.071 -0.0705,-0.07 -0.071,-0.0696 -0.0719,-0.0682 -0.0724,-0.0672 -0.0728,-0.0663 -0.0738,-0.0653 -0.0743,-0.0644 -0.0747,-0.063 -0.0757,-0.0625 -0.0761,-0.0616 -0.0766,-0.0606 -0.0776,-0.0597 -0.078,-0.0583 -0.0785,-0.0578 -0.0794,-0.0569 -0.0799,-0.0559 -0.0808,-0.0545 -0.0813,-0.054 -0.0818,-0.0526 -0.0822,-0.0522 -0.0832,-0.0508 -0.0837,-0.0503 -0.0846,-0.0489 -0.0851,-0.0484 -0.0855,-0.047 -0.0865,-0.0461 -0.087,-0.0456 -0.0874,-0.0442 -0.0883,-0.0432 -0.0888,-0.0423 -0.0898,-0.0418 -0.0898,-0.0404 -0.0907,-0.0395 -0.0917,-0.0385 -0.0921,-0.0376 -0.0926,-0.0367 -0.0935,-0.0357 -0.0935,-0.0348 -0.0949,-0.0338 -0.0949,-0.0329 -0.0959,-0.032 -0.0968,-0.031 -0.0968,-0.0301 -0.0978,-0.0287 -0.0987,-0.0282 -0.0987,-0.0273 -0.0996,-0.0263 -0.10058,-0.0249 -0.10058,-0.0244 -0.10199,-0.0235 -0.10199,-0.0221 -0.10293,-0.0216 -0.1034,-0.0202 -0.10434,-0.0197 -0.10481,-0.0183 -5.94029,-1.07018 -2.77439,-0.53627 -2.64937,-0.53626 -2.52718,-0.53627 -2.4092,-0.53532 -2.29452,-0.53439 -2.18314,-0.53298 -2.07645,-0.53109 -1.9721,-0.52875 -1.872,-0.5264 -1.77565,-0.52263 -1.68212,-0.51982 -1.59329,-0.51559 -1.50775,-0.51088 -1.42503,-0.50666 -1.34701,-0.50149 -1.27228,-0.49584 -1.20084,-0.48974 -1.13316,-0.48316 -1.06878,-0.47657 -1.00908,-0.46953 -0.95174,-0.46201 -0.89864,-0.45354 -0.84928,-0.44556 -0.80323,-0.43663 -0.76092,-0.42723 -0.72239,-0.41735 -0.68713,-0.40749 -4.43113,-2.74149 -1.15244,-0.7003 -0.55412,-0.32805 -0.54238,-0.31349 -0.53345,-0.29892 -0.52592,-0.28482 -0.26085,-0.13677 -0.26038,-0.13348 -0.25944,-0.12972 -0.25943,-0.12643 -0.25897,-0.12313 -0.25944,-0.11938 -0.25991,-0.11609 -0.26038,-0.11233 -0.26179,-0.10951 -0.26319,-0.10575 -0.26461,-0.10246 -0.26696,-0.0992 -0.26884,-0.0954 -0.27119,-0.0926 -0.27448,-0.0893 -0.27729,-0.0855 -0.28059,-0.0827 -0.28435,-0.0794 -0.28811,-0.0761 -0.29234,-0.0729 -0.29656,-0.0695 -0.30174,-0.0667 -0.30691,-0.0634 -0.31208,-0.0602 -0.31772,-0.0573 -0.32382,-0.0541 -0.32947,-0.0508 -0.33652,-0.0479 -0.3431,-0.0451 -0.35014,-0.0418 -0.35767,-0.0385 -0.36472,-0.0357 -0.37318,-0.0329 -0.38116,-0.0301 -0.3901,-0.0268 -0.39809,-0.0244 -0.82484,-0.0395 -0.86245,-0.0277 -0.9038,-0.0169 -0.94658,-0.006 h -66.93037 -66.93037 c 0,0 -0.63139,0.002 -0.94705,0.006 -0.30114,0.004 -0.90333,0.0169 -0.90333,0.0169 l -0.86292,0.0277 -0.82437,0.0395 -0.39856,0.0244 -0.38963,0.0268 -0.38117,0.0301 -0.37317,0.0329 -0.36519,0.0357 -0.35767,0.0385 -0.35015,0.0418 -0.34309,0.0451 -0.33605,0.0479 -0.32994,0.0508 -0.32383,0.0541 -0.31771,0.0573 -0.31208,0.0602 -0.30644,0.0634 -0.30174,0.0667 -0.29704,0.0695 -0.29233,0.0729 -0.28811,0.0761 -0.28435,0.0794 -0.28059,0.0827 -0.2773,0.0855 -0.27401,0.0893 -0.27165,0.0926 -0.26884,0.0954 -0.26649,0.0992 -0.26508,0.10246 -0.26273,0.10575 -0.26178,0.10951 -0.26085,0.11233 -0.25991,0.11609 -0.25944,0.11938 -0.25897,0.12313 -0.25944,0.12643 -0.25943,0.12972 -0.25991,0.13348 -0.26132,0.13677 -0.52593,0.28482 -0.53297,0.29892 -0.54285,0.31349 -0.55413,0.32805 -1.15196,0.7003 -4.4316,2.74149 -0.68713,0.40749 -0.72192,0.41735 -0.76092,0.42723 -0.8037,0.43663 -0.84881,0.44556 -0.89911,0.45354 -0.95174,0.46201 -1.00862,0.46953 -1.06924,0.47657 -1.13316,0.48316 -1.20084,0.48974 -1.27181,0.49584 -1.34701,0.50149 -1.42551,0.50666 -1.50728,0.51088 -1.59328,0.51559 -1.68259,0.51982 -1.77565,0.52263 -1.872,0.5264 -1.97211,0.52875 -2.07597,0.53109 -2.18361,0.53298 -2.29452,0.53439 -2.40874,0.53532 -2.52764,0.53627 -2.6489,0.53626 -2.77486,0.53627 -5.94029,1.07018 -0.10481,0.0183 -0.10434,0.0197 -0.1034,0.0202 -0.10293,0.0216 -0.10199,0.0221 -0.10152,0.0235 -0.10105,0.0244 -0.10011,0.0249 -0.0996,0.0263 -0.0992,0.0273 -0.0982,0.0282 -0.0978,0.0287 -0.0973,0.0301 -0.0964,0.031 -0.0959,0.032 -0.0954,0.0329 -0.0945,0.0338 -0.094,0.0348 -0.0935,0.0357 -0.0926,0.0367 -0.0921,0.0376 -0.0912,0.0385 -0.0907,0.0395 -0.0902,0.0404 -0.0898,0.0418 -0.0888,0.0423 -0.0879,0.0432 -0.0879,0.0442 -0.087,0.0456 -0.086,0.0461 -0.086,0.047 -0.0851,0.0484 -0.0841,0.0489 -0.0837,0.0503 -0.0832,0.0508 -0.0827,0.0522 -0.0818,0.0526 -0.0813,0.054 -0.0804,0.0545 -0.0804,0.0559 -0.079,0.0569 -0.079,0.0578 -0.078,0.0583 -0.0775,0.0597 -0.0766,0.0606 -0.0761,0.0616 -0.0757,0.0625 -0.0747,0.063 -0.0743,0.0644 -0.0738,0.0653 -0.0728,0.0663 -0.0724,0.0672 -0.0714,0.0682 -0.0714,0.0696 -0.07,0.07 -0.07,0.071 -0.0691,0.0719 -0.0686,0.0729 -0.0677,0.0738 -0.0672,0.0752 -0.0667,0.0757 -0.0663,0.0766 -0.0653,0.078 -0.0644,0.0785 -0.0644,0.0799 -0.0634,0.0804 -0.0625,0.0813 -0.0625,0.0827 -0.0611,0.0837 -0.0611,0.0841 -0.0602,0.0855 -0.0597,0.086 -0.0592,0.0874 -0.0583,0.0884 -0.0578,0.0888 -0.0569,0.0902 -0.0564,0.0912 -0.0559,0.0921 -0.055,0.0931 -0.0545,0.094 -0.054,0.0945 -0.0531,0.0959 -0.0526,0.0968 -0.0522,0.0978 -0.0512,0.0987 -0.0508,0.10011 -0.0503,0.10058 -0.0494,0.10152 -0.0968,0.20586 -0.0945,0.21009 -0.0921,0.21337 -0.0893,0.21761 -0.087,0.22137 -0.0841,0.22513 -0.0818,0.22889 -0.0794,0.23265 -0.0766,0.23641 -0.0743,0.24063 -0.0714,0.24393 -0.0691,0.24816 -0.0663,0.25192 -0.0639,0.25568 -0.0616,0.25944 -0.0588,0.26319 -0.0564,0.26696 -0.0541,0.27119 -0.0512,0.27448 -0.0484,0.27871 -1.00203,6.34918 -0.9447,6.3506 -1.71267,12.64151 -1.46874,12.46244 -0.64013,6.12593 -0.57575,6.03476 -0.50994,5.92902 -0.44321,5.80775 -0.37506,5.67098 -0.3055,5.51964 -0.235,5.35233 -0.16355,5.16996 -0.0907,4.97257 -0.0169,4.75966 0.0437,0.66269 0.0531,0.65518 0.063,0.64718 0.0728,0.64014 0.0827,0.63309 0.0921,0.62509 0.10246,0.61758 0.0545,0.30597 0.0573,0.30408 0.0597,0.30221 0.062,0.30033 0.0644,0.29892 0.0672,0.29657 0.0691,0.29468 0.0719,0.29281 0.0743,0.2914 0.0771,0.28905 0.079,0.28717 0.0818,0.28575 0.0841,0.28341 0.0865,0.28153 0.0888,0.28012 0.0916,0.27777 0.0935,0.27589 0.0963,0.27447 0.0992,0.27213 0.10105,0.27072 0.1034,0.26837 0.10622,0.26696 0.10857,0.2646 0.11092,0.2632 0.11374,0.26085 0.11562,0.25944 0.11844,0.25709 0.12079,0.25568 0.12314,0.25379 0.12596,0.25145 0.12783,0.25004 0.13066,0.24816 0.13301,0.24581 0.13536,0.2444 0.13818,0.24251 0.14006,0.24017 0.14288,0.23876 0.14523,0.23688 0.14758,0.235 0.1504,0.23312 0.15227,0.23077 0.1551,0.22935 0.15745,0.22748 0.1598,0.2256 0.16262,0.22372 0.1645,0.22184 0.16732,0.21996 0.16967,0.21807 0.17249,0.2162 0.17437,0.21432 0.17718,0.21244 0.17954,0.21056 0.18189,0.20868 0.18424,0.2068 0.18659,0.20491 0.18941,0.20304 0.19176,0.20116 0.19411,0.19928 0.19645,0.1974 0.19928,0.19552 0.20163,0.19411 0.20398,0.19176 0.20633,0.18987 0.20868,0.188 0.2115,0.18612 0.21337,0.18471 0.2162,0.18236 0.21855,0.18048 0.22137,0.17907 0.22325,0.17672 0.22607,0.17483 0.22842,0.17343 0.23076,0.17108 0.23312,0.1692 0.23594,0.16779 0.23829,0.16544 0.24064,0.16403 0.24299,0.16168 0.24533,0.16027 0.24816,0.15791 0.25051,0.15651 0.25286,0.15416 0.25521,0.15275 0.25756,0.15087 0.26037,0.14852 0.26226,0.14711 0.26508,0.14476 0.2679,0.14335 0.26978,0.14147 0.2726,0.13911 0.27494,0.13771 0.2773,0.13583 0.27965,0.13395 0.282,0.1316 0.57198,0.2585 0.58139,0.25051 0.59126,0.24346 0.60112,0.23593 0.611,0.22842 0.62039,0.2209 0.63074,0.21338 0.64014,0.20586 0.65,0.19834 0.65988,0.19082 26.26812,7.28119 2.91116,0.84881 1.30753,0.39621 1.23845,0.38775 1.19144,0.38586 1.16653,0.39151 1.80009,0.63074 1.79962,0.65705 7.31221,2.7838 3.80227,1.40999 1.95801,0.69042 2.00266,0.67398 1.02036,0.32899 1.03352,0.32289 1.04763,0.31631 1.06266,0.30832 1.07817,0.30033 1.09415,0.29139 1.11155,0.28153 1.12893,0.27166 1.14726,0.26085 1.16606,0.2491 1.18628,0.23688 1.20648,0.22418 1.22857,0.21056 1.25207,0.1974 1.27839,0.18471 1.308,0.17249 1.34044,0.16027 1.37474,0.14899 1.41234,0.13818 1.45276,0.12737 3.03665,0.22465 3.22982,0.18753 3.44507,0.15322 3.68243,0.12267 8.16149,0.16779 32.42885,0.1222"
     id="path98"
     sodipodi:nodetypes="ccccccccccccccccccccccccccccccccccccccccccccccccccccccccccccccccccccccccccccccccccccccccccccccccccccccccccccccccccccccccccccccccccccccccccccccccccccccccccccccccccccccccccccccccccccccccccccccccccccccccccccccccccccccccccccccccccccccccccccccccccccccccccccccccccccccccccccccccccccccccccccccccccccccccccccccccccccccccccccccccccccccccccccccccccccccccccccscccccccccccccccccccccccccccccccccccccccccccccccccccccccccccccccccccccccccccccccccccccccccccccccccccccccccccccccccccccccccccccccccccccccccccccccccccccccccccccccccccccccccccccccccccccccccccccccccccccccccccccccccccccccccccccccccccccccccccccccccccccccccccccccccccccccccccccccccccccccccccccccccccccccccccccccccccccccccccccccccccccccccccccccccccccccc" /><path
     fill="none"
     stroke="#00B9D2"
     stroke-width="1.29249"
     stroke-linecap="round"
     stroke-linejoin="round"
     stroke-miterlimit="10"
     d="m 207.96582,259.56373 c 0.005,-2.24377 -1.57261,-4.20976 -3.76421,-4.69198 -3.00469,-0.66129 -5.84253,1.61538 -5.84864,4.69198 0.006,3.05263 2.804,5.32506 5.79271,4.7042 2.21839,-0.4606 3.82484,-2.43882 3.82014,-4.7042 z"
     id="path71"
     style="fill:#bebebe;stroke:#000000;stroke-opacity:1"
     inkscape:label="Select" /><path
     fill="none"
     stroke="#00B9D2"
     stroke-width="1.29249"
     stroke-linecap="round"
     stroke-linejoin="round"
     stroke-miterlimit="10"
     d="m 207.96582,241.87305 c 0.005,-2.24377 -1.57261,-4.20977 -3.76421,-4.69198 -3.00469,-0.66129 -5.84253,1.61538 -5.84864,4.69198 0.006,3.05263 2.804,5.32506 5.79271,4.70419 2.21839,-0.46059 3.82484,-2.43881 3.82014,-4.70419 z"
     id="path70"
     style="fill:#bebebe;stroke:#000000;stroke-opacity:1"
     inkscape:label="Start" /><polygon
     fill="none"
     stroke="#00B9D2"
     stroke-width="2.75"
     stroke-linecap="round"
     stroke-linejoin="round"
     stroke-miterlimit="10"
     points="142.39,177.74 142.403,177.661 142.417,177.582 142.432,177.503 142.449,177.424 142.466,177.344 142.484,177.265 142.503,177.185 142.523,177.106 142.544,177.026 142.567,176.947 142.59,176.867 142.614,176.788 142.64,176.708 142.666,176.629 142.694,176.55 142.722,176.471 142.752,176.392 142.782,176.313 142.814,176.234 142.847,176.156 142.88,176.078 142.915,176 142.951,175.922 142.988,175.845 143.026,175.768 143.065,175.691 143.105,175.615 143.146,175.539 143.189,175.463 143.232,175.388 143.276,175.313 143.321,175.239 143.368,175.165 143.415,175.092 143.463,175.019 143.513,174.947 143.563,174.875 143.614,174.804 143.666,174.733 143.719,174.663 143.773,174.594 143.828,174.525 143.884,174.457 143.941,174.39 143.999,174.323 144.058,174.257 144.117,174.192 144.177,174.128 144.239,174.064 144.301,174.001 144.363,173.939 144.427,173.878 144.491,173.818 144.557,173.758 144.622,173.7 144.689,173.642 144.756,173.585 144.824,173.529 144.893,173.474 144.962,173.42 145.032,173.367 145.103,173.315 145.174,173.263 145.246,173.213 145.318,173.164 145.391,173.116 145.464,173.068 145.538,173.022 145.612,172.977 145.687,172.933 145.762,172.889 145.838,172.847 145.914,172.806 145.99,172.766 146.067,172.727 146.144,172.689 146.222,172.652 146.299,172.616 146.377,172.581 146.455,172.547 146.534,172.515 146.612,172.483 146.691,172.452 146.77,172.423 146.849,172.394 146.928,172.367 147.008,172.34 147.087,172.315 147.167,172.291 147.246,172.267 147.326,172.245 147.405,172.224 147.485,172.204 147.564,172.185 147.644,172.166 147.723,172.149 147.802,172.133 147.882,172.118 147.961,172.104 148.04,172.091 148.118,172.078 148.197,172.067 148.276,172.057 148.354,172.048 148.432,172.039 148.51,172.032 148.587,172.025 148.665,172.02 148.742,172.015 148.818,172.011 148.895,172.008 148.971,172.006 149.047,172.005 149.122,172.004 161.381,172.004 161.457,172.005 161.533,172.006 161.609,172.008 161.685,172.011 161.762,172.015 161.839,172.02 161.916,172.025 161.994,172.032 162.072,172.039 162.15,172.048 162.228,172.057 162.307,172.067 162.385,172.078 162.464,172.091 162.543,172.104 162.622,172.118 162.701,172.133 162.781,172.149 162.86,172.166 162.939,172.185 163.019,172.204 163.098,172.224 163.178,172.245 163.258,172.267 163.337,172.291 163.416,172.315 163.496,172.34 163.575,172.367 163.654,172.394 163.734,172.423 163.812,172.452 163.891,172.483 163.97,172.515 164.048,172.547 164.126,172.581 164.204,172.616 164.282,172.652 164.359,172.689 164.436,172.727 164.513,172.766 164.589,172.806 164.665,172.847 164.741,172.889 164.816,172.933 164.891,172.977 164.965,173.022 165.039,173.068 165.113,173.116 165.185,173.164 165.258,173.213 165.329,173.263 165.401,173.315 165.471,173.367 165.541,173.42 165.61,173.474 165.679,173.529 165.747,173.585 165.814,173.642 165.881,173.7 165.947,173.758 166.012,173.818 166.076,173.878 166.14,173.939 166.203,174.001 166.265,174.064 166.326,174.128 166.386,174.192 166.446,174.257 166.505,174.323 166.562,174.39 166.619,174.457 166.675,174.525 166.73,174.594 166.784,174.663 166.837,174.733 166.89,174.804 166.941,174.875 166.991,174.947 167.04,175.019 167.089,175.092 167.136,175.165 167.182,175.239 167.227,175.313 167.272,175.388 167.315,175.463 167.357,175.539 167.398,175.615 167.438,175.691 167.477,175.768 167.515,175.845 167.552,175.922 167.588,176 167.623,176.078 167.657,176.156 167.69,176.234 167.721,176.313 167.752,176.392 167.782,176.471 167.81,176.55 167.838,176.629 167.864,176.708 167.889,176.788 167.914,176.867 167.937,176.947 167.959,177.026 167.98,177.106 168.001,177.185 168.02,177.265 168.038,177.344 168.055,177.424 168.071,177.503 168.086,177.582 168.1,177.661 168.114,177.74 168.126,177.819 168.137,177.898 168.147,177.976 168.157,178.054 168.165,178.132 168.173,178.21 168.179,178.288 168.185,178.365 168.189,178.442 168.193,178.519 168.196,178.595 168.198,178.672 168.2,178.747 168.2,178.823 168.2,198.71 188.087,198.71 188.163,198.71 188.239,198.712 188.315,198.714 188.391,198.717 188.468,198.721 188.545,198.725 188.622,198.731 188.7,198.738 188.778,198.745 188.856,198.753 188.934,198.763 189.012,198.773 189.091,198.784 189.17,198.797 189.249,198.81 189.328,198.824 189.407,198.839 189.486,198.855 189.566,198.872 189.645,198.89 189.725,198.91 189.804,198.93 189.884,198.951 189.963,198.973 190.043,198.997 190.122,199.021 190.202,199.046 190.281,199.073 190.36,199.1 190.439,199.129 190.518,199.158 190.597,199.189 190.676,199.22 190.754,199.253 190.832,199.287 190.91,199.322 190.988,199.358 191.065,199.395 191.142,199.433 191.219,199.472 191.295,199.512 191.371,199.553 191.447,199.595 191.522,199.638 191.597,199.683 191.671,199.728 191.745,199.774 191.819,199.822 191.891,199.87 191.964,199.919 192.035,199.969 192.107,200.021 192.177,200.073 192.247,200.126 192.316,200.18 192.385,200.235 192.453,200.291 192.52,200.348 192.587,200.406 192.653,200.464 192.718,200.524 192.782,200.584 192.846,200.645 192.909,200.707 192.971,200.77 193.032,200.834 193.092,200.898 193.152,200.963 193.21,201.029 193.268,201.096 193.325,201.163 193.381,201.231 193.436,201.3 193.49,201.369 193.543,201.439 193.595,201.51 193.647,201.581 193.697,201.652 193.746,201.725 193.795,201.798 193.842,201.871 193.888,201.945 193.933,202.019 193.978,202.094 194.021,202.169 194.063,202.245 194.104,202.321 194.144,202.397 194.183,202.474 194.221,202.551 194.258,202.628 194.294,202.706 194.329,202.784 194.363,202.862 194.396,202.94 194.427,203.019 194.458,203.098 194.487,203.177 194.516,203.256 194.543,203.335 194.57,203.414 194.595,203.494 194.62,203.573 194.643,203.653 194.665,203.732 194.686,203.812 194.706,203.891 194.726,203.971 194.744,204.05 194.761,204.13 194.777,204.209 194.792,204.288 194.806,204.367 194.82,204.446 194.832,204.525 194.843,204.604 194.853,204.682 194.863,204.76 194.871,204.838 194.878,204.916 194.885,204.994 194.891,205.071 194.895,205.148 194.899,205.225 194.902,205.301 194.904,205.378 194.906,205.453 194.906,205.529 194.906,217.788 194.906,217.863 194.904,217.939 194.902,218.015 194.899,218.092 194.895,218.169 194.891,218.246 194.885,218.323 194.878,218.401 194.871,218.478 194.863,218.556 194.853,218.635 194.843,218.713 194.832,218.792 194.82,218.871 194.806,218.95 194.792,219.029 194.777,219.108 194.761,219.187 194.744,219.266 194.726,219.346 194.706,219.425 194.686,219.505 194.665,219.585 194.643,219.664 194.62,219.744 194.595,219.823 194.57,219.902 194.543,219.982 194.516,220.061 194.487,220.14 194.458,220.219 194.427,220.298 194.396,220.376 194.363,220.455 194.329,220.533 194.294,220.611 194.258,220.689 194.221,220.766 194.183,220.843 194.144,220.92 194.104,220.996 194.063,221.072 194.021,221.148 193.978,221.223 193.933,221.298 193.888,221.372 193.842,221.446 193.795,221.519 193.746,221.592 193.697,221.664 193.647,221.736 193.595,221.807 193.543,221.878 193.49,221.948 193.436,222.017 193.381,222.086 193.325,222.154 193.268,222.221 193.21,222.288 193.152,222.354 193.092,222.419 193.032,222.483 192.971,222.547 192.909,222.609 192.846,222.671 192.782,222.733 192.718,222.793 192.653,222.853 192.587,222.911 192.52,222.969 192.453,223.026 192.385,223.082 192.316,223.137 192.247,223.191 192.177,223.244 192.107,223.296 192.035,223.347 191.964,223.398 191.891,223.447 191.819,223.495 191.745,223.542 191.671,223.589 191.597,223.634 191.522,223.678 191.447,223.721 191.371,223.764 191.295,223.805 191.219,223.845 191.142,223.884 191.065,223.922 190.988,223.959 190.91,223.995 190.832,224.03 190.754,224.063 190.676,224.096 190.597,224.128 190.518,224.159 190.439,224.188 190.36,224.217 190.281,224.244 190.202,224.27 190.122,224.296 190.043,224.32 189.963,224.343 189.884,224.366 189.804,224.387 189.725,224.407 189.645,224.426 189.566,224.444 189.486,224.462 189.407,224.478 189.328,224.493 189.249,224.507 189.17,224.52 189.091,224.532 189.012,224.544 188.934,224.554 188.856,224.563 188.778,224.572 188.7,224.579 188.622,224.586 188.545,224.591 188.468,224.596 188.391,224.6 188.315,224.603 188.239,224.605 188.163,224.606 188.087,224.607 168.2,224.607 168.2,244.494 168.2,244.569 168.198,244.645 168.196,244.721 168.193,244.798 168.189,244.874 168.185,244.952 168.179,245.029 168.173,245.106 168.165,245.184 168.157,245.262 168.147,245.341 168.137,245.419 168.126,245.498 168.114,245.576 168.1,245.655 168.086,245.735 168.071,245.814 168.055,245.893 168.038,245.972 168.02,246.052 168.001,246.131 167.98,246.211 167.959,246.29 167.937,246.37 167.914,246.45 167.889,246.529 167.864,246.608 167.838,246.688 167.81,246.767 167.782,246.846 167.752,246.925 167.721,247.004 167.69,247.082 167.657,247.161 167.623,247.239 167.588,247.317 167.552,247.394 167.515,247.472 167.477,247.549 167.438,247.626 167.398,247.702 167.357,247.778 167.315,247.854 167.272,247.929 167.227,248.004 167.182,248.078 167.136,248.152 167.089,248.225 167.04,248.298 166.991,248.37 166.941,248.442 166.89,248.513 166.837,248.584 166.784,248.654 166.73,248.723 166.675,248.792 166.619,248.86 166.562,248.927 166.505,248.994 166.446,249.059 166.386,249.125 166.326,249.189 166.265,249.253 166.203,249.315 166.14,249.377 166.076,249.439 166.012,249.499 165.947,249.558 165.881,249.617 165.814,249.675 165.747,249.732 165.679,249.788 165.61,249.843 165.541,249.897 165.471,249.95 165.401,250.002 165.329,250.053 165.258,250.104 165.185,250.153 165.113,250.201 165.039,250.248 164.965,250.295 164.891,250.34 164.816,250.384 164.741,250.427 164.665,250.47 164.589,250.511 164.513,250.551 164.436,250.59 164.359,250.628 164.282,250.665 164.204,250.701 164.126,250.736 164.048,250.769 163.97,250.802 163.891,250.834 163.812,250.864 163.734,250.894 163.654,250.923 163.575,250.95 163.496,250.976 163.416,251.002 163.337,251.026 163.258,251.049 163.178,251.072 163.098,251.093 163.019,251.113 162.939,251.132 162.86,251.15 162.781,251.167 162.701,251.184 162.622,251.199 162.543,251.213 162.464,251.226 162.385,251.238 162.307,251.25 162.228,251.26 162.15,251.269 162.072,251.278 161.994,251.285 161.916,251.292 161.839,251.297 161.762,251.302 161.685,251.306 161.609,251.309 161.533,251.311 161.457,251.312 161.381,251.313 149.122,251.313 149.047,251.312 148.971,251.311 148.895,251.309 148.818,251.306 148.742,251.302 148.665,251.297 148.587,251.292 148.51,251.285 148.432,251.278 148.354,251.269 148.276,251.26 148.197,251.25 148.118,251.238 148.04,251.226 147.961,251.213 147.882,251.199 147.802,251.184 147.723,251.167 147.644,251.15 147.564,251.132 147.485,251.113 147.405,251.093 147.326,251.072 147.246,251.049 147.167,251.026 147.087,251.002 147.008,250.976 146.928,250.95 146.849,250.923 146.77,250.894 146.691,250.864 146.612,250.834 146.534,250.802 146.455,250.769 146.377,250.736 146.299,250.701 146.222,250.665 146.144,250.628 146.067,250.59 145.99,250.551 145.914,250.511 145.838,250.47 145.762,250.427 145.687,250.384 145.612,250.34 145.538,250.295 145.464,250.248 145.391,250.201 145.318,250.153 145.246,250.104 145.174,250.053 145.103,250.002 145.032,249.95 144.962,249.897 144.893,249.843 144.824,249.788 144.756,249.732 144.689,249.675 144.622,249.617 144.557,249.558 144.491,249.499 144.427,249.439 144.363,249.377 144.301,249.315 144.239,249.253 144.177,249.189 144.117,249.125 144.058,249.059 143.999,248.994 143.941,248.927 143.884,248.86 143.828,248.792 143.773,248.723 143.719,248.654 143.666,248.584 143.614,248.513 143.563,248.442 143.513,248.37 143.463,248.298 143.415,248.225 143.368,248.152 143.321,248.078 143.276,248.004 143.232,247.929 143.189,247.854 143.146,247.778 143.105,247.702 143.065,247.626 143.026,247.549 142.988,247.472 142.951,247.394 142.915,247.317 142.88,247.239 142.847,247.161 142.814,247.082 142.782,247.004 142.752,246.925 142.722,246.846 142.694,246.767 142.666,246.688 142.64,246.608 142.614,246.529 142.59,246.45 142.567,246.37 142.544,246.29 142.523,246.211 142.503,246.131 142.484,246.052 142.466,245.972 142.449,245.893 142.432,245.814 142.417,245.735 142.403,245.655 142.39,245.576 142.378,245.498 142.367,245.419 142.356,245.341 142.347,245.262 142.339,245.184 142.331,245.106 142.325,245.029 142.319,244.952 142.314,244.874 142.31,244.798 142.307,244.721 142.305,244.645 142.304,244.569 142.303,244.494 142.303,224.607 122.416,224.607 122.341,224.606 122.265,224.605 122.189,224.603 122.112,224.6 122.036,224.596 121.959,224.591 121.881,224.586 121.804,224.579 121.726,224.572 121.648,224.563 121.57,224.554 121.491,224.544 121.412,224.532 121.334,224.52 121.255,224.507 121.176,224.493 121.096,224.478 121.017,224.462 120.938,224.444 120.858,224.426 120.779,224.407 120.699,224.387 120.62,224.366 120.54,224.343 120.461,224.32 120.381,224.296 120.302,224.27 120.222,224.244 120.143,224.217 120.064,224.188 119.985,224.159 119.906,224.128 119.828,224.096 119.749,224.063 119.671,224.03 119.593,223.995 119.516,223.959 119.438,223.922 119.361,223.884 119.285,223.845 119.208,223.805 119.132,223.764 119.057,223.721 118.981,223.678 118.907,223.634 118.832,223.589 118.758,223.542 118.685,223.495 118.612,223.447 118.54,223.398 118.468,223.347 118.397,223.296 118.326,223.244 118.257,223.191 118.187,223.137 118.119,223.082 118.051,223.026 117.983,222.969 117.917,222.911 117.851,222.853 117.786,222.793 117.721,222.733 117.658,222.671 117.595,222.609 117.533,222.547 117.472,222.483 117.411,222.419 117.352,222.354 117.293,222.288 117.235,222.221 117.179,222.154 117.123,222.086 117.068,222.017 117.013,221.948 116.96,221.878 116.908,221.807 116.857,221.736 116.807,221.664 116.757,221.592 116.709,221.519 116.662,221.446 116.616,221.372 116.57,221.298 116.526,221.223 116.483,221.148 116.441,221.072 116.399,220.996 116.359,220.92 116.32,220.843 116.282,220.766 116.245,220.689 116.209,220.611 116.175,220.533 116.141,220.455 116.108,220.376 116.076,220.298 116.046,220.219 116.016,220.14 115.988,220.061 115.96,219.982 115.934,219.902 115.908,219.823 115.884,219.744 115.861,219.664 115.839,219.585 115.817,219.505 115.797,219.425 115.778,219.346 115.76,219.266 115.743,219.187 115.727,219.108 115.711,219.029 115.697,218.95 115.684,218.871 115.672,218.792 115.661,218.713 115.65,218.635 115.641,218.556 115.633,218.478 115.625,218.401 115.619,218.323 115.613,218.246 115.608,218.169 115.604,218.092 115.601,218.015 115.599,217.939 115.598,217.863 115.598,217.788 115.598,205.529 115.598,205.453 115.599,205.378 115.601,205.301 115.604,205.225 115.608,205.148 115.613,205.071 115.619,204.994 115.625,204.916 115.633,204.838 115.641,204.76 115.65,204.682 115.661,204.604 115.672,204.525 115.684,204.446 115.697,204.367 115.711,204.288 115.727,204.209 115.743,204.13 115.76,204.05 115.778,203.971 115.797,203.891 115.817,203.812 115.839,203.732 115.861,203.653 115.884,203.573 115.908,203.494 115.934,203.414 115.96,203.335 115.988,203.256 116.016,203.177 116.046,203.098 116.076,203.019 116.108,202.94 116.141,202.862 116.175,202.784 116.209,202.706 116.245,202.628 116.282,202.551 116.32,202.474 116.359,202.397 116.399,202.321 116.441,202.245 116.483,202.169 116.526,202.094 116.57,202.019 116.616,201.945 116.662,201.871 116.709,201.798 116.757,201.725 116.807,201.652 116.857,201.581 116.908,201.51 116.96,201.439 117.013,201.369 117.068,201.3 117.123,201.231 117.179,201.163 117.235,201.096 117.293,201.029 117.352,200.963 117.411,200.898 117.472,200.834 117.533,200.77 117.595,200.707 117.658,200.645 117.721,200.584 117.786,200.524 117.851,200.464 117.917,200.406 117.983,200.348 118.051,200.291 118.119,200.235 118.187,200.18 118.257,200.126 118.326,200.073 118.397,200.021 118.468,199.969 118.54,199.919 118.612,199.87 118.685,199.822 118.758,199.774 118.832,199.728 118.907,199.683 118.981,199.638 119.057,199.595 119.132,199.553 119.208,199.512 119.285,199.472 119.361,199.433 119.438,199.395 119.516,199.358 119.593,199.322 119.671,199.287 119.749,199.253 119.828,199.22 119.906,199.189 119.985,199.158 120.064,199.129 120.143,199.1 120.222,199.073 120.302,199.046 120.381,199.021 120.461,198.997 120.54,198.973 120.62,198.951 120.699,198.93 120.779,198.91 120.858,198.89 120.938,198.872 121.017,198.855 121.096,198.839 121.176,198.824 121.255,198.81 121.334,198.797 121.412,198.784 121.491,198.773 121.57,198.763 121.648,198.753 121.726,198.745 121.804,198.738 121.881,198.731 121.959,198.725 122.036,198.721 122.112,198.717 122.189,198.714 122.265,198.712 122.341,198.71 122.416,198.71 142.303,198.71 142.303,178.823 142.304,178.747 142.305,178.672 142.307,178.595 142.31,178.519 142.314,178.442 142.319,178.365 142.325,178.288 142.331,178.21 142.339,178.132 142.347,178.054 142.356,177.976 142.367,177.898 142.378,177.819 "
     id="polygon70"
     style="fill:#bebebe;stroke:#000000;stroke-opacity:1"
     inkscape:label="Dpad"
     transform="matrix(0.46999688,0,0,0.46999688,108.57464,99.770898)" /><path
     id="polyline68"
     style="fill:#323232;fill-opacity:1;stroke:#000000;stroke-width:1.29249;stroke-linecap:round;stroke-linejoin:round;stroke-miterlimit:10"
     d="m 294.9707,143.36734 -15.07233,0.009 -4.11012,0.0498 -4.22481,0.0902 -4.32914,0.141 -4.4222,0.20257 -4.50492,0.27448 -2.27995,0.16778 -2.29641,0.18941 -2.31191,0.21338 -2.32555,0.23782 -2.33823,0.26367 -2.34905,0.2914 -2.35891,0.31959 -2.36737,0.35015 -2.37443,0.38117 -2.38006,0.4136 -2.38477,0.4479 -2.38711,0.48316 -2.38946,0.51982 -2.38947,0.55788 -0.11092,0.0306 -0.11045,0.031 -0.10998,0.0324 -0.10904,0.0329 -0.10857,0.0343 -0.10715,0.0348 -0.10716,0.0357 -0.10622,0.0371 -0.10528,0.0376 -0.10481,0.0385 -0.10387,0.0395 -0.10293,0.0404 -0.10246,0.0414 -0.10199,0.0428 -0.10105,0.0432 -0.10011,0.0442 -0.0996,0.0451 -0.0987,0.0456 -0.0982,0.047 -0.0973,0.0479 -0.0968,0.0489 -0.0959,0.0498 -0.0954,0.0508 -0.0945,0.0512 -0.0935,0.0526 -0.0931,0.0536 -0.0921,0.054 -0.0917,0.0555 -0.0907,0.0564 -0.0902,0.0569 -0.0893,0.0583 -0.0888,0.0588 -0.0879,0.0597 -0.087,0.0611 -0.0865,0.0616 -0.0855,0.0625 -0.0851,0.0639 -0.0841,0.0644 -0.0837,0.0653 -0.0827,0.0663 -0.0823,0.0677 -0.0813,0.0682 -0.0804,0.0691 -0.0799,0.07 -0.0794,0.071 -0.0785,0.0719 -0.0776,0.0728 -0.0771,0.0738 -0.0761,0.0747 -0.0752,0.0752 -0.0747,0.0766 -0.0743,0.0776 -0.0733,0.0785 -0.0724,0.079 -0.0719,0.0804 -0.071,0.0813 -0.0705,0.0818 -0.0696,0.0832 -0.0691,0.0837 -0.0682,0.0851 -0.0677,0.0855 -0.0667,0.087 -0.0658,0.0874 -0.0653,0.0888 -0.0644,0.0893 -0.0639,0.0902 -0.063,0.0912 -0.0625,0.0926 -0.0616,0.0931 -0.0611,0.094 -0.0602,0.0949 -0.0592,0.0959 -0.0588,0.0968 -0.0578,0.0978 -0.0573,0.0987 -0.0564,0.0996 -0.0559,0.10058 -0.055,0.10152 -0.0545,0.10246 -0.0536,0.1034 -0.0526,0.10434 -0.0522,0.10481 -0.0517,0.10622 -0.0503,0.10715 -0.0503,0.10763 -0.0489,0.10904 -0.0964,0.22043 -0.0935,0.22419 -0.0902,0.22795 -0.0874,0.23171 -0.0846,0.235 -0.0818,0.23922 -0.079,0.24252 -0.0757,0.24628 -0.0728,0.25004 -0.07,0.2538 -0.0672,0.25756 -0.0639,0.26084 -0.0611,0.26508 -0.0583,0.26837 -0.0555,0.2726 -0.0526,0.27589 -0.0493,0.27964 -0.047,0.28294 -0.0437,0.28717 -0.0404,0.29093 -0.0381,0.29422 -1.05891,10.06545 -0.95127,10.63932 -0.84317,11.21272 -0.73555,11.78705 -0.62792,12.36044 -0.51981,12.93479 -0.41172,13.50818 -0.30456,14.08252 -0.003,0.43803 0.002,0.43334 0.008,0.42864 0.0132,0.42346 0.0188,0.41924 0.024,0.4136 0.0296,0.40937 0.0352,0.40419 0.0409,0.3995 0.0461,0.39433 0.0517,0.38963 0.0569,0.38492 0.063,0.37976 0.0682,0.37553 0.0733,0.36989 0.079,0.36565 0.0846,0.36049 0.0446,0.1786 0.0456,0.17719 0.047,0.17578 0.0484,0.17484 0.0498,0.17342 0.0512,0.17249 0.0526,0.17108 0.054,0.17014 0.055,0.16873 0.0569,0.16732 0.0583,0.16638 0.0592,0.16497 0.0606,0.16403 0.0625,0.16261 0.0634,0.16168 0.0649,0.16027 0.0663,0.15886 0.0677,0.15792 0.0691,0.15651 0.0705,0.15557 0.0714,0.15416 0.0733,0.15275 0.0747,0.15181 0.0757,0.15039 0.0771,0.14946 0.079,0.14805 0.0799,0.14664 0.0813,0.1457 0.0827,0.14476 0.0841,0.14288 0.0855,0.14194 0.087,0.141 0.0884,0.13959 0.0893,0.13817 0.0912,0.13724 0.0921,0.1363 0.094,0.13442 0.0949,0.13348 0.0964,0.13254 0.0978,0.13113 0.0992,0.12972 0.10058,0.12878 0.10199,0.12737 0.1034,0.12643 0.10481,0.12454 0.10622,0.12408 0.10715,0.12267 0.10904,0.12126 0.10998,0.12032 0.11186,0.11891 0.1128,0.1175 0.11421,0.11656 0.11562,0.11515 0.11703,0.11421 0.11844,0.1128 0.11985,0.11186 0.12126,0.11045 0.1222,0.10903 0.12408,0.1081 0.12548,0.10669 0.12643,0.10575 0.12784,0.10434 0.12972,0.1034 0.13066,0.10152 0.13207,0.10105 0.13348,0.0996 0.13489,0.0982 0.1363,0.0968 0.13771,0.0959 0.13865,0.0949 0.14052,0.0931 0.14194,0.0926 0.14288,0.0907 0.14476,0.0898 0.1457,0.0888 0.14711,0.0874 0.14852,0.086 0.14993,0.0851 0.15134,0.0837 0.15275,0.0827 0.15415,0.0813 0.15557,0.0799 0.15651,0.079 0.15839,0.0775 0.1598,0.0766 0.16074,0.0752 0.16215,0.0738 0.16403,0.0728 0.16497,0.0714 0.16638,0.0705 0.16778,0.0691 0.1692,0.0681 0.17061,0.0667 0.17155,0.0653 1.70656,0.53768 1.75168,0.52922 1.79633,0.51981 1.83956,0.51042 1.88234,0.50008 1.9237,0.48879 1.96412,0.47799 2.00453,0.46577 2.04308,0.45354 2.08067,0.44039 2.11828,0.42676 2.154,0.41266 2.18924,0.39808 2.22356,0.38258 2.25692,0.36707 2.28889,0.35062 2.32084,0.33322 2.3514,0.31631 2.38053,0.29798 2.40967,0.27965 2.43694,0.26038 2.46419,0.24016 2.49004,0.22043 2.51543,0.19975 2.53892,0.17813 2.56242,0.15604 2.58452,0.13348 2.60566,0.11092 2.62634,0.087 2.64561,0.0625 2.66442,0.0381 2.6818,0.0132 m 0,-142.03024 15.07233,0.009 4.10965,0.0498 4.2248,0.0902 4.32914,0.141 4.42221,0.20257 4.50492,0.27448 2.27995,0.16778 2.29687,0.18941 2.31145,0.21338 2.32554,0.23782 2.33824,0.26367 2.34904,0.2914 2.35892,0.31959 2.36737,0.35015 2.37443,0.38117 2.38006,0.4136 2.38476,0.4479 2.38759,0.48316 2.38899,0.51982 2.38947,0.55788 0.11139,0.0306 0.11044,0.031 0.10951,0.0324 0.10904,0.0329 0.10857,0.0343 0.10763,0.0348 0.10669,0.0357 0.10622,0.0371 0.10528,0.0376 0.10481,0.0385 0.10387,0.0395 0.1034,0.0404 0.10246,0.0414 0.10152,0.0428 0.10105,0.0432 0.10058,0.0442 0.0992,0.0451 0.0992,0.0456 0.0982,0.047 0.0973,0.0479 0.0964,0.0489 0.0963,0.0498 0.0949,0.0508 0.0945,0.0512 0.0935,0.0526 0.0931,0.0536 0.0926,0.054 0.0912,0.0555 0.0912,0.0564 0.0898,0.0569 0.0893,0.0583 0.0888,0.0588 0.0879,0.0597 0.087,0.0611 0.0865,0.0616 0.086,0.0625 0.0851,0.0639 0.0841,0.0644 0.0832,0.0653 0.0832,0.0663 0.0818,0.0677 0.0813,0.0682 0.0808,0.0691 0.0799,0.07 0.079,0.071 0.0785,0.0719 0.0775,0.0728 0.0771,0.0738 0.0761,0.0747 0.0757,0.0752 0.0747,0.0766 0.0738,0.0776 0.0733,0.0785 0.0728,0.079 0.0714,0.0804 0.0714,0.0813 0.07,0.0818 0.07,0.0832 0.0686,0.0837 0.0682,0.0851 0.0677,0.0855 0.0667,0.087 0.0658,0.0874 0.0653,0.0888 0.0649,0.0893 0.0634,0.0902 0.0634,0.0912 0.062,0.0926 0.0616,0.0931 0.0611,0.094 0.0602,0.0949 0.0592,0.0959 0.0588,0.0968 0.0583,0.0978 0.0569,0.0987 0.0569,0.0996 0.0555,0.10058 0.055,0.10152 0.0545,0.10246 0.0536,0.1034 0.0531,0.10434 0.0522,0.10481 0.0512,0.10622 0.0508,0.10715 0.0498,0.10763 0.0494,0.10904 0.0963,0.22043 0.0931,0.22419 0.0907,0.22795 0.0874,0.23171 0.0846,0.235 0.0813,0.23922 0.079,0.24252 0.0757,0.24628 0.0728,0.25004 0.07,0.2538 0.0672,0.25756 0.0639,0.26084 0.0616,0.26508 0.0583,0.26837 0.0555,0.2726 0.0522,0.27589 0.0498,0.27964 0.0465,0.28294 0.0437,0.28717 0.0409,0.29093 0.0376,0.29422 1.0589,10.06545 0.95128,10.63932 0.84364,11.21272 0.73508,11.78705 0.62791,12.36044 0.51982,12.93479 0.41219,13.50818 0.30408,14.08252 0.003,0.43803 -0.002,0.43334 -0.008,0.42864 -0.0136,0.42346 -0.0183,0.41924 -0.0244,0.4136 -0.0296,0.40937 -0.0352,0.40419 -0.0404,0.3995 -0.0465,0.39433 -0.0517,0.38963 -0.0569,0.38492 -0.0625,0.37976 -0.0682,0.37553 -0.0738,0.36989 -0.079,0.36565 -0.0846,0.36049 -0.0442,0.1786 -0.0461,0.17719 -0.047,0.17578 -0.0484,0.17484 -0.0498,0.17342 -0.0512,0.17249 -0.0526,0.17108 -0.0536,0.17014 -0.0555,0.16873 -0.0569,0.16732 -0.0578,0.16638 -0.0597,0.16497 -0.0606,0.16403 -0.062,0.16261 -0.0639,0.16168 -0.0648,0.16027 -0.0663,0.15886 -0.0677,0.15792 -0.0691,0.15651 -0.07,0.15557 -0.0719,0.15416 -0.0733,0.15275 -0.0743,0.15181 -0.0761,0.15039 -0.0771,0.14946 -0.0785,0.14805 -0.0804,0.14664 -0.0813,0.1457 -0.0827,0.14476 -0.0841,0.14288 -0.0855,0.14194 -0.0865,0.141 -0.0884,0.13959 -0.0898,0.13817 -0.0907,0.13724 -0.0926,0.1363 -0.0935,0.13442 -0.0954,0.13348 -0.0964,0.13254 -0.0978,0.13113 -0.0992,0.12972 -0.10058,0.12878 -0.10199,0.12737 -0.1034,0.12643 -0.10481,0.12454 -0.10575,0.12408 -0.10763,0.12267 -0.10857,0.12126 -0.11045,0.12032 -0.11138,0.11891 -0.1128,0.1175 -0.11468,0.11656 -0.11562,0.11515 -0.11703,0.11421 -0.11844,0.1128 -0.11985,0.11186 -0.12079,0.11045 -0.12267,0.10903 -0.12408,0.1081 -0.12502,0.10669 -0.1269,0.10575 -0.12784,0.10434 -0.12924,0.1034 -0.13113,0.10152 -0.13207,0.10105 -0.13348,0.0996 -0.13489,0.0982 -0.1363,0.0968 -0.13724,0.0959 -0.13912,0.0949 -0.14053,0.0931 -0.14147,0.0926 -0.14335,0.0907 -0.14428,0.0898 -0.14617,0.0888 -0.14711,0.0874 -0.14852,0.086 -0.14993,0.0851 -0.15134,0.0837 -0.15275,0.0827 -0.15416,0.0813 -0.1551,0.0799 -0.15698,0.079 -0.15838,0.0775 -0.15933,0.0766 -0.16121,0.0752 -0.16215,0.0738 -0.16356,0.0728 -0.16497,0.0714 -0.16685,0.0705 -0.16779,0.0691 -0.16873,0.0681 -0.1706,0.0667 -0.17202,0.0653 -1.70656,0.53768 -1.75168,0.52922 -1.79633,0.51981 -1.83957,0.51042 -1.88186,0.50008 -1.9237,0.48879 -1.96459,0.47799 -2.00406,0.46577 -2.04308,0.45354 -2.08115,0.44039 -2.11827,0.42676 -2.154,0.41266 -2.18924,0.39808 -2.22356,0.38258 -2.25645,0.36707 -2.28936,0.35062 -2.32084,0.33322 -2.35093,0.31631 -2.381,0.29798 -2.40921,0.27965 -2.4374,0.26038 -2.46419,0.24016 -2.49005,0.22043 -2.51495,0.19975 -2.53939,0.17813 -2.56196,0.15604 -2.58451,0.13348 -2.60613,0.11092 -2.62634,0.087 -2.64562,0.0625 -2.66394,0.0381 -2.6818,0.0132"
     inkscape:label="Screen around" /><path
     fill="none"
     stroke="#00B9D2"
     stroke-width="1.29249"
     stroke-linecap="round"
     stroke-linejoin="round"
     stroke-miterlimit="10"
     d="m 407.15096,201.9078 c 0.009,-3.29609 -1.71173,-6.43003 -4.49881,-8.19016 -5.06891,-3.20867 -11.78094,-1.12236 -14.13797,4.39447 -1.02789,2.39322 -1.02789,5.19816 0,7.59139 2.35703,5.51682 9.06859,7.60314 14.13797,4.39447 2.78708,-1.76061 4.50821,-4.89408 4.49881,-8.19017 z"
     id="path75"
     inkscape:label="Button B"
     style="fill:#bebebe;stroke:#000000;stroke-opacity:1" /><rect
     x="226.65007"
     y="158.90309"
     fill="none"
     stroke="#00B9D2"
     stroke-width="1.29249"
     stroke-linecap="round"
     stroke-linejoin="round"
     stroke-miterlimit="10"
     width="136.64125"
     height="91.59581"
     id="rect67"
     style="fill:#787878;fill-opacity:1;stroke:#000000;stroke-opacity:1"
     inkscape:label="Screen" /><path
     fill="none"
     stroke="#00B9D2"
     stroke-width="1.29249"
     stroke-linecap="round"
     stroke-linejoin="round"
     stroke-miterlimit="10"
     d="m 433.43695,192.48013 c 0.009,-3.29608 -1.71173,-6.43002 -4.49881,-8.19016 -5.06892,-3.20867 -11.78094,-1.12235 -14.13798,4.39447 -1.02788,2.39322 -1.02788,5.19816 0,7.59139 2.35704,5.51682 9.06859,7.60314 14.13798,4.39447 2.78708,-1.76014 4.50821,-4.89361 4.49881,-8.19017 z"
     id="path76"
     inkscape:label="Button A"
     style="fill:#bebebe;stroke:#000000;stroke-opacity:1" /><path
     fill="none"
     stroke="#00B9D2"
     stroke-width="1.29249"
     stroke-linecap="round"
     stroke-linejoin="round"
     stroke-miterlimit="10"
     d="m 399.49001,155.84482 c 0.003,-1.87247 -1.43772,-3.44837 -3.30266,-3.61381 -2.12157,-0.19129 -3.95456,1.48378 -3.95456,3.61381 0,2.11357 1.8062,3.78347 3.9132,3.61756 1.8828,-0.1457 3.34637,-1.72912 3.34402,-3.61756 z"
     id="path77"
     inkscape:label="Light"
     style="fill:#ff8080;stroke:#000000;stroke-opacity:1" /></g>

</svg>
