<?xml version="1.0" encoding="UTF-8" standalone="no"?>
<!-- Created with Inkscape (http://www.inkscape.org/) -->

<svg
   width="80"
   height="80"
   viewBox="0 0 21.166666 21.166666"
   version="1.1"
   id="svg1"
   inkscape:version="1.3.1 (91b66b0, 2023-11-16)"
   sodipodi:docname="gbc.svg"
   xmlns:inkscape="http://www.inkscape.org/namespaces/inkscape"
   xmlns:sodipodi="http://sodipodi.sourceforge.net/DTD/sodipodi-0.dtd"
   xmlns="http://www.w3.org/2000/svg"
   xmlns:svg="http://www.w3.org/2000/svg">
  <sodipodi:namedview
     id="namedview1"
     pagecolor="#ffffff"
     bordercolor="#666666"
     borderopacity="1.0"
     inkscape:showpageshadow="2"
     inkscape:pageopacity="0.0"
     inkscape:pagecheckerboard="0"
     inkscape:deskcolor="#d1d1d1"
     inkscape:document-units="mm"
     inkscape:zoom="5.136091"
     inkscape:cx="56.365824"
     inkscape:cy="35.338159"
     inkscape:window-width="1680"
     inkscape:window-height="888"
     inkscape:window-x="0"
     inkscape:window-y="25"
     inkscape:window-maximized="0"
     inkscape:current-layer="layer4" />
  <defs
     id="defs1" />
  <g
     inkscape:groupmode="layer"
     id="layer2"
     inkscape:label="Outline" />
  <g
     inkscape:groupmode="layer"
     id="layer3"
     inkscape:label="Buttons" />
  <g
     inkscape:groupmode="layer"
     id="layer4"
     inkscape:label="Display">
    <g
       id="g1"
       transform="translate(0.09050538,1.1420727)">
      <polygon
         fill="none"
         stroke="#00b9d2"
         stroke-width="3.5"
         stroke-linecap="round"
         stroke-linejoin="round"
         stroke-miterlimit="10"
         points="96.649,636.02 96.52,635.956 96.391,635.891 96.263,635.824 96.135,635.755 96.008,635.684 95.882,635.611 95.757,635.537 95.632,635.461 95.508,635.383 95.385,635.304 95.263,635.223 95.141,635.14 95.021,635.056 94.902,634.97 94.783,634.882 94.666,634.793 94.549,634.702 94.434,634.61 94.32,634.516 94.207,634.421 94.095,634.324 93.985,634.225 93.875,634.126 93.767,634.024 93.661,633.922 93.555,633.818 93.451,633.712 93.349,633.605 93.247,633.497 93.147,633.388 93.049,633.278 92.952,633.166 92.857,633.053 92.763,632.939 92.671,632.823 92.58,632.707 92.491,632.59 92.403,632.471 92.317,632.352 92.233,632.231 92.15,632.11 92.069,631.988 91.99,631.865 91.912,631.741 91.836,631.616 91.762,631.491 91.689,631.364 91.618,631.238 91.549,631.11 91.482,630.982 91.416,630.853 91.353,630.724 91.291,630.594 91.23,630.464 91.172,630.333 91.115,630.202 91.06,630.07 91.007,629.938 90.956,629.806 90.906,629.673 90.858,629.541 90.812,629.408 90.768,629.275 90.725,629.141 90.684,629.008 90.645,628.875 90.608,628.741 90.572,628.608 90.538,628.474 90.506,628.341 90.476,628.207 90.447,628.074 90.42,627.941 90.395,627.808 90.371,627.675 90.349,627.543 90.328,627.411 90.309,627.279 90.292,627.147 90.276,627.016 90.262,626.885 90.25,626.754 90.239,626.624 90.229,626.494 90.221,626.365 90.215,626.236 90.21,626.108 90.206,625.98 90.204,625.853 90.204,625.726 90.204,86.93 90.204,69.788 90.204,69.662 90.206,69.534 90.21,69.407 90.215,69.278 90.221,69.149 90.229,69.02 90.239,68.89 90.25,68.76 90.262,68.63 90.276,68.499 90.292,68.367 90.309,68.236 90.328,68.104 90.349,67.971 90.371,67.839 90.395,67.706 90.42,67.573 90.447,67.44 90.476,67.307 90.506,67.173 90.538,67.04 90.572,66.907 90.608,66.773 90.645,66.64 90.684,66.506 90.725,66.373 90.768,66.24 90.812,66.106 90.858,65.974 90.906,65.841 90.956,65.708 91.007,65.576 91.06,65.444 91.115,65.313 91.172,65.181 91.23,65.051 91.291,64.92 91.353,64.791 91.416,64.661 91.482,64.532 91.549,64.404 91.618,64.277 91.689,64.15 91.762,64.024 91.836,63.898 91.912,63.773 91.99,63.649 92.069,63.526 92.15,63.404 92.233,63.283 92.317,63.162 92.403,63.043 92.491,62.925 92.58,62.807 92.671,62.691 92.763,62.576 92.857,62.461 92.952,62.348 93.049,62.237 93.147,62.126 93.247,62.017 93.349,61.909 93.451,61.802 93.555,61.697 93.661,61.593 93.767,61.49 93.875,61.389 93.985,61.289 94.095,61.19 94.207,61.093 94.32,60.998 94.434,60.904 94.549,60.812 94.666,60.721 94.783,60.632 94.902,60.544 95.021,60.458 95.141,60.374 95.263,60.291 95.385,60.21 95.508,60.131 95.632,60.053 95.757,59.977 95.882,59.903 96.008,59.83 96.135,59.76 96.263,59.691 96.391,59.623 96.52,59.558 96.649,59.494 96.779,59.432 96.909,59.372 97.04,59.313 97.171,59.256 97.303,59.201 97.435,59.148 97.567,59.097 97.699,59.047 97.832,58.999 97.965,58.953 98.098,58.909 98.231,58.866 98.365,58.826 98.498,58.787 98.632,58.749 98.765,58.714 98.899,58.68 99.032,58.648 99.166,58.617 99.299,58.588 99.432,58.561 99.565,58.536 99.698,58.512 99.83,58.49 99.962,58.47 100.094,58.451 100.226,58.433 100.357,58.418 100.488,58.404 100.619,58.391 100.749,58.38 100.879,58.371 101.008,58.363 101.137,58.356 101.265,58.351 101.393,58.348 101.52,58.346 101.647,58.345 117.531,58.345 428.051,58.345 428.177,58.346 428.305,58.348 428.432,58.351 428.561,58.356 428.69,58.363 428.819,58.371 428.949,58.38 429.079,58.391 429.21,58.404 429.34,58.418 429.472,58.433 429.603,58.451 429.735,58.47 429.868,58.49 430,58.512 430.133,58.536 430.266,58.561 430.399,58.588 430.532,58.617 430.666,58.648 430.799,58.68 430.932,58.714 431.066,58.749 431.199,58.787 431.333,58.826 431.466,58.866 431.599,58.909 431.733,58.953 431.866,58.999 431.998,59.047 432.131,59.097 432.263,59.148 432.395,59.201 432.526,59.256 432.658,59.313 432.788,59.372 432.919,59.432 433.049,59.494 433.178,59.558 433.307,59.623 433.435,59.691 433.562,59.76 433.689,59.83 433.815,59.903 433.941,59.977 434.066,60.053 434.19,60.131 434.313,60.21 434.435,60.291 434.556,60.374 434.677,60.458 434.796,60.544 434.914,60.632 435.032,60.721 435.148,60.812 435.263,60.904 435.378,60.998 435.491,61.093 435.602,61.19 435.713,61.289 435.822,61.389 435.93,61.49 436.037,61.593 436.142,61.697 436.247,61.802 436.349,61.909 436.45,62.017 436.55,62.126 436.649,62.237 436.746,62.348 436.841,62.461 436.935,62.576 437.027,62.691 437.118,62.807 437.207,62.925 437.295,63.043 437.381,63.162 437.465,63.283 437.548,63.404 437.629,63.526 437.708,63.649 437.786,63.773 437.862,63.898 437.936,64.024 438.009,64.15 438.079,64.277 438.148,64.404 438.216,64.532 438.281,64.661 438.345,64.791 438.407,64.92 438.467,65.051 438.526,65.181 438.583,65.313 438.638,65.444 438.691,65.576 438.742,65.708 438.792,65.841 438.84,65.974 438.886,66.106 438.93,66.24 438.973,66.373 439.013,66.506 439.052,66.64 439.09,66.773 439.125,66.907 439.159,67.04 439.191,67.173 439.222,67.307 439.251,67.44 439.278,67.573 439.303,67.706 439.327,67.839 439.349,67.971 439.37,68.104 439.388,68.236 439.406,68.367 439.421,68.499 439.435,68.63 439.448,68.76 439.459,68.89 439.468,69.02 439.476,69.149 439.483,69.278 439.488,69.407 439.491,69.534 439.493,69.662 439.494,69.788 439.494,86.93 439.494,562.903 439.49,563.725 439.476,564.551 439.453,565.381 439.42,566.214 439.378,567.05 439.327,567.889 439.265,568.731 439.194,569.576 439.112,570.424 439.021,571.274 438.919,572.126 438.807,572.98 438.685,573.837 438.552,574.695 438.409,575.555 438.254,576.417 438.089,577.279 437.914,578.143 437.727,579.008 437.529,579.873 437.321,580.739 437.101,581.605 436.87,582.472 436.627,583.338 436.374,584.204 436.109,585.069 435.833,585.934 435.545,586.798 435.246,587.661 434.935,588.522 434.613,589.382 434.28,590.24 433.935,591.096 433.578,591.95 433.21,592.801 432.831,593.65 432.439,594.496 432.037,595.338 431.623,596.177 431.197,597.013 430.761,597.845 430.312,598.673 429.853,599.496 429.382,600.315 428.9,601.13 428.407,601.939 427.903,602.743 427.388,603.542 426.863,604.335 426.326,605.123 425.778,605.904 425.22,606.679 424.652,607.448 424.073,608.21 423.484,608.965 422.885,609.713 422.275,610.454 421.656,611.187 421.027,611.912 420.389,612.63 419.741,613.339 419.084,614.04 418.417,614.733 417.742,615.417 417.058,616.093 416.365,616.759 415.664,617.416 414.954,618.064 414.237,618.703 413.512,619.331 412.778,619.951 412.038,620.56 411.29,621.159 410.535,621.748 409.773,622.327 409.004,622.896 408.229,623.454 407.448,624.001 406.66,624.538 405.867,625.064 405.068,625.579 404.264,626.083 403.455,626.576 402.64,627.057 401.821,627.528 400.998,627.988 400.17,628.436 399.338,628.873 398.502,629.298 397.663,629.712 396.82,630.115 395.975,630.506 395.126,630.885 394.275,631.253 393.421,631.61 392.565,631.955 391.707,632.289 390.847,632.611 389.986,632.921 389.123,633.22 388.259,633.508 387.394,633.784 386.529,634.049 385.663,634.303 384.796,634.545 383.93,634.776 383.064,634.996 382.198,635.204 381.333,635.402 380.468,635.589 379.604,635.765 378.741,635.93 377.88,636.084 377.02,636.227 376.162,636.36 375.305,636.482 374.451,636.594 373.598,636.696 372.748,636.788 371.901,636.869 371.056,636.94 370.214,637.002 369.375,637.054 368.539,637.096 367.706,637.128 366.876,637.151 366.05,637.165 365.228,637.169 101.647,637.169 101.52,637.169 101.393,637.167 101.265,637.163 101.137,637.158 101.008,637.151 100.879,637.144 100.749,637.134 100.619,637.123 100.488,637.111 100.357,637.096 100.226,637.081 100.094,637.064 99.962,637.045 99.83,637.024 99.698,637.002 99.565,636.978 99.432,636.953 99.299,636.926 99.166,636.897 99.032,636.867 98.899,636.834 98.765,636.801 98.632,636.765 98.498,636.728 98.365,636.689 98.231,636.648 98.098,636.605 97.965,636.561 97.832,636.515 97.699,636.467 97.567,636.417 97.435,636.366 97.303,636.313 97.171,636.258 97.04,636.201 96.909,636.143 96.779,636.082 "
         id="polygon98"
         style="fill:#bebebe;fill-opacity:1;stroke:#000000;stroke-opacity:1"
         transform="matrix(0.02365361,0,0,0.02365361,4.228193,1.2155522)"
         inkscape:label="polygon98" />
      <polygon
         fill="none"
         stroke="#00b9d2"
         stroke-width="2.75"
         stroke-linecap="round"
         stroke-linejoin="round"
         stroke-miterlimit="10"
         points="257.935,549.03 257.991,549.076 258.048,549.12 258.105,549.165 258.164,549.208 258.223,549.251 258.282,549.293 258.343,549.335 258.403,549.375 258.465,549.415 258.527,549.455 258.59,549.493 258.653,549.531 258.716,549.568 258.781,549.604 258.846,549.64 258.911,549.674 258.977,549.708 259.043,549.741 259.11,549.773 259.177,549.805 259.244,549.835 259.312,549.865 259.381,549.893 259.45,549.921 259.519,549.948 259.588,549.974 259.658,549.999 259.728,550.023 259.798,550.047 259.869,550.069 259.94,550.09 260.011,550.111 260.083,550.13 260.154,550.149 260.226,550.167 260.298,550.183 260.37,550.199 260.442,550.214 260.514,550.228 260.587,550.241 260.659,550.253 260.732,550.264 260.804,550.274 260.877,550.284 260.949,550.292 261.022,550.299 261.094,550.306 261.167,550.311 261.239,550.316 261.311,550.319 261.384,550.322 261.456,550.324 261.528,550.325 261.599,550.325 261.671,550.324 261.742,550.322 261.813,550.319 261.884,550.316 261.955,550.311 262.026,550.306 262.096,550.3 262.166,550.293 262.235,550.285 262.305,550.276 262.374,550.267 262.442,550.257 262.511,550.246 262.578,550.234 262.646,550.221 262.713,550.208 262.78,550.194 262.846,550.179 262.912,550.164 262.978,550.147 263.043,550.13 263.108,550.113 263.172,550.094 263.236,550.075 263.299,550.055 263.362,550.035 263.424,550.014 263.486,549.992 263.547,549.97 263.608,549.947 263.668,549.924 263.728,549.9 263.787,549.876 263.845,549.851 263.903,549.825 290.494,537.927 290.552,537.901 290.609,537.874 290.667,537.846 290.725,537.817 290.782,537.788 290.84,537.758 290.897,537.727 290.954,537.695 291.012,537.663 291.069,537.63 291.125,537.596 291.182,537.561 291.239,537.525 291.295,537.489 291.351,537.452 291.407,537.414 291.462,537.375 291.518,537.335 291.573,537.295 291.627,537.253 291.682,537.211 291.736,537.169 291.79,537.125 291.843,537.081 291.896,537.036 291.949,536.99 292.001,536.943 292.053,536.895 292.104,536.847 292.155,536.798 292.205,536.748 292.255,536.698 292.305,536.647 292.353,536.595 292.402,536.542 292.45,536.488 292.497,536.434 292.544,536.379 292.59,536.324 292.635,536.267 292.68,536.21 292.724,536.153 292.768,536.094 292.811,536.035 292.853,535.976 292.894,535.915 292.935,535.855 292.975,535.793 293.014,535.731 293.053,535.669 293.091,535.605 293.128,535.542 293.164,535.477 293.199,535.413 293.234,535.347 293.268,535.281 293.301,535.215 293.333,535.148 293.364,535.081 293.394,535.014 293.424,534.946 293.453,534.877 293.48,534.809 293.507,534.739 293.533,534.67 293.559,534.6 293.583,534.53 293.606,534.46 293.628,534.389 293.65,534.318 293.67,534.247 293.69,534.175 293.708,534.104 293.726,534.032 293.743,533.96 293.759,533.888 293.774,533.816 293.788,533.744 293.801,533.671 293.813,533.599 293.824,533.526 293.834,533.454 293.843,533.381 293.851,533.309 293.859,533.236 293.865,533.164 293.871,533.091 293.875,533.019 293.879,532.947 293.881,532.874 293.883,532.802 293.884,532.731 293.884,532.659 293.883,532.587 293.881,532.516 293.879,532.445 293.875,532.374 293.871,532.303 293.866,532.233 293.859,532.162 293.852,532.092 293.845,532.023 293.836,531.953 293.827,531.885 293.816,531.816 293.805,531.748 293.793,531.68 293.781,531.612 293.768,531.545 293.753,531.478 293.739,531.412 293.723,531.346 293.707,531.28 293.69,531.215 293.672,531.15 293.654,531.086 293.635,531.023 293.615,530.959 293.595,530.896 293.574,530.834 293.552,530.772 293.53,530.711 293.507,530.65 293.484,530.59 293.46,530.531 293.435,530.471 293.41,530.413 293.384,530.355 293.358,530.297 293.331,530.239 293.303,530.181 293.275,530.124 293.246,530.066 293.215,530.009 293.185,529.951 293.153,529.894 293.12,529.837 293.087,529.78 293.053,529.723 293.018,529.667 292.983,529.61 292.946,529.554 292.909,529.498 292.871,529.442 292.832,529.386 292.793,529.331 292.752,529.276 292.711,529.221 292.669,529.167 292.626,529.113 292.583,529.059 292.538,529.006 292.493,528.953 292.447,528.9 292.401,528.848 292.353,528.796 292.305,528.745 292.256,528.694 292.206,528.643 292.155,528.593 292.104,528.544 292.052,528.495 291.999,528.447 291.946,528.399 291.892,528.352 291.837,528.305 291.781,528.259 291.725,528.214 291.668,528.169 291.61,528.125 291.552,528.081 291.493,528.038 291.433,527.996 291.373,527.954 291.312,527.914 291.251,527.874 291.189,527.834 291.126,527.796 291.063,527.758 290.999,527.721 290.935,527.685 290.87,527.649 290.805,527.615 290.739,527.581 290.673,527.548 290.606,527.516 290.539,527.485 290.471,527.454 290.403,527.425 290.335,527.396 290.266,527.368 290.197,527.341 290.128,527.315 290.058,527.29 289.988,527.266 289.917,527.243 289.847,527.22 289.776,527.199 289.704,527.178 289.633,527.159 289.562,527.14 289.49,527.122 289.418,527.106 289.346,527.09 289.274,527.075 289.201,527.061 289.129,527.048 289.057,527.036 288.984,527.025 288.911,527.015 288.839,527.006 288.766,526.997 288.694,526.99 288.621,526.984 288.549,526.978 288.477,526.974 288.404,526.97 288.332,526.967 288.26,526.965 288.188,526.964 288.116,526.964 288.045,526.965 287.973,526.967 287.902,526.97 287.831,526.973 287.761,526.978 287.69,526.983 287.62,526.989 287.55,526.996 287.48,527.004 287.411,527.013 287.342,527.022 287.273,527.032 287.205,527.043 287.137,527.055 287.07,527.068 287.002,527.081 286.936,527.095 286.869,527.11 286.803,527.126 286.738,527.142 286.673,527.159 286.608,527.177 286.544,527.195 286.48,527.214 286.417,527.234 286.354,527.254 286.292,527.275 286.23,527.297 286.169,527.319 286.108,527.342 286.048,527.365 285.988,527.389 285.929,527.414 285.87,527.439 285.812,527.464 259.222,539.362 259.164,539.389 259.106,539.416 259.049,539.443 258.991,539.472 258.933,539.501 258.876,539.531 258.818,539.562 258.761,539.594 258.704,539.626 258.647,539.659 258.59,539.694 258.534,539.728 258.477,539.764 258.421,539.8 258.365,539.838 258.309,539.876 258.253,539.914 258.198,539.954 258.143,539.994 258.088,540.036 258.034,540.078 257.98,540.12 257.926,540.164 257.873,540.208 257.82,540.253 257.767,540.299 257.715,540.346 257.663,540.394 257.612,540.442 257.561,540.491 257.51,540.541 257.461,540.591 257.411,540.643 257.362,540.695 257.314,540.747 257.266,540.801 257.219,540.855 257.172,540.91 257.126,540.966 257.081,541.022 257.036,541.079 256.992,541.137 256.948,541.195 256.905,541.254 256.863,541.313 256.822,541.374 256.781,541.435 256.741,541.496 256.701,541.558 256.663,541.621 256.625,541.684 256.588,541.748 256.552,541.812 256.516,541.877 256.482,541.942 256.448,542.008 256.415,542.074 256.383,542.141 256.352,542.208 256.321,542.275 256.292,542.343 256.263,542.412 256.235,542.481 256.208,542.55 256.182,542.619 256.157,542.689 256.133,542.759 256.11,542.83 256.087,542.9 256.066,542.971 256.045,543.042 256.026,543.114 256.007,543.185 255.99,543.257 255.973,543.329 255.957,543.401 255.942,543.473 255.928,543.545 255.915,543.618 255.903,543.69 255.892,543.763 255.882,543.835 255.873,543.908 255.864,543.98 255.857,544.053 255.851,544.125 255.845,544.198 255.841,544.27 255.837,544.342 255.834,544.415 255.832,544.487 255.832,544.559 255.832,544.63 255.832,544.702 255.834,544.773 255.837,544.844 255.84,544.915 255.845,544.986 255.85,545.057 255.856,545.127 255.863,545.197 255.871,545.266 255.88,545.336 255.889,545.405 255.899,545.473 255.91,545.542 255.922,545.61 255.935,545.677 255.948,545.744 255.962,545.811 255.977,545.877 255.993,545.943 256.009,546.009 256.026,546.074 256.044,546.139 256.062,546.203 256.081,546.267 256.101,546.33 256.121,546.393 256.142,546.455 256.164,546.517 256.186,546.578 256.209,546.639 256.232,546.699 256.256,546.759 256.281,546.818 256.306,546.876 256.331,546.934 256.358,546.992 256.385,547.05 256.412,547.108 256.441,547.165 256.47,547.223 256.5,547.28 256.531,547.338 256.563,547.395 256.595,547.452 256.628,547.509 256.662,547.566 256.697,547.623 256.733,547.679 256.769,547.735 256.807,547.791 256.845,547.847 256.883,547.903 256.923,547.958 256.963,548.013 257.005,548.068 257.047,548.122 257.089,548.176 257.133,548.23 257.177,548.284 257.222,548.336 257.268,548.389 257.315,548.441 257.363,548.493 257.411,548.544 257.46,548.595 257.51,548.646 257.56,548.696 257.612,548.745 257.664,548.794 257.716,548.842 257.77,548.89 257.824,548.937 257.879,548.984 "
         id="polygon85"
         style="fill:#787878;fill-opacity:1;stroke:#000000;stroke-opacity:1"
         transform="matrix(0.02365361,0,0,0.02365361,4.228193,1.2155522)" />
      <path
         fill="none"
         stroke="#00b9d2"
         stroke-width="2.75"
         stroke-linecap="round"
         stroke-linejoin="round"
         stroke-miterlimit="10"
         d="m 148.658,439.967 v -23.552 c 0,-0.032 0.001,-0.064 0.001,-0.064 0.001,-0.032 0.002,-0.065 0.002,-0.065 0.002,-0.033 0.004,-0.065 0.004,-0.065 0.002,-0.033 0.005,-0.066 0.005,-0.066 0.003,-0.033 0.007,-0.066 0.007,-0.066 0.004,-0.033 0.008,-0.066 0.008,-0.066 0.005,-0.033 0.01,-0.067 0.01,-0.067 0.006,-0.033 0.012,-0.067 0.012,-0.067 0.006,-0.034 0.013,-0.067 0.013,-0.067 0.007,-0.034 0.015,-0.067 0.015,-0.067 0.008,-0.034 0.017,-0.067 0.017,-0.067 0.009,-0.034 0.018,-0.067 0.018,-0.067 0.01,-0.034 0.02,-0.067 0.02,-0.067 0.011,-0.034 0.022,-0.067 0.022,-0.067 0.012,-0.034 0.024,-0.067 0.024,-0.067 0.013,-0.033 0.025,-0.067 0.025,-0.067 0.013,-0.033 0.027,-0.066 0.027,-0.066 0.014,-0.033 0.029,-0.066 0.029,-0.066 0.015,-0.033 0.031,-0.066 0.031,-0.066 0.016,-0.033 0.033,-0.065 0.033,-0.065 0.017,-0.032 0.034,-0.065 0.034,-0.065 0.018,-0.032 0.036,-0.064 0.036,-0.064 0.019,-0.032 0.038,-0.063 0.038,-0.063 0.02,-0.031 0.04,-0.062 0.04,-0.062 0.02,-0.031 0.041,-0.061 0.041,-0.061 0.021,-0.03 0.043,-0.061 0.043,-0.061 0.022,-0.03 0.045,-0.06 0.045,-0.06 0.023,-0.029 0.046,-0.058 0.046,-0.058 0.024,-0.029 0.048,-0.057 0.048,-0.057 0.024,-0.028 0.049,-0.056 0.049,-0.056 0.025,-0.028 0.051,-0.055 0.051,-0.055 0.026,-0.027 0.052,-0.054 0.052,-0.054 0.027,-0.026 0.054,-0.052 0.054,-0.052 0.027,-0.026 0.055,-0.051 0.055,-0.051 0.028,-0.025 0.056,-0.049 0.056,-0.049 0.029,-0.024 0.057,-0.048 0.057,-0.048 0.029,-0.023 0.058,-0.046 0.058,-0.046 0.03,-0.022 0.059,-0.045 0.059,-0.045 0.03,-0.022 0.061,-0.043 0.061,-0.043 0.031,-0.021 0.061,-0.041 0.061,-0.041 0.031,-0.02 0.062,-0.04 0.062,-0.04 0.031,-0.019 0.063,-0.038 0.063,-0.038 0.032,-0.018 0.064,-0.036 0.064,-0.036 0.032,-0.017 0.065,-0.034 0.065,-0.034 0.032,-0.017 0.065,-0.033 0.065,-0.033 0.033,-0.016 0.066,-0.031 0.066,-0.031 0.033,-0.015 0.066,-0.029 0.066,-0.029 0.033,-0.014 0.066,-0.027 0.066,-0.027 0.033,-0.013 0.067,-0.025 0.067,-0.025 0.033,-0.012 0.067,-0.024 0.067,-0.024 0.034,-0.011 0.067,-0.022 0.067,-0.022 0.034,-0.01 0.067,-0.02 0.067,-0.02 0.034,-0.009 0.067,-0.018 0.067,-0.018 0.034,-0.009 0.067,-0.017 0.067,-0.017 0.034,-0.008 0.067,-0.015 0.067,-0.015 0.034,-0.007 0.067,-0.013 0.067,-0.013 0.033,-0.006 0.067,-0.012 0.067,-0.012 0.033,-0.005 0.067,-0.01 0.067,-0.01 0.033,-0.004 0.066,-0.008 0.066,-0.008 0.033,-0.004 0.066,-0.007 0.066,-0.007 0.033,-0.003 0.066,-0.005 0.066,-0.005 0.033,-0.002 0.065,-0.004 0.065,-0.004 0.032,-0.001 0.065,-0.002 0.065,-0.002 0.032,-10e-4 0.064,-10e-4 0.064,-10e-4 h 18.261 c 0.032,0 0.064,10e-4 0.064,10e-4 0.032,10e-4 0.065,0.002 0.065,0.002 0.033,0.002 0.065,0.004 0.065,0.004 0.033,0.002 0.066,0.005 0.066,0.005 0.033,0.003 0.066,0.007 0.066,0.007 0.033,0.004 0.066,0.008 0.066,0.008 0.033,0.005 0.067,0.01 0.067,0.01 0.033,0.006 0.067,0.012 0.067,0.012 0.034,0.006 0.067,0.013 0.067,0.013 0.034,0.007 0.067,0.015 0.067,0.015 0.034,0.008 0.067,0.017 0.067,0.017 0.034,0.009 0.067,0.018 0.067,0.018 0.034,0.01 0.067,0.02 0.067,0.02 0.034,0.011 0.067,0.022 0.067,0.022 0.034,0.012 0.067,0.024 0.067,0.024 0.033,0.013 0.067,0.025 0.067,0.025 0.033,0.013 0.066,0.027 0.066,0.027 0.033,0.014 0.066,0.029 0.066,0.029 0.033,0.015 0.066,0.031 0.066,0.031 0.033,0.016 0.065,0.033 0.065,0.033 0.032,0.017 0.065,0.034 0.065,0.034 0.032,0.018 0.064,0.036 0.064,0.036 0.032,0.019 0.063,0.038 0.063,0.038 0.031,0.02 0.062,0.04 0.062,0.04 0.031,0.02 0.061,0.041 0.061,0.041 0.03,0.021 0.061,0.043 0.061,0.043 0.03,0.022 0.059,0.045 0.059,0.045 0.029,0.023 0.058,0.046 0.058,0.046 0.029,0.024 0.057,0.048 0.057,0.048 0.028,0.024 0.056,0.049 0.056,0.049 0.028,0.025 0.055,0.051 0.055,0.051 0.027,0.026 0.054,0.052 0.054,0.052 0.026,0.027 0.052,0.054 0.052,0.054 0.026,0.027 0.051,0.055 0.051,0.055 0.025,0.028 0.049,0.056 0.049,0.056 0.024,0.028 0.048,0.057 0.048,0.057 0.023,0.029 0.046,0.058 0.046,0.058 0.022,0.03 0.045,0.06 0.045,0.06 0.022,0.03 0.043,0.061 0.043,0.061 0.021,0.031 0.041,0.061 0.041,0.061 0.02,0.031 0.04,0.062 0.04,0.062 0.019,0.031 0.038,0.063 0.038,0.063 0.018,0.032 0.036,0.064 0.036,0.064 0.017,0.032 0.034,0.065 0.034,0.065 0.017,0.032 0.033,0.065 0.033,0.065 0.016,0.033 0.031,0.066 0.031,0.066 0.015,0.033 0.029,0.066 0.029,0.066 0.014,0.033 0.027,0.066 0.027,0.066 0.013,0.033 0.025,0.067 0.025,0.067 0.012,0.034 0.024,0.067 0.024,0.067 0.011,0.034 0.022,0.067 0.022,0.067 0.01,0.034 0.02,0.067 0.02,0.067 0.009,0.034 0.018,0.067 0.018,0.067 0.009,0.034 0.017,0.067 0.017,0.067 0.008,0.034 0.015,0.067 0.015,0.067 0.007,0.034 0.013,0.067 0.013,0.067 0.006,0.034 0.012,0.067 0.012,0.067 0.005,0.033 0.01,0.067 0.01,0.067 0.004,0.033 0.008,0.066 0.008,0.066 0.004,0.033 0.007,0.066 0.007,0.066 0.003,0.033 0.005,0.066 0.005,0.066 0.002,0.033 0.004,0.065 0.004,0.065 0.001,0.032 0.002,0.065 0.002,0.065 0.001,0.032 0.001,0.064 0.001,0.064 v 23.552 h 23.552 c 0.032,0 0.064,0.001 0.064,0.001 0.032,10e-4 0.065,0.002 0.065,0.002 0.033,0.002 0.065,0.004 0.065,0.004 0.033,0.002 0.066,0.005 0.066,0.005 0.033,0.003 0.066,0.007 0.066,0.007 0.033,0.004 0.066,0.008 0.066,0.008 0.033,0.005 0.067,0.01 0.067,0.01 0.033,0.006 0.067,0.012 0.067,0.012 0.034,0.006 0.067,0.013 0.067,0.013 0.034,0.007 0.067,0.015 0.067,0.015 0.034,0.008 0.067,0.017 0.067,0.017 0.034,0.009 0.067,0.018 0.067,0.018 0.034,0.01 0.067,0.02 0.067,0.02 0.034,0.011 0.067,0.022 0.067,0.022 0.034,0.012 0.067,0.024 0.067,0.024 0.033,0.013 0.067,0.025 0.067,0.025 0.033,0.013 0.066,0.027 0.066,0.027 0.033,0.014 0.066,0.029 0.066,0.029 0.033,0.015 0.066,0.031 0.066,0.031 0.033,0.016 0.065,0.033 0.065,0.033 0.032,0.017 0.065,0.034 0.065,0.034 0.032,0.018 0.064,0.036 0.064,0.036 0.032,0.019 0.063,0.038 0.063,0.038 0.031,0.02 0.062,0.04 0.062,0.04 0.031,0.02 0.061,0.041 0.061,0.041 0.03,0.021 0.061,0.043 0.061,0.043 0.03,0.022 0.059,0.045 0.059,0.045 0.029,0.023 0.058,0.046 0.058,0.046 0.029,0.024 0.057,0.048 0.057,0.048 0.028,0.024 0.056,0.049 0.056,0.049 0.028,0.025 0.055,0.051 0.055,0.051 0.027,0.026 0.054,0.052 0.054,0.052 0.026,0.027 0.052,0.053 0.052,0.053 0.026,0.027 0.051,0.055 0.051,0.055 0.025,0.028 0.049,0.056 0.049,0.056 0.024,0.029 0.048,0.057 0.048,0.057 0.023,0.029 0.046,0.058 0.046,0.058 0.023,0.03 0.045,0.06 0.045,0.06 0.022,0.03 0.043,0.06 0.043,0.06 0.021,0.031 0.041,0.061 0.041,0.061 0.02,0.031 0.04,0.062 0.04,0.062 0.019,0.031 0.038,0.063 0.038,0.063 0.018,0.032 0.036,0.064 0.036,0.064 0.017,0.032 0.034,0.065 0.034,0.065 0.017,0.032 0.033,0.065 0.033,0.065 0.016,0.033 0.031,0.066 0.031,0.066 0.015,0.033 0.029,0.066 0.029,0.066 0.014,0.033 0.027,0.066 0.027,0.066 0.013,0.033 0.025,0.067 0.025,0.067 0.012,0.034 0.024,0.067 0.024,0.067 0.011,0.034 0.022,0.067 0.022,0.067 0.01,0.034 0.02,0.067 0.02,0.067 0.009,0.034 0.018,0.067 0.018,0.067 0.009,0.034 0.017,0.067 0.017,0.067 0.008,0.034 0.015,0.067 0.015,0.067 0.007,0.034 0.013,0.067 0.013,0.067 0.006,0.034 0.012,0.067 0.012,0.067 0.005,0.033 0.01,0.067 0.01,0.067 0.004,0.033 0.008,0.066 0.008,0.066 0.004,0.033 0.007,0.066 0.007,0.066 0.003,0.033 0.005,0.066 0.005,0.066 0.002,0.033 0.004,0.065 0.004,0.065 0.001,0.032 0.002,0.065 0.002,0.065 0.001,0.032 0.001,0.064 0.001,0.064 v 18.261 c 0,0.032 -0.001,0.064 -0.001,0.064 -10e-4,0.032 -0.002,0.065 -0.002,0.065 -0.002,0.033 -0.004,0.065 -0.004,0.065 -0.002,0.033 -0.005,0.066 -0.005,0.066 -0.003,0.033 -0.007,0.066 -0.007,0.066 -0.004,0.033 -0.008,0.066 -0.008,0.066 -0.005,0.033 -0.01,0.067 -0.01,0.067 -0.006,0.033 -0.012,0.067 -0.012,0.067 -0.006,0.034 -0.013,0.067 -0.013,0.067 -0.007,0.034 -0.015,0.067 -0.015,0.067 -0.008,0.034 -0.017,0.067 -0.017,0.067 -0.009,0.034 -0.018,0.067 -0.018,0.067 -0.01,0.034 -0.02,0.067 -0.02,0.067 -0.011,0.034 -0.022,0.067 -0.022,0.067 -0.012,0.034 -0.024,0.067 -0.024,0.067 -0.013,0.033 -0.025,0.067 -0.025,0.067 -0.013,0.033 -0.027,0.066 -0.027,0.066 -0.014,0.033 -0.029,0.066 -0.029,0.066 -0.015,0.033 -0.031,0.066 -0.031,0.066 -0.016,0.033 -0.033,0.065 -0.033,0.065 -0.017,0.032 -0.034,0.065 -0.034,0.065 -0.018,0.032 -0.036,0.064 -0.036,0.064 -0.019,0.032 -0.038,0.063 -0.038,0.063 -0.02,0.031 -0.04,0.062 -0.04,0.062 -0.02,0.031 -0.041,0.061 -0.041,0.061 -0.021,0.03 -0.043,0.061 -0.043,0.061 -0.022,0.03 -0.045,0.059 -0.045,0.059 -0.023,0.029 -0.046,0.058 -0.046,0.058 -0.024,0.029 -0.048,0.057 -0.048,0.057 -0.024,0.028 -0.049,0.056 -0.049,0.056 -0.025,0.028 -0.051,0.055 -0.051,0.055 -0.026,0.027 -0.052,0.054 -0.052,0.054 -0.027,0.026 -0.054,0.052 -0.054,0.052 -0.027,0.026 -0.055,0.051 -0.055,0.051 -0.028,0.025 -0.056,0.049 -0.056,0.049 -0.029,0.024 -0.057,0.048 -0.057,0.048 -0.029,0.023 -0.058,0.046 -0.058,0.046 -0.03,0.022 -0.059,0.045 -0.059,0.045 -0.03,0.022 -0.061,0.043 -0.061,0.043 -0.031,0.021 -0.061,0.041 -0.061,0.041 -0.031,0.02 -0.062,0.04 -0.062,0.04 -0.031,0.019 -0.063,0.038 -0.063,0.038 -0.032,0.018 -0.064,0.036 -0.064,0.036 -0.032,0.017 -0.065,0.034 -0.065,0.034 -0.032,0.017 -0.065,0.033 -0.065,0.033 -0.033,0.016 -0.066,0.031 -0.066,0.031 -0.033,0.015 -0.066,0.029 -0.066,0.029 -0.033,0.014 -0.066,0.027 -0.066,0.027 -0.033,0.013 -0.067,0.025 -0.067,0.025 -0.033,0.012 -0.067,0.024 -0.067,0.024 -0.034,0.011 -0.067,0.022 -0.067,0.022 -0.034,0.01 -0.067,0.02 -0.067,0.02 -0.034,0.009 -0.067,0.018 -0.067,0.018 -0.034,0.009 -0.067,0.017 -0.067,0.017 -0.034,0.008 -0.067,0.015 -0.067,0.015 -0.034,0.007 -0.067,0.013 -0.067,0.013 -0.033,0.006 -0.067,0.012 -0.067,0.012 -0.033,0.005 -0.067,0.01 -0.067,0.01 -0.033,0.004 -0.066,0.008 -0.066,0.008 -0.033,0.004 -0.066,0.007 -0.066,0.007 -0.033,0.003 -0.066,0.005 -0.066,0.005 -0.033,0.002 -0.065,0.004 -0.065,0.004 -0.032,0.001 -0.065,0.002 -0.065,0.002 -0.032,0.001 -0.064,0.001 -0.064,0.001 h -23.552 v 23.552 c 0,0.032 -0.001,0.064 -0.001,0.064 -0.001,0.032 -0.002,0.065 -0.002,0.065 -0.002,0.033 -0.004,0.065 -0.004,0.065 -0.002,0.033 -0.005,0.066 -0.005,0.066 -0.003,0.033 -0.007,0.066 -0.007,0.066 -0.004,0.033 -0.008,0.066 -0.008,0.066 -0.005,0.033 -0.01,0.067 -0.01,0.067 -0.006,0.033 -0.012,0.067 -0.012,0.067 -0.006,0.034 -0.013,0.067 -0.013,0.067 -0.007,0.034 -0.015,0.067 -0.015,0.067 -0.008,0.034 -0.017,0.067 -0.017,0.067 -0.009,0.034 -0.018,0.067 -0.018,0.067 -0.01,0.034 -0.02,0.067 -0.02,0.067 -0.011,0.034 -0.022,0.067 -0.022,0.067 -0.012,0.034 -0.024,0.067 -0.024,0.067 -0.013,0.033 -0.025,0.067 -0.025,0.067 -0.013,0.033 -0.027,0.066 -0.027,0.066 -0.014,0.033 -0.029,0.066 -0.029,0.066 -0.015,0.033 -0.031,0.066 -0.031,0.066 -0.016,0.033 -0.033,0.065 -0.033,0.065 -0.017,0.032 -0.034,0.065 -0.034,0.065 -0.018,0.032 -0.036,0.064 -0.036,0.064 -0.019,0.032 -0.038,0.063 -0.038,0.063 -0.02,0.031 -0.04,0.062 -0.04,0.062 -0.02,0.031 -0.041,0.061 -0.041,0.061 -0.021,0.03 -0.043,0.061 -0.043,0.061 -0.022,0.03 -0.045,0.059 -0.045,0.059 -0.023,0.029 -0.046,0.058 -0.046,0.058 -0.024,0.029 -0.048,0.057 -0.048,0.057 -0.024,0.028 -0.049,0.056 -0.049,0.056 -0.025,0.028 -0.051,0.055 -0.051,0.055 -0.026,0.027 -0.052,0.054 -0.052,0.054 -0.027,0.026 -0.054,0.052 -0.054,0.052 -0.027,0.026 -0.055,0.051 -0.055,0.051 -0.028,0.025 -0.056,0.049 -0.056,0.049 -0.029,0.024 -0.057,0.048 -0.057,0.048 -0.029,0.023 -0.058,0.046 -0.058,0.046 -0.03,0.023 -0.059,0.045 -0.059,0.045 -0.03,0.022 -0.061,0.043 -0.061,0.043 -0.031,0.021 -0.061,0.041 -0.061,0.041 -0.031,0.02 -0.062,0.04 -0.062,0.04 -0.031,0.019 -0.063,0.038 -0.063,0.038 -0.032,0.018 -0.064,0.036 -0.064,0.036 -0.032,0.017 -0.065,0.034 -0.065,0.034 -0.032,0.017 -0.065,0.033 -0.065,0.033 -0.033,0.016 -0.066,0.031 -0.066,0.031 -0.033,0.015 -0.066,0.029 -0.066,0.029 -0.033,0.014 -0.066,0.027 -0.066,0.027 -0.033,0.013 -0.067,0.025 -0.067,0.025 -0.033,0.012 -0.067,0.024 -0.067,0.024 -0.034,0.011 -0.067,0.022 -0.067,0.022 -0.034,0.01 -0.067,0.02 -0.067,0.02 -0.034,0.009 -0.067,0.018 -0.067,0.018 -0.034,0.009 -0.067,0.017 -0.067,0.017 -0.034,0.008 -0.067,0.015 -0.067,0.015 -0.034,0.007 -0.067,0.013 -0.067,0.013 -0.033,0.006 -0.067,0.012 -0.067,0.012 -0.033,0.005 -0.067,0.01 -0.067,0.01 -0.033,0.004 -0.066,0.008 -0.066,0.008 -0.033,0.004 -0.066,0.007 -0.066,0.007 -0.033,0.003 -0.066,0.005 -0.066,0.005 -0.033,0.002 -0.065,0.004 -0.065,0.004 -0.032,10e-4 -0.065,0.002 -0.065,0.002 -0.032,0.001 -0.064,0.001 -0.064,0.001 h -18.261 c -0.032,0 -0.064,-0.001 -0.064,-0.001 -0.032,-10e-4 -0.065,-0.002 -0.065,-0.002 -0.033,-0.002 -0.065,-0.004 -0.065,-0.004 -0.033,-0.002 -0.066,-0.005 -0.066,-0.005 -0.033,-0.003 -0.066,-0.007 -0.066,-0.007 -0.033,-0.004 -0.066,-0.008 -0.066,-0.008 -0.033,-0.005 -0.067,-0.01 -0.067,-0.01 -0.033,-0.006 -0.067,-0.012 -0.067,-0.012 -0.034,-0.006 -0.067,-0.013 -0.067,-0.013 -0.034,-0.007 -0.067,-0.015 -0.067,-0.015 -0.034,-0.008 -0.067,-0.017 -0.067,-0.017 -0.034,-0.009 -0.067,-0.018 -0.067,-0.018 -0.034,-0.01 -0.067,-0.02 -0.067,-0.02 -0.034,-0.011 -0.067,-0.022 -0.067,-0.022 -0.034,-0.012 -0.067,-0.024 -0.067,-0.024 -0.033,-0.013 -0.067,-0.025 -0.067,-0.025 -0.033,-0.013 -0.066,-0.027 -0.066,-0.027 -0.033,-0.014 -0.066,-0.029 -0.066,-0.029 -0.033,-0.015 -0.066,-0.031 -0.066,-0.031 -0.033,-0.016 -0.065,-0.033 -0.065,-0.033 -0.032,-0.017 -0.065,-0.034 -0.065,-0.034 -0.032,-0.018 -0.064,-0.036 -0.064,-0.036 -0.032,-0.019 -0.063,-0.038 -0.063,-0.038 -0.031,-0.02 -0.062,-0.04 -0.062,-0.04 -0.031,-0.02 -0.061,-0.041 -0.061,-0.041 -0.03,-0.021 -0.061,-0.043 -0.061,-0.043 -0.03,-0.022 -0.059,-0.045 -0.059,-0.045 -0.029,-0.023 -0.058,-0.046 -0.058,-0.046 -0.029,-0.024 -0.057,-0.048 -0.057,-0.048 -0.028,-0.024 -0.056,-0.049 -0.056,-0.049 -0.028,-0.025 -0.055,-0.051 -0.055,-0.051 -0.027,-0.026 -0.054,-0.052 -0.054,-0.052 -0.026,-0.027 -0.052,-0.054 -0.052,-0.054 -0.026,-0.027 -0.051,-0.055 -0.051,-0.055 -0.025,-0.028 -0.049,-0.056 -0.049,-0.056 -0.024,-0.029 -0.048,-0.057 -0.048,-0.057 -0.023,-0.029 -0.046,-0.058 -0.046,-0.058 -0.023,-0.03 -0.045,-0.059 -0.045,-0.059 -0.022,-0.03 -0.043,-0.061 -0.043,-0.061 -0.021,-0.031 -0.041,-0.061 -0.041,-0.061 -0.02,-0.031 -0.04,-0.062 -0.04,-0.062 -0.019,-0.031 -0.038,-0.063 -0.038,-0.063 -0.018,-0.032 -0.036,-0.064 -0.036,-0.064 -0.017,-0.032 -0.034,-0.065 -0.034,-0.065 -0.017,-0.033 -0.033,-0.065 -0.033,-0.065 -0.016,-0.033 -0.031,-0.066 -0.031,-0.066 -0.015,-0.033 -0.029,-0.066 -0.029,-0.066 -0.014,-0.033 -0.027,-0.066 -0.027,-0.066 -0.013,-0.033 -0.025,-0.067 -0.025,-0.067 -0.012,-0.033 -0.024,-0.067 -0.024,-0.067 -0.011,-0.034 -0.022,-0.067 -0.022,-0.067 -0.01,-0.034 -0.02,-0.067 -0.02,-0.067 -0.009,-0.034 -0.018,-0.067 -0.018,-0.067 -0.009,-0.034 -0.017,-0.067 -0.017,-0.067 -0.008,-0.034 -0.015,-0.067 -0.015,-0.067 -0.007,-0.034 -0.013,-0.067 -0.013,-0.067 -0.006,-0.033 -0.012,-0.067 -0.012,-0.067 -0.005,-0.033 -0.01,-0.067 -0.01,-0.067 -0.004,-0.033 -0.008,-0.066 -0.008,-0.066 -0.004,-0.033 -0.007,-0.066 -0.007,-0.066 -0.003,-0.033 -0.005,-0.066 -0.005,-0.066 -0.002,-0.033 -0.004,-0.065 -0.004,-0.065 -0.001,-0.032 -0.002,-0.065 -0.002,-0.065 -0.001,-0.032 -0.001,-0.064 -0.001,-0.064 v -23.552 h -23.552 c -0.032,0 -0.064,-0.001 -0.064,-0.001 -0.032,-10e-4 -0.065,-0.002 -0.065,-0.002 -0.033,-0.002 -0.065,-0.004 -0.065,-0.004 -0.033,-0.002 -0.066,-0.005 -0.066,-0.005 -0.033,-0.003 -0.066,-0.007 -0.066,-0.007 -0.033,-0.004 -0.066,-0.008 -0.066,-0.008 -0.033,-0.005 -0.067,-0.01 -0.067,-0.01 -0.033,-0.006 -0.067,-0.012 -0.067,-0.012 -0.034,-0.006 -0.067,-0.013 -0.067,-0.013 -0.034,-0.007 -0.067,-0.015 -0.067,-0.015 -0.034,-0.008 -0.067,-0.017 -0.067,-0.017 -0.034,-0.009 -0.067,-0.018 -0.067,-0.018 -0.034,-0.01 -0.067,-0.02 -0.067,-0.02 -0.034,-0.011 -0.067,-0.022 -0.067,-0.022 -0.034,-0.012 -0.067,-0.024 -0.067,-0.024 -0.033,-0.013 -0.067,-0.025 -0.067,-0.025 -0.033,-0.013 -0.066,-0.027 -0.066,-0.027 -0.033,-0.014 -0.066,-0.029 -0.066,-0.029 -0.033,-0.015 -0.066,-0.031 -0.066,-0.031 -0.033,-0.016 -0.065,-0.033 -0.065,-0.033 -0.032,-0.017 -0.065,-0.034 -0.065,-0.034 -0.032,-0.018 -0.064,-0.036 -0.064,-0.036 -0.032,-0.019 -0.063,-0.038 -0.063,-0.038 -0.031,-0.02 -0.062,-0.04 -0.062,-0.04 -0.031,-0.02 -0.061,-0.041 -0.061,-0.041 -0.03,-0.021 -0.061,-0.043 -0.061,-0.043 -0.03,-0.022 -0.06,-0.045 -0.06,-0.045 -0.029,-0.023 -0.058,-0.046 -0.058,-0.046 -0.029,-0.024 -0.057,-0.048 -0.057,-0.048 -0.028,-0.024 -0.056,-0.049 -0.056,-0.049 -0.028,-0.025 -0.055,-0.051 -0.055,-0.051 -0.027,-0.026 -0.054,-0.052 -0.054,-0.052 -0.026,-0.027 -0.052,-0.054 -0.052,-0.054 -0.026,-0.027 -0.051,-0.055 -0.051,-0.055 -0.025,-0.028 -0.049,-0.056 -0.049,-0.056 -0.024,-0.029 -0.048,-0.057 -0.048,-0.057 -0.023,-0.029 -0.046,-0.058 -0.046,-0.058 -0.023,-0.03 -0.045,-0.059 -0.045,-0.059 -0.022,-0.03 -0.043,-0.061 -0.043,-0.061 -0.021,-0.031 -0.041,-0.061 -0.041,-0.061 -0.02,-0.031 -0.04,-0.062 -0.04,-0.062 -0.019,-0.031 -0.038,-0.063 -0.038,-0.063 -0.018,-0.032 -0.036,-0.064 -0.036,-0.064 -0.017,-0.032 -0.034,-0.065 -0.034,-0.065 -0.017,-0.033 -0.033,-0.065 -0.033,-0.065 -0.016,-0.033 -0.031,-0.066 -0.031,-0.066 -0.015,-0.033 -0.029,-0.066 -0.029,-0.066 -0.014,-0.033 -0.027,-0.066 -0.027,-0.066 -0.013,-0.033 -0.025,-0.067 -0.025,-0.067 -0.012,-0.033 -0.024,-0.067 -0.024,-0.067 -0.011,-0.034 -0.022,-0.067 -0.022,-0.067 -0.01,-0.034 -0.02,-0.067 -0.02,-0.067 -0.009,-0.034 -0.018,-0.067 -0.018,-0.067 -0.009,-0.034 -0.017,-0.067 -0.017,-0.067 -0.008,-0.034 -0.015,-0.067 -0.015,-0.067 -0.007,-0.034 -0.013,-0.067 -0.013,-0.067 -0.006,-0.033 -0.012,-0.067 -0.012,-0.067 -0.005,-0.033 -0.01,-0.067 -0.01,-0.067 -0.004,-0.033 -0.008,-0.066 -0.008,-0.066 -0.004,-0.033 -0.007,-0.066 -0.007,-0.066 -0.003,-0.033 -0.005,-0.066 -0.005,-0.066 -0.002,-0.033 -0.004,-0.065 -0.004,-0.065 -10e-4,-0.032 -0.002,-0.065 -0.002,-0.065 -0.001,-0.032 -0.001,-0.064 -0.001,-0.064 v -18.261 c 0,-0.032 0.001,-0.064 0.001,-0.064 0.001,-0.032 0.002,-0.065 0.002,-0.065 0.002,-0.033 0.004,-0.065 0.004,-0.065 0.002,-0.033 0.005,-0.066 0.005,-0.066 0.003,-0.033 0.007,-0.066 0.007,-0.066 0.004,-0.033 0.008,-0.066 0.008,-0.066 0.005,-0.033 0.01,-0.067 0.01,-0.067 0.006,-0.033 0.012,-0.067 0.012,-0.067 0.006,-0.034 0.013,-0.067 0.013,-0.067 0.007,-0.034 0.015,-0.067 0.015,-0.067 0.008,-0.034 0.017,-0.067 0.017,-0.067 0.009,-0.034 0.018,-0.067 0.018,-0.067 0.01,-0.034 0.02,-0.067 0.02,-0.067 0.011,-0.034 0.022,-0.067 0.022,-0.067 0.012,-0.034 0.024,-0.067 0.024,-0.067 0.013,-0.033 0.025,-0.067 0.025,-0.067 0.013,-0.033 0.027,-0.066 0.027,-0.066 0.014,-0.033 0.029,-0.066 0.029,-0.066 0.015,-0.033 0.031,-0.066 0.031,-0.066 0.016,-0.033 0.033,-0.065 0.033,-0.065 0.017,-0.032 0.034,-0.065 0.034,-0.065 0.018,-0.032 0.036,-0.064 0.036,-0.064 0.019,-0.032 0.038,-0.063 0.038,-0.063 0.02,-0.031 0.04,-0.062 0.04,-0.062 0.02,-0.031 0.041,-0.061 0.041,-0.061 0.021,-0.03 0.043,-0.06 0.043,-0.06 0.022,-0.03 0.045,-0.06 0.045,-0.06 0.023,-0.029 0.046,-0.058 0.046,-0.058 0.024,-0.029 0.048,-0.057 0.048,-0.057 0.024,-0.028 0.049,-0.056 0.049,-0.056 0.025,-0.028 0.051,-0.055 0.051,-0.055 0.026,-0.027 0.052,-0.053 0.052,-0.053 0.027,-0.026 0.054,-0.052 0.054,-0.052 0.027,-0.026 0.055,-0.051 0.055,-0.051 0.028,-0.025 0.056,-0.049 0.056,-0.049 0.029,-0.024 0.057,-0.048 0.057,-0.048 0.029,-0.023 0.058,-0.046 0.058,-0.046 0.03,-0.022 0.06,-0.045 0.06,-0.045 0.03,-0.022 0.061,-0.043 0.061,-0.043 0.031,-0.021 0.061,-0.041 0.061,-0.041 0.031,-0.02 0.062,-0.04 0.062,-0.04 0.031,-0.019 0.063,-0.038 0.063,-0.038 0.032,-0.018 0.064,-0.036 0.064,-0.036 0.032,-0.017 0.065,-0.034 0.065,-0.034 0.032,-0.017 0.065,-0.033 0.065,-0.033 0.033,-0.016 0.066,-0.031 0.066,-0.031 0.033,-0.015 0.066,-0.029 0.066,-0.029 0.033,-0.014 0.066,-0.027 0.066,-0.027 0.033,-0.013 0.067,-0.025 0.067,-0.025 0.033,-0.012 0.067,-0.024 0.067,-0.024 0.034,-0.011 0.067,-0.022 0.067,-0.022 0.034,-0.01 0.067,-0.02 0.067,-0.02 0.034,-0.009 0.067,-0.018 0.067,-0.018 0.034,-0.009 0.067,-0.017 0.067,-0.017 0.034,-0.008 0.067,-0.015 0.067,-0.015 0.034,-0.007 0.067,-0.013 0.067,-0.013 0.033,-0.006 0.067,-0.012 0.067,-0.012 0.033,-0.005 0.067,-0.01 0.067,-0.01 0.033,-0.004 0.066,-0.008 0.066,-0.008 0.033,-0.004 0.066,-0.007 0.066,-0.007 0.033,-0.003 0.066,-0.005 0.066,-0.005 0.033,-0.002 0.065,-0.004 0.065,-0.004 0.032,-0.001 0.065,-0.002 0.065,-0.002 0.032,-0.001 0.064,-0.001 0.064,-0.001 z"
         id="path84"
         style="fill:#333333;stroke:#000000;stroke-opacity:1"
         transform="matrix(0.02365361,0,0,0.02365361,4.228193,1.2155522)" />
      <polygon
         fill="none"
         stroke="#00b9d2"
         stroke-width="2.75"
         stroke-linecap="round"
         stroke-linejoin="round"
         stroke-miterlimit="10"
         points="198.82,549.685 198.908,549.73 198.997,549.773 199.087,549.815 199.177,549.855 199.269,549.893 199.36,549.93 199.453,549.965 199.546,549.999 199.639,550.031 199.733,550.062 199.828,550.09 199.923,550.118 200.019,550.143 200.115,550.167 200.211,550.189 200.308,550.21 200.405,550.229 200.503,550.246 200.6,550.261 200.698,550.275 200.796,550.287 200.895,550.298 200.993,550.307 201.092,550.314 201.191,550.319 201.29,550.323 201.388,550.324 201.487,550.325 201.586,550.323 201.685,550.32 201.784,550.315 201.883,550.308 201.981,550.3 202.08,550.29 202.178,550.278 202.276,550.265 202.374,550.25 202.471,550.233 202.568,550.215 202.665,550.195 202.762,550.173 202.858,550.149 202.954,550.124 203.049,550.097 203.144,550.069 203.238,550.039 203.332,550.007 203.425,549.974 203.517,549.939 203.609,549.903 203.701,549.865 203.791,549.825 230.382,537.927 230.472,537.886 230.561,537.843 230.649,537.799 230.737,537.753 230.824,537.706 230.91,537.657 230.995,537.607 231.08,537.555 231.163,537.502 231.245,537.447 231.327,537.391 231.408,537.334 231.487,537.275 231.566,537.215 231.643,537.153 231.72,537.09 231.795,537.026 231.869,536.961 231.942,536.894 232.014,536.826 232.085,536.757 232.154,536.686 232.222,536.615 232.289,536.542 232.355,536.468 232.42,536.393 232.483,536.317 232.545,536.24 232.605,536.161 232.664,536.082 232.722,536.002 232.778,535.921 232.833,535.838 232.887,535.755 232.939,535.671 232.99,535.586 233.039,535.5 233.087,535.414 233.133,535.326 233.177,535.238 233.22,535.149 233.262,535.059 233.302,534.969 233.34,534.877 233.377,534.786 233.413,534.693 233.446,534.6 233.478,534.507 233.509,534.412 233.538,534.318 233.565,534.223 233.59,534.127 233.614,534.031 233.636,533.935 233.657,533.838 233.676,533.741 233.693,533.643 233.709,533.546 233.722,533.448 233.735,533.35 233.745,533.251 233.754,533.153 233.761,533.054 233.766,532.955 233.77,532.856 233.772,532.757 233.772,532.658 233.77,532.56 233.767,532.461 233.762,532.362 233.756,532.263 233.747,532.165 233.737,532.066 233.726,531.968 233.712,531.87 233.697,531.772 233.68,531.675 233.662,531.577 233.642,531.481 233.62,531.384 233.597,531.288 233.571,531.192 233.545,531.097 233.516,531.002 233.486,530.908 233.455,530.814 233.421,530.721 233.386,530.629 233.35,530.537 233.312,530.445 233.272,530.355 233.231,530.265 233.188,530.176 233.144,530.087 233.098,529.999 233.051,529.912 233.002,529.826 232.952,529.741 232.9,529.657 232.847,529.573 232.792,529.491 232.736,529.409 232.679,529.329 232.62,529.249 232.56,529.171 232.499,529.093 232.436,529.017 232.372,528.942 232.306,528.867 232.239,528.794 232.171,528.722 232.102,528.652 232.032,528.582 231.96,528.514 231.887,528.447 231.814,528.381 231.739,528.317 231.662,528.254 231.585,528.192 231.507,528.131 231.428,528.072 231.347,528.014 231.266,527.958 231.184,527.903 231.101,527.849 231.016,527.797 230.932,527.747 230.846,527.698 230.759,527.65 230.671,527.604 230.583,527.559 230.494,527.516 230.404,527.474 230.314,527.434 230.223,527.396 230.131,527.359 230.039,527.324 229.946,527.29 229.852,527.258 229.758,527.228 229.663,527.199 229.568,527.172 229.472,527.146 229.376,527.122 229.28,527.1 229.183,527.079 229.086,527.06 228.989,527.043 228.891,527.028 228.793,527.014 228.695,527.002 228.597,526.991 228.498,526.983 228.399,526.976 228.301,526.97 228.202,526.967 228.103,526.965 228.004,526.964 227.905,526.966 227.806,526.969 227.707,526.974 227.609,526.981 227.51,526.989 227.412,526.999 227.313,527.011 227.215,527.024 227.118,527.039 227.02,527.056 226.923,527.074 226.826,527.095 226.73,527.116 226.633,527.14 226.538,527.165 226.443,527.192 226.348,527.22 226.254,527.25 226.16,527.282 226.067,527.315 225.974,527.35 225.882,527.387 225.791,527.425 225.7,527.464 199.11,539.362 199.02,539.404 198.93,539.446 198.842,539.49 198.754,539.536 198.667,539.584 198.581,539.632 198.496,539.683 198.412,539.734 198.328,539.788 198.246,539.842 198.164,539.898 198.084,539.956 198.004,540.014 197.926,540.075 197.848,540.136 197.772,540.199 197.697,540.263 197.622,540.328 197.549,540.395 197.477,540.463 197.407,540.532 197.337,540.603 197.269,540.674 197.202,540.747 197.136,540.821 197.072,540.896 197.008,540.972 196.947,541.049 196.886,541.128 196.827,541.207 196.769,541.287 196.713,541.369 196.658,541.451 196.604,541.534 196.552,541.618 196.502,541.703 196.452,541.789 196.405,541.876 196.359,541.963 196.314,542.051 196.271,542.14 196.229,542.23 196.189,542.321 196.151,542.412 196.114,542.504 196.079,542.596 196.045,542.689 196.013,542.783 195.982,542.877 195.954,542.971 195.926,543.066 195.901,543.162 195.877,543.258 195.855,543.354 195.834,543.451 195.815,543.548 195.798,543.646 195.783,543.743 195.769,543.841 195.757,543.94 195.746,544.038 195.738,544.137 195.73,544.235 195.725,544.334 195.722,544.433 195.72,544.532 195.719,544.631 195.721,544.73 195.724,544.828 195.729,544.927 195.736,545.026 195.744,545.125 195.754,545.223 195.766,545.321 195.779,545.419 195.794,545.517 195.811,545.614 195.829,545.712 195.85,545.809 195.871,545.905 195.895,546.001 195.92,546.097 195.947,546.192 195.975,546.287 196.005,546.381 196.037,546.475 196.07,546.568 196.105,546.661 196.141,546.752 196.179,546.844 196.219,546.934 196.26,547.024 196.303,547.114 196.347,547.202 196.393,547.29 196.44,547.377 196.489,547.463 196.539,547.548 196.591,547.632 196.644,547.716 196.699,547.798 196.755,547.88 196.812,547.96 196.871,548.04 196.931,548.118 196.993,548.196 197.056,548.272 197.12,548.348 197.185,548.422 197.252,548.495 197.32,548.567 197.389,548.637 197.459,548.707 197.531,548.775 197.604,548.842 197.678,548.908 197.753,548.972 197.829,549.036 197.906,549.097 197.984,549.158 198.064,549.217 198.144,549.275 198.225,549.331 198.308,549.386 198.391,549.44 198.475,549.492 198.56,549.542 198.646,549.592 198.732,549.639 "
         id="polygon83"
         style="fill:#787878;fill-opacity:1;stroke:#000000;stroke-opacity:1"
         transform="matrix(0.02365361,0,0,0.02365361,4.228193,1.2155522)" />
      <path
         fill="none"
         stroke="#00b9d2"
         stroke-width="2.75"
         stroke-linecap="round"
         stroke-linejoin="round"
         stroke-miterlimit="10"
         d="m 411.888,434.143 c 0.023,-7.043 -3.621,-13.777 -9.53,-17.61 -10.806,-7.036 -25.304,-2.822 -30.656,8.909 -2.504,5.449 -2.504,11.952 0,17.401 5.352,11.731 19.85,15.945 30.656,8.909 5.909,-3.832 9.553,-10.566 9.53,-17.609 z"
         id="path83"
         style="fill:#82325a;fill-opacity:1;stroke:#000000;stroke-opacity:1"
         transform="matrix(0.02365361,0,0,0.02365361,4.228193,1.2155522)" />
      <path
         fill="none"
         stroke="#00b9d2"
         stroke-width="2.75"
         stroke-linecap="round"
         stroke-linejoin="round"
         stroke-miterlimit="10"
         d="m 353.307,461.327 c 0.023,-7.043 -3.621,-13.777 -9.53,-17.61 -10.806,-7.036 -25.304,-2.822 -30.656,8.909 -2.504,5.449 -2.504,11.952 0,17.401 5.352,11.731 19.85,15.945 30.656,8.909 5.909,-3.831 9.554,-10.566 9.53,-17.609 z"
         id="path82"
         style="fill:#82325a;stroke:#000000;stroke-opacity:1"
         transform="matrix(0.02365361,0,0,0.02365361,4.228193,1.2155522)" />
      <polygon
         fill="none"
         stroke="#00b9d2"
         stroke-width="2"
         stroke-linecap="round"
         stroke-linejoin="round"
         stroke-miterlimit="10"
         points="407.726,306.425 407.459,306.948 407.186,307.469 406.905,307.988 406.617,308.504 406.322,309.017 406.02,309.527 405.712,310.034 405.396,310.538 405.073,311.038 404.744,311.535 404.408,312.028 404.065,312.518 403.715,313.003 403.359,313.485 402.997,313.962 402.628,314.435 402.252,314.903 401.871,315.367 401.483,315.826 401.089,316.281 400.689,316.73 400.283,317.175 399.871,317.614 399.454,318.048 399.031,318.476 398.602,318.899 398.168,319.317 397.729,319.729 397.285,320.134 396.835,320.534 396.381,320.928 395.922,321.316 395.458,321.698 394.989,322.073 394.516,322.442 394.039,322.805 393.557,323.161 393.072,323.51 392.583,323.853 392.089,324.189 391.592,324.519 391.092,324.841 390.588,325.157 390.081,325.466 389.571,325.768 389.058,326.063 388.542,326.35 388.024,326.631 387.503,326.905 386.979,327.171 386.453,327.431 385.926,327.683 385.396,327.928 384.864,328.165 384.331,328.396 383.796,328.619 383.26,328.836 382.723,329.044 382.184,329.246 381.644,329.441 381.104,329.628 380.563,329.808 380.021,329.981 379.479,330.147 378.937,330.306 378.394,330.458 377.851,330.603 377.309,330.74 376.766,330.871 376.224,330.995 375.683,331.112 375.141,331.222 374.601,331.325 374.062,331.422 373.523,331.512 372.985,331.595 372.449,331.672 371.913,331.742 371.38,331.805 370.847,331.863 370.316,331.914 369.787,331.958 369.259,331.997 368.734,332.029 368.21,332.056 367.688,332.076 367.169,332.09 366.651,332.099 366.136,332.102 129.987,332.102 129.766,332.1 129.546,332.094 129.326,332.085 129.106,332.071 128.887,332.054 128.667,332.033 128.448,332.009 128.23,331.98 128.012,331.948 127.795,331.912 127.578,331.872 127.362,331.829 127.147,331.782 126.932,331.731 126.719,331.676 126.506,331.618 126.295,331.556 126.085,331.491 125.876,331.422 125.668,331.349 125.461,331.272 125.256,331.193 125.052,331.109 124.849,331.022 124.648,330.932 124.449,330.838 124.251,330.741 124.056,330.64 123.861,330.536 123.669,330.428 123.479,330.318 123.29,330.204 123.104,330.087 122.919,329.966 122.737,329.843 122.556,329.716 122.378,329.586 122.203,329.453 122.029,329.317 121.858,329.179 121.69,329.037 121.523,328.892 121.36,328.745 121.199,328.594 121.04,328.441 120.885,328.285 120.731,328.127 120.581,327.966 120.434,327.802 120.289,327.636 120.147,327.468 120.008,327.297 119.873,327.123 119.74,326.947 119.61,326.769 119.483,326.589 119.36,326.407 119.239,326.222 119.122,326.036 119.008,325.847 118.897,325.657 118.79,325.464 118.686,325.27 118.585,325.074 118.488,324.877 118.394,324.677 118.304,324.476 118.217,324.274 118.133,324.07 118.053,323.865 117.977,323.658 117.904,323.45 117.835,323.241 117.77,323.031 117.708,322.819 117.649,322.607 117.595,322.393 117.544,322.179 117.497,321.964 117.453,321.748 117.414,321.531 117.378,321.314 117.345,321.096 117.317,320.878 117.292,320.659 117.271,320.439 117.254,320.22 117.241,320 117.232,319.78 117.226,319.559 117.224,319.339 117.224,119.154 117.225,119.013 117.227,118.871 117.231,118.728 117.237,118.585 117.244,118.442 117.253,118.297 117.263,118.153 117.276,118.007 117.29,117.862 117.305,117.716 117.323,117.569 117.342,117.422 117.363,117.275 117.386,117.128 117.411,116.98 117.437,116.832 117.465,116.684 117.496,116.535 117.528,116.387 117.562,116.238 117.598,116.089 117.635,115.94 117.675,115.791 117.717,115.642 117.76,115.494 117.806,115.345 117.853,115.196 117.903,115.048 117.954,114.9 118.007,114.752 118.063,114.604 118.12,114.456 118.179,114.309 118.241,114.163 118.304,114.016 118.369,113.87 118.436,113.725 118.506,113.58 118.577,113.436 118.65,113.292 118.725,113.149 118.802,113.007 118.881,112.866 118.962,112.725 119.045,112.585 119.129,112.446 119.216,112.308 119.304,112.17 119.395,112.034 119.487,111.899 119.581,111.764 119.677,111.631 119.775,111.499 119.874,111.368 119.975,111.238 120.078,111.11 120.183,110.983 120.289,110.857 120.398,110.732 120.507,110.609 120.619,110.487 120.732,110.366 120.846,110.247 120.962,110.13 121.08,110.014 121.199,109.899 121.319,109.786 121.441,109.675 121.564,109.565 121.689,109.457 121.815,109.351 121.942,109.246 122.071,109.143 122.201,109.042 122.332,108.942 122.464,108.844 122.597,108.749 122.731,108.655 122.866,108.562 123.003,108.472 123.14,108.383 123.278,108.297 123.417,108.212 123.557,108.129 123.698,108.048 123.84,107.969 123.982,107.892 124.125,107.817 124.268,107.744 124.413,107.673 124.557,107.604 124.703,107.537 124.849,107.471 124.995,107.408 125.142,107.347 125.289,107.288 125.436,107.23 125.584,107.175 125.732,107.122 125.88,107.07 126.029,107.021 126.177,106.973 126.326,106.928 126.475,106.884 126.624,106.843 126.773,106.803 126.922,106.765 127.07,106.729 127.219,106.695 127.368,106.663 127.516,106.633 127.664,106.605 127.812,106.578 127.96,106.553 128.108,106.531 128.255,106.51 128.402,106.49 128.548,106.473 128.694,106.457 128.84,106.443 128.985,106.431 129.13,106.42 129.274,106.411 129.418,106.404 129.561,106.399 129.703,106.395 129.845,106.392 129.987,106.392 399.894,106.392 400.035,106.392 400.177,106.395 400.319,106.399 400.463,106.404 400.606,106.411 400.75,106.42 400.895,106.431 401.04,106.443 401.186,106.457 401.332,106.473 401.479,106.49 401.625,106.51 401.773,106.531 401.92,106.553 402.068,106.578 402.216,106.605 402.364,106.633 402.513,106.663 402.661,106.695 402.81,106.729 402.959,106.765 403.108,106.803 403.257,106.843 403.405,106.884 403.554,106.928 403.703,106.973 403.852,107.021 404,107.07 404.148,107.122 404.296,107.175 404.444,107.23 404.591,107.288 404.739,107.347 404.885,107.408 405.032,107.471 405.177,107.537 405.323,107.604 405.468,107.673 405.612,107.744 405.755,107.817 405.898,107.892 406.041,107.969 406.182,108.048 406.323,108.129 406.463,108.212 406.602,108.297 406.74,108.383 406.877,108.472 407.014,108.562 407.149,108.655 407.283,108.749 407.417,108.844 407.549,108.942 407.68,109.042 407.809,109.143 407.938,109.246 408.065,109.351 408.191,109.457 408.316,109.565 408.439,109.675 408.561,109.786 408.682,109.899 408.801,110.014 408.918,110.13 409.034,110.247 409.149,110.366 409.262,110.487 409.373,110.609 409.483,110.732 409.591,110.857 409.697,110.983 409.802,111.11 409.905,111.238 410.006,111.368 410.106,111.499 410.203,111.631 410.299,111.764 410.393,111.899 410.486,112.034 410.576,112.17 410.664,112.308 410.751,112.446 410.836,112.585 410.919,112.725 410.999,112.866 411.078,113.007 411.155,113.149 411.23,113.292 411.304,113.436 411.375,113.58 411.444,113.725 411.511,113.87 411.576,114.016 411.64,114.163 411.701,114.309 411.76,114.456 411.818,114.604 411.873,114.752 411.926,114.9 411.978,115.048 412.027,115.196 412.075,115.345 412.12,115.494 412.164,115.642 412.205,115.791 412.245,115.94 412.283,116.089 412.319,116.238 412.353,116.387 412.385,116.535 412.415,116.684 412.443,116.832 412.47,116.98 412.494,117.128 412.517,117.275 412.538,117.422 412.557,117.569 412.575,117.716 412.591,117.862 412.605,118.007 412.617,118.153 412.628,118.297 412.636,118.442 412.644,118.585 412.649,118.728 412.653,118.871 412.656,119.013 412.656,119.154 412.656,285.582 412.653,286.097 412.645,286.614 412.63,287.134 412.61,287.656 412.584,288.179 412.551,288.705 412.513,289.232 412.468,289.762 412.417,290.293 412.36,290.825 412.296,291.359 412.226,291.894 412.149,292.431 412.066,292.968 411.976,293.507 411.88,294.047 411.776,294.587 411.666,295.128 411.549,295.67 411.425,296.212 411.295,296.754 411.157,297.297 411.012,297.839 410.861,298.382 410.702,298.925 410.536,299.467 410.363,300.008 410.183,300.549 409.995,301.09 409.801,301.629 409.599,302.168 409.39,302.706 409.174,303.242 408.951,303.777 408.72,304.31 408.482,304.841 408.237,305.371 407.985,305.899 "
         id="polygon57"
         style="fill:#8c8c8c;fill-opacity:1;stroke:#000000;stroke-opacity:1"
         transform="matrix(0.02365361,0,0,0.02365361,4.228193,1.2155522)" />
      <polygon
         fill="none"
         stroke="#00b9d2"
         stroke-width="2.75"
         stroke-linecap="round"
         stroke-linejoin="round"
         stroke-miterlimit="10"
         points="169.436,302.564 169.482,302.621 169.529,302.677 169.577,302.732 169.626,302.786 169.676,302.84 169.727,302.893 169.779,302.944 169.831,302.995 169.885,303.045 169.939,303.094 169.995,303.142 170.051,303.189 170.107,303.235 170.165,303.281 170.223,303.325 170.282,303.368 170.342,303.41 170.403,303.451 170.464,303.491 170.526,303.53 170.589,303.568 170.652,303.604 170.716,303.64 170.78,303.675 170.845,303.708 170.911,303.74 170.977,303.772 171.044,303.802 171.111,303.831 171.179,303.858 171.247,303.885 171.316,303.91 171.385,303.934 171.454,303.957 171.524,303.979 171.594,304 171.665,304.019 171.736,304.037 171.807,304.054 171.879,304.07 171.95,304.084 172.022,304.097 172.095,304.109 172.167,304.12 172.24,304.129 172.312,304.138 172.385,304.145 172.458,304.15 172.531,304.155 172.604,304.158 172.677,304.16 172.75,304.16 353.821,304.16 353.895,304.16 353.968,304.158 354.041,304.155 354.114,304.15 354.187,304.145 354.26,304.138 354.332,304.129 354.405,304.12 354.477,304.109 354.549,304.097 354.621,304.084 354.693,304.07 354.765,304.054 354.836,304.037 354.907,304.019 354.977,304 355.048,303.979 355.117,303.957 355.187,303.934 355.256,303.91 355.325,303.885 355.393,303.858 355.461,303.831 355.528,303.802 355.595,303.772 355.661,303.74 355.726,303.708 355.791,303.675 355.856,303.64 355.92,303.604 355.983,303.568 356.046,303.53 356.108,303.491 356.169,303.451 356.23,303.41 356.289,303.368 356.349,303.325 356.407,303.281 356.464,303.235 356.521,303.189 356.577,303.142 356.633,303.094 356.687,303.045 356.74,302.995 356.793,302.944 356.845,302.893 356.896,302.84 356.945,302.786 356.994,302.732 357.043,302.677 357.09,302.621 357.136,302.564 357.181,302.507 357.225,302.448 357.268,302.389 357.31,302.329 357.351,302.269 357.391,302.207 357.43,302.145 357.468,302.083 357.505,302.02 357.54,301.956 357.575,301.891 357.608,301.826 357.641,301.76 357.672,301.694 357.702,301.627 357.731,301.56 357.759,301.492 357.785,301.424 357.81,301.356 357.835,301.287 357.858,301.217 357.879,301.147 357.9,301.077 357.919,301.006 357.937,300.936 357.954,300.864 357.97,300.793 357.984,300.721 357.998,300.649 358.01,300.577 358.02,300.505 358.03,300.432 358.038,300.359 358.045,300.286 358.051,300.214 358.055,300.14 358.058,300.067 358.06,299.994 358.061,299.921 358.061,136.576 358.06,136.503 358.058,136.43 358.055,136.357 358.051,136.284 358.045,136.211 358.038,136.138 358.03,136.065 358.02,135.993 358.01,135.92 357.998,135.848 357.984,135.776 357.97,135.704 357.954,135.633 357.937,135.562 357.919,135.491 357.9,135.42 357.879,135.35 357.858,135.28 357.835,135.211 357.81,135.141 357.785,135.073 357.759,135.005 357.731,134.937 357.702,134.87 357.672,134.803 357.641,134.737 357.608,134.671 357.575,134.606 357.54,134.542 357.505,134.478 357.468,134.414 357.43,134.352 357.391,134.29 357.351,134.229 357.31,134.168 357.268,134.108 357.225,134.049 357.181,133.991 357.136,133.933 357.09,133.876 357.043,133.82 356.994,133.765 356.945,133.711 356.896,133.657 356.845,133.604 356.793,133.553 356.74,133.502 356.687,133.452 356.633,133.403 356.577,133.355 356.521,133.308 356.464,133.262 356.407,133.217 356.349,133.172 356.289,133.129 356.23,133.087 356.169,133.046 356.108,133.006 356.046,132.967 355.983,132.929 355.92,132.893 355.856,132.857 355.791,132.822 355.726,132.789 355.661,132.757 355.595,132.725 355.528,132.695 355.461,132.667 355.393,132.639 355.325,132.612 355.256,132.587 355.187,132.563 355.117,132.54 355.048,132.518 354.977,132.497 354.907,132.478 354.836,132.46 354.765,132.443 354.693,132.427 354.621,132.413 354.549,132.4 354.477,132.388 354.405,132.377 354.332,132.368 354.26,132.36 354.187,132.353 354.114,132.347 354.041,132.343 353.968,132.339 353.895,132.337 353.821,132.337 172.75,132.337 172.677,132.337 172.604,132.339 172.531,132.343 172.458,132.347 172.385,132.353 172.312,132.36 172.24,132.368 172.167,132.377 172.095,132.388 172.022,132.4 171.95,132.413 171.879,132.427 171.807,132.443 171.736,132.46 171.665,132.478 171.594,132.497 171.524,132.518 171.454,132.54 171.385,132.563 171.316,132.587 171.247,132.612 171.179,132.639 171.111,132.667 171.044,132.695 170.977,132.725 170.911,132.757 170.845,132.789 170.78,132.822 170.716,132.857 170.652,132.893 170.589,132.929 170.526,132.967 170.464,133.006 170.403,133.046 170.342,133.087 170.282,133.129 170.223,133.172 170.165,133.217 170.107,133.262 170.051,133.308 169.995,133.355 169.939,133.403 169.885,133.452 169.831,133.502 169.779,133.553 169.727,133.604 169.676,133.657 169.626,133.711 169.577,133.765 169.529,133.82 169.482,133.876 169.436,133.933 169.391,133.991 169.347,134.049 169.304,134.108 169.262,134.168 169.221,134.229 169.181,134.29 169.142,134.352 169.104,134.414 169.067,134.478 169.031,134.542 168.997,134.606 168.963,134.671 168.931,134.737 168.9,134.803 168.87,134.87 168.841,134.937 168.813,135.005 168.787,135.073 168.761,135.141 168.737,135.211 168.714,135.28 168.692,135.35 168.672,135.42 168.653,135.491 168.634,135.562 168.618,135.633 168.602,135.704 168.587,135.776 168.574,135.848 168.562,135.92 168.552,135.993 168.542,136.065 168.534,136.138 168.527,136.211 168.521,136.284 168.517,136.357 168.514,136.43 168.512,136.503 168.511,136.576 168.511,299.921 168.512,299.994 168.514,300.067 168.517,300.14 168.521,300.214 168.527,300.286 168.534,300.359 168.542,300.432 168.552,300.505 168.562,300.577 168.574,300.649 168.587,300.721 168.602,300.793 168.618,300.864 168.634,300.936 168.653,301.006 168.672,301.077 168.692,301.147 168.714,301.217 168.737,301.287 168.761,301.356 168.787,301.424 168.813,301.492 168.841,301.56 168.87,301.627 168.9,301.694 168.931,301.76 168.963,301.826 168.997,301.891 169.031,301.956 169.067,302.02 169.104,302.083 169.142,302.145 169.181,302.207 169.221,302.269 169.262,302.329 169.304,302.389 169.347,302.448 169.391,302.507 "
         id="polygon84"
         style="fill:#8ca064;fill-opacity:1;stroke:#000000;stroke-opacity:1"
         transform="matrix(0.02365361,0,0,0.02365361,4.228193,1.2155522)" />
      <path
         fill="none"
         stroke="#00b9d2"
         stroke-width="2.75"
         stroke-linecap="round"
         stroke-linejoin="round"
         stroke-miterlimit="10"
         d="m 142.469,191.844 c 0.002,-1.018 -0.346,-2.033 -0.973,-2.835 -0.623,-0.805 -1.522,-1.391 -2.509,-1.639 -2.897,-0.732 -5.72,1.446 -5.748,4.434 -0.024,3.021 2.818,5.254 5.748,4.514 0.987,-0.248 1.886,-0.835 2.509,-1.639 0.626,-0.803 0.975,-1.817 0.973,-2.835 z"
         id="path92"
         style="fill:#ff0000;stroke:#000000;stroke-opacity:1"
         transform="matrix(0.02365361,0,0,0.02365361,4.228193,1.2155522)" />
    </g>
  </g>
</svg>
