<?xml version="1.0" encoding="UTF-8" standalone="no"?>
<!-- Created with Inkscape (http://www.inkscape.org/) -->

<svg
   width="300"
   height="300"
   viewBox="0 0 79.374998 79.375"
   version="1.1"
   id="svg1"
   xml:space="preserve"
   inkscape:version="1.3.1 (91b66b0, 2023-11-16)"
   sodipodi:docname="neo_geo_pocket.svg"
   xmlns:inkscape="http://www.inkscape.org/namespaces/inkscape"
   xmlns:sodipodi="http://sodipodi.sourceforge.net/DTD/sodipodi-0.dtd"
   xmlns="http://www.w3.org/2000/svg"
   xmlns:svg="http://www.w3.org/2000/svg"><sodipodi:namedview
     id="namedview1"
     pagecolor="#ffffff"
     bordercolor="#666666"
     borderopacity="1.0"
     inkscape:showpageshadow="2"
     inkscape:pageopacity="0.0"
     inkscape:pagecheckerboard="0"
     inkscape:deskcolor="#d1d1d1"
     inkscape:document-units="mm"
     inkscape:zoom="1.4268408"
     inkscape:cx="171.70801"
     inkscape:cy="222.51956"
     inkscape:window-width="1680"
     inkscape:window-height="916"
     inkscape:window-x="0"
     inkscape:window-y="25"
     inkscape:window-maximized="1"
     inkscape:current-layer="layer1" /><defs
     id="defs1"><inkscape:path-effect
       effect="fillet_chamfer"
       id="path-effect9"
       is_visible="true"
       lpeversion="1"
       nodesatellites_param="F,0,0,1,0,1.0583333,0,1 @ F,0,0,1,0,1.0583333,0,1 @ F,0,0,1,0,1.0583333,0,1 @ F,0,0,1,0,1.0583333,0,1 @ F,0,0,1,0,1.0583333,0,1"
       radius="4"
       unit="px"
       method="auto"
       mode="F"
       chamfer_steps="1"
       flexible="false"
       use_knot_distance="true"
       apply_no_radius="true"
       apply_with_radius="true"
       only_selected="false"
       hide_knots="false" /><inkscape:path-effect
       effect="fillet_chamfer"
       id="path-effect8"
       is_visible="true"
       lpeversion="1"
       nodesatellites_param="F,0,0,1,0,1.3229167,0,1 @ F,0,0,1,0,1.3229167,0,1 @ F,0,0,1,0,1.3229167,0,1 @ F,0,0,1,0,1.3229167,0,1 @ F,0,0,1,0,1.3229167,0,1 @ F,0,0,1,0,1.3229167,0,1 @ F,0,0,1,0,1.3229167,0,1 @ F,0,0,1,0,1.3229167,0,1 @ F,0,0,1,0,1.3229167,0,1 @ F,0,0,1,0,1.3229167,0,1 @ F,0,0,1,0,1.3229167,0,1 @ F,0,0,1,0,1.3229167,0,1 @ F,0,0,1,0,1.3229167,0,1 @ F,0,0,1,0,1.3229167,0,1 @ F,0,0,1,0,1.3229167,0,1 @ F,0,0,1,0,1.3229167,0,1 @ F,0,0,1,0,1.3229167,0,1 @ F,0,0,1,0,1.3229167,0,1 @ F,0,0,1,0,1.3229167,0,1"
       radius="5"
       unit="px"
       method="auto"
       mode="F"
       chamfer_steps="1"
       flexible="false"
       use_knot_distance="true"
       apply_no_radius="true"
       apply_with_radius="true"
       only_selected="false"
       hide_knots="false" /><inkscape:path-effect
       effect="fillet_chamfer"
       id="path-effect7"
       is_visible="true"
       lpeversion="1"
       nodesatellites_param="F,0,0,1,0,0.52916667,0,1 @ F,0,0,1,0,0.52916667,0,1 @ F,0,0,1,0,0.52916667,0,1 @ F,0,0,1,0,0.52916667,0,1 @ F,0,0,1,0,0.52916667,0,1 @ F,0,0,1,0,0.52916667,0,1 @ F,0,0,1,0,0.52916667,0,1 @ F,0,0,1,0,0.52916667,0,1 @ F,0,0,1,0,0.52916667,0,1 @ F,0,0,1,0,0.52916667,0,1 @ F,0,0,1,0,0.52916667,0,1 @ F,0,0,1,0,0.52916667,0,1 @ F,0,0,1,0,0.52916667,0,1 @ F,0,0,1,0,0.52916667,0,1 @ F,0,0,1,0,0.52916667,0,1 @ F,0,0,1,0,0.52916667,0,1"
       radius="2"
       unit="px"
       method="auto"
       mode="F"
       chamfer_steps="1"
       flexible="false"
       use_knot_distance="true"
       apply_no_radius="true"
       apply_with_radius="true"
       only_selected="false"
       hide_knots="false" /></defs><g
     inkscape:label="Layer 1"
     inkscape:groupmode="layer"
     id="layer1"><g
       id="g10"
       transform="matrix(0.43285181,0,0,0.43285181,-5.4192815,-24.195278)"><path
         style="fill:#8296b4;fill-opacity:1;stroke:#000000;stroke-width:0.677333;stroke-linecap:butt;stroke-linejoin:miter;stroke-dasharray:none;stroke-opacity:1"
         d="m 34.173941,104.60389 11.947012,-1.11505 a 28.409823,28.409823 177.33392 0 1 2.640109,-0.12294 l 110.246578,0 a 35.223556,35.223556 2.1508883 0 1 2.64211,0.0992 l 12.00782,0.90325 a 4.020101,4.020101 22.516885 0 1 2.32166,0.96246 l 0.32809,0.28253 a 2.8986873,2.8986873 65.263226 0 1 1.00722,2.18614 l 0.24972,69.6131 a 12.108505,12.108505 96.029589 0 1 -0.27628,2.61563 l -0.086,0.39565 a 9.2112747,9.2112747 110.43761 0 1 -0.91451,2.4541 l -0.28839,0.52871 a 7.1414512,7.1414512 129.10528 0 1 -1.64093,2.01879 l -1.03099,0.87743 a 4.8443028,4.8443028 154.87437 0 1 -2.31086,1.08375 l -8.21582,1.4267 a 27.055312,27.055312 172.94802 0 1 -2.62268,0.32444 l -22.63588,1.68318 a 55.384007,55.384007 177.11569 0 1 -2.64172,0.1331 l -31.63758,0.83729 a 40.937704,40.937704 0.33490381 0 1 -2.6444,-0.0155 l -22.824939,-0.87117 a 81.209204,81.209204 3.1190725 0 1 -2.641563,-0.14395 l -21.144662,-1.49799 a 71.81659,71.81659 5.1076643 0 1 -2.63488,-0.23551 l -11.173181,-1.2065 a 9.3405527,9.3405527 14.224249 0 1 -2.539373,-0.6437 l -1.504975,-0.61679 a 5.844736,5.844736 35.039139 0 1 -2.112856,-1.48159 l -0.749932,-0.82685 a 8.4264238,8.4264238 56.715148 0 1 -1.434467,-2.18503 l -0.463924,-1.02449 a 6.076335,6.076335 77.920088 0 1 -0.541034,-2.52803 l 0.249867,-70.65 a 3.2945415,3.2945415 112.08047 0 1 0.922961,-2.27521 3.3978839,3.3978839 155.36737 0 1 2.148679,-0.98522 z"
         id="path1"
         inkscape:path-effect="#path-effect8"
         inkscape:original-d="M 32.856749,104.72683 47.438145,103.3659 H 160.33056 l 14.6462,1.10171 2.33303,2.00899 0.25922,72.25892 -0.64806,2.98109 -1.55535,2.85147 -3.04589,2.59225 -10.82264,1.87938 -25.27442,1.87938 -34.28248,0.90729 -25.468843,-0.97209 -23.78388,-1.68497 -13.803723,-1.49054 -3.953179,-1.62015 -2.52744,-2.78667 -1.55535,-3.43473 0.259225,-73.29582 z" /><path
         style="fill:#1e1e1e;fill-opacity:1;stroke:#000000;stroke-width:0.677333;stroke-linecap:butt;stroke-linejoin:miter;stroke-dasharray:none;stroke-opacity:1"
         d="m 70.14928,106.90678 h 67.57573 a 1.0595342,1.0595342 44.967511 0 1 1.05953,1.05833 l 0.0728,64.1926 a 1.0953566,1.0953566 133.95017 0 1 -1.05647,1.09591 l -31.7432,1.12773 a 30.758352,30.758352 179.93597 0 1 -2.11542,0.002 l -34.019098,-1.13247 a 1.0904334,1.0904334 46.050753 0 1 -1.054147,-1.09354 l 0.218342,-64.1926 a 1.0619392,1.0619392 135.09744 0 1 1.061933,-1.05833 z"
         id="path2"
         inkscape:path-effect="#path-effect9"
         inkscape:original-d="m 69.090947,106.90678 h 69.692393 l 0.0752,66.30926 L 105,174.41893 68.865405,173.21604 Z" /><path
         style="fill:#969696;fill-opacity:1;stroke:#000000;stroke-width:0.677333;stroke-linecap:butt;stroke-linejoin:miter;stroke-dasharray:none;stroke-opacity:1"
         d="m 74.128044,112.39496 59.167116,-0.15036 0.30072,55.48326 H 73.902503 Z"
         id="path3" /><circle
         style="opacity:0.99;fill:#323232;fill-opacity:1;stroke:#000000;stroke-width:0.677333;stroke-linecap:round;stroke-linejoin:round;stroke-dasharray:none;paint-order:markers fill stroke"
         id="path4"
         cx="58.82589"
         cy="113.26974"
         r="1.7642252" /><path
         style="fill:#323232;fill-opacity:1;stroke:#000000;stroke-width:0.677333;stroke-linecap:butt;stroke-linejoin:miter;stroke-dasharray:none;stroke-opacity:1"
         d="m 41.136836,111.41276 5.92021,0.23293 a 1.7430778,1.7430778 19.140404 0 1 0.956712,0.33204 1.3829798,1.3829798 57.932594 0 1 0.326236,0.52073 2.3328907,2.3328907 74.671062 0 1 0.177336,0.64694 2.0279738,2.0279738 91.839506 0 1 -0.01643,0.51146 1.061908,1.061908 144.30813 0 1 -0.659381,0.78801 1.2093332,1.2093332 169.58972 0 1 -0.574356,0.10552 3.8242059,3.8242059 0.32730601 0 1 -0.690359,-0.004 L 40.999351,114.2772 A 1.6608302,1.6608302 20.190537 0 1 40.059,113.93139 l -0.343168,-0.36605 a 2.2934952,2.2934952 83.058736 0 1 -0.228772,-1.00662 1.2791431,1.2791431 136.09496 0 1 0.591236,-0.86598 2.2238818,2.2238818 150.39933 0 1 0.464265,-0.26375 1.0874146,1.0874146 178.43599 0 1 0.594275,-0.0162 z"
         id="path5"
         inkscape:path-effect="#path-effect7"
         inkscape:original-d="m 40.608078,111.39196 6.977726,0.27453 0.503312,0.36605 0.320288,0.59482 0.11439,0.54907 -0.02289,0.48043 -0.228777,0.48044 -0.480434,0.34316 -0.686334,0.0915 -6.634559,-0.32028 -0.4118,-0.32029 -0.343168,-0.36605 -0.183022,-0.54906 -0.04575,-0.45756 0.205899,-0.50331 0.388924,-0.36605 z" /><ellipse
         style="opacity:0.99;fill:#323232;fill-opacity:1;stroke:#000000;stroke-width:1.00025;stroke-linecap:round;stroke-linejoin:round;stroke-dasharray:none;paint-order:markers fill stroke"
         id="path6"
         cx="52.895355"
         cy="136.13982"
         rx="6.4223142"
         ry="6.7060308" /><ellipse
         style="opacity:0.99;fill:none;stroke:#000000;stroke-width:0.677333;stroke-linecap:round;stroke-linejoin:round;stroke-dasharray:none;paint-order:markers fill stroke"
         id="path6-9"
         cx="52.895355"
         cy="136.22287"
         rx="10.806905"
         ry="11.284318" /><circle
         style="opacity:0.99;fill:#323232;fill-opacity:1;stroke:#000000;stroke-width:0.677333;stroke-linecap:round;stroke-linejoin:round;stroke-dasharray:none;stroke-opacity:1;paint-order:markers fill stroke"
         id="path7-7-5"
         cx="151.16489"
         cy="140.66289"
         r="5.0130072"
         inkscape:label="path7-7-5" /><circle
         style="opacity:0.99;fill:#323232;fill-opacity:1;stroke:#000000;stroke-width:0.677333;stroke-linecap:round;stroke-linejoin:round;stroke-dasharray:none;paint-order:markers fill stroke"
         id="path7"
         cx="167.42632"
         cy="113.09363"
         r="2.3176947" /><circle
         style="opacity:0.99;fill:#323232;fill-opacity:1;stroke:#000000;stroke-width:0.677333;stroke-linecap:round;stroke-linejoin:round;stroke-dasharray:none;paint-order:markers fill stroke"
         id="path7-7"
         cx="166.33786"
         cy="130.59416"
         r="5.0130072" /></g></g></svg>
