<?xml version="1.0" encoding="UTF-8" standalone="no"?>
<!-- Created with Inkscape (http://www.inkscape.org/) -->

<svg
   width="300"
   height="300"
   viewBox="0 0 79.374998 79.375"
   version="1.1"
   id="svg1"
   xml:space="preserve"
   inkscape:version="1.3.1 (91b66b0, 2023-11-16)"
   sodipodi:docname="pokemini.svg"
   xmlns:inkscape="http://www.inkscape.org/namespaces/inkscape"
   xmlns:sodipodi="http://sodipodi.sourceforge.net/DTD/sodipodi-0.dtd"
   xmlns="http://www.w3.org/2000/svg"
   xmlns:svg="http://www.w3.org/2000/svg"><sodipodi:namedview
     id="namedview1"
     pagecolor="#ffffff"
     bordercolor="#000000"
     borderopacity="0.25"
     inkscape:showpageshadow="2"
     inkscape:pageopacity="0.0"
     inkscape:pagecheckerboard="0"
     inkscape:deskcolor="#d1d1d1"
     inkscape:document-units="mm"
     inkscape:zoom="1.3725533"
     inkscape:cx="223.67074"
     inkscape:cy="167.9352"
     inkscape:window-width="1680"
     inkscape:window-height="916"
     inkscape:window-x="0"
     inkscape:window-y="25"
     inkscape:window-maximized="1"
     inkscape:current-layer="layer1" /><defs
     id="defs1"><inkscape:path-effect
       effect="fillet_chamfer"
       id="path-effect10"
       is_visible="true"
       lpeversion="1"
       nodesatellites_param="F,0,0,1,0,1.0583333,0,1 @ F,0,0,1,0,1.0583333,0,1 @ F,0,0,1,0,1.0583333,0,1 @ F,0,0,1,0,1.0583333,0,1 @ F,0,0,1,0,1.0583333,0,1 @ F,0,0,1,0,1.0583333,0,1 @ F,0,0,1,0,1.0583333,0,1 @ F,0,0,1,0,1.0583333,0,1 @ F,0,0,1,0,1.0583333,0,1 @ F,0,0,1,0,1.0583333,0,1 @ F,0,0,1,0,1.0583333,0,1 @ F,0,0,1,0,1.0583333,0,1"
       radius="4"
       unit="px"
       method="auto"
       mode="F"
       chamfer_steps="1"
       flexible="false"
       use_knot_distance="true"
       apply_no_radius="true"
       apply_with_radius="true"
       only_selected="false"
       hide_knots="false" /><inkscape:path-effect
       effect="fillet_chamfer"
       id="path-effect9"
       is_visible="true"
       lpeversion="1"
       nodesatellites_param="F,0,0,1,0,2.6458333,0,1 @ F,0,0,1,0,2.6458333,0,1 @ F,0,0,1,0,2.6458333,0,1 @ F,0,0,1,0,2.6458333,0,1 @ F,0,0,1,0,2.6458333,0,1 @ F,0,0,1,0,2.6458333,0,1 @ F,0,0,1,0,2.6458333,0,1 @ F,0,0,1,0,2.6458333,0,1 @ F,0,0,1,0,2.6458333,0,1 @ F,0,0,1,0,2.6458333,0,1 @ F,0,0,1,0,2.6458333,0,1 @ F,0,0,1,0,2.6458333,0,1 @ F,0,0,1,0,2.6458333,0,1 @ F,0,0,1,0,2.6458333,0,1 @ F,0,0,1,0,2.6458333,0,1 @ F,0,0,1,0,2.6458333,0,1 @ F,0,0,1,0,2.6458333,0,1 @ F,0,0,1,0,2.6458333,0,1 @ F,0,0,1,0,2.6458333,0,1"
       radius="10"
       unit="px"
       method="auto"
       mode="F"
       chamfer_steps="1"
       flexible="false"
       use_knot_distance="true"
       apply_no_radius="true"
       apply_with_radius="true"
       only_selected="false"
       hide_knots="false" /><inkscape:path-effect
       effect="fillet_chamfer"
       id="path-effect8"
       is_visible="true"
       lpeversion="1"
       nodesatellites_param="F,0,0,1,0,2.6458333,0,1 @ F,0,0,1,0,2.6458333,0,1 @ F,0,0,1,0,2.6458333,0,1 @ F,0,0,1,0,2.6458333,0,1 @ F,0,0,1,0,2.6458333,0,1 @ F,0,0,1,0,2.6458333,0,1 @ F,0,0,1,0,2.6458333,0,1 @ F,0,0,1,0,2.6458333,0,1 @ F,0,0,1,0,2.6458333,0,1 @ F,0,0,1,0,2.6458333,0,1 @ F,0,0,1,0,2.6458333,0,1 @ F,0,0,1,0,2.6458333,0,1 @ F,0,0,1,0,2.6458333,0,1 @ F,0,0,1,0,2.6458333,0,1 @ F,0,0,1,0,2.6458333,0,1 @ F,0,0,1,0,2.6458333,0,1"
       radius="10"
       unit="px"
       method="auto"
       mode="F"
       chamfer_steps="1"
       flexible="false"
       use_knot_distance="true"
       apply_no_radius="true"
       apply_with_radius="true"
       only_selected="false"
       hide_knots="false" /><inkscape:path-effect
       effect="fillet_chamfer"
       id="path-effect7"
       is_visible="true"
       lpeversion="1"
       nodesatellites_param="F,0,0,1,0,0,0,1 @ F,0,0,1,0,0,0,1 @ F,0,0,1,0,0,0,1 @ F,0,0,1,0,0,0,1 @ F,0,0,1,0,0,0,1 @ F,0,0,1,0,0,0,1 @ F,0,0,1,0,0,0,1 @ F,0,0,1,0,0,0,1 @ F,0,0,1,0,0,0,1 @ F,0,0,1,0,0,0,1 @ F,0,0,1,0,0,0,1 @ F,0,0,1,0,0,0,1 @ F,0,0,1,0,0,0,1 @ F,0,0,1,0,0,0,1 @ F,0,0,1,0,0,0,1 @ F,0,0,1,0,0,0,1"
       radius="10"
       unit="px"
       method="auto"
       mode="F"
       chamfer_steps="1"
       flexible="false"
       use_knot_distance="true"
       apply_no_radius="true"
       apply_with_radius="true"
       only_selected="false"
       hide_knots="false" /><inkscape:path-effect
       effect="fillet_chamfer"
       id="path-effect6"
       is_visible="true"
       lpeversion="1"
       nodesatellites_param="F,0,0,1,0,2.6458333,0,1 @ F,0,0,1,0,2.6458333,0,1 @ F,0,0,1,0,2.6458333,0,1 @ F,0,0,1,0,2.6458333,0,1 @ F,0,0,1,0,2.6458333,0,1 @ F,0,0,1,0,2.6458333,0,1 @ F,0,0,1,0,2.6458333,0,1 @ F,0,0,1,0,2.6458333,0,1 @ F,0,0,1,0,2.6458333,0,1 @ F,0,0,1,0,2.6458333,0,1 @ F,0,0,1,0,2.6458333,0,1 @ F,0,0,1,0,2.6458333,0,1 @ F,0,0,1,0,2.6458333,0,1 @ F,0,0,1,0,2.6458333,0,1 @ F,0,0,1,0,2.6458333,0,1 @ F,0,0,1,0,2.6458333,0,1 @ F,0,0,1,0,2.6458333,0,1 @ F,0,0,1,0,2.6458333,0,1 @ F,0,0,1,0,2.6458333,0,1 @ F,0,0,1,0,2.6458333,0,1 @ F,0,0,1,0,2.6458333,0,1 @ F,0,0,1,0,2.6458333,0,1 @ F,0,0,1,0,2.6458333,0,1 @ F,0,0,1,0,2.6458333,0,1 @ F,0,0,1,0,2.6458333,0,1 @ F,0,0,1,0,2.6458333,0,1 @ F,0,0,1,0,2.6458333,0,1 @ F,0,0,1,0,2.6458333,0,1 @ F,0,0,1,0,2.6458333,0,1 @ F,0,0,1,0,2.6458333,0,1 @ F,0,0,1,0,2.6458333,0,1 @ F,0,0,1,0,2.6458333,0,1 @ F,0,0,1,0,2.6458333,0,1 @ F,0,0,1,0,2.6458333,0,1 @ F,0,0,1,0,2.6458333,0,1 @ F,0,0,1,0,2.6458333,0,1 @ F,0,0,1,0,2.6458333,0,1 @ F,0,0,1,0,2.6458333,0,1 @ F,0,0,1,0,2.6458333,0,1 @ F,0,0,1,0,2.6458333,0,1 @ F,0,0,1,0,2.6458333,0,1 @ F,0,0,1,0,2.6458333,0,1 @ F,0,0,1,0,2.6458333,0,1 @ F,0,0,1,0,2.6458333,0,1 @ F,0,0,1,0,2.6458333,0,1"
       radius="10"
       unit="px"
       method="auto"
       mode="F"
       chamfer_steps="1"
       flexible="false"
       use_knot_distance="true"
       apply_no_radius="true"
       apply_with_radius="true"
       only_selected="false"
       hide_knots="false" /></defs><g
     inkscape:label="Layer 1"
     inkscape:groupmode="layer"
     id="layer1"><g
       id="g10"
       transform="matrix(0.48838025,0,0,0.48838025,-8.3596881,-22.135144)"><path
         style="fill:#4d6c85;fill-opacity:1;stroke:#000000;stroke-width:0.529167;stroke-linecap:round;stroke-linejoin:round;stroke-dasharray:none"
         d="m 129.66811,76.712037 1.18611,-0.0096 0.89815,1.092939 1.08471,1.319947 0.94651,1.479749 0.74968,1.172037 a 12.395135,12.395135 75.215037 0 1 1.90903,5.033775 47.587741,47.587741 78.975749 0 1 0.9647,4.951772 300.11061,300.11061 82.338857 0 1 0.60531,4.499967 47.223299,47.223299 85.111939 0 1 0.6928,6.450287 l 0.0478,2.19788 -0.23889,0.26279 h -0.52558 l -2.26955,0.0478 -2.76004,-15.45618 a 10.010496,10.010496 65.07025 0 0 -2.15642,-4.639307 l -1.29091,-1.552988 a 7.1545982,7.1545982 70.560025 0 1 -1.65184,-4.680215 2.0211234,2.0211234 129.79852 0 1 1.80843,-2.170653 z"
         id="path6"
         sodipodi:nodetypes="cccccccccccccccccccc"
         inkscape:path-effect="#path-effect9"
         inkscape:original-d="m 127.89186,76.726357 1.77625,-0.01432 1.18611,-0.0096 0.89815,1.092939 1.08471,1.319947 0.94651,1.479749 0.74968,1.172037 1.25967,2.468864 1.23988,4.897442 0.66892,4.682432 0.31057,2.436776 0.54946,3.941847 0.14334,2.50844 0.0478,2.19788 -0.23889,0.26279 h -0.52558 l -2.26955,0.0478 -3.22515,-18.060811 -4.67353,-5.62234 z" /><path
         style="fill:#afb6c8;fill-opacity:1;stroke:#000000;stroke-width:0.529167;stroke-linecap:round;stroke-linejoin:round;stroke-dasharray:none"
         d="m 76.024419,73.813814 7.058302,-0.656586 a 69.200709,69.200709 176.87505 0 1 5.27994,-0.288258 l 18.121199,-0.295857 a 72.283454,72.283454 1.1609326 0 1 5.28704,0.107141 l 6.47074,0.368254 a 20.130747,20.130747 10.744834 0 1 5.15456,0.978142 19.901314,19.901314 25.828404 0 1 3.82803,1.852884 37.546108,37.546108 33.030343 0 1 2.56441,1.667279 21.940549,21.940549 57.627149 0 1 3.55425,5.012472 12.134411,12.134411 72.337342 0 1 1.14431,3.593674 l 1.1255,5.196493 a 99.855359,99.855359 79.296853 0 1 0.98243,5.197781 l 0.97094,6.004467 a 408.4727,408.4727 81.185766 0 1 0.81083,5.22907 l 0.13085,0.88151 a 94.449345,94.449345 83.161509 0 1 0.62984,5.25196 l 0.664,7.24874 a 81.507875,81.507875 86.62536 0 1 0.31133,5.27971 l 0.33786,12.77099 a 574.60255,574.60255 88.748414 0 1 0.11558,5.29035 l 0.0999,5.79406 a 77.790596,77.790596 90.960245 0 1 -0.0886,5.28787 l -0.63934,12.58483 a 51.355478,51.355478 95.857523 0 1 -0.53933,5.25707 8.3818145,8.3818145 116.81593 0 1 -1.52619,3.01927 10.42855,10.42855 136.60049 0 1 -2.39788,2.26752 10.925823,10.925823 153.86776 0 1 -2.88561,1.41566 8.6323267,8.6323267 8.5693651 0 1 -5.91847,-0.0873 16.925344,16.925344 22.348269 0 1 -2.85597,-1.17413 l -0.12969,-0.0574 a 154.51731,154.51731 22.879226 0 0 -4.87464,-2.05705 50.044068,50.044068 18.871757 0 0 -4.96335,-1.6966 l -1.45639,-0.41459 a 308.37964,308.37964 15.398513 0 0 -5.10152,-1.40505 33.934755,33.934755 10.447331 0 0 -4.91831,-0.90688 l -1.07634,-0.12178 a 59.803765,59.803765 3.9219423 0 0 -5.274117,-0.36158 l -2.593574,-0.0629 a 120.3848,120.3848 2.6477707 0 1 -5.284741,-0.24439 l -4.515515,-0.30838 a 104.25479,104.25479 5.360593 0 1 -5.266828,-0.49421 l -2.342722,-0.27994 a 31.439312,31.439312 11.62486 0 1 -5.164866,-1.06253 l -1.889377,-0.55735 a 21.410266,21.410266 23.480126 0 1 -4.816866,-2.09244 14.74045,14.74045 40.772414 0 1 -2.968629,-2.55996 16.406177,16.406177 54.989096 0 1 -2.724116,-3.88887 21.72796,21.72796 69.396193 0 1 -1.733568,-4.61115 14.583962,14.583962 85.873825 0 1 -0.191761,-2.65818 l -0.0085,-0.12067 a 113.48048,113.48048 87.286049 0 1 -0.250491,-5.2843 l -0.159395,-6.62465 a 89.583901,89.583901 90.313398 0 1 0.02893,-5.28928 l 0.292651,-8.35905 a 99.798096,99.798096 93.523781 0 1 0.325127,-5.2798 l 0.968292,-10.974 a 155.90773,155.90773 96.014688 0 1 0.554399,-5.26178 l 0.980823,-8.003245 a 699.89199,699.89199 97.20353 0 1 0.66354,-5.249862 l 0.272213,-2.090169 A 30.895749,30.895749 102.31485 0 1 61.319977,85.3399 l 0.106667,-0.344378 a 15.924875,15.924875 116.64279 0 1 2.340836,-4.665836 18.900848,18.900848 134.07484 0 1 2.862701,-2.956675 15.495249,15.495249 148.3121 0 1 3.653229,-2.255214 21.394288,21.394288 161.17751 0 1 3.10655,-1.058917 z"
         id="path5"
         inkscape:path-effect="#path-effect6"
         inkscape:original-d="m 73.38996,74.05888 12.32722,-1.146718 23.41216,-0.382241 11.75386,0.66892 4.0613,1.337836 3.48793,2.054538 1.35621,0.955598 2.22728,2.723457 1.9112,3.296814 2.24566,10.368243 1.81564,11.228283 0.90781,6.11583 1.14672,12.51834 0.4778,18.06081 0.19112,11.08494 -0.90782,17.86969 -0.52558,3.39238 -1.76785,2.81901 -2.53234,2.10232 -2.389,1.00338 -3.34459,0.52558 -3.01014,-0.7167 -4.96911,-2.19788 -4.87355,-1.95898 -6.54585,-1.86341 -4.84604,-1.29006 -6.334461,-0.7167 -7.883686,-0.19112 -9.794885,-0.66892 -7.597008,-0.90782 -6.964823,-2.05453 -3.40342,-2.00676 -3.344595,-3.44016 -2.293435,-4.39575 -0.668919,-2.58011 -0.382239,-5.39913 -0.286681,-11.91479 0.477801,-13.64747 1.433396,-16.24518 1.624517,-13.25562 0.955599,-7.337523 1.672299,-5.399132 2.436775,-3.344593 3.249036,-2.866797 3.105695,-1.481177 z" /><ellipse
         style="fill:#010101;fill-opacity:1;stroke:#000000;stroke-width:0.529167;stroke-linecap:round;stroke-linejoin:round;stroke-dasharray:none"
         id="path2"
         cx="98.139961"
         cy="110.29462"
         rx="31.501066"
         ry="24.286297" /><circle
         style="fill:#6eb43d;fill-opacity:1;stroke:#000000;stroke-width:0.529167;stroke-linecap:round;stroke-linejoin:round;stroke-dasharray:none"
         id="path4-9"
         cx="127.52054"
         cy="143.06195"
         r="5.3485417" /><path
         style="fill:#9e9e9e;fill-opacity:1;stroke:#000000;stroke-width:0.529167;stroke-linecap:round;stroke-linejoin:round;stroke-dasharray:none"
         d="m 77.260468,95.996102 c 13.997782,-0.88401 27.872692,-0.969338 41.615652,-0.197025 1.05191,9.578133 1.19365,19.277623 0.33446,29.110563 -13.98337,0.60279 -27.966741,0.52341 -41.950112,-0.14778 -0.578017,-9.49966 -1.048474,-19.01587 0,-28.765758 z"
         id="path1"
         sodipodi:nodetypes="ccccc" /><path
         style="fill:#6eb43d;fill-opacity:1;stroke:#000000;stroke-width:0.529167;stroke-linecap:round;stroke-linejoin:round;stroke-dasharray:none"
         d="m 73.348336,144.69235 v -5.2148 a 1.0583333,1.0583333 135 0 1 1.058333,-1.05833 h 5.620216 a 1.0583333,1.0583333 45 0 1 1.058333,1.05833 l 0,5.31615 a 1.0583333,1.0583333 45 0 0 1.058333,1.05833 h 5.147218 a 1.0583333,1.0583333 45 0 1 1.058333,1.05833 v 5.48508 a 1.0583333,1.0583333 135 0 1 -1.058333,1.05833 h -4.91072 a 1.0583333,1.0583333 135 0 0 -1.058333,1.05833 v 5.24858 a 1.0583333,1.0583333 135 0 1 -1.058333,1.05833 h -5.21479 a 1.0583333,1.0583333 45 0 1 -1.058333,-1.05833 v -5.04586 a 1.0775789,1.0775789 45.51625 0 0 -1.058161,-1.0774 l -5.382655,-0.097 a 1.0775789,1.0775789 45.51625 0 1 -1.058161,-1.0774 v -5.62022 a 1.0635598,1.0635598 134.85887 0 1 1.05832,-1.06354 l 4.740413,-0.0234 a 1.0635598,1.0635598 134.85887 0 0 1.05832,-1.06354 z"
         id="path3"
         inkscape:path-effect="#path-effect10"
         inkscape:original-d="m 73.348336,145.75068 v -7.33146 h 7.736882 v 7.43281 h 7.263884 v 7.60174 h -7.027386 v 7.36524 H 73.99026 v -7.16252 l -7.498977,-0.13515 v -7.73688 z" /><circle
         style="fill:#6eb43d;fill-opacity:1;stroke:#000000;stroke-width:0.529167;stroke-linecap:round;stroke-linejoin:round;stroke-dasharray:none"
         id="path4"
         cx="112.8098"
         cy="154.50113"
         r="5.3485417" /></g></g></svg>
