<?xml version="1.0" encoding="UTF-8" standalone="no"?>
<svg
   viewBox="0 0 300 300"
   x="0px"
   y="0px"
   version="1.1"
   id="svg43"
   sodipodi:docname="noun-sega-master-system-controller-1596713.svg"
   inkscape:version="1.3.1 (91b66b0, 2023-11-16)"
   width="300"
   height="300"
   xmlns:inkscape="http://www.inkscape.org/namespaces/inkscape"
   xmlns:sodipodi="http://sodipodi.sourceforge.net/DTD/sodipodi-0.dtd"
   xmlns="http://www.w3.org/2000/svg"
   xmlns:svg="http://www.w3.org/2000/svg"
   xmlns:rdf="http://www.w3.org/1999/02/22-rdf-syntax-ns#"
   xmlns:cc="http://creativecommons.org/ns#"
   xmlns:dc="http://purl.org/dc/elements/1.1/">
  <defs
     id="defs43" />
  <sodipodi:namedview
     id="namedview43"
     pagecolor="#ffffff"
     bordercolor="#666666"
     borderopacity="1.0"
     inkscape:showpageshadow="2"
     inkscape:pageopacity="0.0"
     inkscape:pagecheckerboard="0"
     inkscape:deskcolor="#d1d1d1"
     inkscape:zoom="2.0117959"
     inkscape:cx="188.38889"
     inkscape:cy="153.34558"
     inkscape:window-width="1680"
     inkscape:window-height="888"
     inkscape:window-x="0"
     inkscape:window-y="25"
     inkscape:window-maximized="0"
     inkscape:current-layer="svg43" />
  <title
     id="title1">Fichier 1Master System Controller</title>
  <g
     id="g1"
     transform="matrix(1.7257411,0,0,1.7257411,17.495438,32.470143)">
    <path
       d="M 91.262696,35.980472 2.90332,35.97266 C 1.3002076,35.974458 0.00123446,37.273887 0,38.877 v 58.455 c 0.00134541,1.602902 1.3004183,2.90197 2.90332,2.90332 h 147.75586 c 1.6029,-0.001 2.90197,-1.300418 2.90332,-2.90332 V 38.877 c -0.001,-1.603113 -1.30021,-2.902542 -2.90332,-2.90434 H 97.96094 M 8.76074,99.60547 H 2.90332 C 1.6485007,99.603592 0.63174138,98.586819 0.62988,97.332 V 38.877 C 0.631599,37.622198 1.6485175,36.605476 2.90332,36.604 H 8.76074 Z M 152.93262,97.332 c -0.002,1.254808 -1.01863,2.271562 -2.27344,2.27344 H 68.46875 V 91.5 h 84.46387 z m 0,-6.67871 H 67.62207 v 8.95215 H 9.60742 V 36.604 h 58.01465 v 19.44922 h 85.31055 z m 0,-35.44727 H 68.46875 V 36.604 h 82.19043 c 1.2548,0.0015 2.27172,1.018198 2.27344,2.273 z"
       fill="#000000"
       id="path1"
       sodipodi:nodetypes="cccccccccccccccccccccccccccccccccccccc"
       style="fill:#000000;fill-opacity:0.99" />
    <path
       d="M 55.52344,74.37793 V 61.95068 A 11.00495,11.00495 0 0 0 44.53125,50.95752 H 32.10449 A 11.00578,11.00578 0 0 0 21.11133,61.95068 V 74.37793 A 11.00495,11.00495 0 0 0 32.10449,85.37012 H 44.53125 A 11.00412,11.00412 0 0 0 55.52344,74.37793 Z M 44.53125,84.95508 H 32.10449 A 10.58962,10.58962 0 0 1 21.52637,74.37793 V 61.95068 A 10.5893,10.5893 0 0 1 32.10449,51.37354 H 44.53125 A 10.5891,10.5891 0 0 1 55.1084,61.95068 V 74.37793 A 10.58943,10.58943 0 0 1 44.53125,84.95508 Z"
       fill="#000000"
       id="path3" />
    <path
       d="m 105.19141,83.51855 a 7.91895,7.91895 0 1 0 -7.919,-7.91845 7.92674,7.92674 0 0 0 7.919,7.91845 z m 0,-14.99023 a 7.07227,7.07227 0 1 1 -7.07325,7.07178 7.08017,7.08017 0 0 1 7.07325,-7.07178 z"
       fill="#000000"
       id="path4" />
    <path
       d="m 105.19141,85.51465 a 9.91455,9.91455 0 1 0 -9.91407,-9.91455 9.92519,9.92519 0 0 0 9.91407,9.91455 z m 0,-19.41309 a 9.499,9.499 0 1 1 -9.5,9.49854 9.50966,9.50966 0 0 1 9.5,-9.49854 z"
       fill="#000000"
       id="path5" />
    <path
       d="m 130.8877,83.51855 a 7.91895,7.91895 0 1 0 -7.918,-7.91845 7.92695,7.92695 0 0 0 7.918,7.91845 z m 0,-14.99023 a 7.07227,7.07227 0 1 1 -7.07227,7.07178 7.08038,7.08038 0 0 1 7.07227,-7.07178 z"
       fill="#000000"
       id="path6" />
    <path
       d="m 130.8877,85.51465 a 9.91455,9.91455 0 1 0 -9.91407,-9.91455 9.92519,9.92519 0 0 0 9.91407,9.91455 z m 0,-19.41309 a 9.499,9.499 0 1 1 -9.499,9.49854 9.50987,9.50987 0 0 1 9.499,-9.49854 z"
       fill="#000000"
       id="path7" />
    <path
       d="m 38.32227,61.36426 a 6.6521,6.6521 0 1 0 6.65136,6.65234 6.65923,6.65923 0 0 0 -6.65136,-6.65234 z m 0,12.94238 a 6.29,6.29 0 1 1 6.291,-6.29 6.29779,6.29779 0 0 1 -6.291,6.29 z"
       fill="#000000"
       id="path8" />
    <path
       d="m 38.0625,59.145 a 1.784,1.784 0 0 0 1.57422,-1.93359 v -3.16356 a 1.784,1.784 0 0 0 -1.57422,-1.93359 1.78332,1.78332 0 0 0 -1.57324,1.93359 v 3.16358 A 1.78332,1.78332 0 0 0 38.0625,59.145 Z m -1.1582,-5.09717 a 1.37644,1.37644 0 0 1 1.1582,-1.51758 1.3771,1.3771 0 0 1 1.15918,1.51758 v 3.16358 A 1.37709,1.37709 0 0 1 38.0625,58.729 1.37643,1.37643 0 0 1 36.9043,57.21143 Z"
       fill="#000000"
       id="path9" />
    <path
       d="m 38.0625,76.48877 a 1.78332,1.78332 0 0 0 -1.57324,1.93359 v 3.16358 a 1.78265,1.78265 0 0 0 1.57324,1.93261 1.78335,1.78335 0 0 0 1.57422,-1.93261 V 78.42236 A 1.784,1.784 0 0 0 38.0625,76.48877 Z m 1.15918,5.09717 a 1.37813,1.37813 0 0 1 -1.15918,1.51855 1.37746,1.37746 0 0 1 -1.1582,-1.51855 v -3.16358 a 1.37694,1.37694 0 0 1 1.1582,-1.51806 1.37761,1.37761 0 0 1 1.15918,1.51806 z"
       fill="#000000"
       id="path10" />
    <path
       d="m 29.57031,68.0166 a 1.78371,1.78371 0 0 0 -1.93359,-1.57422 h -3.16309 a 1.60742,1.60742 0 1 0 0,3.14795 h 3.16309 a 1.78369,1.78369 0 0 0 1.93359,-1.57373 z m -6.61523,0 a 1.37746,1.37746 0 0 1 1.51855,-1.1582 h 3.16309 a 1.20077,1.20077 0 1 1 0,2.31592 H 24.47363 A 1.37749,1.37749 0 0 1 22.95508,68.0166 Z"
       fill="#000000"
       id="path11" />
    <path
       d="m 52.083,66.44238 h -3.16308 a 1.60742,1.60742 0 1 0 0,3.14795 H 52.083 a 1.60742,1.60742 0 1 0 0,-3.14795 z m 0,2.73194 h -3.16308 a 1.20077,1.20077 0 1 1 0,-2.31592 H 52.083 a 1.20077,1.20077 0 1 1 0,2.31592 z"
       fill="#000000"
       id="path12" />
    <path
       d="M 117.334,63.61865 H 93.04785 V 87.90527 H 117.334 Z m -0.415,23.87158 H 93.46289 v -23.456 H 116.919 Z"
       fill="#000000"
       id="path36" />
    <path
       d="M 117.334,58.729 H 93.04785 v 4.01123 H 117.334 Z m -0.415,3.59522 H 93.46289 V 59.145 H 116.919 Z"
       fill="#000000"
       id="path37" />
    <path
       d="m 143.03125,63.61865 h -24.28613 v 24.28662 h 24.28613 z m -0.415,23.87158 h -23.456 v -23.456 h 23.456 z"
       fill="#000000"
       id="path38" />
    <path
       d="m 143.03125,58.729 h -24.28613 v 4.01123 h 24.28613 z m -0.415,3.59522 h -23.456 V 59.145 h 23.456 z"
       fill="#000000"
       id="path39" />
    <path
       d="M 13.80469,91.86914 H 61.86328 V 43.81006 H 13.80469 Z m 1.22949,-0.63086 6.58691,-6.58594 a 14.4721,14.4721 0 0 0 10.627,4.67188 H 44.38672 A 14.34181,14.34181 0 0 0 54.54,85.14453 l 6.09375,6.09375 z M 18.65039,74.88086 V 61.44775 A 13.6125,13.6125 0 0 1 32.24805,47.85107 H 44.38672 A 13.61313,13.61313 0 0 1 57.98438,61.44775 V 74.88086 A 13.614,13.614 0 0 1 44.38672,88.47852 H 32.24805 A 13.61334,13.61334 0 0 1 18.65039,74.88086 Z m 42.582,15.75879 -6.10839,-6.10742 a 14.40188,14.40188 0 0 0 3.707,-9.65137 V 61.44775 A 14.359,14.359 0 0 0 54.8105,51.46289 L 61.23242,45.04 Z M 60.63376,44.44141 54.20602,50.86865 A 14.37944,14.37944 0 0 0 44.38669,47.00342 H 32.24805 A 14.322,14.322 0 0 0 21.93848,51.3457 l -6.9043,-6.90429 z M 14.43555,45.04 l 6.92773,6.92773 a 14.4166,14.4166 0 0 0 -3.55859,9.48 v 13.43313 a 14.44845,14.44845 0 0 0 3.25976,9.12988 l -6.6289,6.62891 z"
       fill="#000000"
       id="path40" />
    <path
       style="opacity:0.99;fill:#464646;fill-opacity:0.998521;stroke:#000000;stroke-width:0.0307062;stroke-linecap:round;stroke-linejoin:round;stroke-dasharray:none;stroke-opacity:1;paint-order:markers fill stroke"
       d="M 2.0470829,99.376223 C 1.5844129,99.175818 1.1574285,98.767147 0.91181343,98.289646 0.72091941,97.918528 0.71647902,97.231924 0.71647902,68.085683 V 38.261471 L 0.95463389,37.810367 C 1.0856191,37.56226 1.388885,37.221085 1.6285581,37.052201 l 0.4357693,-0.307063 3.3178875,-0.02961 3.3178875,-0.02961 v 31.426747 31.426748 l -3.14739,-0.004 c -2.5801797,-0.0033 -3.2119505,-0.03198 -3.5056295,-0.15919 z"
       id="path50" />
    <path
       style="opacity:0.99;fill:#464646;fill-opacity:0.998521;stroke:#000000;stroke-width:0.0375461;stroke-linecap:round;stroke-linejoin:round;stroke-dasharray:none;stroke-opacity:1;paint-order:markers fill stroke"
       d="M 68.458986,45.868772 V 36.60741 l 41.144224,6.98e-4 c 27.91599,4.74e-4 41.29387,0.04226 41.60967,0.129963 0.56209,0.156109 1.15654,0.635342 1.44764,1.167071 0.19554,0.357159 0.21767,1.136788 0.25001,8.808416 l 0.0355,8.416576 H 110.7025 68.458986 Z"
       id="path51" />
    <path
       style="opacity:0.99;fill:#464646;fill-opacity:0.998521;stroke:#000000;stroke-width:0.0375461;stroke-linecap:round;stroke-linejoin:round;stroke-dasharray:none;stroke-opacity:1;paint-order:markers fill stroke"
       d="m 68.458986,95.554727 v -4.004913 h 42.248804 42.24881 l -0.0408,3.160127 -0.0408,3.160127 -0.34241,0.582458 c -0.23778,0.404486 -0.50798,0.662614 -0.8843,0.844786 L 151.1064,99.55964 H 109.78272 68.458986 Z"
       id="path52" />
    <path
       style="opacity:0.99;fill:#464646;fill-opacity:0.998521;stroke:#000000;stroke-width:0.0792456;stroke-linecap:round;stroke-linejoin:round;stroke-dasharray:none;stroke-opacity:1;paint-order:markers fill stroke"
       d="M 9.7736254,68.01915 V 36.585057 H 38.698274 67.622922 v 9.773626 9.773625 h 42.660558 42.66055 V 73.302191 90.472073 H 110.28348 67.622922 v 4.490585 4.490584 H 38.698274 9.7736254 Z M 62.01108,67.821036 62.078508,43.717162 H 37.907207 13.735906 v 24.171301 24.171301 l 24.103873,-0.06743 24.103874,-0.06743 z m 81.10005,5.543151 -0.0728,-14.722435 -25.02841,-0.0626 -25.028403,-0.0626 v 2.109775 c 0,1.230415 0.110099,2.109774 0.264152,2.109774 0.145284,0 0.264152,0.178303 0.264152,0.396228 0,0.217925 -0.118868,0.396228 -0.264152,0.396228 -0.172311,0 -0.264152,4.269067 -0.264152,12.278899 v 12.278901 l 25.101203,1.27e-4 25.10121,1.3e-4 z"
       id="path53" />
    <path
       style="opacity:0.99;fill:#464646;fill-opacity:0.998521;stroke:#000000;stroke-width:0.0265461;stroke-linecap:round;stroke-linejoin:round;stroke-dasharray:none;stroke-opacity:1;paint-order:markers fill stroke"
       d="m 117.31221,75.78909 0.0228,-12.211205 H 105.44083 93.546714 l 0.006,-0.398191 0.006,-0.398192 h 11.890596 11.8906 l -0.0252,-2.079516 -0.0252,-2.079516 h 0.75214 0.75214 l -0.0252,2.079516 -0.0252,2.079516 h 12.12584 12.12583 v 0.398192 0.398191 H 130.8716 118.74827 l 0.0227,12.211205 0.0227,12.211204 h -0.75214 -0.75214 z"
       id="path54" />
    <path
       style="opacity:0.99;fill:#828282;fill-opacity:1;stroke:#000000;stroke-width:0.0216707;stroke-linecap:round;stroke-linejoin:round;stroke-dasharray:none;stroke-opacity:1;paint-order:markers fill stroke"
       d="M 119.18871,75.739007 V 64.036843 h 11.70216 11.70217 v 11.702164 11.702164 h -11.70217 -11.70216 z m 13.57625,9.611565 c 1.34413,-0.260559 2.48583,-0.729259 3.62706,-1.489009 4.59328,-3.057869 5.80091,-9.21916 2.71438,-13.848607 -0.56558,-0.848304 -1.76996,-2.058712 -2.58858,-2.601554 -1.98469,-1.316065 -4.19493,-1.902921 -6.4396,-1.709815 -4.51665,0.388565 -8.13038,3.67292 -8.97755,8.159295 -0.17522,0.927896 -0.17522,2.539411 0,3.467308 0.39228,2.077384 1.29731,3.796355 2.77875,5.277796 1.69807,1.698067 3.64393,2.610105 6.21686,2.913881 0.49297,0.0582 1.98258,-0.0363 2.66868,-0.169295 z"
       id="path55" />
    <path
       style="opacity:0.99;fill:#828282;fill-opacity:1;stroke:#000000;stroke-width:0.0216707;stroke-linecap:round;stroke-linejoin:round;stroke-dasharray:none;stroke-opacity:1;paint-order:markers fill stroke"
       d="M 93.472842,75.739007 V 64.036843 h 11.702168 11.70216 V 75.739007 87.441171 H 105.17501 93.472842 Z m 13.478638,9.640481 c 1.90018,-0.330713 3.66632,-1.241665 5.11779,-2.639683 1.49406,-1.439039 2.421,-3.124136 2.87001,-5.217417 0.22444,-1.046354 0.22444,-2.809351 0,-3.855705 -0.41753,-1.946535 -1.24255,-3.528841 -2.5567,-4.903462 -1.03382,-1.081393 -2.23672,-1.896431 -3.54853,-2.404352 -5.93025,-2.296128 -12.353414,1.351063 -13.449575,7.636915 -0.135861,0.779082 -0.135861,2.418421 0,3.197503 0.423291,2.42733 1.690337,4.617245 3.528267,6.098121 1.907408,1.536855 4.231098,2.323124 6.594028,2.231226 0.44071,-0.01714 1.09083,-0.08156 1.44471,-0.143146 z"
       id="path56" />
    <path
       style="opacity:0.99;fill:#828282;fill-opacity:1;stroke:#000000;stroke-width:0.0216707;stroke-linecap:round;stroke-linejoin:round;stroke-dasharray:none;stroke-opacity:1;paint-order:markers fill stroke"
       d="M 14.447116,67.829211 V 45.472298 h 0.198949 c 0.166005,0 0.735771,0.536921 3.440849,3.242501 l 3.2419,3.2425 -0.399118,0.495691 c -1.34281,1.667727 -2.431806,4.000709 -2.861411,6.130066 -0.290418,1.439469 -0.310554,2.174813 -0.278906,10.185217 0.03322,8.408978 0.01666,8.075966 0.48994,9.849397 0.46799,1.753605 1.265846,3.408554 2.338333,4.850275 l 0.402817,0.541498 -3.087713,3.08834 c -2.574253,2.574775 -3.1208,3.08834 -3.286677,3.08834 h -0.198963 z"
       id="path57" />
    <path
       style="opacity:0.99;fill:#828282;fill-opacity:1;stroke:#000000;stroke-width:0.0216707;stroke-linecap:round;stroke-linejoin:round;stroke-dasharray:none;stroke-opacity:1;paint-order:markers fill stroke"
       d="M 18.618413,48.018298 C 15.987859,45.387234 15.458414,44.824455 15.458414,44.659344 V 44.461 h 22.39303 22.393031 v 0.162861 c 0,0.23338 -5.818742,6.049399 -6.052232,6.049399 -0.09473,0 -0.366962,-0.171857 -0.642508,-0.405609 -1.517357,-1.287215 -3.760637,-2.407969 -5.772849,-2.884145 -1.624136,-0.38434 -1.863182,-0.394308 -9.441551,-0.393668 -4.331688,3.66e-4 -7.270243,0.02902 -7.671331,0.07481 -2.946725,0.336396 -5.76023,1.583298 -7.96693,3.530819 -0.363598,0.320893 -0.719041,0.583442 -0.789874,0.583442 -0.07345,0 -1.486588,-1.358063 -3.288787,-3.160611 z"
       id="path58" />
    <path
       style="opacity:0.99;fill:#828282;fill-opacity:1;stroke:#000000;stroke-width:0.0216707;stroke-linecap:round;stroke-linejoin:round;stroke-dasharray:none;stroke-opacity:1;paint-order:markers fill stroke"
       d="m 58.022879,87.422765 c -1.519463,-1.519847 -2.762659,-2.815954 -2.762659,-2.880238 0,-0.06428 0.177353,-0.333249 0.394119,-0.5977 1.513442,-1.846374 2.54806,-4.15792 3.013128,-6.731935 l 0.168414,-0.932118 v -8.126503 -8.126503 l -0.169436,-0.939063 c -0.488004,-2.704665 -1.637528,-5.145987 -3.34656,-7.107316 -0.168958,-0.193899 -0.276372,-0.390556 -0.276372,-0.505987 0,-0.152286 0.555588,-0.744275 2.871699,-3.059842 2.385912,-2.385354 2.905246,-2.871026 3.070012,-2.871026 h 0.198313 v 22.320794 22.320795 h -0.198999 c -0.165563,0 -0.663193,-0.46431 -2.961659,-2.763358 z"
       id="path59" />
    <path
       style="opacity:0.99;fill:#828282;fill-opacity:1;stroke:#000000;stroke-width:0.0216707;stroke-linecap:round;stroke-linejoin:round;stroke-dasharray:none;stroke-opacity:1;paint-order:markers fill stroke"
       d="m 15.53065,90.998447 c 0,-0.16578 0.497151,-0.696017 2.98004,-3.178366 1.967379,-1.96695 3.029863,-2.979391 3.126657,-2.979391 0.08266,0 0.318841,0.175875 0.541444,0.403195 1.709935,1.74617 4.540212,3.259471 7.076619,3.783747 1.403991,0.290205 1.791284,0.301315 9.571215,0.274558 l 7.5125,-0.02584 0.902945,-0.198207 c 2.566458,-0.563368 4.796245,-1.671431 6.657584,-3.308399 0.294037,-0.258592 0.547239,-0.423408 0.650472,-0.423408 0.236971,0 5.694349,5.452156 5.694349,5.688899 v 0.162183 H 37.887562 15.53065 Z"
       id="path60" />
    <path
       style="opacity:0.99;fill:#9b4e3e;fill-opacity:1;stroke:#000000;stroke-width:0.0216707;stroke-linecap:round;stroke-linejoin:round;stroke-dasharray:none;stroke-opacity:1;paint-order:markers fill stroke"
       d="m 119.18871,60.750124 v -1.553065 h 11.70216 11.70217 v 1.553065 1.553065 h -11.70217 -11.70216 z"
       id="path61" />
    <path
       style="opacity:0.99;fill:#9b4e3e;fill-opacity:1;stroke:#000000;stroke-width:0.0216707;stroke-linecap:round;stroke-linejoin:round;stroke-dasharray:none;stroke-opacity:1;paint-order:markers fill stroke"
       d="m 93.472842,60.750124 v -1.553065 h 11.702168 11.70216 v 1.553065 1.553065 H 105.17501 93.472842 Z"
       id="path62" />
    <path
       style="opacity:0.99;fill:#3c3c3c;fill-opacity:1;stroke:#000000;stroke-width:0.0242941;stroke-linecap:round;stroke-linejoin:round;stroke-dasharray:none;stroke-opacity:1;paint-order:markers fill stroke"
       d="m 37.456577,74.213841 c -2.994613,-0.463709 -5.194614,-2.864705 -5.363893,-5.853947 -0.184364,-3.255635 2.129253,-6.057834 5.395989,-6.535493 2.592727,-0.379107 5.301674,1.06707 6.442759,3.439483 0.764618,1.589708 0.830598,3.519642 0.175449,5.131975 -0.526262,1.295139 -1.740268,2.59782 -3.023725,3.244588 -0.935995,0.471672 -2.592302,0.733549 -3.626579,0.573394 z"
       id="path63" />
    <path
       style="opacity:0.99;fill:#3c3c3c;fill-opacity:1;stroke:#000000;stroke-width:0.0242941;stroke-linecap:round;stroke-linejoin:round;stroke-dasharray:none;stroke-opacity:1;paint-order:markers fill stroke"
       d="m 30.448622,84.788877 c -3.937865,-0.684668 -7.105042,-3.370502 -8.33832,-7.071076 -0.542271,-1.627136 -0.529031,-1.387566 -0.529031,-9.572812 0,-6.81365 0.01168,-7.465076 0.14515,-8.098038 0.940578,-4.460417 4.069923,-7.570777 8.529954,-8.478202 0.6615,-0.134587 1.301153,-0.146208 8.047344,-0.146208 6.573288,0 7.403851,0.01426 8.057548,0.138343 3.818347,0.724791 6.920573,3.393662 8.144404,7.006703 0.540692,1.59625 0.520496,1.224646 0.520496,9.577402 0,7.026282 -0.01065,7.621245 -0.14789,8.259998 -0.476655,2.218516 -1.451054,3.988769 -3.044559,5.531241 -1.474025,1.42682 -2.981734,2.237016 -5.18902,2.788424 -0.463868,0.115881 -1.420656,0.133771 -8.057547,0.15066 -5.897256,0.01501 -7.662944,-0.0037 -8.138529,-0.08643 z m 8.317047,-1.500849 c 0.292385,-0.167688 0.490789,-0.35966 0.647843,-0.626838 l 0.226383,-0.385125 v -2.267451 -2.26745 l -0.227172,-0.38647 c -0.659456,-1.12188 -2.044434,-1.12188 -2.70389,0 l -0.227172,0.38647 v 2.26745 2.267451 l 0.226384,0.385125 c 0.268156,0.456188 0.910395,0.868551 1.352733,0.868551 0.166484,0 0.457332,-0.09973 0.704891,-0.241713 z m 0.914717,-8.74342 c 0.9525,-0.195206 2.164094,-0.776679 2.915949,-1.399432 1.016165,-0.841679 1.82771,-2.135956 2.195873,-3.50205 0.23055,-0.85547 0.247499,-2.332998 0.03623,-3.158235 -0.577411,-2.255409 -2.20361,-4.051805 -4.319351,-4.771416 -2.670911,-0.908435 -5.629825,-0.05922 -7.376393,2.117046 -0.551012,0.686574 -0.849565,1.235683 -1.15792,2.129688 -0.252265,0.731388 -0.264909,0.824963 -0.267859,1.982329 -0.0036,1.394122 0.09356,1.868485 0.600049,2.930992 1.336693,2.80411 4.330545,4.294689 7.373424,3.671078 z M 28.36472,69.517881 c 0.596062,-0.165152 1.209314,-0.920859 1.209314,-1.490229 0,-0.548319 -0.402442,-1.122581 -1.000535,-1.427706 -0.268503,-0.13698 -0.526116,-0.153627 -2.592433,-0.167523 -1.955088,-0.01315 -2.330224,0.0035 -2.537246,0.112515 -0.542012,0.285449 -0.932873,0.914626 -0.929496,1.496224 0.0037,0.645329 0.506957,1.327502 1.11116,1.506338 0.402181,0.119041 4.2904,0.09474 4.739236,-0.02962 z m 24.900403,-0.130346 c 1.128662,-0.699082 0.938864,-2.52606 -0.301729,-2.904421 -0.110124,-0.03359 -1.24555,-0.06026 -2.52317,-0.05927 -2.269953,0.0018 -2.33048,0.006 -2.653221,0.187424 -0.964997,0.542359 -1.090121,1.859695 -0.24883,2.61975 0.174431,0.157589 0.418279,0.308857 0.541885,0.336154 0.123606,0.0273 0.252071,0.05555 0.285479,0.06279 0.03341,0.0072 1.065825,0.0075 2.294261,5.12e-4 l 2.233521,-0.01265 z M 38.517118,59.054651 c 0.432078,-0.18907 0.683307,-0.406125 0.9034,-0.780511 l 0.219377,-0.373169 V 55.63352 53.36607 L 39.412723,52.9796 c -0.659456,-1.121879 -2.044434,-1.121879 -2.70389,0 l -0.227172,0.38647 v 2.26745 2.267451 l 0.226384,0.385125 c 0.157053,0.267179 0.355457,0.459151 0.647843,0.626838 0.454494,0.260659 0.794567,0.302162 1.16123,0.141717 z"
       id="path64" />
    <path
       style="opacity:0.99;fill:#3c3c3c;fill-opacity:1;stroke:#000000;stroke-width:0.0242941;stroke-linecap:round;stroke-linejoin:round;stroke-dasharray:none;stroke-opacity:1;paint-order:markers fill stroke"
       d="m 37.574072,58.488079 c -0.604021,-0.411094 -0.603646,-0.409506 -0.632134,-2.678089 -0.01574,-1.253239 0.0068,-2.149131 0.05861,-2.324748 0.04632,-0.157152 0.214739,-0.41224 0.374269,-0.566863 0.25068,-0.242968 0.343802,-0.281133 0.685962,-0.281133 0.342161,0 0.435282,0.03816 0.685962,0.281133 0.15953,0.154623 0.327951,0.409711 0.374269,0.566863 0.05176,0.175617 0.07435,1.071509 0.05861,2.324748 -0.02412,1.920432 -0.03546,2.052305 -0.195012,2.267451 -0.236153,0.318435 -0.663764,0.592844 -0.923828,0.592844 -0.120444,0 -0.339462,-0.08199 -0.486706,-0.182206 z"
       id="path65" />
    <path
       style="opacity:0.99;fill:#3c3c3c;fill-opacity:1;stroke:#000000;stroke-width:0.0242941;stroke-linecap:round;stroke-linejoin:round;stroke-dasharray:none;stroke-opacity:1;paint-order:markers fill stroke"
       d="m 25.777704,69.119585 c -1.822676,-0.04033 -1.973868,-0.05504 -2.18647,-0.212729 -0.28878,-0.214196 -0.592806,-0.656706 -0.592806,-0.86283 0,-0.291149 0.265485,-0.721462 0.569056,-0.922356 0.300318,-0.198741 0.30444,-0.199079 2.559255,-0.209842 2.062535,-0.0098 2.278061,0.0021 2.484503,0.137333 0.472732,0.309746 0.633142,1.062372 0.334264,1.568333 -0.17115,0.289733 -0.710492,0.589513 -1.012598,0.562826 -0.10842,-0.0096 -1.078262,-0.03691 -2.155204,-0.06073 z"
       id="path66" />
    <path
       style="opacity:0.99;fill:#3c3c3c;fill-opacity:1;stroke:#000000;stroke-width:0.0242941;stroke-linecap:round;stroke-linejoin:round;stroke-dasharray:none;stroke-opacity:1;paint-order:markers fill stroke"
       d="m 37.574072,82.863173 c -0.604021,-0.411094 -0.603646,-0.409506 -0.632134,-2.678088 -0.01574,-1.25324 0.0068,-2.149132 0.05861,-2.324749 0.04632,-0.157152 0.214739,-0.41224 0.374269,-0.566863 0.25068,-0.242968 0.343802,-0.281133 0.685962,-0.281133 0.342161,0 0.435282,0.03817 0.685962,0.281133 0.15953,0.154623 0.327951,0.409711 0.374269,0.566863 0.05176,0.175617 0.07435,1.071509 0.05861,2.324749 -0.02412,1.920431 -0.03546,2.052304 -0.195012,2.26745 -0.236153,0.318435 -0.663764,0.592844 -0.923828,0.592844 -0.120444,0 -0.339462,-0.08199 -0.486706,-0.182206 z"
       id="path67" />
    <path
       style="opacity:0.99;fill:#3c3c3c;fill-opacity:1;stroke:#000000;stroke-width:0.0242941;stroke-linecap:round;stroke-linejoin:round;stroke-dasharray:none;stroke-opacity:1;paint-order:markers fill stroke"
       d="m 48.063469,69.035773 c -0.557725,-0.280728 -0.777515,-1.058757 -0.45057,-1.594962 0.32553,-0.533885 0.330474,-0.53479 2.913839,-0.533666 1.996845,8.69e-4 2.361456,0.01956 2.517826,0.129088 0.325878,0.228254 0.482363,0.553812 0.482933,1.004713 4.52e-4,0.35755 -0.03811,0.466345 -0.25143,0.7093 -0.13858,0.157833 -0.340259,0.309131 -0.448176,0.336216 -0.107916,0.02709 -1.16976,0.05409 -2.359653,0.06001 -1.777548,0.0088 -2.206488,-0.0109 -2.404769,-0.110703 z"
       id="path68"
       inkscape:label="path68" />
    <path
       style="opacity:0.99;fill:#3c3c3c;fill-opacity:1;stroke:#000000;stroke-width:0.0242941;stroke-linecap:round;stroke-linejoin:round;stroke-dasharray:none;stroke-opacity:1;paint-order:markers fill stroke"
       d="m 30.974995,88.382335 c -5.624619,-0.555421 -10.355819,-4.544104 -11.813489,-9.959473 -0.459569,-1.707338 -0.463848,-1.812636 -0.43415,-10.682775 0.02715,-8.109399 0.0279,-8.141426 0.210286,-8.948332 0.83845,-3.709543 2.791391,-6.603841 5.824513,-8.632049 1.778148,-1.189023 3.769489,-1.920794 5.929409,-2.178918 0.539784,-0.06451 2.967958,-0.0829 8.138528,-0.06163 7.271827,0.0299 7.379916,0.03269 8.179018,0.210998 1.268821,0.283116 2.260725,0.631628 3.401176,1.195024 3.716421,1.835955 6.38512,5.281891 7.248224,9.359212 0.300087,1.41762 0.337391,2.685217 0.302243,10.270405 -0.03597,7.761585 -0.03121,7.667484 -0.474598,9.393724 -1.173754,4.569784 -4.959402,8.392051 -9.512237,9.604251 -1.766915,0.470445 -1.522125,0.457639 -9.184317,0.480446 -3.89718,0.0116 -7.413753,-0.0113 -7.814606,-0.05088 z m 15.842157,-3.210587 c 0.951781,-0.233609 1.861808,-0.553156 2.540389,-0.892032 3.137892,-1.567031 5.306702,-4.402256 6.010792,-7.857738 0.131614,-0.645926 0.143717,-1.346369 0.143717,-8.317479 v -7.612156 l -0.218211,-0.910815 c -0.929033,-3.877799 -3.609566,-6.844463 -7.299997,-8.079229 -1.724357,-0.576946 -1.5315,-0.565641 -9.649633,-0.565641 -8.054136,0 -7.957779,-0.0054 -9.616906,0.534249 -3.386757,1.101481 -6.067918,3.801875 -7.137962,7.189164 -0.501143,1.586399 -0.493952,1.447146 -0.493952,9.565898 v 7.409705 l 0.186004,0.841163 c 0.521756,2.35953 1.525995,4.191435 3.174776,5.791341 1.768185,1.715772 3.907441,2.736788 6.437846,3.072631 0.133617,0.01773 3.613749,0.02554 7.733626,0.01735 7.329712,-0.01457 7.505703,-0.01858 8.189511,-0.186413 z"
       id="path69" />
    <path
       style="opacity:0.99;fill:#3c3c3c;fill-opacity:1;stroke:#000000;stroke-width:0.0249256;stroke-linecap:round;stroke-linejoin:round;stroke-dasharray:none;stroke-opacity:1;paint-order:markers fill stroke"
       d="m 103.85655,82.509096 c -3.10164,-0.659456 -5.276509,-3.027383 -5.649455,-6.150931 -0.491958,-4.120324 2.786705,-7.771297 6.978825,-7.771297 3.23603,0 5.97492,2.117984 6.82259,5.275913 0.25173,0.937785 0.25199,2.551839 5.6e-4,3.485096 -0.65552,2.433172 -2.51755,4.327048 -4.95373,5.038467 -0.75979,0.221875 -2.43095,0.286006 -3.19879,0.122752 z"
       id="path70" />
    <path
       style="opacity:0.99;fill:#3c3c3c;fill-opacity:1;stroke:#000000;stroke-width:0.0116545;stroke-linecap:round;stroke-linejoin:round;stroke-dasharray:none;stroke-opacity:1;paint-order:markers fill stroke"
       d="m 104.47184,85.054776 c -2.24006,-0.1613 -4.42313,-1.175374 -6.033134,-2.802497 -1.362879,-1.377372 -2.249717,-3.11508 -2.605759,-5.10583 -0.07797,-0.435943 -0.08928,-0.627821 -0.09011,-1.528029 -10e-4,-1.143462 0.03588,-1.46918 0.270887,-2.389177 0.323881,-1.267924 0.915986,-2.45698 1.760397,-3.535205 0.32114,-0.410063 1.258851,-1.322463 1.695777,-1.650005 1.332482,-0.998899 2.856892,-1.62378 4.507852,-1.84785 0.6157,-0.08356 1.78611,-0.08354 2.40861,5.7e-5 1.03849,0.139455 1.95046,0.407963 2.8461,0.837962 1.04233,0.500425 1.85749,1.068848 2.61495,1.823441 1.54384,1.53799 2.46042,3.396145 2.76005,5.595324 0.0648,0.475583 0.0648,1.816473 0,2.292056 -0.38552,2.829617 -1.86326,5.215842 -4.18455,6.75712 -1.37965,0.916054 -2.91911,1.434558 -4.61928,1.555815 -0.60057,0.04283 -0.6959,0.04261 -1.33179,-0.0032 z m 1.37064,-1.552259 c 3.12483,-0.269296 5.76269,-2.305273 6.83183,-5.273014 0.13121,-0.364216 0.27631,-0.938082 0.36104,-1.427876 0.0933,-0.539641 0.0933,-1.865622 0,-2.405264 -0.30367,-1.755514 -1.04939,-3.216449 -2.24608,-4.400258 -0.69276,-0.685302 -1.27313,-1.101043 -2.11086,-1.512099 -2.82198,-1.384686 -6.16306,-0.979584 -8.5855,1.040982 -1.44504,1.205319 -2.397537,2.888073 -2.745424,4.850283 -0.07035,0.396795 -0.07008,2.052973 3.99e-4,2.447449 0.266977,1.494307 0.856486,2.777159 1.786708,3.88812 1.326817,1.584612 3.258177,2.588673 5.367617,2.790476 0.48188,0.0461 0.8158,0.0464 1.34027,0.0012 z"
       id="path71" />
    <path
       style="opacity:0.99;fill:#3c3c3c;fill-opacity:1;stroke:#000000;stroke-width:0.0116545;stroke-linecap:round;stroke-linejoin:round;stroke-dasharray:none;stroke-opacity:1;paint-order:markers fill stroke"
       d="m 129.92849,82.591455 c -3.00215,-0.428354 -5.36518,-2.667724 -5.97115,-5.658647 -0.0777,-0.383478 -0.0892,-0.555608 -0.0892,-1.333813 0,-1.000853 0.0568,-1.394819 0.31588,-2.191057 0.6072,-1.866131 2.05679,-3.467774 3.85469,-4.259028 2.34086,-1.030212 5.05664,-0.716135 7.099,0.820989 1.90233,1.431732 2.98038,3.820223 2.78047,6.160294 -0.0827,0.968218 -0.29172,1.731901 -0.7052,2.576675 -0.99593,2.03476 -2.84657,3.422768 -5.13408,3.850633 -0.45859,0.08578 -1.65484,0.104664 -2.15041,0.03395 z"
       id="path72" />
    <path
       style="opacity:0.99;fill:#3c3c3c;fill-opacity:1;stroke:#000000;stroke-width:0.0116545;stroke-linecap:round;stroke-linejoin:round;stroke-dasharray:none;stroke-opacity:1;paint-order:markers fill stroke"
       d="m 130.20043,85.060007 c -3.09779,-0.244275 -5.812,-1.912497 -7.43238,-4.568133 -0.63602,-1.042378 -1.07753,-2.285331 -1.27573,-3.591457 -0.0948,-0.624571 -0.0951,-1.986916 -7.1e-4,-2.602843 0.32493,-2.119226 1.23011,-3.926596 2.70517,-5.401437 1.91031,-1.91002 4.54813,-2.915721 7.22737,-2.755521 0.65472,0.03915 0.98467,0.08487 1.56918,0.217443 2.57892,0.584933 4.79679,2.227466 6.12135,4.533415 0.56567,0.9848 0.95497,2.100586 1.15452,3.308979 0.10084,0.610732 0.10048,2.190203 -6.5e-4,2.797085 -0.27183,1.631271 -0.85982,3.035019 -1.79811,4.292749 -0.35533,0.476311 -1.14362,1.299832 -1.58809,1.659063 -1.04579,0.845245 -2.34997,1.500636 -3.65964,1.839077 -0.88105,0.227678 -2.14204,0.34099 -3.02228,0.27158 z m 1.34027,-1.5567 c 3.17452,-0.280832 5.86216,-2.385017 6.85584,-5.36751 0.28313,-0.849797 0.3722,-1.35881 0.39748,-2.271483 0.014,-0.505594 0.005,-0.919063 -0.0249,-1.165452 -0.2889,-2.367439 -1.57421,-4.450234 -3.53782,-5.732883 -1.71847,-1.122521 -3.88274,-1.549461 -5.84541,-1.153108 -3.65282,0.737674 -6.26347,3.778216 -6.41842,7.475337 -0.0737,1.758237 0.44378,3.472215 1.4947,4.950819 0.30402,0.427757 1.02073,1.186083 1.44243,1.526187 1.58405,1.277569 3.64777,1.91399 5.6361,1.738093 z"
       id="path73" />
  </g>
  <metadata
     id="metadata1">
    <rdf:RDF>
      <cc:Work
         rdf:about="">
        <dc:title>Fichier 1Master System Controller</dc:title>
      </cc:Work>
    </rdf:RDF>
  </metadata>
</svg>
